<svg xmlns="http://www.w3.org/2000/svg" viewBox="0 0 24 24"><path d="M9.7 11.2c1.3-.6 2-1.6 2-3.1 0-2.9-2.2-3.7-4.7-3.7H0v14.8h7.2c2.7 0 5.2-1.3 5.2-4.3 0-1.9-.9-3.2-2.7-3.7zM3.3 7h3c1.2 0 2.2.3 2.2 1.7 0 1.3-.8 1.8-2 1.8H3.2V7.1zm3.5 9.7H3.3v-4.1h3.5c1.4 0 2.3.6 2.3 2.1s-1.1 2-2.4 2zm14.9-10h-6V5.2h6v1.5zM24 14c0-3.2-1.8-5.8-5.2-5.8-3.3 0-5.5 2.5-5.5 5.7 0 3.3 2.1 5.6 5.5 5.6 2.6 0 4.2-1.1 5-3.6h-2.6c-.3.9-1.4 1.4-2.3 1.4-1.7 0-2.6-1-2.6-2.7H24v-.5zm-7.7-1.3c.1-1.4 1-2.3 2.4-2.3 1.5 0 2.2.9 2.3 2.3h-4.8z"/></svg>