<svg xmlns="http://www.w3.org/2000/svg" viewBox="0 0 24 24"><path d="M8 19.3c0 .1-.1.2-.3.2-.2 0-.3-.1-.3-.2s.1-.2.3-.2c.1 0 .3.1.3.2zm-1.5-.2c0 .1.1.2.2.2s.3 0 .3-.1-.1-.2-.2-.3c-.1 0-.3 0-.3.1zm2.1-.1c-.1 0-.2.1-.2.2s.1.2.3.1c.1 0 .2-.1.2-.2s-.1-.2-.3-.1zm3.2-19C5.1 0 0 5.2 0 12.1 0 17.6 3.4 22.3 8.2 24c.6.1.8-.3.8-.6v-3s-3.4.7-4.1-1.5c0 0-.6-1.4-1.3-1.8 0 0-1.1-.8.1-.8 0 0 1.2.1 1.9 1.3 1.1 1.9 2.8 1.4 3.5 1 .1-.8.4-1.3.8-1.7-2.7-.3-5.4-.7-5.4-5.5 0-1.4.4-2 1.1-2.9-.1-.3-.5-1.7.1-3.4C6.7 4.8 9 6.4 9 6.4c1-.3 2-.4 3-.4s2.1.1 3 .4c0 0 2.3-1.7 3.3-1.3.7 1.7.3 3 .1 3.4.8.9 1.2 1.6 1.2 2.9 0 4.8-2.8 5.2-5.6 5.5.4.4.8 1.1.8 2.3v4.1c0 .3.2.7.8.6 4.8-1.6 8.1-6.4 8.1-11.9 0-6.9-5.4-12.1-12.2-12.1zM4.7 17.1c-.1.1 0 .2 0 .3.1.1.2.1.3.1.1 0 0-.2 0-.3-.1-.1-.2-.1-.3 0zm-.5-.4c0 .1 0 .1.1.2s.2 0 .2 0c0-.1 0-.1-.1-.2h-.2zm1.6 1.8c-.1.1 0 .2.1.3.1.1.3.1.3 0 .1-.1 0-.2-.1-.3-.1-.1-.3-.1-.3 0zm-.6-.7c-.1 0-.1.2 0 .3.1.1.2.2.3.1.1-.1.1-.2 0-.3-.1-.1-.2-.2-.3-.1z"/></svg>