<svg xmlns="http://www.w3.org/2000/svg" viewBox="0 0 174 123"><path d="M173.926 121.585c-4.644-4.298-9.37-8.509-13.977-12.846-3.841-3.62-7.581-7.346-11.318-11.078-1.457-1.458-1.381-2.923-.158-4.686 3.904-5.626 7.658-11.352 11.412-17.072.386-.592-1.239-2.013-1.799-1.539-1.096.928-13.666 18.779-19.58 26.262-19.4 26.039-35.992-13.452-29.063-43.154C113.347 46.637 130.468.436 119.405 0c-1.146-.043-7.72 5.882-12.427 25.39-3.2 13.259-4.215 26.818-4.352 40.457-.019 1.894-.647 3.931-1.37 5.62-6.225 14.524-22.301 26.723-22.35 26.351-1.327-9.857-3.182-21.456-3.929-31.358-1.083-14.381-2.403-29.06-3.393-43.452-1.233-17.995-5.821-23.463-8.193-1.082 2.902 3.374 3.761-10.533 4.52-7.862 3.131 27.743 2.82 55.244 6.905 84.109-3.482-1.706-5.997-3.14-8.66-4.203-9.033-3.601-43.4-12.223-57.147-3.047C2.892 95-.278 100.593.019 107.678c.28 6.651 5.323 10.542 11.13 12.779 7.981 3.078 16.274 2.991 24.529 1.489 11.58-2.106 21.946-7.396 32.234-12.825 2.271-1.196 5.802-3.259 8.079-4.443.706 2.825.946 5.116 1.411 7.589 1.152 6.125 4.738 2.395 4.582-.881-.106-2.246-1.058-4.234-1.469-6.926-.334-2.181-.295-3.558 1.519-4.804 14.762-10.144 19.777-23.746 20.801-25.309.587 5.053.859 9.265 1.566 13.414 4.327 25.428 19.92 28.309 26.603 24.457 5.796-2.835 9.864-7.99 12.092-11.134.766-1.155 2.175-1.588 3.59-.186.224.218.402.376.551.494 24.436 25.286 27.356 20.788 26.679 20.16l.01.033zM70.82 103.539c-12.203 6.721-24.552 13.322-38.625 14.858-5.849.635-31.812-.462-26.7-15.808 4.274-12.835 21.508-11.246 30.246-10.742C56.613 93.062 70.07 100.826 73 102.271c0 0-1.814 1.06-2.179 1.259l-.001.009zm47.592-99.001c1.78-3.14 1.461 5.047 1.28 7.507-.865 11.84-5.285 22.772-8.828 33.922-.865 2.735-1.861 5.43-3.163 8.037.623-17.168 2.908-33.94 10.721-49.465l-.01-.001z"/></svg>