<svg xmlns="http://www.w3.org/2000/svg" viewBox="0 0 24 24"><path d="M4.2 12l.2 2.4-.2 2.6c0 .1-.1.2-.2.2s-.2-.1-.2-.2l-.2-2.6.2-2.4c0-.1.1-.2.2-.2s.2.1.2.2zm.8-1.7c-.1 0-.2.1-.2.2l-.2 4 .2 2.6c0 .1.1.2.2.2s.2-.1.2-.2l.2-2.6-.2-4c0-.1-.1-.2-.2-.2zm1-.9c-.1 0-.2.1-.2.2l-.2 4.9.2 2.5c0 .1.1.2.2.2s.2-.1.2-.2l.2-2.5-.2-4.9c0-.1-.1-.2-.2-.2zM.3 13c-.1 0-.1 0-.1.1L0 14.4l.2 1.3c0 .1 0 .1.1.1s.1 0 .1-.1l.2-1.3-.2-1.3c0-.1 0-.1-.1-.1zm.9-.8c-.1 0-.1 0-.1.1l-.2 2.2.2 2.1c0 .1 0 .1.1.1s.1 0 .1-.1l.3-2.1-.3-2.2c0-.1-.1-.1-.1-.1zm.9-.4c-.1 0-.1.1-.1.1l-.2 2.6L2 17c0 .1.1.1.1.1.1 0 .1-.1.1-.1l.3-2.5-.3-2.6c0-.1-.1-.1-.1-.1zm.9-.1c-.1 0-.1.1-.1.1l-.2 2.6.2 2.5c0 .1.1.1.1.1.1 0 .1-.1.1-.1l.2-2.5-.2-2.6c0-.1-.1-.1-.1-.1zm9.1-4.2s-.1-.1-.2-.1-.2 0-.2.1c-.1.1-.1.2-.1.3l-.1 6.6.1 1.2.1 1.2c0 .2.2.3.3.3.2 0 .3-.1.3-.3l.1-2.4-.1-6.7c0-.1-.1-.2-.2-.3zm-1 .6c-.1 0-.1-.1-.2-.1s-.1 0-.2.1-.1.1-.1.3v.1l-.1 6 .1 2.5c0 .1 0 .1.1.2s.1.1.2.1.2 0 .2-.1c.1-.1.1-.1.1-.2v-.3l.1-2.2-.1-6.1c0-.1-.1-.2-.1-.3zm-4.2.8c-.1 0-.2.1-.2.2l-.2 5.3.2 2.5c0 .1.1.2.2.2s.2-.1.2-.2l.2-2.5-.2-5.3c0-.1-.1-.2-.2-.2zM21 11.3c-.4 0-.8.1-1.1.2-.2-2.7-2.5-4.7-5.2-4.7-.7 0-1.3.1-1.9.4-.2.1-.3.2-.3.3v9.4c0 .2.1.3.3.3H21c1.6 0 2.9-1.3 2.9-2.9 0-1.6-1.3-3-2.9-3zM9.9 9c-.2 0-.3.1-.3.3l-.1 5.1.1 2.5c0 .2.1.3.3.3.2 0 .3-.1.3-.3l.1-2.5-.1-5.1c0-.2-.1-.3-.3-.3zm-2-.3c-.1 0-.2.1-.2.3l-.1 5.4.1 2.5c0 .1.1.2.2.2s.2-.1.3-.2l.2-2.5L8.2 9c0-.1-.1-.3-.3-.3zm1 .1c-.1 0-.3.1-.3.3l-.1 5.3.1 2.5c0 .1.1.3.3.3.1 0 .3-.1.3-.3l.2-2.5-.2-5.3c0-.1-.1-.3-.3-.3z"/></svg>