<svg><defs/><symbol id="behance" viewBox="0 0 24 24">
  <title>Behance icon</title>
  <path d="M9.7 11.2c1.3-0.6 2-1.6 2-3.1 0-2.9-2.2-3.7-4.7-3.7l-7 0 0 14.8 7.2 0c2.7 0 5.2-1.3 5.2-4.3 0-1.9-0.9-3.2-2.7-3.7Zm-6.4-4.2l3 0c1.2 0 2.2 0.3 2.2 1.7 0 1.3-0.8 1.8-2 1.8l-3.3 0 0-3.4Zm3.5 9.7l-3.5 0 0-4.1 3.5 0c1.4 0 2.3 0.6 2.3 2.1 0 1.5-1.1 2-2.4 2Zm14.9-10l-6 0 0-1.5 6 0 0 1.5Zm2.3 7.3c0-3.2-1.8-5.8-5.2-5.8 -3.3 0-5.5 2.5-5.5 5.7 0 3.3 2.1 5.6 5.5 5.6 2.6 0 4.2-1.1 5-3.6l-2.6 0c-0.3 0.9-1.4 1.4-2.3 1.4 -1.7 0-2.6-1-2.6-2.7l7.7 0c0-0.2 0-0.4 0-0.5Zm-7.7-1.3c0.1-1.4 1-2.3 2.4-2.3 1.5 0 2.2 0.9 2.3 2.3l-4.8 0Z"/>
</symbol><symbol id="facebook" viewBox="0 0 24 24">
    <title>Facebook icon</title>
    <path d="M9.4 24l0-10.7 -3.6 0 0-4.3 3.6 0 0-3.4c0-3.7 2.2-5.6 5.5-5.6 1.6 0 2.9 0.1 3.3 0.2l0 3.8 -2.3 0c-1.8 0-2.1 0.8-2.1 2.1l0 2.9 4 0 -0.5 4.3 -3.4 0 0 10.7"/>
</symbol><symbol id="github" viewBox="0 0 24 24">
  <title>Github icon</title>
  <path d="M8 19.3c0 0.1-0.1 0.2-0.3 0.2 -0.2 0-0.3-0.1-0.3-0.2 0-0.1 0.1-0.2 0.3-0.2 0.1 0 0.3 0.1 0.3 0.2Zm-1.5-0.2c0 0.1 0.1 0.2 0.2 0.2 0.1 0 0.3 0 0.3-0.1 0-0.1-0.1-0.2-0.2-0.3 -0.1 0-0.3 0-0.3 0.1Zm2.1-0.1c-0.1 0-0.2 0.1-0.2 0.2 0 0.1 0.1 0.2 0.3 0.1 0.1 0 0.2-0.1 0.2-0.2 0-0.1-0.1-0.2-0.3-0.1Zm3.2-19c-6.7 0-11.8 5.2-11.8 12.1 0 5.5 3.4 10.2 8.2 11.9 0.6 0.1 0.8-0.3 0.8-0.6 0-0.3 0-2 0-3 0 0-3.4 0.7-4.1-1.5 0 0-0.6-1.4-1.3-1.8 0 0-1.1-0.8 0.1-0.8 0 0 1.2 0.1 1.9 1.3 1.1 1.9 2.8 1.4 3.5 1 0.1-0.8 0.4-1.3 0.8-1.7 -2.7-0.3-5.4-0.7-5.4-5.5 0-1.4 0.4-2 1.1-2.9 -0.1-0.3-0.5-1.7 0.1-3.4 1-0.3 3.3 1.3 3.3 1.3 1-0.3 2-0.4 3-0.4 1 0 2.1 0.1 3 0.4 0 0 2.3-1.7 3.3-1.3 0.7 1.7 0.3 3 0.1 3.4 0.8 0.9 1.2 1.6 1.2 2.9 0 4.8-2.8 5.2-5.6 5.5 0.4 0.4 0.8 1.1 0.8 2.3 0 1.7 0 3.7 0 4.1 0 0.3 0.2 0.7 0.8 0.6 4.8-1.6 8.1-6.4 8.1-11.9 0-6.9-5.4-12.1-12.2-12.1Zm-7.1 17.1c-0.1 0.1 0 0.2 0 0.3 0.1 0.1 0.2 0.1 0.3 0.1 0.1 0 0-0.2 0-0.3 -0.1-0.1-0.2-0.1-0.3 0Zm-0.5-0.4c0 0.1 0 0.1 0.1 0.2 0.1 0.1 0.2 0 0.2 0 0-0.1 0-0.1-0.1-0.2 -0.1 0-0.2 0-0.2 0Zm1.6 1.8c-0.1 0.1 0 0.2 0.1 0.3 0.1 0.1 0.3 0.1 0.3 0 0.1-0.1 0-0.2-0.1-0.3 -0.1-0.1-0.3-0.1-0.3 0Zm-0.6-0.7c-0.1 0-0.1 0.2 0 0.3 0.1 0.1 0.2 0.2 0.3 0.1 0.1-0.1 0.1-0.2 0-0.3 -0.1-0.1-0.2-0.2-0.3-0.1Z"/>
</symbol><symbol id="google-plus" viewBox="0 0 24 24">
  <title>Google plus icon</title>
  <path d="M14.5 11c0.1 0.4 0.1 0.7 0.1 1.2 0 4.1-2.8 7-6.9 7 -4 0-7.2-3.2-7.2-7.2 0-4 3.2-7.2 7.2-7.2 1.9 0 3.6 0.7 4.8 1.9l-2 1.9c-0.5-0.5-1.5-1.1-2.9-1.1 -2.5 0-4.5 2-4.5 4.5 0 2.5 2 4.5 4.5 4.5 2.8 0 3.9-2.1 4.1-3.1l-4.1 0 0-2.5 6.8 0 0 0Zm7 0.2l0-2.1 -2.1 0 0 2.1 -2.1 0 0 2.1 2.1 0 0 2.1 2.1 0 0-2.1 2.1 0 0-2.1 -2.1 0Z"/>
</symbol><symbol id="hans-coding" viewBox="0 0 500 500">
  <title>Hans is coding</title>
  <path d="M250.5 429.9c-99.3 0-180-80.7-180-180 0-99.3 80.7-180 180-180 99.3 0 180 80.7 180 180 0 99.2-80.7 180-180 180Zm0-354.4c-96.1 0-174.3 78.2-174.3 174.3 0 96.1 78.2 174.3 174.3 174.3 96.1 0 174.3-78.2 174.3-174.3 0.1-96.1-78.1-174.3-174.3-174.3ZM330.3 332.1c-0.6 0-1.3-0.2-1.8-0.7l-159.5-159.5c-1-1-1-2.6 0-3.6 1-1 2.6-1 3.6 0l159.5 159.5c1 1 1 2.6 0 3.6 -0.5 0.5-1.2 0.7-1.8 0.7ZM170.8 332.1c-0.6 0-1.3-0.2-1.8-0.7 -1-1-1-2.6 0-3.6l159.5-159.5c1-1 2.6-1 3.6 0 1 1 1 2.6 0 3.6l-159.5 159.5c-0.5 0.5-1.2 0.7-1.8 0.7Z" fill="#333"/>
  <path d="M358.1 259.1l0-26.7c0-0.4-0.1-0.7-0.5-0.9 -5.7-3.5-11.5-7.1-17.2-10.7 -0.4-0.2-0.6-0.3-1 0 -5.8 3.6-11.5 7.2-17.3 10.8 -0.4 0.2-0.4 0.5-0.4 0.9l0 26.7c-0.2-0.1-0.4-0.2-0.5-0.3 -1.9-1.1-3.8-2.2-5.7-3.4 -0.3-0.2-0.4-0.4-0.4-0.7l0-26.3c0-0.3 0.1-0.5 0.4-0.7 8-5 16-9.9 24-14.9 0.3-0.2 0.5-0.2 0.8 0 8 5 16 9.9 24 14.8 0.3 0.2 0.4 0.4 0.4 0.7l0 26.2c0 0.2-0.1 0.5-0.3 0.7 -1.9 1.2-3.9 2.3-5.9 3.5 -0.1 0.2-0.2 0.3-0.4 0.3ZM335.9 230.6l0 30.8c0 0.5 0.1 0.8 0.6 1.1 1 0.5 2 1.1 3 1.7 0.3 0.2 0.5 0.2 0.8 0 1-0.6 2-1.2 3.1-1.8 0.4-0.2 0.5-0.5 0.5-0.9l0-30.9c0.2 0.1 0.3 0.1 0.4 0.2 2.2 1.3 4.4 2.7 6.7 4 0.3 0.2 0.4 0.4 0.4 0.8l0 27.4c0 0.4-0.1 0.6-0.4 0.8 -3.6 2.2-7.1 4.4-10.7 6.7 -0.3 0.2-0.5 0.2-0.8 0 -3.6-2.2-7.1-4.5-10.7-6.7 -0.3-0.2-0.4-0.4-0.4-0.7l0-27.4c0-0.2 0.1-0.6 0.3-0.7l6.9-4.2c0.1-0.1 0.2-0.1 0.3-0.2Zm-159.2-7c-3.6-0.2-6.3 1.7-7 4.9 -0.5 2.4 0.3 4.4 2.3 5.8 2.4 1.6 3.3 3.9 3.9 6.5 0.4 2 0 3.9-0.9 5.7 -1.7 3.7-3.4 7.3-5.2 10.9 0 0.1-0.1 0.1-0.2 0.2 -0.6-1.9-1.1-3.8-1.6-5.6 -1.4-4.9-2.9-9.8-4.3-14.7 -0.3-1-0.3-2.1-0.2-3.1 0.1-1.1 0.9-1.7 2-1.7l2.2 0 0-2c0-0.4-0.3-0.3-0.5-0.3l-14.6 0c-0.4 0-0.6 0.1-0.6 0.6l0 1.7c1.4 0.2 2.1 1.2 2.5 2.3 1.1 3 2.1 5.9 3.1 8.9 0.3 0.8 0.5 1.6 0.7 2.4 0 0.2 0.1 0.4 0 0.6 -1.5 3.6-3.1 7.1-4.6 10.6 0 0.1-0.1 0.1-0.2 0.3 -0.3-1.1-0.5-2.1-0.8-3.2l-4.5-18.9c-0.2-1-0.1-1.9 0.7-2.6 0.2-0.2 0.4-0.3 0.7-0.4l0-2.2 -13.3 0c3.4-6.1 8.3-10.1 14.8-12.2 9.6-2.8 17.9-0.8 25.6 5.5ZM149.5 267c-2.5-1.1-4.6-2.4-6.6-4 -5.2-4.4-8.3-9.9-9.1-16.7 -0.6-4.4-0.1-8.7 1.5-12.9 0.2-0.5 0.5-0.7 1-0.7 1.2 0 2.1 0.4 2.9 1.3 0.2 0.2 0.4 0.5 0.5 0.8 3.2 10.6 6.5 21.2 9.7 31.8 0 0 0 0.1 0.1 0.4Zm20.9 0c0.8-1.8 1.5-3.4 2.2-5.1 3.2-7.6 6.4-15.2 8.9-23.1 0.9-2.7 1.2-5.4 0.8-8.2l0-0.2c7 11.4 3.6 29.5-11.9 36.6Zm-16.9 1.6c2.2-5.5 4.4-10.8 6.7-16.3 2 5.5 3.9 10.8 5.8 16.3 -4.2 1-8.3 1-12.5 0Z" fill="#333"/>
  <path d="M234.6 165.9l-0.9-0.9c-2.9-2.9-3.8-7.1-2.7-10.8 -2.9-0.7-5.1-3.3-5.1-6.4 0-3.6 2.9-6.5 6.5-6.5 3.3 0 6 2.4 6.5 5.5 3.5-0.8 7.4 0.1 10.1 2.9l0.4 0.4 -4.8 4.8 -0.4-0.4c-1.6-1.6-4.1-1.6-5.7 0 -1.6 1.6-1.6 4.1 0 5.7l10.8 10.8 -4.8 4.8 -5.1-5.1 -4.8-4.8ZM240 160.5l5.1-5.1 4.8-4.8 0.9-0.9c2.9-2.9 7-3.8 10.7-2.7 0.4-3.2 3.2-5.6 6.5-5.6 3.6 0 6.5 2.9 6.5 6.5 0 3.3-2.5 6.1-5.7 6.5 1.1 3.7 0.1 7.8-2.8 10.7l-0.4 0.4 -4.8-4.8 0.4-0.4c1.6-1.6 1.6-4.1 0-5.7 -1.6-1.6-4.1-1.6-5.7 0l-0.9 0.9 -4.8 4.8 -5.1 5.1 -4.7-4.9ZM261.8 184.8c-3.7 1.1-7.9 0.2-10.9-2.7l-0.4-0.4 4.8-4.8 0.4 0.4c1.6 1.6 4.1 1.6 5.7 0 1.6-1.6 1.6-4.1 0-5.7l-0.9-0.9 -4.8-4.8 -5.1-5.1 4.8-4.8 10.8 10.8c2.8 2.8 3.7 6.7 2.9 10.2 3.2 0.4 5.6 3.2 5.6 6.5 0 3.6-2.9 6.5-6.5 6.5 -3.2 0.1-5.8-2.2-6.4-5.2ZM259.9 171.3l-5.1 5.1 -4.8 4.8 -0.9 0.9c-2.8 2.8-6.7 3.7-10.3 2.8 -0.7 2.9-3.3 5.1-6.4 5.1 -3.6 0-6.6-2.9-6.5-6.5 0-3.1 2.1-5.7 5-6.4 -0.9-3.6 0-7.5 2.8-10.4l0.4-0.4 4.8 4.8 -0.4 0.4c-1.6 1.6-1.6 4.1 0 5.7 1.6 1.6 4.1 1.6 5.7 0l0.9-0.9 4.8-4.8 5.1-5.1 4.9 4.9Zm12.2 151c0-3.4 2.1-6 5.2-7.9 -0.6-1.9-1.3-3.7-2.2-5.4 -3.5 0.9-6.3-0.5-8.7-2.8 -2.4-2.4-3.1-5.2-2.2-8.7 -1.7-0.9-3.5-1.7-5.4-2.2 -1.8 3.1-5.1 5.2-8.5 5.2 -3.4 0-6.7-2.1-8.5-5.2 -1.9 0.6-3.7 1.3-5.4 2.2 0.9 3.5 0.2 6.3-2.2 8.7 -2.4 2.4-5.2 3.8-8.7 2.8 -0.9 1.7-1.7 3.5-2.2 5.4 3.1 1.8 5.2 4.5 5.2 7.9 0 3.4-2.1 6.7-5.2 8.5 0.6 1.9 1.3 3.7 2.2 5.4 3.5-0.9 6.3-0.2 8.7 2.2 2.4 2.4 3.1 5.2 2.2 8.7 1.7 0.9 3.5 1.7 5.4 2.2 1.8-3.1 5.1-5.2 8.5-5.2 3.4 0 6.7 2.1 8.5 5.2 1.9-0.6 3.7-1.3 5.4-2.2 -0.9-3.5-0.2-6.3 2.2-8.7 2.4-2.4 5.2-3.8 8.7-2.8 0.9-1.7 1.7-3.5 2.2-5.4 -3.1-1.9-5.2-4.6-5.2-7.9Zm-21.9 11.7c-6.5 0-11.8-5.3-11.8-11.8 0-6.5 5.3-11.8 11.8-11.8 6.5 0 11.8 5.3 11.8 11.8 0 6.5-5.3 11.8-11.8 11.8Z" fill="#333"/>
  <path d="M250.5 387.9c-76.1 0-138.1-61.9-138.1-138.1 0-76.2 61.9-138.1 138.1-138.1 76.1 0 138.1 61.9 138.1 138.1 0 76.2-61.9 138.1-138.1 138.1Zm0-273.2c-74.5 0-135.1 60.6-135.1 135.1 0 74.5 60.6 135.1 135.1 135.1 74.5 0 135.1-60.6 135.1-135.1 0.1-74.4-60.6-135.1-135.1-135.1Z" fill="#fefff7"/>
  <path d="M250.5 382.7c-73.2 0-132.8-59.6-132.8-132.8 0-73.2 59.6-132.9 132.8-132.9 73.2 0 132.8 59.6 132.8 132.8 0 73.2-59.5 132.9-132.8 132.9Zm0-262.7c-71.6 0-129.8 58.2-129.8 129.8 0 71.6 58.2 129.8 129.8 129.8 71.6 0 129.8-58.2 129.8-129.8 0-71.6-58.2-129.8-129.8-129.8Z" fill="#fce889"/>
  <path d="M123.4 147.2l2.6 1.9 -4.5 6.1 2.8 2.1 4.3-5.8 2.6 1.9 -4.3 5.8 5.1 3.8 -2.2 2.9 -13.1-9.8 6.7-8.9Zm15.8-9.4c1.9 1.8 2.5 3.7 1.6 5.7l7.1 0.9 -3 3.3 -6.3-0.9 -1.7 1.9 3.8 3.5 -2.5 2.7 -12-11.1 4.2-4.5c1.7-1.9 3.3-2.9 4.6-3.1 1.4-0.2 2.8 0.3 4.2 1.6Zm-1.6 4.5c0-0.6-0.3-1.2-1-1.8 -0.6-0.6-1.2-0.8-1.8-0.7 -0.6 0.1-1.2 0.6-2 1.5l-1.9 2 3.6 3.3 1.8-2c0.9-0.9 1.3-1.7 1.3-2.3Zm20.8-9.9c-0.2 2.3-1.2 4.2-3.1 5.8 -1.8 1.6-3.9 2.3-6.2 2.1 -2.3-0.2-4.2-1.1-5.8-3 -1.6-1.9-2.2-3.9-2-6.2 0.2-2.3 1.2-4.2 3.1-5.8 1.8-1.6 3.9-2.3 6.2-2.1 2.3 0.2 4.2 1.1 5.8 3 1.5 1.8 2.2 3.9 2 6.2Zm-4.9-3.8c-0.9-1.1-2.1-1.7-3.5-1.9 -1.4-0.2-2.6 0.2-3.6 1.1 -1 0.9-1.6 2-1.6 3.4 0 1.4 0.4 2.6 1.4 3.7 0.9 1.1 2.1 1.7 3.5 1.9 1.4 0.2 2.6-0.2 3.6-1.1 1-0.9 1.6-2 1.6-3.4 0-1.4-0.4-2.6-1.4-3.7Zm11-17.6l3-2 8.9 13.7 -3 2 -12.1-4.3 5.6 8.6 -3 2 -8.9-13.7 2.9-1.9 12.5 4.4 -5.9-8.8Zm15.4-4.9l6 11.8 -3.3 1.6 -6-11.8 -4.1 2.1 -1.4-2.8 11.5-5.8 1.4 2.8 -4.1 2.1Zm8.6 4.4l-1.2-2.9 7.7-3.2 1.2 2.9 -7.7 3.2Zm19.1-18.3l1 3.1 -7.8 2.4 1 3.2 7-2.2 0.9 3 -7 2.2 1 3.2 8-2.5 1 3.1 -11.5 3.6 -4.9-15.6 11.3-3.5Zm16-3.5l3.6-0.7 3.1 16 -3.6 0.7 -9.6-8.6 1.9 10.1 -3.6 0.7 -3.1-16 3.4-0.6 9.8 8.8 -1.9-10.4Zm21.7 0c1.6 1.3 2.6 3.2 2.7 5.8 0.1 2.6-0.5 4.6-1.9 6.2 -1.4 1.6-3.7 2.5-6.8 2.7l-5.6 0.4 -1.1-16.3 5.8-0.4c3-0.3 5.3 0.3 6.9 1.6Zm-2 9.9c0.8-0.9 1.2-2.1 1.1-3.7 -0.1-1.6-0.6-2.8-1.6-3.6 -1-0.8-2.4-1.1-4.2-1l-2 0.1 0.7 9.9 2.3-0.2c1.6-0.1 2.8-0.6 3.7-1.5Zm27.7-8.7c1.4 1.6 2 3.6 1.8 6.1 -0.2 2.5-1.2 4.5-2.8 5.8 -1.6 1.3-4 1.9-7.1 1.6l-5.6-0.5 1.5-16.3 5.7 0.5c2.9 0.3 5.1 1.3 6.5 2.8Zm-3.5 9.4c1-0.8 1.5-1.9 1.7-3.5 0.1-1.6-0.2-2.9-1-3.8 -0.8-0.9-2.1-1.5-4-1.7l-2-0.2 -0.9 9.9 2.3 0.2c1.6 0.2 2.9-0.1 3.9-0.9Zm22-8.2l-0.7 3.2 -8-1.6 -0.7 3.3 7.2 1.5 -0.6 3 -7.2-1.5 -0.7 3.3 8.2 1.7 -0.6 3.2 -11.8-2.4 3.3-16 11.6 2.3Zm7.3 13l7.1-8.7 3.8 1.2 -11.2 13.6 -2.9-0.9 -1.3-17.6 3.8 1.2 0.7 11.2Zm24.6-1.5l-1.3 3 -7.5-3.3 -1.3 3.1 6.7 2.9 -1.2 2.8 -6.7-2.9 -1.4 3.1 7.7 3.4 -1.3 3 -11-4.8 6.5-15 10.8 4.7Zm-3.7 16.4l7.9-14.3 3.2 1.8 -6.3 11.4 6.1 3.4 -1.6 2.8 -9.3-5.1Zm23.4 12.1c-2.3 0.4-4.4-0.1-6.4-1.5 -2-1.4-3.2-3.2-3.6-5.5 -0.4-2.3 0-4.4 1.4-6.3 1.4-2 3.2-3.1 5.5-3.5 2.3-0.4 4.4 0.1 6.4 1.5 2 1.4 3.2 3.2 3.6 5.5 0.4 2.3 0 4.4-1.4 6.3 -1.4 2-3.2 3.1-5.5 3.5Zm2.4-5.6c0.8-1.2 1.2-2.5 1-3.9 -0.2-1.4-0.8-2.5-1.9-3.2 -1.1-0.8-2.4-1-3.7-0.7 -1.3 0.3-2.5 1.1-3.3 2.2 -0.8 1.2-1.2 2.5-1 3.8 0.2 1.4 0.8 2.4 1.9 3.2 1.1 0.8 2.3 1 3.7 0.7 1.4-0.2 2.5-0.9 3.3-2.1Zm18.6 7c0.2 1.5-0.4 3-1.7 4.5 -1.3 1.5-2.8 2.2-4.3 2.1 -1.5-0.1-3.2-0.9-5-2.5l-1.6-1.4 -3 3.4 -2.7-2.4 10.9-12.2 4.3 3.8c1.8 1.6 2.9 3.2 3.1 4.7Zm-6.3 3c0.7-0.1 1.3-0.5 1.9-1.2 0.6-0.7 0.9-1.4 0.7-2.1 -0.2-0.7-0.7-1.4-1.6-2.2l-1.6-1.4 -3.7 4.1 1.8 1.6c1.1 0.9 1.9 1.3 2.5 1.2Zm19.3 8.7l-2.4 2.2 -5.5-6 -2.5 2.3 4.9 5.4 -2.3 2.1 -4.9-5.4 -2.4 2.2 5.7 6.2 -2.4 2.2 -8.1-8.9 12-11 7.9 8.7Zm6.6 17.6c-2.1 1.6-4.1 1.7-5.9 0.5l-2.3 6.8 -2.7-3.6 2-6 -1.5-2 -4.2 3.1 -2.2-2.9 13.2-9.7 3.7 5c1.5 2 2.2 3.8 2.2 5.1 0 1.3-0.7 2.6-2.3 3.7Zm-4.1-2.4c0.6 0.1 1.2-0.1 2-0.6 0.7-0.5 1.1-1.1 1-1.6 -0.1-0.5-0.4-1.3-1.1-2.3l-1.6-2.2 -3.9 2.9 1.6 2.1c0.7 1 1.4 1.6 2 1.7Z" fill="#333"/>
  <path d="M94.4 233.7c0.8-0.6 1.7-0.9 2.6-0.8 1 0.1 1.8 0.5 2.4 1.3 0.6 0.8 0.9 1.7 0.8 2.6 -0.1 1-0.5 1.8-1.3 2.4 -0.8 0.6-1.7 0.9-2.6 0.8 -1-0.1-1.8-0.5-2.4-1.3 -0.6-0.8-0.9-1.7-0.8-2.6 0.1-1 0.5-1.8 1.3-2.4Z" fill="#fff"/>
  <path d="M102.2 252l3.5-0.1 0.2 9.4 -11.8 0.3c-2.2 0-3.8-0.5-4.9-1.6 -1.1-1.1-1.7-2.5-1.7-4.3 0-2.2 0.7-4.1 2.4-5.8l2.9 2c-1.1 1.1-1.7 2.3-1.7 3.5 0 0.6 0.2 1.1 0.7 1.4 0.4 0.4 1.1 0.6 2 0.6l8.5-0.2 -0.1-5.2Zm-9.6 30.1c-2-1.6-3.2-3.7-3.6-6.3 -0.4-2.6 0.2-5 1.7-7.1 1.5-2.1 3.6-3.3 6.2-3.6 2.6-0.4 5 0.2 7 1.8 2 1.6 3.2 3.7 3.6 6.3 0.4 2.6-0.2 5-1.7 7.1 -1.5 2.1-3.6 3.3-6.2 3.6 -2.6 0.4-5-0.2-7-1.8Zm6.4-2.3c1.6-0.2 2.9-0.9 3.9-2.1 1-1.2 1.4-2.5 1.2-4 -0.2-1.5-1-2.7-2.2-3.5 -1.3-0.9-2.7-1.2-4.3-1 -1.6 0.2-2.9 0.9-3.9 2.1 -1 1.2-1.4 2.5-1.1 4 0.2 1.5 0.9 2.7 2.2 3.5 1.2 0.9 2.6 1.2 4.2 1Zm-0.7 24.2c-2.2-1.3-3.7-3.2-4.5-5.8 -0.7-2.6-0.5-5 0.7-7.2 1.2-2.2 3.1-3.8 5.6-4.5 2.6-0.7 4.9-0.5 7.2 0.8 2.2 1.3 3.7 3.2 4.5 5.8 0.7 2.6 0.5 5-0.7 7.2 -1.2 2.2-3.1 3.8-5.6 4.5 -2.6 0.7-5 0.5-7.2-0.8Zm6-3.2c1.6-0.4 2.7-1.3 3.5-2.6 0.8-1.3 1-2.7 0.6-4.1 -0.4-1.5-1.3-2.5-2.7-3.2 -1.4-0.7-2.9-0.8-4.4-0.3 -1.6 0.4-2.7 1.3-3.5 2.6 -0.8 1.3-1 2.7-0.6 4.1 0.4 1.5 1.3 2.5 2.7 3.2 1.4 0.7 2.8 0.8 4.4 0.3Zm11.3 21.3l-11-0.3 -1-2.2 6.9-8.6 -10.3 4.8 -1.7-3.7 16.4-7.6 2.3 5 -7.1 8.4 11 0.1 2.3 4.9 -16.4 7.6 -1.7-3.7 10.3-4.7Zm-5.6 13.5l15.3-9.7 2.2 3.4 -12.3 7.8 4.1 6.5 -3 1.9 -6.3-9.9Zm16.8 23.4l2-3.8 -4.8-5.9 -4.1 1.1 -2.7-3.4 19-5.2 2.4 3.1 -9.2 17.4 -2.6-3.3Zm6.5-12.2l-5.5 1.5 2.8 3.5 2.7-5Zm-1 17.5c0-0.6 0.2-1.2 0.7-1.6 0.5-0.4 1-0.7 1.6-0.6 0.6 0 1.2 0.2 1.6 0.7 0.4 0.5 0.7 1 0.6 1.6 0 0.6-0.2 1.2-0.7 1.6 -0.5 0.4-1 0.7-1.6 0.6 -0.6 0-1.2-0.2-1.6-0.7 -0.4-0.4-0.6-0.9-0.6-1.6Zm12.3-12.7l3.2 3.3 -2.3 2.2 -7.3 5.9 -2.1-2.2 6.2-7 2.3-2.2Z" fill="#333"/>
  <path d="M147.8 372c-0.1-1 0.2-1.9 0.8-2.6 0.6-0.8 1.5-1.2 2.4-1.3 1-0.1 1.9 0.2 2.6 0.8 0.8 0.6 1.2 1.5 1.3 2.4 0.1 0.9-0.2 1.9-0.8 2.6 -0.6 0.7-1.5 1.2-2.4 1.3 -1 0.1-1.9-0.2-2.6-0.8 -0.8-0.6-1.2-1.4-1.3-2.4Z" fill="#fff"/>
  <path d="M179 386.6l-9.2 6 -2.1-1.2 0.8-11 -5.8 9.8 -3.5-2.1 9.2-15.6 4.7 2.8 -1 10.9 9.1-6.2 4.7 2.8 -9.2 15.6 -3.5-2.1 5.8-9.7Zm15.1 19.3l-0.1-4.3 -7-2.9 -3 3 -4-1.6 14.1-13.8 3.6 1.5 0.4 19.7 -4-1.6Zm-0.2-13.9l-4.1 4 4.2 1.7 -0.1-5.7Zm21.4 10.6l3.9 1 -1.6 6.2c-2.2 1.5-4.9 1.8-8 1 -2.6-0.7-4.5-2.1-5.8-4.3 -1.3-2.2-1.6-4.5-0.9-7.1 0.7-2.6 2.1-4.5 4.4-5.8 2.2-1.3 4.6-1.6 7.1-0.9 2.5 0.7 4.5 2.1 5.9 4.2l-2.8 2.4c-0.6-0.9-1.2-1.6-1.8-2 -0.6-0.4-1.3-0.8-2-1 -1.5-0.4-2.9-0.2-4.2 0.5 -1.3 0.7-2.1 1.9-2.6 3.6 -0.5 1.7-0.3 3.1 0.4 4.4 0.7 1.3 1.7 2.1 3.1 2.4 1.4 0.3 2.5 0.4 3.6 0.1l1.3-4.7Zm21.8-5.4l-0.5 3.6 -8.9-1.2 -0.5 3.7 8 1.1 -0.5 3.4 -8-1.1 -0.5 3.7 9.2 1.3 -0.5 3.5 -13.2-1.8 2.5-17.9 12.9 1.7Zm15.7 0.5l4 0.1 -0.3 18.1 -4-0.1 -8.4-11.5 -0.2 11.3 -4-0.1 0.3-18.1 3.8 0.1 8.7 11.8 0.1-11.6Zm15.7 2.4l1.6 14.5 -4 0.4 -1.6-14.5 -5.1 0.5 -0.4-3.5 14.2-1.5 0.4 3.5 -5.1 0.6Zm24.7 7.6c-1.4 2.2-3.4 3.5-6 4.1 -2.6 0.6-5 0.2-7.2-1.1 -2.2-1.3-3.6-3.3-4.2-5.9 -0.6-2.6-0.2-5 1.2-7.1 1.4-2.2 3.4-3.5 6-4.1 2.6-0.6 5-0.2 7.2 1.1 2.2 1.3 3.6 3.3 4.2 5.9 0.6 2.6 0.2 5-1.2 7.1Zm-2.8-6.2c-0.4-1.6-1.2-2.8-2.4-3.7 -1.2-0.9-2.6-1.1-4.1-0.8 -1.5 0.3-2.6 1.2-3.3 2.5 -0.8 1.3-1 2.8-0.6 4.4 0.4 1.6 1.2 2.8 2.4 3.7 1.3 0.9 2.6 1.1 4.1 0.8 1.5-0.3 2.6-1.2 3.3-2.5 0.7-1.3 0.9-2.8 0.6-4.4Z" fill="#333"/>
  <path d="M306.5 399.9c-0.9-0.4-1.6-1-1.9-2 -0.3-1-0.4-1.9 0-2.8 0.4-0.9 1.1-1.5 2-1.9 0.9-0.4 1.9-0.4 2.8 0 0.9 0.4 1.5 1.1 1.9 2 0.4 0.9 0.4 1.8 0 2.8 -0.4 0.9-1.1 1.5-2 1.9 -1 0.4-1.9 0.4-2.8 0Z" fill="#fff"/>
  <path d="M327 388.1l-2.7-10.6 3.6-2.2 8.2 7.2 -2.4-10.8 3.7-2.3 4.1 18.7 -2.6 1.6 -10-8.7 3.2 12.8 -2.6 1.6 -14.9-12.1 3.7-2.3 8.7 7.1Zm32.6-17.4c-0.2 2.5-1.4 4.7-3.4 6.4 -2 1.7-4.3 2.5-6.9 2.3 -2.6-0.2-4.7-1.3-6.4-3.3 -1.7-2-2.5-4.3-2.2-6.9 0.2-2.5 1.4-4.7 3.4-6.4 2-1.7 4.3-2.5 6.9-2.3 2.6 0.2 4.7 1.3 6.4 3.3 1.7 2.1 2.4 4.4 2.2 6.9Zm-5.3-4.2c-1-1.2-2.3-1.9-3.9-2.1 -1.5-0.2-2.9 0.2-4 1.2 -1.1 1-1.8 2.2-1.8 3.8 -0.1 1.5 0.4 2.9 1.5 4.2 1 1.2 2.3 1.9 3.9 2.1 1.5 0.2 2.9-0.2 4-1.2 1.2-1 1.8-2.2 1.8-3.8 0-1.6-0.5-2.9-1.5-4.2Zm13.3-18.2c2.2 1.9 2.8 4.1 1.9 6.3l7.9 0.9 -3.3 3.7 -7-0.9 -1.9 2.1 4.3 3.9 -2.7 3 -13.4-12.1 4.6-5.1c1.9-2.1 3.6-3.3 5.1-3.5 1.5-0.2 2.9 0.3 4.5 1.7Zm-1.7 5c0-0.7-0.4-1.3-1.1-2 -0.7-0.7-1.4-0.9-2-0.8 -0.6 0.1-1.4 0.7-2.2 1.7l-2 2.3 4 3.6 2-2.2c0.9-1 1.3-1.9 1.3-2.6Zm9.1-21.6c2.3-0.5 4.6 0 6.9 1.6 2.3 1.6 3.7 3.6 4.1 5.9 0.4 2.3-0.4 4.9-2.4 7.7l-3.5 5.1 -14.9-10.3 3.6-5.3c1.9-2.6 3.9-4.2 6.2-4.7Zm7.2 8.6c-0.2-1.3-1-2.5-2.5-3.5 -1.5-1-2.9-1.4-4.2-1.1 -1.4 0.3-2.6 1.2-3.8 2.9l-1.3 1.9 9 6.3 1.5-2.1c1-1.6 1.5-3.1 1.3-4.4Zm0.8-24.7c1.5-0.6 3.3-0.4 5.3 0.6 2 1 3.1 2.4 3.4 4 0.3 1.6-0.2 3.6-1.4 6l-1.1 2.1 4.5 2.3 -1.9 3.6 -16-8.4 3-5.7c1.3-2.3 2.7-3.9 4.2-4.5Zm5 5.9c-0.3-0.7-0.8-1.3-1.8-1.8 -0.9-0.5-1.7-0.6-2.4-0.2 -0.7 0.4-1.3 1.1-2 2.3l-1.1 2 5.4 2.8 1.3-2.4c0.6-1 0.8-2 0.6-2.7Zm6.3-22.1c2.7 1 4.1 2.8 4 5.2l7.7-2 -1.8 4.7 -6.8 1.7 -1 2.6 5.4 2.1 -1.4 3.8 -16.9-6.4 2.4-6.4c1-2.6 2.2-4.3 3.5-5.1 1.3-0.8 2.9-1 4.9-0.2Zm0.3 5.3c-0.2-0.6-0.8-1.1-1.7-1.5 -0.9-0.3-1.6-0.3-2.2 0 -0.5 0.4-1 1.1-1.5 2.4l-1.1 2.8 5 1.9 1-2.8c0.6-1.2 0.7-2.2 0.5-2.8Zm-1.9-23.3l3.5 0.9 -2.2 8.7 3.6 0.9 2-7.9 3.3 0.8 -2 7.9 3.6 0.9 2.2-9 3.5 0.9 -3.2 12.9 -17.6-4.4 3.3-12.6Zm4.7-6.8c0.3 0.4 0.7 0.7 1.2 0.7 0.5 0.1 1-0.1 1.3-0.5 0.3-0.4 0.9-1.5 1.5-3.1 0.6-1.6 1.5-2.9 2.4-3.7 0.9-0.8 2.3-1.1 3.9-0.9 1.6 0.2 2.8 1 3.7 2.3 0.8 1.3 1.1 3 0.9 5 -0.4 2.8-1.8 5.3-4.2 7.3l-2.6-2.8c2-1.7 3-3.4 3.3-5 0.1-0.7 0-1.3-0.2-1.8 -0.3-0.5-0.7-0.7-1.2-0.8 -0.5-0.1-1 0.1-1.4 0.5 -0.4 0.4-0.8 1.2-1.3 2.5 -0.8 2-1.6 3.5-2.6 4.3 -0.9 0.9-2.2 1.2-3.9 0.9 -1.7-0.2-2.9-1-3.7-2.4 -0.8-1.3-1-2.9-0.8-4.8 0.2-1.2 0.5-2.4 1.1-3.5 0.6-1.1 1.3-2.1 2.2-2.9l2.7 2.4c-1.4 1.4-2.2 2.9-2.4 4.6 -0.2 0.7-0.2 1.3 0.1 1.7Zm1.5-16.1c0.3 0.4 0.7 0.6 1.3 0.6 0.5 0 1-0.2 1.3-0.7 0.3-0.5 0.7-1.6 1.2-3.3 0.5-1.7 1.1-3 2-4 0.9-0.9 2.1-1.4 3.7-1.3 1.6 0.1 2.9 0.7 3.9 1.9 1 1.2 1.4 2.9 1.4 4.8 -0.1 2.9-1.2 5.4-3.4 7.7l-2.9-2.5c1.8-1.9 2.7-3.7 2.7-5.3 0-0.7-0.1-1.3-0.4-1.8 -0.3-0.4-0.7-0.7-1.3-0.7 -0.5 0-1 0.2-1.3 0.6 -0.3 0.4-0.7 1.3-1 2.6 -0.6 2.1-1.2 3.6-2.1 4.6 -0.8 1-2.1 1.4-3.8 1.4 -1.7 0-3-0.7-3.9-2 -0.9-1.3-1.3-2.8-1.3-4.7 0-1.2 0.3-2.4 0.7-3.6 0.4-1.2 1.1-2.2 1.8-3.1l2.9 2.1c-1.2 1.5-1.9 3.1-1.9 4.8 -0.1 1 0.1 1.5 0.4 1.9Z" fill="#333"/>
  <path d="M407.1 238c-0.6 0.8-1.4 1.2-2.4 1.3 -1 0.1-1.9-0.1-2.7-0.8 -0.8-0.7-1.2-1.4-1.3-2.4 -0.1-1 0.1-1.9 0.8-2.7 0.7-0.8 1.4-1.2 2.4-1.3 1-0.1 1.9 0.1 2.7 0.8 0.8 0.7 1.2 1.4 1.3 2.4 0.1 1-0.1 1.9-0.8 2.7Z" fill="#fff"/>
  <path d="M69.1 179.1c2.2 0.9 4.9-0.3 5.8-2.4 0.9-2.2-0.1-4.8-2.4-5.7 -0.5-0.2-1.1-0.3-1.7-0.3 -1.8 0-3.4 1.1-4.1 2.7 -0.5 1.1-0.4 2.3 0 3.4 0.5 1 1.4 1.8 2.4 2.3Zm143.3-124.7c-0.3 0-0.6 0-0.9 0.1 -1.1 0.2-2.1 0.9-2.8 1.9 -0.7 1-0.9 2.1-0.7 3.3 0.5 2.3 2.8 3.9 5.2 3.5 1.1-0.2 2.1-0.9 2.8-1.9 0.7-1 0.9-2.2 0.7-3.3 -0.4-2.1-2.2-3.6-4.3-3.6Zm-67.6 37.1c2-1.3 2.5-4.1 1.2-6.1 -0.8-1.2-2.2-2-3.7-2 -0.9 0-1.7 0.3-2.4 0.7 -2 1.3-2.6 4.1-1.2 6.1 1.3 2 4.1 2.6 6.1 1.3Zm-85.9 124.3c2.4 0.5 4.7-1.1 5.2-3.4 0.2-1.2 0-2.3-0.6-3.3 -0.7-1-1.7-1.6-2.8-1.9 -0.3-0.1-0.6-0.1-0.9-0.1 -2.1 0-3.9 1.5-4.3 3.5 -0.2 1.2 0 2.3 0.7 3.3 0.6 1 1.6 1.6 2.7 1.9Zm117-150.3c-0.6 0-1.1 0.1-1.7 0.3 -1.1 0.5-1.9 1.3-2.4 2.4 -0.5 1.1-0.5 2.3 0 3.4 0.9 2.2 3.5 3.3 5.7 2.4 1.1-0.4 1.9-1.3 2.4-2.4 0.4-1.1 0.4-2.3 0-3.4 -0.6-1.6-2.2-2.7-4-2.7Zm111.4-2.3c2.3 0.5 4.7-1.2 5.2-3.5 0.2-1.2 0-2.3-0.7-3.3 -0.6-1-1.7-1.6-2.8-1.9 -0.3-0.1-0.6-0.1-0.9-0.1 -2.1 0-3.9 1.5-4.3 3.5 -0.2 1.2 0 2.3 0.7 3.3 0.6 1.1 1.6 1.7 2.8 2Zm-198.5 289.6c-0.9 0-1.7 0.3-2.4 0.8 -1 0.7-1.6 1.6-1.9 2.8 -0.2 1.1 0 2.3 0.7 3.3 1.3 1.9 4.1 2.5 6.1 1.2 2-1.4 2.6-4.1 1.2-6.1 -0.9-1.2-2.2-2-3.7-2Zm199.4 82.6c-0.3 0-0.6 0-0.9 0.1 -1.1 0.2-2.1 0.9-2.8 1.9 -0.6 1-0.9 2.1-0.6 3.3 0.4 2.3 2.8 3.9 5.2 3.4 1.1-0.2 2.1-0.9 2.8-1.9 0.7-1 0.9-2.1 0.7-3.3 -0.6-2-2.4-3.5-4.4-3.5Zm-37.9-384.7c-2.4 0-4.4 2-4.4 4.4 0 2.4 2 4.4 4.4 4.4 2.4 0 4.4-2 4.4-4.4 0-2.4-2-4.4-4.4-4.4Zm-37.1 384.8c-0.3-0.1-0.6-0.1-0.9-0.1 -2.1 0-3.9 1.5-4.3 3.5 -0.2 1.1 0 2.3 0.7 3.3 0.6 1 1.6 1.6 2.8 1.9 2.4 0.5 4.7-1.2 5.2-3.4 0.2-1.2 0-2.3-0.7-3.3 -0.6-1-1.6-1.7-2.8-1.9Zm-100.3-53.2c-1.2 0-2.3 0.4-3.1 1.3 -0.8 0.8-1.3 1.9-1.3 3.1 0 1.2 0.4 2.3 1.3 3.1 1.7 1.7 4.5 1.7 6.2 0 1.7-1.7 1.7-4.5 0-6.2 -0.8-0.9-1.9-1.3-3.1-1.3Zm0-274.7c-1.2 0-2.3 0.5-3.1 1.3 -0.8 0.8-1.3 1.9-1.3 3.1 0 1.2 0.4 2.3 1.3 3.1 1.5 1.6 4.7 1.6 6.2 0 1.7-1.7 1.7-4.5 0-6.2 -0.8-0.8-1.9-1.3-3.1-1.3Zm-38 214.4c-0.7-1.6-2.3-2.7-4.1-2.7 -0.6 0-1.1 0.1-1.7 0.3 -1.1 0.5-1.9 1.3-2.4 2.4 -0.5 1.1-0.5 2.3 0 3.4 0.7 1.7 2.3 2.7 4.1 2.7 0.6 0 1.1-0.1 1.7-0.3 2.2-1 3.3-3.6 2.4-5.8Zm16.3-184.2c-0.7-0.5-1.6-0.7-2.4-0.7 -1.5 0-2.8 0.7-3.7 2 -0.6 1-0.9 2.1-0.7 3.3 0.2 1.2 0.9 2.1 1.9 2.8 1.9 1.3 4.9 0.6 6.1-1.2 0.7-1 0.9-2.1 0.7-3.3 -0.2-1.3-0.9-2.3-1.9-2.9Zm-27.8 151.9c0.6-1 0.9-2.2 0.6-3.3 -0.4-2-2.2-3.5-4.3-3.5 -0.3 0-0.6 0-0.9 0.1 -1.2 0.2-2.2 0.9-2.8 1.9 -0.7 1-0.9 2.2-0.7 3.3 0.5 2.3 2.8 3.9 5.2 3.5 1.3-0.4 2.3-1.1 2.9-2Zm-7.4-36c2.4 0 4.4-2 4.4-4.4 0-2.4-2-4.4-4.4-4.4 -2.4 0-4.4 2-4.4 4.4 0 2.5 2 4.4 4.4 4.4Zm121.6 171c-0.5-0.2-1.1-0.3-1.7-0.3 -1.8 0-3.4 1.1-4.1 2.7 -0.5 1.1-0.5 2.3 0 3.4 0.4 1.1 1.3 1.9 2.4 2.4 0.5 0.2 1.1 0.3 1.7 0.3 1.8 0 3.4-1.1 4.1-2.7 0.5-1.1 0.5-2.3 0-3.4 -0.5-1.1-1.3-2-2.4-2.4Zm-32.8-17.5c-0.7-0.5-1.6-0.7-2.4-0.7 -1.5 0-2.9 0.7-3.7 2 -0.6 1-0.9 2.1-0.6 3.3 0.2 1.2 0.9 2.1 1.9 2.8 0.7 0.5 1.5 0.7 2.3 0.7 1.5 0 3-0.7 3.8-1.9 0.6-1 0.9-2.1 0.6-3.3 -0.3-1.3-0.9-2.3-1.9-2.9Zm105.5 31.9c-2.4 0-4.4 2-4.4 4.4 0 2.4 2 4.4 4.4 4.4 2.4 0 4.4-2 4.4-4.4 0-2.4-2-4.4-4.4-4.4Zm163.9-85.5c-0.7-0.5-1.6-0.8-2.4-0.8 -1.5 0-2.8 0.7-3.7 2 -0.6 1-0.9 2.2-0.6 3.3 0.2 1.1 0.9 2.1 1.9 2.8 2 1.3 4.8 0.7 6.1-1.2 0.7-1 0.9-2.1 0.7-3.3 -0.4-1.2-1-2.2-2-2.8Zm-26.6-246c-1.2 0-2.3 0.5-3.1 1.3 -0.8 0.8-1.3 1.9-1.3 3.1 0 1.2 0.5 2.3 1.3 3.1 0.8 0.8 1.9 1.2 3.1 1.2 1.2 0 2.3-0.4 3.1-1.2 0.8-0.8 1.3-1.9 1.3-3.1 0-1.2-0.5-2.3-1.3-3.1 -0.8-0.8-1.9-1.3-3.1-1.3Zm38 69.1c0.9 2.2 3.5 3.3 5.8 2.4 1.1-0.4 1.9-1.3 2.4-2.4 0.5-1.1 0.5-2.3 0-3.4 -0.7-1.6-2.3-2.7-4.1-2.7 -0.6 0-1.1 0.1-1.7 0.3 -2.2 1-3.3 3.5-2.4 5.8Zm11.5 32.3c-0.7 1-0.9 2.1-0.7 3.3 0.4 2.3 2.8 3.9 5.2 3.5 1.1-0.2 2.1-0.9 2.8-1.9 0.7-1 0.9-2.1 0.7-3.3 -0.4-2.1-2.2-3.5-4.3-3.5 -0.3 0-0.6 0-0.9 0.1 -1.2 0.2-2.2 0.8-2.8 1.8Zm-49.5 173.3c-1.2 0-2.3 0.4-3.1 1.3 -1.7 1.7-1.7 4.5 0 6.2 1.7 1.6 4.6 1.7 6.2 0 0.8-0.8 1.3-1.9 1.3-3.1 0-1.2-0.5-2.3-1.3-3.1 -0.8-0.9-1.9-1.3-3.1-1.3Zm54-99.4c-0.3-0.1-0.6-0.1-0.9-0.1 -2.1 0-3.9 1.5-4.3 3.5 -0.2 1.2 0 2.3 0.7 3.3 0.6 1 1.6 1.6 2.8 1.9 2.3 0.5 4.7-1.2 5.2-3.5 0.2-1.1 0-2.3-0.7-3.3 -0.7-0.9-1.7-1.6-2.8-1.8Zm2.9-38c-2.4 0-4.4 2-4.4 4.4 0 2.4 2 4.4 4.4 4.4 2.4 0 4.4-2 4.4-4.4 0-2.4-2-4.4-4.4-4.4Zm-13.1 74.7c-0.6-0.2-1.1-0.3-1.7-0.3 -1.8 0-3.4 1.1-4.1 2.7 -0.9 2.2 0.2 4.8 2.4 5.7 2.1 0.9 4.9-0.3 5.7-2.4 0.4-1.1 0.4-2.3 0-3.4 -0.4-1-1.2-1.9-2.3-2.3Zm-17.2-174.5c1-0.7 1.6-1.6 1.9-2.8 0.2-1.2 0-2.3-0.7-3.3 -0.8-1.2-2.2-2-3.7-2 -0.9 0-1.7 0.3-2.4 0.7 -1 0.7-1.6 1.7-1.9 2.8 -0.2 1.1 0 2.3 0.7 3.3 1.3 2 4.1 2.6 6.1 1.3Zm-58.5-53.6c2 1.3 4.8 0.7 6.1-1.2 0.7-1 0.9-2.1 0.7-3.3 -0.2-1.2-0.9-2.1-1.9-2.8 -0.7-0.5-1.6-0.7-2.4-0.7 -1.5 0-2.9 0.7-3.7 2 -1.3 1.9-0.8 4.7 1.2 6Zm-31.1 332.9c-0.6 0-1.1 0.1-1.7 0.3 -1.1 0.4-1.9 1.3-2.4 2.4 -0.4 1.1-0.4 2.3 0 3.4 0.9 2.2 3.5 3.3 5.7 2.4 1.1-0.4 1.9-1.3 2.4-2.4 0.4-1.1 0.4-2.3 0-3.4 -0.6-1.7-2.2-2.7-4-2.7Zm-1.7-350.4c0.5 0.2 1 0.3 1.6 0.3 1.8 0 3.5-1.1 4.2-2.7 0.4-1.1 0.4-2.3 0-3.4 -0.5-1.1-1.3-1.9-2.4-2.4 -0.5-0.2-1.1-0.3-1.7-0.3 -1.8 0-3.4 1.1-4.1 2.7 -0.5 1.1-0.5 2.3 0 3.4 0.5 1.1 1.3 1.9 2.4 2.4Zm35.2 332.4c-0.9 0-1.7 0.3-2.4 0.7 -1 0.7-1.6 1.6-1.9 2.8 -0.2 1.2 0 2.3 0.7 3.3 0.8 1.2 2.2 2 3.7 2 0.9 0 1.7-0.3 2.4-0.7 2-1.3 2.6-4.1 1.2-6.1 -0.8-1.3-2.2-2-3.7-2Zm-281.2-244.8c2 1.1 4.9 0.1 6-1.8 0.6-1 0.7-2.2 0.3-3.3 -0.3-1.1-1.1-2-2.1-2.6 -0.8-0.4-1.6-0.6-2.5-0.5 -1.5 0.1-2.8 1-3.5 2.3 -0.6 1-0.7 2.2-0.3 3.4 0.3 1.1 1.1 2 2.1 2.5Zm346.7 0c1-0.6 1.8-1.5 2.1-2.6 0.3-1.1 0.2-2.3-0.3-3.4 -0.8-1.6-2.5-2.5-4.3-2.3 -0.6 0.1-1.1 0.2-1.6 0.5 -2.1 1.2-3 3.8-1.8 6 1.1 2.1 3.8 3 5.9 1.8Zm-367.1 73.1c2.5 0.3 4.6-1.6 4.8-3.9 0.1-1.2-0.2-2.3-1-3.2 -0.8-0.9-1.8-1.5-3-1.6l-0.9 0c-2.1 0.2-3.7 1.9-3.9 3.9 -0.1 1.2 0.2 2.3 1 3.2 0.8 0.9 1.9 1.5 3 1.6Zm22 101.8c-0.6 0.1-1.1 0.2-1.6 0.5 -1 0.6-1.8 1.5-2.1 2.6 -0.3 1.1-0.2 2.3 0.3 3.3 0.8 1.6 2.5 2.5 4.3 2.3 0.6-0.1 1.1-0.2 1.6-0.5 2.2-1.1 3-3.8 1.8-6 -0.8-1.5-2.5-2.4-4.3-2.2Zm360.7-105.8c0.2 2.4 2.4 4.2 4.8 4 2.4-0.2 4.2-2.4 3.9-4.8 -0.2-2.4-2.4-4.2-4.8-3.9 -2.4 0.2-4.2 2.3-3.9 4.7Zm-170.3-170.3c2.4 0.2 4.6-1.6 4.8-3.9 0.1-1.2-0.2-2.3-1-3.2 -0.7-0.9-1.8-1.5-3-1.6l-0.9 0c-2.1 0.2-3.7 1.9-3.9 3.9 -0.1 1.2 0.2 2.3 1 3.2 0.7 1 1.8 1.5 3 1.6Zm-207.5 207.5c-0.2-2.4-2.4-4.2-4.8-3.9 -2.4 0.2-4.2 2.4-3.9 4.8 0.2 2.4 2.4 4.2 4.8 4 2.3-0.3 4.1-2.4 3.9-4.9Zm6.9 39.9c0.6-1 0.7-2.2 0.3-3.4 -0.6-2-2.5-3.3-4.6-3.1 -0.3 0-0.6 0.1-0.9 0.2 -1.1 0.3-2 1.1-2.6 2.1 -0.6 1-0.7 2.2-0.3 3.3 0.7 2.2 3.1 3.6 5.5 2.9 1.1-0.2 2-1 2.6-2Zm363.9-116.9c-0.6 1-0.7 2.2-0.3 3.3 0.7 2.2 3.2 3.6 5.5 2.9 1.1-0.3 2-1.1 2.6-2.1 0.6-1 0.7-2.2 0.3-3.3 -0.6-2-2.5-3.3-4.6-3.1 -0.3 0-0.6 0.1-0.8 0.2 -1.2 0.3-2.1 1-2.7 2.1Zm-369.1 6.3c2.2 0.7 4.8-0.7 5.5-2.9 0.7-2.3-0.6-4.8-2.9-5.5 -0.6-0.2-1.1-0.2-1.7-0.2 -1.8 0.2-3.3 1.4-3.8 3.1 -0.3 1.1-0.2 2.3 0.3 3.3 0.6 1.1 1.5 1.8 2.6 2.2Zm336.9-75.5c-0.9 0.1-1.7 0.4-2.3 1 -0.9 0.7-1.5 1.8-1.6 3 -0.1 1.2 0.2 2.3 1 3.2 1.5 1.8 4.4 2.1 6.2 0.6 0.9-0.7 1.5-1.8 1.6-3 0.1-1.2-0.2-2.3-1-3.2 -1-1.1-2.5-1.7-3.9-1.6Zm-29.3-19.1c0.8 0.7 2 1 3.2 0.9 1.2-0.1 2.3-0.7 3-1.5 0.8-0.9 1.1-2 1-3.2 -0.1-1.2-0.7-2.2-1.6-3 -0.9-0.8-2.1-1.1-3.2-1 -1.2 0.1-2.2 0.7-3 1.6 -0.7 0.9-1.1 2.1-1 3.2 0.1 1.2 0.7 2.3 1.6 3Zm-65.3-34.9c0.5 0.2 1.1 0.2 1.6 0.2 1.8-0.2 3.4-1.4 3.9-3.1 0.3-1.1 0.2-2.3-0.3-3.3 -0.6-1-1.5-1.8-2.6-2.1 -0.6-0.2-1.1-0.2-1.7-0.2 -1.8 0.2-3.3 1.4-3.8 3.1 -0.3 1.1-0.2 2.3 0.3 3.4 0.5 0.9 1.4 1.7 2.6 2Zm36 348.5c-0.6 0.1-1.1 0.2-1.6 0.5 -1 0.6-1.8 1.5-2.1 2.6 -0.3 1.1-0.2 2.3 0.3 3.4 1.1 2.1 3.8 2.9 5.9 1.8 1-0.6 1.8-1.5 2.1-2.6 0.3-1.1 0.2-2.3-0.3-3.3 -0.9-1.6-2.5-2.5-4.3-2.4Zm-244.1-286.7c1.7 1.4 4.8 1.1 6.2-0.6 1.5-1.9 1.3-4.6-0.6-6.2 -0.9-0.7-2-1.1-3.2-1 -1.2 0.1-2.2 0.7-3 1.6 -0.7 0.9-1.1 2-1 3.2 0.2 1.2 0.7 2.3 1.6 3Zm242.4-47.6c2.1 1.1 4.8 0.2 6-1.8 0.6-1 0.7-2.2 0.3-3.3 -0.3-1.1-1.1-2-2.1-2.6 -0.8-0.4-1.6-0.6-2.5-0.5 -1.5 0.1-2.8 1-3.5 2.3 -1.1 2.1-0.3 4.8 1.8 5.9Zm33.3 313.2c-0.9 0.1-1.7 0.4-2.3 1 -0.9 0.7-1.5 1.8-1.6 3 -0.1 1.2 0.2 2.3 1 3.2 0.9 1.1 2.4 1.7 3.8 1.6 0.9-0.1 1.7-0.4 2.3-1 1.9-1.5 2.2-4.3 0.6-6.2 -0.9-1.2-2.3-1.8-3.8-1.6Zm64.4-93.6c-0.6-0.2-1.1-0.2-1.7-0.2 -1.8 0.2-3.3 1.4-3.8 3.1 -0.7 2.3 0.6 4.8 2.9 5.5 2.2 0.7 4.8-0.8 5.5-2.9 0.3-1.1 0.2-2.3-0.3-3.4 -0.6-1-1.5-1.7-2.6-2.1Zm-34.2 67.6c-0.9-0.7-2.1-1.1-3.2-1 -1.2 0.1-2.2 0.7-3 1.6 -1.5 1.9-1.3 4.6 0.6 6.2 1.8 1.5 4.7 1.2 6.2-0.6 0.7-0.9 1.1-2 1-3.2 -0.1-1.2-0.7-2.2-1.6-3Zm40.8-105.1l-0.9 0c-2.1 0.2-3.7 1.9-3.9 3.9 -0.1 1.2 0.2 2.3 1 3.2 0.8 0.9 1.8 1.5 3 1.6 2.4 0.2 4.6-1.6 4.8-4 0.1-1.2-0.2-2.3-1-3.2 -0.8-0.8-1.9-1.4-3-1.5Zm-20.4 73c-0.8-0.4-1.6-0.6-2.5-0.5 -1.5 0.1-2.8 1-3.5 2.3 -0.6 1-0.7 2.2-0.3 3.4 0.3 1.1 1.1 2 2.1 2.6 2.1 1.1 4.8 0.3 5.9-1.8 0.6-1 0.7-2.2 0.3-3.3 -0.2-1.2-0.9-2.1-2-2.7Zm-117.4 93.8c-0.3 0-0.6 0.1-0.8 0.2 -1.1 0.4-2 1.1-2.6 2.1 -0.6 1-0.7 2.2-0.3 3.4 0.7 2.2 3.2 3.6 5.5 2.9 1.1-0.3 2-1.1 2.6-2.1 0.6-1 0.7-2.2 0.3-3.3 -0.7-2.1-2.6-3.4-4.7-3.2Zm-179.6-336c-0.9 0.1-1.7 0.4-2.3 1 -1.9 1.5-2.2 4.3-0.6 6.2 1.5 1.8 4.4 2.1 6.2 0.6 1.9-1.5 2.1-4.3 0.6-6.2 -1-1.1-2.4-1.7-3.9-1.6Zm34.2 321.9c-0.8-0.4-1.6-0.6-2.5-0.5 -1.5 0.1-2.8 1-3.5 2.3 -0.5 1-0.7 2.2-0.3 3.3 0.3 1.1 1.1 2.1 2.1 2.6 0.7 0.4 1.5 0.5 2.4 0.4 1.5-0.1 2.9-1 3.5-2.3 0.6-1 0.7-2.2 0.3-3.4 -0.2-0.9-1-1.8-2-2.4Zm108.1 21.5c-2.4 0.2-4.2 2.4-3.9 4.8 0.2 2.4 2.4 4.2 4.8 3.9 2.4-0.2 4.2-2.4 3.9-4.8 -0.3-2.3-2.4-4.1-4.8-3.9Zm-142.3-43.1c-1.2 0.1-2.2 0.7-3 1.6 -0.8 0.9-1.1 2-1 3.2 0.1 1.2 0.7 2.2 1.6 3 1.8 1.5 4.7 1.2 6.2-0.6 1.5-1.9 1.3-4.7-0.6-6.2 -0.9-0.8-2-1.1-3.2-1Zm-26.9-26.9c-0.9 0.1-1.7 0.4-2.4 1 -0.9 0.7-1.5 1.8-1.6 3 -0.1 1.2 0.2 2.3 1 3.2 1.5 1.8 4.4 2.1 6.2 0.6 1.9-1.5 2.2-4.3 0.6-6.2 -0.9-1.2-2.3-1.8-3.8-1.6Zm61.1-286.3c1-0.6 1.8-1.5 2.1-2.6 0.3-1.1 0.2-2.3-0.3-3.4 -0.8-1.6-2.5-2.5-4.3-2.3 -0.6 0.1-1.1 0.2-1.6 0.5 -1 0.6-1.8 1.5-2.1 2.6 -0.3 1.1-0.2 2.3 0.3 3.3 1 2.2 3.7 3.1 5.9 1.9Zm70-30.2c-2.4 0.2-4.2 2.4-3.9 4.8 0.2 2.4 2.4 4.2 4.8 3.9 2.4-0.2 4.2-2.4 3.9-4.8 -0.2-2.4-2.4-4.2-4.8-3.9Zm0.9 386.5l-0.9 0c-2.1 0.2-3.7 1.9-3.9 3.9 -0.1 1.2 0.2 2.3 1 3.2 0.7 0.9 1.8 1.5 3 1.6 2.5 0.2 4.6-1.6 4.8-3.9 0.1-1.2-0.2-2.3-1-3.2 -0.8-0.9-1.9-1.5-3-1.6Zm-38.2-379.1c-0.3 0-0.6 0.1-0.9 0.2 -1.1 0.3-2 1.1-2.6 2.1 -0.6 1-0.7 2.2-0.3 3.3 0.7 2.2 3.2 3.6 5.5 2.9 1.1-0.3 2-1.1 2.6-2.1 0.6-1 0.7-2.2 0.3-3.4 -0.6-1.9-2.6-3.2-4.6-3Zm1.7 371.9c-0.6-0.2-1.1-0.2-1.7-0.2 -1.8 0.2-3.3 1.4-3.8 3.1 -0.3 1.1-0.2 2.3 0.3 3.3 0.6 1 1.5 1.8 2.6 2.1 0.6 0.2 1.1 0.2 1.7 0.2 1.8-0.2 3.2-1.4 3.8-3.1 0.3-1.1 0.2-2.3-0.3-3.4 -0.6-0.9-1.5-1.7-2.6-2Z" fill="#fefff7"/>
  <circle cx="87.6" cy="88.8" r="2.9" fill="#fce889"/>
  <circle cx="117.5" cy="84.3" r="2.9" fill="#fce889"/>
  <circle cx="117.3" cy="63" r="2.9" fill="#fce889"/>
  <circle cx="146.9" cy="64.7" r="2.9" fill="#fce889"/>
  <circle cx="160.1" cy="34.8" r="2.9" fill="#fce889"/>
  <circle cx="175" cy="51.4" r="2.9" fill="#fce889"/>
  <circle cx="190.6" cy="34" r="2.9" fill="#fce889"/>
  <circle cx="191" cy="11.8" r="2.9" fill="#fce889"/>
  <circle cx="212.6" cy="41.4" r="2.9" fill="#fce889"/>
  <circle cx="246.5" cy="38.7" r="2.9" fill="#fce889"/>
  <circle cx="263.9" cy="20.8" r="2.9" fill="#fce889"/>
  <circle cx="288.6" cy="8.9" r="2.9" fill="#fce889"/>
  <circle cx="286.4" cy="38.1" r="2.9" fill="#fce889"/>
  <circle cx="309.2" cy="24.2" r="2.9" fill="#fce889"/>
  <circle cx="325.4" cy="43.6" r="2.9" fill="#fce889"/>
  <circle cx="338.2" cy="11.2" r="2.9" fill="#fce889"/>
  <circle cx="360.7" cy="34.8" r="2.9" fill="#fce889"/>
  <circle cx="351.1" cy="59.1" r="2.9" fill="#fce889"/>
  <circle cx="382.5" cy="85.3" r="2.9" fill="#fce889"/>
  <circle cx="422.2" cy="123.3" r="2.9" fill="#fce889"/>
  <circle cx="417.1" cy="92" r="2.9" fill="#fce889"/>
  <circle cx="444" cy="91.8" r="2.9" fill="#fce889"/>
  <circle cx="444.8" cy="123.3" r="2.9" fill="#fce889"/>
  <circle cx="440.7" cy="156" r="2.9" fill="#fce889"/>
  <circle cx="471.8" cy="142.7" r="2.9" fill="#fce889"/>
  <circle cx="459.9" cy="170.5" r="2.9" fill="#fce889"/>
  <circle cx="458.1" cy="197.4" r="2.9" fill="#fce889"/>
  <circle cx="483.4" cy="202.3" r="2.9" fill="#fce889"/>
  <circle cx="469.3" cy="218.2" r="2.9" fill="#fce889"/>
  <circle cx="489.2" cy="244" r="2.9" fill="#fce889"/>
  <circle cx="460.8" cy="244.8" r="2.9" fill="#fce889"/>
  <circle cx="476.3" cy="268.5" r="2.9" fill="#fce889"/>
  <circle cx="456.9" cy="286.3" r="2.9" fill="#fce889"/>
  <circle cx="450.8" cy="315.7" r="2.9" fill="#fce889"/>
  <circle cx="474.4" cy="307.3" r="2.9" fill="#fce889"/>
  <circle cx="468.7" cy="340.6" r="2.9" fill="#fce889"/>
  <circle cx="441" cy="345.9" r="2.9" fill="#fce889"/>
  <circle cx="466.5" cy="372" r="2.9" fill="#fce889"/>
  <circle cx="441.2" cy="372.2" r="2.9" fill="#fce889"/>
  <circle cx="415.8" cy="377.5" r="2.9" fill="#fce889"/>
  <circle cx="435.2" cy="399.6" r="2.9" fill="#fce889"/>
  <circle cx="408.3" cy="405.5" r="2.9" fill="#fce889"/>
  <circle cx="383" cy="411" r="2.9" fill="#fce889"/>
  <circle cx="403.4" cy="429.8" r="2.9" fill="#fce889"/>
  <circle cx="371.5" cy="441.9" r="2.9" fill="#fce889"/>
  <circle cx="365.8" cy="467.2" r="2.9" fill="#fce889"/>
  <circle cx="341.9" cy="438.8" r="2.9" fill="#fce889"/>
  <circle cx="336" cy="459.4" r="2.9" fill="#fce889"/>
  <circle cx="308.4" cy="450.9" r="2.9" fill="#fce889"/>
  <circle cx="288.2" cy="475.4" r="2.9" fill="#fce889"/>
  <circle cx="277.6" cy="456" r="2.9" fill="#fce889"/>
  <circle cx="258.4" cy="469.9" r="2.9" fill="#fce889"/>
  <circle cx="252.5" cy="491.1" r="2.9" fill="#fce889"/>
  <circle cx="222.8" cy="475.6" r="2.9" fill="#fce889"/>
  <circle cx="238.8" cy="456.4" r="2.9" fill="#fce889"/>
  <circle cx="204.5" cy="450.2" r="2.9" fill="#fce889"/>
  <circle cx="182.8" cy="464.3" r="2.9" fill="#fce889"/>
  <circle cx="157.5" cy="469.9" r="2.9" fill="#fce889"/>
  <circle cx="167.1" cy="442.1" r="2.9" fill="#fce889"/>
  <circle cx="140.7" cy="449.8" r="2.9" fill="#fce889"/>
  <circle cx="130.3" cy="426.4" r="2.9" fill="#fce889"/>
  <circle cx="93.6" cy="426.6" r="2.9" fill="#fce889"/>
  <circle cx="109.3" cy="405.5" r="2.9" fill="#fce889"/>
  <circle cx="79.3" cy="397.8" r="2.9" fill="#fce889"/>
  <circle cx="85" cy="371.6" r="2.9" fill="#fce889"/>
  <circle cx="53.1" cy="385.1" r="2.9" fill="#fce889"/>
  <circle cx="53.3" cy="356.9" r="2.9" fill="#fce889"/>
  <circle cx="23.3" cy="351.6" r="2.9" fill="#fce889"/>
  <circle cx="56.2" cy="325.5" r="2.9" fill="#fce889"/>
  <circle cx="34.3" cy="319.5" r="2.9" fill="#fce889"/>
  <circle cx="47" cy="288.9" r="2.9" fill="#fce889"/>
  <circle cx="10.8" cy="289.3" r="2.9" fill="#fce889"/>
  <circle cx="31.3" cy="270.9" r="2.9" fill="#fce889"/>
  <circle cx="39.8" cy="244.4" r="2.9" fill="#fce889"/>
  <circle cx="33.9" cy="221.5" r="2.9" fill="#fce889"/>
  <circle cx="16.6" cy="207.8" r="2.9" fill="#fce889"/>
  <circle cx="49.7" cy="197.8" r="2.9" fill="#fce889"/>
  <circle cx="40.1" cy="171.3" r="2.9" fill="#fce889"/>
  <circle cx="31.3" cy="142.5" r="2.9" fill="#fce889"/>
  <circle cx="63.3" cy="159" r="2.9" fill="#fce889"/>
  <circle cx="65.8" cy="129" r="2.9" fill="#fce889"/>
  <circle cx="56" cy="102.2" r="2.9" fill="#fce889"/>
  <circle cx="409.9" cy="64.9" r="2.9" fill="#fce889"/>
  <circle cx="381.7" cy="58.9" r="2.9" fill="#fce889"/>
  <circle cx="223.9" cy="19.3" r="2.9" fill="#fce889"/>
</symbol><symbol id="hans-sharing" viewBox="0 0 500 500">
  <title>Hans is sharing</title>
  <style>.svg-sharing{fill:none;stroke-width:4.7;stroke:#333;}</style>
  <path d="M178.8 125.9l1.9-2.5 4 3c0.4 2.1-0.1 4.1-1.6 6.1 -1.3 1.7-2.9 2.6-4.8 2.9 -1.9 0.3-3.8-0.2-5.5-1.5 -1.7-1.3-2.6-2.9-2.9-4.9 -0.3-2 0.2-3.8 1.5-5.4 1.2-1.6 2.8-2.6 4.8-3l0.9 2.7c-0.8 0.2-1.5 0.4-2 0.7 -0.5 0.3-0.9 0.7-1.3 1.2 -0.7 1-1 2-0.9 3.2 0.2 1.2 0.8 2.1 1.8 2.9 1.1 0.8 2.2 1.1 3.3 1 1.1-0.1 2-0.7 2.7-1.5 0.7-0.9 1-1.7 1.1-2.6l-3-2.3Zm6.8-17.2l2 2 -5.1 4.9 2 2.1 4.6-4.4 1.9 1.9 -4.6 4.4 2.1 2.1 5.2-5.1 2 2 -7.5 7.3 -9.9-10.2 7.3-7Zm11.7-8.8l2.6-1.8 8.1 11.6 -2.6 1.8 -10.6-3.4 5.1 7.3 -2.6 1.8 -8.1-11.6 2.4-1.7 10.9 3.5 -5.2-7.5Zm15.2 3.5c0.8 0.4 1.5 0.4 2.3 0 0.8-0.4 1.3-1 1.5-1.8 0.2-0.8 0-1.7-0.4-2.8l-3.3-7.1 2.9-1.3 3.4 7.2c0.9 1.9 1 3.5 0.5 5 -0.6 1.5-1.6 2.6-3.2 3.4 -1.6 0.8-3.2 0.9-4.7 0.4 -1.5-0.5-2.7-1.7-3.6-3.5l-3.4-7.2 2.9-1.3 3.3 7.1c0.4 0.8 1 1.5 1.8 1.9Zm7.3-14.5l3-1 4.5 13.5 -3 1 -4.5-13.5Zm17.3-4.5l3.1-0.6 2.8 13.9 -3.1 0.6 -8.4-7.4 1.7 8.7 -3.1 0.6 -2.8-13.9 2.9-0.6 8.6 7.6 -1.7-8.9Zm18.6-1.4l0.1 2.8 -7.1 0.2 0.1 2.9 6.4-0.2 0.1 2.7 -6.3 0.2 0.1 2.9 7.3-0.3 0.1 2.8 -10.4 0.4 -0.5-14.2 10.1-0.2Zm13.3 4c-0.3 0.2-0.5 0.5-0.6 0.9 -0.1 0.4 0.1 0.8 0.4 1.1 0.3 0.3 1.1 0.7 2.4 1.3 1.3 0.5 2.2 1.2 2.9 2 0.6 0.8 0.8 1.8 0.6 3 -0.2 1.2-0.8 2.2-1.9 2.8 -1.1 0.6-2.4 0.8-3.9 0.6 -2.2-0.4-4.1-1.5-5.6-3.4l2.2-2c1.3 1.6 2.6 2.5 3.9 2.7 0.6 0.1 1 0 1.4-0.1 0.4-0.2 0.6-0.5 0.7-0.9 0.1-0.4 0-0.8-0.4-1.1 -0.3-0.3-1-0.7-1.9-1.1 -1.6-0.7-2.7-1.4-3.3-2.1 -0.7-0.7-0.9-1.8-0.7-3.1 0.2-1.3 0.9-2.3 1.9-2.8 1-0.5 2.3-0.7 3.8-0.5 0.9 0.2 1.8 0.5 2.7 0.9 0.9 0.5 1.6 1.1 2.2 1.8l-2 2c-1.1-1.1-2.2-1.8-3.5-2 -0.5-0.2-1-0.2-1.3 0Zm19.9 2.1l3 1 -4.4 13.5 -3-1 1.7-5.3 -5.4-1.8 -1.7 5.3 -3-1 4.4-13.5 3 1 -1.8 5.6 5.4 1.8 1.8-5.6Zm10.3 20.3l0.3-3.3 -5.3-2.8 -2.6 2.1 -3-1.6 12-9.7 2.7 1.4 -1.2 15.4 -2.9-1.5Zm0.8-10.8l-3.5 2.8 3.1 1.6 0.4-4.4Zm17.9 12.5c-1.4 1.8-3 2.5-4.8 1.9l-0.2 6.2 -3.1-2.3 0.2-5.5 -1.8-1.3 -2.7 3.6 -2.5-1.9 8.5-11.4 4.3 3.2c1.8 1.3 2.8 2.6 3.1 3.7 0.4 1.2 0 2.5-1 3.8Zm-4-1c0.5 0 1-0.4 1.5-1 0.5-0.6 0.6-1.2 0.5-1.6 -0.2-0.5-0.6-1-1.4-1.6l-1.9-1.4 -2.5 3.4 1.9 1.4c0.7 0.6 1.4 0.9 1.9 0.8Zm17.7 7.8l-2 2 -5-5 -2.1 2 4.5 4.5 -1.9 1.9 -4.5-4.5 -2.1 2.1 5.1 5.2 -2 2 -7.3-7.5 10.1-9.9 7.2 7.2Zm6 15.6c-1.8 1.3-3.6 1.5-5.2 0.4l-2 5.9 -2.3-3.2 1.8-5.2 -1.3-1.8 -3.7 2.7 -1.9-2.6 11.5-8.3 3.2 4.4c1.3 1.8 1.9 3.3 1.9 4.5 0 1.2-0.7 2.3-2 3.2Zm-3.7-2.1c0.5 0.1 1.1-0.1 1.7-0.5 0.6-0.4 0.9-0.9 0.9-1.4 0-0.5-0.3-1.2-0.9-2l-1.4-1.9 -3.4 2.5 1.4 1.9c0.7 0.8 1.2 1.3 1.7 1.4Z" fill="#333"/>
  <path d="M401.7 138.7c-5.3-16.4-0.4-38.2-10.3-51.8 -10-13.8-32.3-15.8-46.1-25.8 -13.6-9.9-22.4-30.6-38.8-35.9 -15.8-5.1-34.9 6.3-52.5 6.3 -17.5 0-36.7-11.4-52.5-6.3 -16.4 5.3-25.1 26-38.8 35.9 -13.8 10-36.1 12-46.1 25.8 -9.9 13.6-5 35.4-10.3 51.8 -5.1 15.8-22.1 30.4-22.1 48 0 17.5 16.9 32.2 22.1 48 5.3 16.4 0.4 38.2 10.3 51.8 10 13.8 32.3 15.8 46.1 25.8 13.6 9.9 22.4 30.6 38.8 35.9 15.8 5.1 35-6.3 52.5-6.3 17.5 0 36.7 11.4 52.5 6.3 16.4-5.3 25.1-26 38.8-35.9 13.8-10 36.1-12 46.1-25.8 9.9-13.6 5-35.4 10.3-51.8 5.1-15.8 22.1-30.5 22.1-48 -0.1-17.5-17-32.2-22.1-48Z" class="svg-sharing"/>
  <path d="M386.6 99.4c0 4.2-3.4 7.6-7.6 7.6 -4.2 0-7.6-3.4-7.6-7.6 0-4.2 3.4-7.6 7.6-7.6 4.2 0 7.6 3.4 7.6 7.6Zm27.9 86.8c0 4.2-3.4 7.6-7.6 7.6 -4.2 0-7.6-3.4-7.6-7.6 0-4.2 3.4-7.6 7.6-7.6 4.1-0.1 7.6 3.4 7.6 7.6Zm-304.6 0c0 4.2-3.4 7.6-7.6 7.6 -4.2 0-7.6-3.4-7.6-7.6 0-4.2 3.4-7.6 7.6-7.6 4.2-0.1 7.6 3.4 7.6 7.6Zm272.4 93.1c0 4.2-3.4 7.6-7.6 7.6 -4.2 0-7.6-3.4-7.6-7.6 0-4.2 3.4-7.6 7.6-7.6 4.1-0.1 7.6 3.3 7.6 7.6Zm-76.5 53.2c0 4.2-3.4 7.6-7.6 7.6 -4.2 0-7.6-3.4-7.6-7.6 0-4.2 3.4-7.6 7.6-7.6 4.2-0.1 7.6 3.3 7.6 7.6Zm-92.2 0c0 4.2-3.4 7.6-7.6 7.6 -4.2 0-7.6-3.4-7.6-7.6 0-4.2 3.4-7.6 7.6-7.6 4.2-0.1 7.6 3.3 7.6 7.6Zm-75.3-53.2c0 4.2-3.4 7.6-7.6 7.6 -4.2 0-7.6-3.4-7.6-7.6 0-4.2 3.4-7.6 7.6-7.6 4.2-0.1 7.6 3.3 7.6 7.6Zm170.8-237.2c0 4.2-3.4 7.6-7.6 7.6 -4.2 0-7.6-3.4-7.6-7.6 0-4.2 3.4-7.6 7.6-7.6 4.2 0 7.6 3.4 7.6 7.6Zm-96.6 0c0 4.2-3.4 7.6-7.6 7.6 -4.2 0-7.6-3.4-7.6-7.6 0-4.2 3.4-7.6 7.6-7.6 4.2 0 7.6 3.4 7.6 7.6Zm-75.8 57.3c0 4.2-3.4 7.6-7.6 7.6 -4.2 0-7.6-3.4-7.6-7.6 0-4.2 3.4-7.6 7.6-7.6 4.1 0 7.6 3.4 7.6 7.6Z" fill="#60b5ca"/>
  <path d="M209.8 316.9c-9.1 0-17.3-5.4-20.9-13.8l-8.5-19.8c-5.4-10.7-14-18.6-24.9-23l-15.6-6.2c-7.5-3-12.8-9.7-14-17.7 -0.6-4-0.1-8.1 1.4-11.8l6.1-15.3c4.6-11.5 4.6-24.1 0.1-35.6 -0.4-0.9-0.8-1.8-1.2-2.8l-7.9-18.4c-1.9-4.4-2.3-9.2-1.3-13.8 1.6-7.1 6.5-13.1 13.2-16l21.3-9.1c10.8-5.1 19.3-13.9 24-24.9l6.5-16.1c3.5-8.6 11.7-14.3 21.1-14.3 2.9 0 5.7 0.6 8.4 1.6l17.8 7.1c4.9 1.7 10.1 2.5 15.2 2.5 6.5 0 12.9-1.3 19-3.9l17.2-7.3c2.8-1.2 5.8-1.9 8.9-1.9 9.1 0 17.3 5.4 20.9 13.8l8 18.6c5.1 10.8 14 19.4 25 24l19.9 8c5.6 2.2 10.1 6.5 12.4 12.1 2.4 5.6 2.5 11.7 0.2 17.4l-8.4 20.9c-4 11.3-3.7 23.6 0.9 34.7l6.3 14.8c4.9 11.5-0.4 24.9-11.9 29.8l-16.7 7.2c-10.6 5.3-18.9 14.2-23.3 25.3l-7.7 19.3c-3.5 8.7-11.7 14.3-21.1 14.3 -2.9 0-5.8-0.6-8.5-1.6l-20.7-8.3c-5.3-1.9-10.8-2.9-16.4-2.9 -6.4 0-12.7 1.3-18.7 3.8l-17.4 7.4c-2.7 1.3-5.7 1.9-8.7 1.9Zm-0.5-258c-9.1 0-17.2 5.5-20.6 14l-6.5 16.1c-4.7 11.1-13.3 20-24.2 25.1l-21.4 9.1c-6.5 2.8-11.4 8.6-12.9 15.6 -1 4.5-0.6 9.2 1.3 13.5l7.9 18.4c0.4 0.9 0.8 1.8 1.2 2.8 4.5 11.6 4.5 24.3-0.1 35.9l-6.2 15.3c-1.5 3.7-1.9 7.7-1.3 11.6 1.2 7.8 6.4 14.4 13.7 17.3l15.6 6.2c11 4.4 19.8 12.5 25.2 23.2l8.4 19.8c3.5 8.2 11.5 13.5 20.4 13.5 3 0 6-0.6 8.7-1.8l17.4-7.4c6-2.5 12.4-3.8 18.9-3.8 5.7 0 11.2 1 16.6 2.9l20.8 8.3c2.7 1.1 5.4 1.6 8.3 1.6 9.1 0 17.2-5.5 20.6-13.9l7.7-19.3c4.5-11.1 12.8-20.2 23.6-25.5l16.8-7.2c11.2-4.8 16.5-17.9 11.7-29.1l-6.3-14.8c-4.7-11.2-5-23.7-0.9-35.1l8.4-20.9c2.2-5.5 2.1-11.5-0.2-17 -2.3-5.5-6.6-9.7-12.1-11.9l-20-8c-11.1-4.7-20.1-13.3-25.3-24.2l-7.9-18.6c-3.5-8.2-11.5-13.5-20.4-13.5 -3 0-5.9 0.6-8.7 1.8l-17.5 7.4c-6.2 2.6-12.6 4-19.2 4 -5.3 0-10.4-0.9-15.4-2.5l-17.8-7.1c-2.7-1.2-5.5-1.8-8.3-1.8ZM154.3 281.8c-8-4.2-12.8-12.8-12.1-21.9l1.7-21.4c0.2-11.9-3.7-23-11.4-31.9l-10.9-12.8c-5.2-6.1-6.8-14.6-4.2-22.2 1.3-3.8 3.6-7.2 6.7-9.8l12.5-10.7c9.4-8 15.3-19.2 16.6-31.4 0.1-1 0.2-2 0.2-3l1.6-20c0.4-4.8 2.2-9.2 5.3-12.8 4.7-5.6 11.9-8.5 19.1-8l23.1 1.8c11.9 0.5 23.6-3.3 32.8-10.9l13.2-11.3c7.1-6 17-7.2 25.3-2.8 2.5 1.3 4.8 3.2 6.7 5.4l12.5 14.6c3.6 3.8 7.7 6.9 12.3 9.3 5.8 3 12.1 4.8 18.7 5.4l18.6 1.5c3.1 0.2 6 1.1 8.7 2.5 8 4.2 12.8 12.8 12.1 21.9l-1.6 20.1c-0.6 12 3.4 23.6 11 32.9l13.9 16.4c3.9 4.6 5.9 10.5 5.4 16.5 -0.5 6-3.3 11.5-7.9 15.5l-17.1 14.6c-8.8 8.1-14.3 19.2-15.4 31.2l-1.3 16c-1 12.5-11.9 21.8-24.4 20.8l-18.2-1.4c-11.8-0.3-23.3 3.8-32.4 11.5l-15.8 13.5c-7.1 6-17 7.2-25.3 2.8 -2.6-1.4-4.8-3.2-6.7-5.4l-14.5-17c-3.8-4.1-8.2-7.6-13.2-10.2 -5.7-3-11.8-4.8-18.3-5.3l-18.8-1.5c-2.9-0.3-5.8-1.1-8.5-2.5Zm119.4-228.7c-8.1-4.2-17.8-3.2-24.7 2.8l-13.2 11.3c-9.3 7.6-21.1 11.6-33.1 11l-23.2-1.8c-7.1-0.6-14.1 2.3-18.7 7.8 -3 3.6-4.8 7.9-5.2 12.6l-1.6 20c0 1-0.1 2-0.2 3 -1.4 12.4-7.3 23.6-16.8 31.7l-12.5 10.7c-3 2.6-5.3 5.9-6.6 9.6 -2.6 7.4-1 15.7 4.1 21.7l10.9 12.8c7.7 9.1 11.7 20.2 11.5 32.3l-1.7 21.4c-0.7 8.9 3.9 17.3 11.8 21.4 2.7 1.4 5.6 2.2 8.6 2.5l18.8 1.5c6.5 0.6 12.7 2.4 18.5 5.4 5 2.6 9.5 6.1 13.3 10.3l14.5 17c1.9 2.2 4.1 3.9 6.6 5.2 8.1 4.2 17.8 3.2 24.7-2.8l15.8-13.5c9.1-7.8 20.7-11.9 32.7-11.6l18.2 1.4c12.2 1 22.9-8.2 23.9-20.4l1.3-16c1.1-12.1 6.6-23.3 15.5-31.5l17.1-14.6c4.5-3.8 7.3-9.2 7.7-15.1 0.5-5.9-1.4-11.7-5.2-16.1l-14-16.4c-7.7-9.3-11.6-21.1-11.1-33.2l1.6-20.2c0.7-8.9-3.9-17.3-11.8-21.4 -2.7-1.4-5.5-2.2-8.6-2.5l-18.6-1.5c-6.7-0.5-13-2.4-18.9-5.4 -4.6-2.4-8.8-5.6-12.4-9.4l-12.5-14.6c-1.7-2.3-3.9-4-6.5-5.4ZM120.4 220.3c-4.9-7.7-4.7-17.5 0.4-25l12.1-17.7c6.1-10.3 8.2-21.8 6-33.4l-3.1-16.5c-1.5-7.9 1.4-16 7.4-21.3 3-2.7 6.7-4.5 10.7-5.2l16.2-3c12.1-2.3 22.8-9 30.1-19 0.6-0.8 1.2-1.6 1.7-2.5l11.3-16.6c2.7-3.9 6.5-6.9 11-8.5 6.8-2.5 14.5-1.5 20.5 2.6l19.2 13.1c10.1 6.4 22.1 8.8 33.9 6.8l17-3.2c9.2-1.7 18.3 2.2 23.4 10.1 1.5 2.4 2.6 5.1 3.2 8l3.5 18.9c1.2 5 3.3 9.8 6.1 14.2 3.5 5.5 8.1 10.2 13.5 13.9l15.4 10.5c2.5 1.8 4.7 3.9 6.3 6.5 4.9 7.7 4.7 17.5-0.4 25l-11.4 16.7c-6.4 10.1-8.8 22.2-6.8 34l4 21.1c1.1 6-0.1 12-3.6 17 -3.4 5-8.6 8.4-14.5 9.5l-22.1 4.2c-11.7 2.7-21.9 9.6-28.8 19.4l-9.1 13.3c-7.1 10.3-21.2 13-31.5 5.9l-15-10.3c-10.1-6.1-22.2-8.3-33.8-6.1l-20.4 3.8c-9.2 1.7-18.3-2.2-23.3-10.1 -1.6-2.4-2.6-5.1-3.2-8l-4.1-21.9c-1.2-5.5-3.4-10.7-6.4-15.4 -3.4-5.4-7.9-10.1-13.2-13.7l-15.6-10.7c-2.8-1.6-4.9-3.8-6.6-6.4Zm217.4-138.9c-4.9-7.7-13.9-11.6-22.8-9.9l-17.1 3.2c-11.9 2-24-0.4-34.2-6.9l-19.2-13.1c-5.9-4-13.4-5-20.1-2.5 -4.4 1.6-8.1 4.5-10.7 8.3l-11.4 16.5c-0.5 0.8-1.1 1.7-1.7 2.5 -7.3 10-18.1 16.9-30.4 19.2l-16.2 3c-3.9 0.7-7.5 2.5-10.5 5.1 -5.9 5.2-8.7 13.1-7.2 20.8l3.1 16.5c2.2 11.7 0.1 23.4-6.1 33.7l-12.1 17.8c-5 7.4-5.2 17-0.4 24.5 1.6 2.5 3.7 4.7 6.2 6.4l15.6 10.7c5.4 3.7 9.9 8.4 13.4 13.9 3 4.8 5.2 10 6.4 15.6l4.1 22c0.5 2.8 1.5 5.4 3.1 7.8 4.9 7.7 13.8 11.6 22.8 9.9l20.4-3.8c11.8-2.2 23.9 0 34.2 6.2l15.1 10.3c10.1 6.9 23.9 4.3 30.9-5.8l9.1-13.3c7-9.9 17.3-16.9 29.2-19.6l22.1-4.1c5.8-1.1 10.9-4.4 14.2-9.3 3.3-4.9 4.6-10.8 3.5-16.6l-4-21.1c-2-11.9 0.4-24.1 6.9-34.3l11.4-16.7c5-7.4 5.2-17 0.4-24.5 -1.6-2.5-3.7-4.7-6.2-6.4l-15.4-10.5c-5.5-3.8-10.1-8.5-13.6-14.1 -2.8-4.4-4.9-9.2-6.1-14.4l-3.5-18.9c-0.7-3.1-1.7-5.7-3.2-8.1Z" fill="#333"/>
  <path d="M370 186.7c0 64.1-51.9 116-116 116 -64.1 0-116-51.9-116-116 0-64.1 51.9-116 116-116 64.1-0.1 116 51.9 116 116Z" style="fill:none;stroke-width:4.6;stroke:#60b5ca"/>
  <path d="M188.4 259.9c0 2-1.6 3.6-3.6 3.6 -2 0-3.6-1.6-3.6-3.6 0-2 1.6-3.6 3.6-3.6 2 0.1 3.6 1.7 3.6 3.6Zm16.4 0c0 2-1.6 3.6-3.6 3.6 -2 0-3.6-1.6-3.6-3.6 0-2 1.6-3.6 3.6-3.6 2 0.1 3.6 1.7 3.6 3.6Zm16.4 0c0 2-1.6 3.6-3.6 3.6 -2 0-3.6-1.6-3.6-3.6 0-2 1.6-3.6 3.6-3.6 2 0.1 3.6 1.7 3.6 3.6Zm70.1 0c0 2-1.6 3.6-3.6 3.6 -2 0-3.6-1.6-3.6-3.6 0-2 1.6-3.6 3.6-3.6 2 0.1 3.6 1.7 3.6 3.6Zm-82.7 224.4l-31.6-45.2 -56.9 20.3 5.8-17.8 57.7-23.4 33.1 45.6m91-203.9c0 2-1.6 3.6-3.6 3.6 -2 0-3.6-1.6-3.6-3.6 0-2 1.6-3.6 3.6-3.6 2 0.1 3.6 1.7 3.6 3.6Zm16.5 0c0 2-1.6 3.6-3.6 3.6 -2 0-3.6-1.6-3.6-3.6 0-2 1.6-3.6 3.6-3.6 2 0.1 3.6 1.7 3.6 3.6Z" fill="#f57915"/>
  <path d="M253.1 342.6c-13.8 47.5-45 143.5-45 143.5l-32.6-44.9 -54.5 19.6c0 0 32.1-98.7 45.8-145.8" class="svg-sharing"/>
  <path d="M297.5 484.3l31.6-45.2 56.9 20.3 -5.7-17.8 -57.8-23.4 -33.1 45.6" fill="#f57915"/>
  <path d="M253.1 342.6c13.8 47.5 45 143.5 45 143.5l32.6-44.9 54.5 19.7c0 0-31.5-95.3-45.2-142.5" class="svg-sharing"/>
  <path d="M208.9 230.3c1.3 1.1 1.9 2.7 1.9 4.9 0 2.2-0.6 3.8-1.9 4.9 -1.3 1-3.3 1.5-5.9 1.5l-2.4 0 0 5 -4 0 0-18 6.4 0c2.6 0.1 4.6 0.7 5.9 1.7Zm-2.9 7.1c0.5-0.5 0.7-1.3 0.7-2.4 0-1-0.3-1.8-0.9-2.2 -0.6-0.4-1.6-0.7-2.9-0.7l-2.3 0 0 6 2.7 0c1.3 0.1 2.2-0.2 2.7-0.7Zm19.7 9.3l-1.7-3.9 -7.5 0 -1.7 3.9 -4.3 0 7.8-18 3.9 0 7.8 18 -4.3 0Zm-5.4-12.6l-2.3 5.2 4.5 0 -2.2-5.2Zm15.8-1.8c-0.4 0.3-0.6 0.7-0.6 1.3 0 0.5 0.2 0.9 0.7 1.2 0.5 0.3 1.6 0.7 3.3 1.1 1.7 0.4 3 1.1 4 1.9 0.9 0.8 1.4 2.1 1.4 3.7 0 1.6-0.6 2.9-1.8 3.9 -1.2 1-2.8 1.5-4.8 1.5 -2.8 0-5.4-1.1-7.7-3.2l2.4-2.9c1.9 1.7 3.7 2.5 5.4 2.5 0.7 0 1.3-0.2 1.7-0.5 0.4-0.3 0.6-0.7 0.6-1.3 0-0.6-0.2-1-0.7-1.3 -0.4-0.3-1.3-0.6-2.7-1 -2.1-0.5-3.6-1.1-4.6-1.9 -1-0.8-1.5-2.1-1.5-3.8 0-1.7 0.6-3 1.8-4 1.2-0.9 2.8-1.4 4.6-1.4 1.2 0 2.4 0.2 3.6 0.6 1.2 0.4 2.2 1 3.1 1.8l-2 2.9c-1.6-1.2-3.2-1.8-4.8-1.8 -0.4 0.2-1 0.4-1.4 0.7Zm16.5 0c-0.4 0.3-0.6 0.7-0.6 1.3 0 0.5 0.2 0.9 0.7 1.2 0.5 0.3 1.6 0.7 3.3 1.1 1.7 0.4 3 1.1 4 1.9 0.9 0.8 1.4 2.1 1.4 3.7 0 1.6-0.6 2.9-1.8 3.9 -1.2 1-2.8 1.5-4.8 1.5 -2.8 0-5.4-1.1-7.7-3.2l2.4-2.9c1.9 1.7 3.7 2.5 5.4 2.5 0.7 0 1.3-0.2 1.7-0.5 0.4-0.3 0.6-0.7 0.6-1.3 0-0.6-0.2-1-0.7-1.3 -0.4-0.3-1.3-0.6-2.7-1 -2.1-0.5-3.6-1.1-4.6-1.9 -1-0.8-1.5-2.1-1.5-3.8 0-1.7 0.6-3 1.8-4 1.2-0.9 2.8-1.4 4.6-1.4 1.2 0 2.4 0.2 3.6 0.6 1.2 0.4 2.2 1 3.1 1.8l-2 2.9c-1.6-1.2-3.2-1.8-4.8-1.8 -0.5 0.2-1.1 0.4-1.4 0.7Zm12.2-3.6l4 0 0 18 -4 0 0-18Zm23.6 15.5c-1.8 1.8-4.1 2.7-6.7 2.7 -2.6 0-4.9-0.9-6.7-2.7 -1.8-1.8-2.7-4-2.7-6.6 0-2.6 0.9-4.9 2.7-6.6 1.8-1.8 4.1-2.7 6.7-2.7 2.6 0 4.9 0.9 6.7 2.7 1.8 1.8 2.7 4 2.7 6.6 0 2.6-0.9 4.9-2.7 6.6Zm-1.4-6.6c0-1.6-0.5-3-1.5-4.1 -1-1.1-2.3-1.7-3.8-1.7 -1.5 0-2.8 0.6-3.8 1.7 -1 1.1-1.5 2.5-1.5 4.1 0 1.6 0.5 3 1.5 4.1 1 1.1 2.3 1.7 3.8 1.7 1.5 0 2.8-0.6 3.8-1.7 1-1.1 1.5-2.5 1.5-4.1Zm20.1-8.9l4 0 0 18 -4 0 -8.6-11.3 0 11.3 -4 0 0-18 3.8 0 8.8 11.6 0-11.6Zm-82.6 51.2l4.4 0 0 6.9c-1.9 2.2-4.6 3.3-8.1 3.3 -2.9 0-5.3-1-7.2-2.9 -2-1.9-2.9-4.3-2.9-7.2 0-2.9 1-5.3 3-7.3 2-1.9 4.4-2.9 7.2-2.9 2.8 0 5.3 0.9 7.3 2.8l-2.3 3.3c-0.9-0.8-1.7-1.3-2.4-1.6 -0.7-0.3-1.5-0.4-2.4-0.4 -1.7 0-3.1 0.6-4.2 1.7 -1.1 1.1-1.7 2.6-1.7 4.5 0 1.9 0.5 3.3 1.6 4.4 1.1 1.1 2.4 1.7 3.9 1.7 1.5 0 2.8-0.3 3.8-0.9l0-5.4Zm24.8 7.3c-2 1.9-4.4 2.9-7.3 2.9 -2.9 0-5.3-1-7.3-2.9 -2-1.9-3-4.3-3-7.2 0-2.9 1-5.3 3-7.2 2-1.9 4.4-2.9 7.3-2.9 2.9 0 5.3 1 7.3 2.9 2 1.9 3 4.3 3 7.2 0 2.9-1.1 5.3-3 7.2Zm-1.5-7.2c0-1.7-0.6-3.2-1.7-4.5 -1.1-1.2-2.5-1.8-4.1-1.8 -1.6 0-3 0.6-4.1 1.8 -1.1 1.2-1.7 2.7-1.7 4.5 0 1.7 0.6 3.2 1.7 4.5 1.1 1.2 2.5 1.8 4.1 1.8 1.6 0 3-0.6 4.1-1.8 1.1-1.3 1.7-2.8 1.7-4.5Zm24.6 7.2c-2 1.9-4.4 2.9-7.3 2.9 -2.9 0-5.3-1-7.3-2.9 -2-1.9-3-4.3-3-7.2 0-2.9 1-5.3 3-7.2 2-1.9 4.4-2.9 7.3-2.9 2.9 0 5.3 1 7.3 2.9 2 1.9 3 4.3 3 7.2 0 2.9-1 5.3-3 7.2Zm-1.5-7.2c0-1.7-0.6-3.2-1.7-4.5 -1.1-1.2-2.5-1.8-4.1-1.8 -1.6 0-3 0.6-4.1 1.8 -1.1 1.2-1.7 2.7-1.7 4.5 0 1.7 0.6 3.2 1.7 4.5 1.1 1.3 2.5 1.8 4.1 1.8 1.6 0 3-0.6 4.1-1.8 1.1-1.2 1.7-2.8 1.7-4.5Zm23.1-7.1c1.9 1.7 2.8 4.1 2.8 7.1 0 3-0.9 5.5-2.7 7.2 -1.8 1.8-4.6 2.7-8.3 2.7l-6.7 0 0-19.6 6.9 0c3.5 0 6.2 0.9 8 2.6Zm-3.2 11.6c1.1-1 1.6-2.5 1.6-4.4 0-1.9-0.5-3.4-1.6-4.4 -1.1-1-2.7-1.6-4.9-1.6l-2.4 0 0 11.9 2.8 0c1.9 0 3.5-0.5 4.5-1.5Zm-44.9-30.7l0 2.1 -5 0 0 2.3 4.7 0 0 2.1 -4.6 0 0 4.2 -2.4 0 0-10.7 7.3 0Zm11 9.3c-1.1 1.1-2.4 1.6-4 1.6 -1.6 0-2.9-0.5-4-1.6 -1.1-1.1-1.6-2.4-1.6-3.9 0-1.6 0.5-2.9 1.6-3.9 1.1-1.1 2.4-1.6 4-1.6 1.6 0 2.9 0.5 4 1.6 1.1 1.1 1.6 2.4 1.6 3.9 0 1.5-0.5 2.8-1.6 3.9Zm-0.8-4c0-1-0.3-1.8-0.9-2.4 -0.6-0.7-1.4-1-2.3-1 -0.9 0-1.6 0.3-2.3 1 -0.6 0.7-0.9 1.5-0.9 2.4 0 1 0.3 1.8 0.9 2.4 0.6 0.7 1.4 1 2.3 1 0.9 0 1.6-0.3 2.3-1 0.6-0.6 0.9-1.4 0.9-2.4Zm13.1-1.7c0 1.7-0.7 2.8-2 3.3l2.7 3.8 -2.9 0 -2.4-3.4 -1.7 0 0 3.4 -2.4 0 0-10.7 4 0c1.7 0 2.8 0.3 3.6 0.8 0.8 0.6 1.1 1.5 1.1 2.8Zm-2.9 1.3c0.3-0.3 0.4-0.7 0.4-1.3 0-0.6-0.2-1-0.5-1.2 -0.3-0.2-0.8-0.3-1.6-0.3l-1.8 0 0 3.2 1.7 0c1 0 1.5-0.2 1.8-0.4Z" fill="#333"/>
  <path d="M155.8 217.9l198.2 0m-198.2-67.4l198.2 0" style="fill:none;stroke-width:5.8;stroke:#f57915"/>
  <path d="M158.1 159.3l20.7 0 0 51 -11 0 0-41.3 -9.7 0 0-9.7Zm52.3 51.7c-7.1 0-12.3-2.4-15.8-7.2 -3.5-4.8-5.3-11.2-5.3-19.2 0-8 1.8-14.4 5.3-19.2 3.5-4.8 8.8-7.2 15.8-7.2 7.1 0 12.3 2.4 15.8 7.2 3.5 4.8 5.3 11.2 5.3 19.2 0 8-1.8 14.4-5.3 19.2 -3.4 4.8-8.7 7.2-15.8 7.2Zm-7.5-38.7c-1.6 3.1-2.4 7.2-2.4 12.3 0 5.1 0.8 9.2 2.4 12.3 1.6 3.1 4.1 4.7 7.5 4.7 3.4 0 5.9-1.6 7.5-4.7 1.6-3.1 2.4-7.2 2.4-12.3 0-5.1-0.8-9.2-2.4-12.3 -1.6-3.1-4.1-4.7-7.5-4.7 -3.4 0-5.9 1.6-7.5 4.7Zm57.9 38.7c-7.1 0-12.3-2.4-15.8-7.2 -3.5-4.8-5.3-11.2-5.3-19.2 0-8 1.8-14.4 5.3-19.2 3.5-4.8 8.8-7.2 15.8-7.2 7.1 0 12.3 2.4 15.8 7.2 3.5 4.8 5.3 11.2 5.3 19.2 0 8-1.8 14.4-5.3 19.2 -3.5 4.8-8.7 7.2-15.8 7.2Zm-7.5-38.7c-1.6 3.1-2.4 7.2-2.4 12.3 0 5.1 0.8 9.2 2.4 12.3 1.6 3.1 4.1 4.7 7.5 4.7 3.4 0 5.9-1.6 7.5-4.7 1.6-3.1 2.4-7.2 2.4-12.3 0-5.1-0.8-9.2-2.4-12.3 -1.6-3.1-4.1-4.7-7.5-4.7 -3.4 0-5.9 1.6-7.5 4.7Zm66.8-0.6c0 2.8-1 5.1-3 7.1 -2 1.9-4.5 2.9-7.5 2.9 -3 0-5.5-1-7.5-2.9 -2-1.9-3-4.3-3-7.1 0-2.8 1-5.1 3-7.1 2-1.9 4.5-2.9 7.5-2.9 3 0 5.5 1 7.5 2.9 2 2 3 4.3 3 7.1Zm27.2-11.2l-35.6 49.6 -12.2 0 35.6-49.6 12.2 0Zm-39.8 13.7c0.5 0.6 1.2 1 2.1 1 0.9 0 1.6-0.3 2.1-1 0.6-0.6 0.9-1.5 0.9-2.5 0-1-0.3-1.9-0.9-2.6 -0.6-0.7-1.3-1-2.1-1 -0.8 0-1.5 0.3-2.1 1 -0.6 0.7-0.9 1.6-0.9 2.6 0 1.1 0.3 1.9 0.9 2.5Zm40.5 26.6c0 2.8-1 5.1-3 7.1 -2 1.9-4.5 2.9-7.5 2.9 -3 0-5.5-1-7.5-2.9 -2-1.9-3-4.3-3-7.1 0-2.8 1-5.1 3-7.1 2-1.9 4.5-2.9 7.5-2.9 3 0 5.5 1 7.5 2.9 2.1 1.9 3 4.3 3 7.1Zm-12.6 2.5c0.5 0.6 1.2 1 2.1 1 0.9 0 1.6-0.3 2.1-1 0.5-0.7 0.9-1.5 0.9-2.5 0-1-0.3-1.9-0.9-2.6 -0.6-0.7-1.3-1-2.1-1 -0.8 0-1.5 0.3-2.1 1 -0.6 0.7-0.9 1.6-0.9 2.6 0.1 1 0.4 1.8 0.9 2.5Zm-81.3-81.9c0.7-2.2 1.8-3.9 3.2-5 1.4-1.1 3.2-1.7 5.2-1.7 2.4 0 4.4 0.7 5.8 2.2 1.5 1.5 2.2 3.4 2.2 5.9 0 2.1-0.5 3.9-1.5 5.1 -1 1.3-3 2.6-5.9 3.8l-0.4 0.2c-4.8 2-7.7 4.3-8.7 6.7 -1-2.5-3.9-4.7-8.7-6.7 -0.2-0.1-0.3-0.1-0.4-0.2 -2.9-1.2-4.9-2.5-5.9-3.8 -1-1.3-1.5-3-1.5-5.2 0-2.4 0.7-4.4 2.2-5.9 1.5-1.5 3.4-2.2 5.8-2.2 2.1 0 3.8 0.6 5.2 1.7 1.7 1.2 2.7 2.9 3.4 5.1Z" fill="#333"/>
</symbol><symbol id="hans-testing" viewBox="0 0 500 500">
  <title>Hans is testing</title>
  <path d="M38.8 232.7l-21.1 0 34 47.3 -34 47.3 21.1 0 33.9-47.3" fill="#60b5ca"/>
  <path d="M111.2 225.2c1.7 0.7 3.8-0.2 4.5-1.9 0.7-1.8-0.1-3.8-1.9-4.5 -0.4-0.2-0.9-0.3-1.3-0.3 -1.4 0-2.6 0.8-3.2 2.1 -0.4 0.8-0.3 1.8 0 2.6 0.4 1 1 1.7 1.9 2Zm111.6-97.1c-0.2 0-0.5 0-0.7 0.1 -0.9 0.2-1.7 0.7-2.2 1.5 -0.5 0.8-0.7 1.7-0.5 2.6 0.4 1.8 2.2 3.1 4 2.7 0.9-0.2 1.7-0.7 2.2-1.5 0.5-0.8 0.7-1.7 0.5-2.6 -0.3-1.6-1.7-2.8-3.3-2.8Zm-52.6 28.9c1.6-1 2-3.2 0.9-4.8 -0.6-1-1.7-1.5-2.9-1.5 -0.7 0-1.3 0.2-1.9 0.6 -1.6 1.1-2 3.2-0.9 4.7 1 1.6 3.2 2 4.8 1Zm-65.6 90.1c-0.2 0-0.5-0.1-0.7-0.1m90.5-110.3c-0.4 0-0.9 0.1-1.3 0.3 -0.8 0.4-1.5 1-1.8 1.8 -0.4 0.9-0.4 1.8 0 2.6 0.7 1.7 2.7 2.6 4.5 1.9 0.8-0.3 1.5-1 1.9-1.9 0.3-0.8 0.3-1.8 0-2.6 -0.7-1.2-1.9-2.1-3.3-2.1Zm86.8-1.8c1.8 0.4 3.7-0.9 4-2.7 0.2-0.9 0-1.8-0.5-2.6 -0.5-0.8-1.3-1.3-2.2-1.5 -0.2 0-0.5-0.1-0.7-0.1 -1.6 0-3 1.2-3.3 2.8 -0.2 0.9 0 1.8 0.5 2.6 0.5 0.8 1.3 1.3 2.2 1.5Zm-154.7 225.7c-0.7 0-1.3 0.2-1.9 0.6 -0.8 0.5-1.3 1.3-1.5 2.2 -0.2 0.9 0 1.8 0.5 2.6 1 1.5 3.2 2 4.7 1 1.6-1.1 2-3.2 0.9-4.8 -0.5-1-1.6-1.6-2.7-1.6Zm155.4 64.4c-0.2 0-0.4 0-0.7 0.1 -0.9 0.2-1.7 0.7-2.2 1.5 -0.5 0.8-0.7 1.7-0.5 2.6 0.3 1.8 2.2 3 4 2.7 0.9-0.2 1.7-0.7 2.2-1.5 0.5-0.8 0.7-1.7 0.5-2.6 -0.3-1.6-1.7-2.8-3.3-2.8Zm-29.6-299.8c-1.9 0-3.4 1.5-3.4 3.4 0 1.9 1.5 3.4 3.4 3.4 1.9 0 3.4-1.5 3.4-3.4 0.1-1.9-1.5-3.4-3.4-3.4Zm-28.8 299.9c-0.2-0.1-0.5-0.1-0.7-0.1 -1.6 0-3 1.2-3.4 2.8 -0.2 0.9 0 1.8 0.5 2.6 0.5 0.8 1.3 1.3 2.2 1.5 1.9 0.4 3.7-0.9 4-2.7 0.2-0.9 0-1.8-0.5-2.6 -0.5-0.8-1.2-1.3-2.1-1.5Zm-78.2-41.5c-0.9 0-1.8 0.3-2.4 1 -0.6 0.6-1 1.5-1 2.4 0 0.9 0.3 1.8 1 2.4 1.3 1.3 3.5 1.3 4.8 0 1.3-1.3 1.3-3.5 0-4.8 -0.6-0.7-1.5-1-2.4-1Zm0-214.1c-0.9 0-1.8 0.4-2.4 1 -0.6 0.6-1 1.5-1 2.4 0 0.9 0.3 1.8 1 2.4 1.2 1.2 3.6 1.2 4.8 0 1.3-1.3 1.3-3.5 0-4.8 -0.6-0.6-1.5-1-2.4-1Zm-29.6 167.1c-0.5-1.3-1.8-2.1-3.2-2.1 -0.5 0-0.9 0.1-1.3 0.3 -0.9 0.4-1.5 1-1.9 1.9 -0.4 0.8-0.4 1.8 0 2.6 0.5 1.3 1.8 2.1 3.2 2.1 0.4 0 0.9-0.1 1.3-0.3 1.8-0.8 2.6-2.8 1.9-4.5Zm12.7-143.5c-0.6-0.4-1.2-0.6-1.9-0.6 -1.2 0-2.2 0.6-2.9 1.5 -0.5 0.8-0.7 1.7-0.5 2.6 0.2 0.9 0.7 1.7 1.5 2.2 1.4 1 3.8 0.5 4.8-0.9 0.5-0.8 0.7-1.7 0.5-2.6 -0.2-1-0.8-1.7-1.5-2.2Zm67.3 223.6c-0.4-0.2-0.9-0.3-1.3-0.3 -1.4 0-2.6 0.8-3.2 2.1 -0.4 0.9-0.4 1.8 0 2.6 0.3 0.8 1 1.5 1.8 1.9 0.4 0.2 0.9 0.3 1.3 0.3 1.4 0 2.6-0.8 3.2-2.1 0.4-0.9 0.4-1.8 0-2.6 -0.3-0.9-0.9-1.6-1.8-1.9Zm-25.5-13.7c-0.6-0.4-1.2-0.6-1.9-0.6 -1.2 0-2.2 0.6-2.9 1.5 -0.5 0.8-0.7 1.7-0.5 2.6 0.2 0.9 0.7 1.7 1.5 2.2 0.5 0.4 1.1 0.5 1.8 0.5 1.2 0 2.3-0.6 2.9-1.5 0.5-0.8 0.7-1.7 0.5-2.6 -0.2-0.8-0.7-1.6-1.4-2.1Zm82.1 24.9c-1.9 0-3.4 1.5-3.4 3.4 0 1.9 1.5 3.4 3.4 3.4 1.9 0 3.4-1.5 3.4-3.4 0.1-1.8-1.5-3.4-3.4-3.4Zm127.8-66.7c-0.6-0.4-1.2-0.6-1.9-0.6 -1.2 0-2.2 0.6-2.9 1.5 -0.5 0.8-0.7 1.7-0.5 2.6 0.2 0.9 0.7 1.7 1.5 2.2 1.5 1 3.7 0.6 4.8-1 0.5-0.8 0.7-1.7 0.5-2.6 -0.2-0.8-0.8-1.6-1.5-2.1Zm-20.7-191.7c-0.9 0-1.8 0.4-2.4 1 -0.6 0.6-1 1.5-1 2.4 0 0.9 0.4 1.8 1 2.4 0.6 0.6 1.5 0.9 2.4 0.9 0.9 0 1.8-0.3 2.4-1 0.6-0.6 1-1.5 1-2.4 0-0.9-0.4-1.8-1-2.4 -0.7-0.5-1.5-0.9-2.4-0.9Zm29.6 53.9c0.7 1.7 2.8 2.6 4.5 1.8 0.8-0.3 1.5-1 1.8-1.9 0.4-0.8 0.4-1.8 0-2.6 -0.5-1.3-1.8-2.1-3.2-2.1 -0.4 0-0.9 0.1-1.3 0.3 -1.7 0.7-2.5 2.7-1.8 4.5Zm-29.6 160.2c-0.9 0-1.8 0.3-2.4 1 -1.3 1.3-1.3 3.5 0 4.8 1.3 1.3 3.6 1.3 4.8 0 0.6-0.6 1-1.5 1-2.4 0-0.9-0.4-1.8-1-2.4 -0.7-0.7-1.5-1-2.4-1Zm34.1-48.9c-0.4-0.2-0.9-0.3-1.3-0.3 -1.4 0-2.6 0.8-3.2 2.1 -0.7 1.7 0.1 3.8 1.9 4.5 1.6 0.7 3.8-0.2 4.5-1.9 0.3-0.8 0.3-1.8 0-2.6 -0.4-0.7-1.1-1.4-1.9-1.8Zm-13.4-135.9c0.8-0.5 1.3-1.3 1.5-2.2 0.2-0.9 0-1.8-0.5-2.6 -0.6-1-1.7-1.5-2.9-1.5 -0.7 0-1.3 0.2-1.9 0.6 -0.8 0.5-1.3 1.3-1.5 2.2 -0.2 0.9 0 1.8 0.5 2.6 1 1.4 3.2 1.9 4.8 0.9Zm-45.6-41.8c1.5 1 3.7 0.6 4.8-1 0.5-0.7 0.7-1.7 0.5-2.6 -0.2-0.9-0.7-1.7-1.5-2.2 -0.6-0.4-1.2-0.6-1.9-0.6 -1.2 0-2.2 0.6-2.9 1.5 -1 1.7-0.6 3.8 1 4.9Zm-24.2 259.4c-0.5 0-0.9 0.1-1.3 0.3 -0.8 0.3-1.5 1-1.8 1.9 -0.3 0.8-0.3 1.8 0 2.6 0.7 1.7 2.7 2.6 4.5 1.8 0.8-0.3 1.5-1 1.9-1.8 0.3-0.9 0.3-1.8 0-2.6 -0.7-1.4-2-2.2-3.3-2.2Zm-1.4-273.1c0.4 0.2 0.8 0.2 1.2 0.2 1.4 0 2.7-0.9 3.2-2.1 0.3-0.8 0.3-1.8 0-2.6 -0.4-0.8-1-1.5-1.9-1.8 -0.4-0.2-0.9-0.3-1.3-0.3 -1.4 0-2.6 0.8-3.2 2.1 -0.4 0.9-0.4 1.8 0 2.6 0.5 0.9 1.2 1.6 2 1.9Zm27.5 259.1c-0.7 0-1.3 0.2-1.9 0.6 -0.8 0.5-1.3 1.3-1.5 2.2 -0.2 0.9 0 1.8 0.5 2.6 0.6 1 1.7 1.5 2.9 1.5 0.7 0 1.3-0.2 1.9-0.6 1.6-1.1 2-3.2 0.9-4.7 -0.6-1-1.6-1.6-2.8-1.6Zm-219.2-190.7c1.5 0.8 3.8 0.1 4.6-1.4 0.4-0.8 0.5-1.7 0.3-2.6 -0.3-0.9-0.9-1.6-1.7-2 -0.6-0.3-1.3-0.5-1.9-0.4 -1.1 0.1-2.1 0.8-2.7 1.8 -0.4 0.8-0.5 1.7-0.3 2.6 0.3 0.8 0.9 1.5 1.7 2Zm270.2 0c0.8-0.4 1.4-1.1 1.7-2 0.3-0.9 0.2-1.8-0.3-2.6 -0.7-1.2-2-1.9-3.4-1.8 -0.4 0-0.9 0.2-1.3 0.4 -1.7 0.9-2.3 3-1.4 4.6 1 1.6 3.1 2.2 4.7 1.4Zm-268.9 136.2c-0.4 0-0.9 0.2-1.3 0.4 -0.8 0.4-1.4 1.2-1.7 2 -0.3 0.9-0.2 1.8 0.3 2.6 0.7 1.2 2 1.9 3.4 1.8 0.4 0 0.9-0.2 1.3-0.4 1.7-0.9 2.3-3 1.4-4.6 -0.7-1.2-2-1.9-3.4-1.8Zm148.3-215.1c1.8 0.2 3.6-1.3 3.7-3.1 0.1-0.9-0.2-1.8-0.8-2.5 -0.6-0.7-1.4-1.1-2.3-1.2l-0.7 0c-1.6 0.2-2.9 1.4-3.1 3.1 -0.1 0.9 0.2 1.8 0.8 2.5 0.7 0.6 1.5 1.1 2.4 1.2Zm-156.3 192.7c0.4-0.8 0.5-1.7 0.3-2.6 -0.5-1.6-2-2.6-3.6-2.4 -0.2 0-0.5 0.1-0.7 0.1 -0.9 0.3-1.6 0.9-2 1.7 -0.4 0.8-0.5 1.7-0.3 2.6 0.5 1.7 2.4 2.8 4.3 2.3 0.9-0.3 1.6-0.9 2-1.7Zm283.7-91.1c-0.4 0.8-0.5 1.7-0.3 2.6 0.5 1.7 2.5 2.8 4.3 2.3 0.9-0.3 1.6-0.9 2-1.7 0.4-0.8 0.5-1.7 0.3-2.6 -0.5-1.6-2-2.6-3.6-2.4 -0.2 0-0.4 0.1-0.7 0.1 -0.9 0.3-1.6 0.9-2 1.7Zm-287.7 4.9c1.7 0.5 3.8-0.6 4.3-2.3 0.6-1.8-0.5-3.7-2.3-4.3 -0.4-0.1-0.9-0.2-1.3-0.1 -1.4 0.1-2.5 1.1-2.9 2.4 -0.3 0.9-0.2 1.8 0.3 2.6 0.3 0.9 1 1.5 1.9 1.7Zm262.5-58.7c-0.7 0.1-1.3 0.3-1.8 0.8 -0.7 0.6-1.2 1.4-1.3 2.3 -0.1 0.9 0.2 1.8 0.8 2.5 1.2 1.4 3.4 1.6 4.8 0.5 0.7-0.6 1.1-1.4 1.2-2.3 0.1-0.9-0.2-1.8-0.8-2.5 -0.6-1-1.8-1.4-2.9-1.3Zm-22.8-15c0.7 0.5 1.6 0.8 2.5 0.7 0.9-0.1 1.8-0.5 2.3-1.2 0.6-0.7 0.9-1.6 0.8-2.5 -0.1-0.9-0.5-1.7-1.2-2.3 -0.7-0.6-1.6-0.9-2.5-0.8 -0.9 0.1-1.7 0.5-2.3 1.2 -0.6 0.7-0.9 1.6-0.8 2.5 0 1 0.5 1.9 1.2 2.4Zm-50.9-27.2c0.4 0.1 0.8 0.2 1.3 0.1 1.4-0.1 2.6-1.1 3-2.4 0.3-0.9 0.2-1.8-0.3-2.6 -0.4-0.8-1.2-1.4-2-1.7 -0.4-0.1-0.9-0.2-1.3-0.1 -1.4 0.1-2.5 1.1-2.9 2.4 -0.3 0.9-0.2 1.8 0.3 2.6 0.3 0.9 1 1.5 1.9 1.7Zm28 271.7c-0.5 0-0.9 0.2-1.3 0.4 -0.8 0.4-1.4 1.2-1.7 2 -0.3 0.9-0.2 1.8 0.3 2.6 0.9 1.6 3 2.3 4.6 1.4 0.8-0.4 1.4-1.2 1.7-2 0.3-0.9 0.2-1.8-0.3-2.6 -0.6-1.3-1.9-2-3.3-1.8Zm-190.1-223.5c1.3 1.1 3.8 0.9 4.8-0.5 1.2-1.5 1-3.6-0.5-4.8 -0.7-0.6-1.6-0.8-2.5-0.8 -0.9 0.1-1.7 0.5-2.3 1.2 -0.6 0.7-0.8 1.6-0.8 2.5 0.1 1 0.6 1.8 1.3 2.4Zm188.9-37.1c1.6 0.9 3.8 0.2 4.6-1.4 0.4-0.8 0.5-1.7 0.2-2.6 -0.3-0.9-0.9-1.6-1.7-2 -0.6-0.3-1.3-0.5-1.9-0.4 -1.1 0.1-2.2 0.8-2.7 1.8 -0.8 1.7-0.2 3.7 1.5 4.6Zm25.9 244.1c-0.7 0.1-1.3 0.3-1.8 0.8 -0.7 0.6-1.1 1.4-1.2 2.3 -0.1 0.9 0.2 1.8 0.8 2.5 0.7 0.9 1.8 1.3 3 1.2 0.7-0.1 1.3-0.3 1.8-0.8 1.5-1.2 1.7-3.4 0.5-4.8 -0.8-0.9-1.9-1.3-3.1-1.2Zm50.2-73c-0.4-0.1-0.9-0.2-1.3-0.1 -1.4 0.1-2.5 1.1-2.9 2.4 -0.5 1.8 0.5 3.7 2.3 4.3 1.7 0.5 3.8-0.6 4.3-2.3 0.3-0.9 0.2-1.8-0.3-2.6 -0.5-0.8-1.3-1.4-2.1-1.7Zm-26.7 52.8c-0.7-0.6-1.6-0.9-2.5-0.8 -0.9 0.1-1.7 0.5-2.3 1.2 -1.2 1.5-1 3.6 0.5 4.8 1.4 1.1 3.7 0.9 4.8-0.5 0.6-0.7 0.9-1.6 0.8-2.5 -0.1-0.8-0.6-1.7-1.3-2.2Zm15.9-25.1c-0.6-0.3-1.3-0.5-1.9-0.4 -1.2 0.1-2.1 0.8-2.7 1.8 -0.4 0.8-0.5 1.7-0.3 2.6 0.3 0.9 0.9 1.6 1.7 2 1.6 0.9 3.8 0.2 4.6-1.4 0.4-0.8 0.5-1.7 0.3-2.6 -0.3-0.8-0.9-1.5-1.7-2Zm-91.5 73.1c-0.2 0-0.4 0.1-0.7 0.1 -0.9 0.3-1.6 0.9-2 1.7 -0.4 0.8-0.5 1.7-0.2 2.6 0.5 1.7 2.5 2.8 4.3 2.3 0.9-0.3 1.6-0.9 2-1.7 0.4-0.8 0.5-1.7 0.3-2.6 -0.5-1.5-2-2.5-3.7-2.4Zm-139.9-261.8c-0.7 0.1-1.3 0.3-1.8 0.8 -1.5 1.2-1.7 3.4-0.5 4.8 1.2 1.4 3.4 1.6 4.8 0.5 1.5-1.2 1.7-3.4 0.5-4.8 -0.8-1-1.9-1.4-3-1.3Zm26.6 250.9c-0.6-0.3-1.3-0.5-1.9-0.4 -1.2 0.1-2.2 0.8-2.7 1.8 -0.4 0.8-0.5 1.7-0.3 2.6 0.3 0.9 0.9 1.6 1.7 2 0.6 0.3 1.2 0.4 1.9 0.3 1.2-0.1 2.2-0.8 2.8-1.8 0.4-0.8 0.5-1.7 0.3-2.6 -0.4-0.8-1-1.5-1.8-1.9Zm84.2 16.7c-1.9 0.2-3.3 1.9-3.1 3.8 0.2 1.9 1.9 3.2 3.8 3.1 1.9-0.2 3.3-1.9 3.1-3.7 -0.2-2-1.9-3.4-3.8-3.2Zm-110.8-33.6c-0.9 0.1-1.7 0.5-2.3 1.2 -0.6 0.7-0.9 1.6-0.8 2.5 0.1 0.9 0.5 1.7 1.2 2.3 1.4 1.2 3.7 0.9 4.8-0.5 1.2-1.5 1-3.6-0.5-4.8 -0.6-0.5-1.5-0.8-2.4-0.7Zm-21-21c-0.7 0.1-1.3 0.3-1.8 0.8 -0.7 0.6-1.1 1.4-1.2 2.3 -0.1 0.9 0.2 1.8 0.8 2.5 1.2 1.4 3.4 1.6 4.8 0.5 1.5-1.2 1.7-3.4 0.5-4.8 -0.8-1-2-1.4-3.1-1.3Zm47.6-223.1c0.8-0.4 1.4-1.2 1.7-2 0.3-0.9 0.2-1.8-0.3-2.6 -0.7-1.2-2-1.9-3.4-1.8 -0.4 0-0.9 0.2-1.3 0.4 -0.8 0.4-1.4 1.1-1.7 2 -0.3 0.9-0.2 1.8 0.3 2.6 0.9 1.6 3 2.3 4.7 1.4Zm54.6-23.5c-1.9 0.2-3.3 1.9-3.1 3.7 0.2 1.9 1.9 3.3 3.7 3.1 1.9-0.2 3.3-1.9 3.1-3.7 -0.2-2-1.9-3.3-3.7-3.1Zm0.6 301.2l-0.7 0c-1.6 0.2-2.9 1.4-3.1 3.1 -0.1 0.9 0.2 1.8 0.8 2.5 0.6 0.7 1.4 1.1 2.3 1.2 1.9 0.2 3.6-1.3 3.7-3.1 0.1-0.9-0.2-1.8-0.8-2.5 -0.4-0.7-1.3-1.1-2.2-1.2Zm-29.7-295.5c-0.2 0-0.5 0.1-0.7 0.1 -0.9 0.3-1.6 0.9-2 1.7 -0.4 0.8-0.5 1.7-0.3 2.6 0.5 1.7 2.5 2.8 4.3 2.3 0.9-0.3 1.6-0.9 2-1.7 0.4-0.8 0.5-1.7 0.3-2.6 -0.5-1.5-2-2.5-3.6-2.4Zm1.3 289.8c-0.4-0.1-0.9-0.2-1.3-0.1 -1.4 0.1-2.5 1.1-2.9 2.4 -0.3 0.9-0.2 1.8 0.3 2.6 0.4 0.8 1.2 1.4 2 1.7 0.5 0.1 0.9 0.2 1.3 0.1 1.4-0.1 2.5-1.1 2.9-2.4 0.3-0.9 0.2-1.8-0.3-2.6 -0.4-0.8-1.1-1.4-2-1.7Z" fill="#f57915"/>
  <path d="M90 330.6l-78.7 0 36.3-50.6 -36.3-50.6 76.3 0 0 6.6 -63.4 0 31.6 44 -31.6 44 65.8 0" fill="#333"/>
  <path d="M461.2 232.7l21.1 0 -34 47.3 34 47.3 -21.1 0 -33.9-47.3" fill="#60b5ca"/>
  <path d="M488.7 330.6l-78.7 0 0-6.6 65.8 0 -31.6-44 31.6-44 -63.4 0 0-6.6 76.3 0 -36.3 50.6m-351.7 29.3l303.2 0 0 3.3 -303.2 0 0-3.3Zm0-62.8l303.2 0 0 3.3 -303.2 0 0-3.3Z" fill="#333"/>
  <path d="M252 419.8c-26.2 0-51.7-7.4-73.8-21.3 -21.5-13.6-38.8-32.7-50.1-55.4l6.3-3.1c10.7 21.6 27.2 39.8 47.5 52.7 20.9 13.2 45.2 20.2 70.1 20.2 25.1 0 49.5-7.1 70.6-20.6 20.5-13.1 37-31.6 47.6-53.4l6.3 3c-11.2 23-28.5 42.5-50.1 56.3 -22.2 14.1-47.9 21.6-74.4 21.6Zm-117.6-199.4l-6.3-3.1c22.4-45.1 70.1-75.3 121.4-77l0.2 7c-48.7 1.6-94 30.2-115.3 73.1Z" fill="#60b5ca"/>
  <path d="M370.2 221.5c-22.1-45.4-68.2-73.9-120.5-74.2l0-7c55 0.4 103.5 30.3 126.7 78.1l-6.2 3.1Z" fill="#f57915"/>
  <path d="M252 419.7c-32.3 0-62.6-10.6-87.7-30.7 -24.4-19.5-41.8-46.9-49-77.1l3.4-0.8c7 29.5 24 56.2 47.8 75.2 24.5 19.6 54.1 30 85.5 30 31.3 0 60.8-10.3 85.3-29.8 23.7-18.9 40.7-45.5 47.9-74.8l3.4 0.8c-7.3 30.1-24.7 57.3-49.1 76.7 -25.1 20-55.3 30.5-87.5 30.5Zm133.8-170.6c-6.7-29.9-23.6-57.1-47.5-76.5 -24.3-19.6-54.9-30.5-86.3-30.5 -31.1 0-61.6 10.7-85.8 30.2 -23.9 19.2-40.8 46.1-47.7 75.7l-3.4-0.8c7.1-30.4 24.4-58 48.9-77.6 24.8-20 56.1-31 88-31 32.1 0 63.5 11.1 88.4 31.3 24.5 19.9 41.8 47.8 48.7 78.4l-3.3 0.8ZM296.1 172c-0.7-0.7-51.4 29.1-58.2 36.6 -6.8 7.5-6.3 19.1 1.2 25.9 7.5 6.8 19.1 6.3 25.9-1.2 6.8-7.5 31.1-61.3 31.1-61.3Zm-51.4 56.4c-2.8-2.6-3.1-7-0.5-9.9 2.6-2.8 7-3.1 9.9-0.4 2.9 2.6 3.1 7 0.5 9.9 -2.7 2.8-7.1 3-9.9 0.4Zm-106.7-27l20.4 11.7 -1.7 3 -20.4-11.7 1.7-3Zm230.4-0.5l1.7 3 -20.4 11.7 -1.7-3 20.4-11.7Zm-119.7-60.7l3.5 0 0 20.4 -3.5 0 0-20.4Zm-138.5 127.9l3.5-11.3 4.6 0 3.5 11.3 3.9-11.3 4.8 0 -6.9 19.7 -3.3 0 -4.3-13.7 -4.3 13.7 -3.3 0 -6.9-19.7 4.8 0 3.9 11.3Zm36.8-11.4l0 3.9 -9.8 0 0 4.1 8.8 0 0 3.8 -8.8 0 0 4.1 10.1 0 0 3.9 -14.5 0 0-19.7 14.2 0 0-0.1Zm12.9 19.8l-8.6 0 0-19.7 7.7 0c1.3 0 2.5 0.2 3.5 0.5 1 0.3 1.7 0.8 2.2 1.3 0.9 1 1.3 2.2 1.3 3.4 0 1.5-0.5 2.7-1.5 3.4 -0.3 0.3-0.6 0.4-0.7 0.5 -0.1 0.1-0.4 0.2-0.7 0.3 1.2 0.3 2.2 0.8 2.9 1.7 0.7 0.8 1.1 1.9 1.1 3.1 0 1.4-0.5 2.6-1.4 3.6 -1.2 1.3-3.1 1.9-5.8 1.9Zm-4.2-11.8l2.1 0c1.2 0 2.1-0.1 2.7-0.4 0.6-0.3 0.9-0.8 0.9-1.7 0-0.9-0.3-1.5-0.8-1.7 -0.5-0.3-1.5-0.4-2.8-0.4l-2.1 0 0 4.2Zm0 8l3 0c1.3 0 2.2-0.2 2.8-0.5 0.6-0.3 0.9-0.9 0.9-1.8 0-0.9-0.3-1.5-1-1.8 -0.7-0.3-1.7-0.4-3.2-0.4l-2.6 0 0 4.5 0.1 0Zm36.1-14.2c1.4 1.2 2.1 3 2.1 5.4 0 2.4-0.7 4.2-2.1 5.4 -1.4 1.1-3.6 1.7-6.5 1.7l-2.6 0 0 5.5 -4.4 0 0-19.7 7 0c2.9-0.1 5.1 0.5 6.5 1.7Zm-3.3 7.8c0.5-0.6 0.8-1.5 0.8-2.6 0-1.1-0.3-1.9-1-2.4 -0.7-0.5-1.8-0.7-3.2-0.7l-2.5 0 0 6.6 3 0c1.4 0 2.4-0.3 2.9-0.9Zm23-9.6l0 3.9 -9.8 0 0 4.1 8.8 0 0 3.8 -8.8 0 0 4.1 10.1 0 0 3.9 -14.5 0 0-19.7 14.2 0 0-0.1Zm20.3 6.6c0 3.2-1.3 5.2-3.8 6.1l5 7.1 -5.4 0 -4.4-6.3 -3 0 0 6.3 -4.4 0 0-19.7 7.5 0c3.1 0 5.3 0.5 6.6 1.6 1.2 0.9 1.9 2.6 1.9 4.9Zm-5.3 2.3c0.5-0.5 0.8-1.3 0.8-2.3 0-1-0.3-1.8-0.8-2.2 -0.6-0.4-1.6-0.6-3-0.6l-3.3 0 0 5.8 3.2 0c1.5 0.1 2.5-0.2 3.1-0.7Zm23.3-8.9l0 3.9 -9.1 0 0 4.3 8.7 0 0 3.9 -8.7 0 0 7.7 -4.4 0 0-19.7 13.5 0 0-0.1Zm20.4 17.1c-2 1.9-4.5 2.9-7.4 2.9 -2.9 0-5.4-1-7.4-2.9 -2-1.9-3-4.4-3-7.3 0-2.9 1-5.3 3-7.3 2-2 4.5-2.9 7.4-2.9 2.9 0 5.4 1 7.4 2.9 2 1.9 3 4.4 3 7.3 -0.1 2.9-1 5.3-3 7.3Zm-1.5-7.3c0-1.8-0.6-3.3-1.7-4.5 -1.1-1.2-2.5-1.9-4.2-1.9 -1.6 0-3 0.6-4.2 1.9 -1.1 1.2-1.7 2.7-1.7 4.5 0 1.8 0.6 3.3 1.7 4.5 1.1 1.2 2.5 1.8 4.2 1.8 1.6 0 3-0.6 4.2-1.8 1.1-1.2 1.7-2.7 1.7-4.5Zm24.2-3.2c0 3.2-1.3 5.2-3.8 6.1l5 7.1 -5.4 0 -4.4-6.3 -3 0 0 6.3 -4.4 0 0-19.7 7.5 0c3.1 0 5.3 0.5 6.6 1.6 1.2 0.9 1.9 2.6 1.9 4.9Zm-5.3 2.3c0.5-0.5 0.8-1.3 0.8-2.3 0-1-0.3-1.8-0.8-2.2 -0.6-0.4-1.6-0.6-3-0.6l-3.3 0 0 5.8 3.2 0c1.5 0.1 2.5-0.2 3.1-0.7Zm27.5-1.5l-5.3 10.8 -2.6 0 -5.3-10.8 0 12.4 -4.4 0 0-19.7 6 0 5.1 10.8 5.1-10.8 5.9 0 0 19.7 -4.4 0 0-12.4 -0.1 0Zm23.3 12.4l-1.8-4.3 -8.3 0 -1.8 4.3 -4.7 0 8.5-19.7 4.3 0 8.5 19.7 -4.7 0Zm-6-13.9l-2.5 5.7 4.9 0 -2.4-5.7Zm26.8-5.9l4.4 0 0 19.7 -4.4 0 -9.4-12.4 0 12.4 -4.4 0 0-19.7 4.1 0 9.7 12.7 0-12.7Zm18.3 15.9c2.2 0 3.9-0.9 5.3-2.6l2.8 2.9c-2.2 2.5-4.9 3.8-7.9 3.8 -3 0-5.5-1-7.5-2.9 -2-1.9-3-4.3-3-7.3 0-3 1-5.4 3-7.3 2-2 4.5-2.9 7.4-2.9 3.2 0 5.9 1.2 8.1 3.7l-2.7 3.1c-1.4-1.7-3.1-2.6-5.2-2.6 -1.7 0-3.1 0.5-4.2 1.6 -1.2 1.1-1.8 2.5-1.8 4.4 0 1.9 0.6 3.3 1.7 4.4 1.1 1.1 2.4 1.7 4 1.7Zm25.8-15.9l0 3.9 -9.8 0 0 4.1 8.8 0 0 3.8 -8.8 0 0 4.1 10.1 0 0 3.9 -14.5 0 0-19.7 14.2 0 0-0.1Zm-189.7 28.3l0 3.9 -9.8 0 0 4.1 8.8 0 0 3.8 -8.8 0 0 4.1 10.1 0 0 3.9 -14.5 0 0-19.8 14.2 0Zm15.3 0l5.3 0 -6.2 9.5 6.7 10.2 -5.4 0 -4.2-6.5 -4.2 6.5 -5.3 0 6.6-10.1 -6.2-9.6 5.3 0 3.8 5.8 3.8-5.8Zm22.1 1.7c1.4 1.2 2.1 3 2.1 5.4 0 2.4-0.7 4.2-2.1 5.4 -1.4 1.1-3.6 1.7-6.5 1.7l-2.6 0 0 5.5 -4.4 0 0-19.7 7 0c2.9 0 5.1 0.6 6.5 1.7Zm-3.2 7.8c0.5-0.6 0.8-1.5 0.8-2.6 0-1.1-0.3-1.9-1-2.4 -0.7-0.5-1.8-0.7-3.2-0.7l-2.5 0 0 6.6 3 0c1.3 0 2.3-0.3 2.9-0.9Zm23-9.5l0 3.9 -9.8 0 0 4.1 8.8 0 0 3.8 -8.8 0 0 4.1 10.1 0 0 3.9 -14.5 0 0-19.8 14.2 0Zm20.2 6.5c0 3.2-1.3 5.2-3.8 6.1l5 7.1 -5.4 0 -4.4-6.3 -3 0 0 6.3 -4.4 0 0-19.7 7.5 0c3.1 0 5.3 0.5 6.6 1.6 1.2 1 1.9 2.6 1.9 4.9Zm-5.3 2.4c0.5-0.5 0.8-1.3 0.8-2.3 0-1-0.3-1.8-0.8-2.2 -0.6-0.4-1.6-0.6-3-0.6l-3.3 0 0 5.8 3.2 0c1.5 0 2.5-0.2 3.1-0.7Zm17.8-5.1l0 15.9 -4.4 0 0-15.9 -5.6 0 0-3.8 15.6 0 0 3.8 -5.6 0Zm16 3.5l85 0 0 3.5 -85 0 0-3.5Zm-218.8 0l85 0 0 3.5 -85 0 0-3.5ZM251 450.2c-94.3 0-171-76.7-171-171 0-94.3 76.7-171 171-171 94.3 0 171 76.7 171 171 0 94.3-76.7 171-171 171Zm0-335.4c-90.6 0-164.3 73.7-164.3 164.3 0 90.6 73.7 164.3 164.3 164.3 90.6 0 164.3-73.7 164.3-164.3 0-90.5-73.7-164.3-164.3-164.3Z" fill="#333"/>
  <path d="M179.6 325.1l0 2.7 -6.3 0 0 2.9 6 0 0 2.7 -6 0 0 5.3 -3 0 0-13.6 9.3 0Zm11.5 13.7l-1.3-2.9 -5.7 0 -1.3 2.9 -3.2 0 5.9-13.6 2.9 0 5.9 13.6 -3.2 0Zm-4.1-9.6l-1.7 4 3.4 0 -1.7-4Zm12.1-1.3c-0.3 0.2-0.4 0.6-0.4 1 0 0.4 0.2 0.7 0.5 0.9 0.4 0.2 1.2 0.5 2.5 0.8 1.3 0.3 2.3 0.8 3 1.4 0.7 0.6 1.1 1.6 1.1 2.8 0 1.2-0.5 2.2-1.4 3 -0.9 0.8-2.1 1.1-3.6 1.1 -2.2 0-4.1-0.8-5.8-2.4l1.8-2.2c1.5 1.3 2.8 1.9 4.1 1.9 0.6 0 1-0.1 1.3-0.4 0.3-0.2 0.5-0.6 0.5-1 0-0.4-0.2-0.7-0.5-1 -0.3-0.2-1-0.5-2-0.7 -1.6-0.4-2.7-0.9-3.5-1.5 -0.7-0.6-1.1-1.6-1.1-2.8 0-1.3 0.5-2.3 1.4-3 0.9-0.7 2.1-1.1 3.5-1.1 0.9 0 1.8 0.2 2.7 0.5 0.9 0.3 1.7 0.8 2.4 1.3l-1.5 2.2c-1.2-0.9-2.4-1.3-3.7-1.3 -0.7 0.1-1.1 0.2-1.3 0.5Zm14.9-0.1l0 11 -3 0 0-11 -3.9 0 0-2.6 10.8 0 0 2.6 -3.9 0Zm15.9-2.7l0 2.7 -6.8 0 0 2.8 6.1 0 0 2.6 -6.1 0 0 2.8 7 0 0 2.7 -10 0 0-13.6 9.8 0Zm14 4.6c0 2.2-0.9 3.6-2.6 4.2l3.5 4.9 -3.8 0 -3-4.3 -2.1 0 0 4.3 -3 0 0-13.6 5.2 0c2.1 0 3.6 0.4 4.5 1.1 0.8 0.6 1.3 1.8 1.3 3.4Zm-3.7 1.6c0.4-0.3 0.6-0.9 0.6-1.6 0-0.7-0.2-1.2-0.6-1.5 -0.4-0.3-1.1-0.4-2-0.4l-2.3 0 0 4 2.2 0c1 0 1.7-0.2 2.1-0.5Zm19.9 6.3c-1.1 0.9-2.4 1.3-3.8 1.3 -1.4 0-2.6-0.4-3.5-1.1 -0.9-0.7-1.4-1.7-1.4-3 0-1.4 1-2.7 2.9-3.8 -0.4-0.5-0.7-1-0.9-1.4 -0.2-0.4-0.3-0.9-0.3-1.4 0-1.1 0.4-2 1.2-2.5 0.8-0.5 1.7-0.9 2.8-0.9 1.1 0 2 0.3 2.8 0.8 0.8 0.5 1.2 1.4 1.2 2.4 0 1.3-0.9 2.5-2.8 3.5 0.7 0.9 1.3 1.6 1.6 2 0.3-0.6 0.6-1.2 0.7-1.9l2.3 1.6c-0.3 0.8-0.7 1.6-1.1 2.3l1.9 1.9 -1.9 1.8 -1.7-1.6Zm-5.3-1.6c0.4 0.3 0.9 0.4 1.5 0.4 0.6 0 1.2-0.3 1.9-0.9 -0.9-1-1.8-1.9-2.5-2.7 -1 0.6-1.5 1.3-1.5 2 0.1 0.6 0.3 0.9 0.6 1.2Zm2.2-8.9c-0.3 0-0.5 0.1-0.8 0.3 -0.2 0.2-0.3 0.5-0.3 0.8 0 0.3 0.3 0.8 0.8 1.5 1-0.5 1.5-1 1.5-1.5 0-0.4-0.1-0.7-0.4-0.9 -0.2-0.1-0.5-0.2-0.8-0.2Zm17.1 0.8c-0.3 0.2-0.4 0.6-0.4 1 0 0.4 0.2 0.7 0.5 0.9 0.3 0.2 1.2 0.5 2.5 0.8 1.3 0.3 2.3 0.8 3 1.4 0.7 0.6 1.1 1.6 1.1 2.8 0 1.2-0.5 2.2-1.4 3 -0.9 0.8-2.1 1.1-3.6 1.1 -2.2 0-4.1-0.8-5.8-2.4l1.8-2.2c1.5 1.3 2.8 1.9 4.1 1.9 0.6 0 1-0.1 1.3-0.4 0.3-0.2 0.5-0.6 0.5-1 0-0.4-0.2-0.7-0.5-1 -0.3-0.2-1-0.5-2-0.7 -1.6-0.4-2.7-0.9-3.5-1.5 -0.8-0.6-1.1-1.6-1.1-2.8 0-1.3 0.5-2.3 1.4-3 0.9-0.7 2.1-1.1 3.5-1.1 0.9 0 1.8 0.2 2.7 0.5 0.9 0.3 1.7 0.8 2.4 1.3l-1.5 2.2c-1.2-0.9-2.4-1.3-3.7-1.3 -0.6 0.1-1 0.2-1.3 0.5Zm18.8 10.9l-1.3-2.9 -5.7 0 -1.3 2.9 -3.2 0 5.9-13.6 2.9 0 5.9 13.6 -3.2 0Zm-4.1-9.6l-1.7 4 3.4 0 -1.7-4Zm18.3-4.1l0 2.7 -6.3 0 0 2.9 6 0 0 2.7 -6 0 0 5.3 -3 0 0-13.6 9.3 0Zm12.4 0l0 2.7 -6.8 0 0 2.8 6.1 0 0 2.6 -6.1 0 0 2.8 7 0 0 2.7 -10 0 0-13.6 9.8 0Zm14 4.6c0 2.2-0.9 3.6-2.6 4.2l3.5 4.9 -3.7 0 -3-4.3 -2.1 0 0 4.3 -3 0 0-13.6 5.2 0c2.1 0 3.6 0.4 4.5 1.1 0.7 0.6 1.2 1.8 1.2 3.4Zm-3.7 1.6c0.4-0.3 0.6-0.9 0.6-1.6 0-0.7-0.2-1.2-0.6-1.5 -0.4-0.3-1.1-0.4-2-0.4l-2.3 0 0 4 2.2 0c1 0 1.7-0.2 2.1-0.5Z" fill="#f57915"/>
  <path d="M180.2 350l2.3 2.7 -29.1 24.4 -2.2-2.7 29.1-24.4Zm141.6 0l29.1 24.4 -2.3 2.7 -29.1-24.4 2.2-2.7Zm-72.2 11.1l3.5 0 0 55.9 -3.5 0 0-55.9Zm-134.6-213.5l15.1 15.1 -4.7 4.7 -15.1-15.1 4.7-4.7ZM103.4 160.3c-10.5 0-19-8.5-19-19 0-10.5 8.5-19 19-19 10.5 0 19 8.5 19 19 0 10.5-8.5 19-19 19Zm0-31.4c-6.8 0-12.4 5.6-12.4 12.4 0 6.8 5.6 12.4 12.4 12.4 6.8 0 12.4-5.6 12.4-12.4 0-6.8-5.6-12.4-12.4-12.4Zm281.5 18.7l4.7 4.7 -15.1 15.1 -4.7-4.7 15.1-15.1ZM396.6 160.3c-10.5 0-19-8.5-19-19 0-10.5 8.5-19 19-19 10.5 0 19 8.5 19 19 0 10.5-8.5 19-19 19Zm0-31.4c-6.8 0-12.4 5.6-12.4 12.4 0 6.8 5.6 12.4 12.4 12.4 6.8 0 12.4-5.6 12.4-12.4 0-6.8-5.5-12.4-12.4-12.4Zm-148.9-47.6l6.6 0 0 30.2 -6.6 0 0-30.2ZM251.2 97.7c-13.2 0-23.9-10.7-23.9-23.9 0-13.2 10.7-23.9 23.9-23.9 13.2 0 23.9 10.7 23.9 23.9 0 13.1-10.7 23.9-23.9 23.9Zm0-41.2c-9.5 0-17.3 7.8-17.3 17.3 0 9.5 7.7 17.2 17.3 17.2 9.5 0 17.3-7.7 17.3-17.3 0-9.6-7.8-17.2-17.3-17.2Z" fill="#333"/>
</symbol><symbol id="hans-training" viewBox="0 0 500 500">
  <title>Hans is training</title>
  <path d="M354.3 252.9c44.2 0.2 88.5-0.7 132.7-2.9 -44.2-2.2-88.5-3.2-132.7-2.9 44.1-2.2 88.4-5.6 132.4-10.2 -44.3 0.2-88.6 1.7-132.7 4.3 44-4.6 87.9-10.4 131.6-17.4 -44.2 2.7-88.3 6.6-132.2 11.7 43.7-7 87.2-15.3 130.4-24.7 -44 5.1-87.8 11.5-131.3 19 43.3-9.4 86.1-20.1 128.7-31.9 -43.6 7.6-87 16.3-130 26.3 42.5-11.8 84.8-24.8 126.7-39 -43.1 10-85.8 21.1-128.3 33.5 41.8-14.2 83.2-29.5 124.3-46 -42.4 12.3-84.5 25.9-126.2 40.6 41-16.5 81.5-34.1 121.5-52.9 -41.6 14.7-83 30.6-123.7 47.6 39.9-18.8 79.4-38.7 118.3-59.6 -40.8 17-81.2 35.2-120.9 54.4 38.8-20.9 77.2-43 114.7-66.1 -39.8 19.3-78.9 39.6-117.5 61 37.6-23.1 74.6-47.2 110.8-72.4 -38.6 21.5-76.6 43.9-113.9 67.4 36.3-25.2 71.7-51.2 106.5-78.4 -37.4 23.6-74 48.1-109.9 73.6 34.7-27 68.7-55.1 101.9-84.1 -35.9 25.6-71.1 52.1-105.6 79.6 33.2-28.9 65.5-58.8 97.1-89.6 -34.4 27.5-68.2 56-101 85.3 31.5-30.7 62.1-62.4 91.9-94.9 -32.9 29.4-64.9 59.7-96.1 90.8 29.7-32.4 58.6-65.8 86.4-99.8 -31.2 31.1-61.4 63.1-90.8 95.9 27.9-34.1 54.8-68.9 80.7-104.4 -29.4 32.8-57.8 66.4-85.2 100.7 25.9-35.6 50.8-71.7 74.6-108.7 -27.5 34.4-53.9 69.5-79.4 105.3 23.9-36.8 46.7-74.4 68.4-112.6 -25.5 35.8-49.9 72.3-73.4 109.5 21.8-38.1 42.4-76.9 62-116.3 -23.4 37.2-45.8 75-67 113.5 19.5-39.3 38-79.1 55.3-119.5 -21.3 38.4-41.5 77.5-60.5 117 17.3-40.3 33.5-81.2 48.4-122.4 -19 39.6-37 79.7-53.8 120.2 15-41.3 28.8-82.9 41.4-124.9 -16.8 40.6-32.4 81.6-46.9 123 12.6-42 24-84.3 34.2-127 -14.4 41.4-27.7 83.2-39.8 125.3 10.2-42.6 19.1-85.5 26.9-128.6 -12.1 42.2-22.9 84.6-32.6 127.3 7.7-43.1 14.3-86.4 19.6-129.9 -9.6 42.8-18.1 85.7-25.3 129 5.3-43.4 9.3-87.1 12.2-130.9 -7.2 43.2-13.2 86.7-17.9 130.3 2.8-43.7 4.4-87.5 4.8-131.4 -4.7 43.5-8.3 87.3-10.6 131.1 0.4-43.8-0.5-87.6-2.6-131.5 -2.3 43.8-3.4 87.7-3.3 131.4 -2.1-43.7-5.3-87.5-9.8-131.1 0.1 43.9 1.4 87.7 4 131.5 -4.5-43.6-10.3-87.2-17.2-130.4 2.6 43.8 6.4 87.5 11.4 131 -6.9-43.3-15.1-86.4-24.5-129.2 5 43.6 11.3 87 18.8 130.1 -9.4-42.8-20-85.3-31.8-127.6 7.5 43.2 16.2 86.2 26.1 128.8 -11.8-42.2-24.8-84.1-39-125.6 9.9 42.8 21.1 85.1 33.4 127.2 -14.2-41.5-29.5-82.6-46.1-123.2 12.3 42.1 25.8 83.8 40.6 125.1 -16.5-40.6-34.2-80.8-53-120.5 14.7 41.3 30.6 82.3 47.6 122.7 -18.8-39.6-38.7-78.8-59.8-117.4 17.1 40.5 35.3 80.5 54.6 119.9 -21-38.5-43.2-76.6-66.4-113.9 19.4 39.5 39.8 78.4 61.3 116.6 -23.2-37.3-47.4-74-72.7-110 21.5 38.3 44.1 76 67.8 113 -25.3-36-51.5-71.2-78.8-105.8 23.7 37.1 48.3 73.4 74 109.1 -27.3-34.1-55.5-67.9-84.7-100.9 25.7 35.7 52.4 70.6 80 104.8 -29.1-32.9-59.2-65.1-90.2-96.4 27.6 34.2 56.3 67.6 85.8 100.3 -31-31.3-62.8-61.7-95.5-91.3 29.5 32.6 60 64.5 91.3 95.4 -32.6-29.5-66.2-58.2-100.5-85.9 31.4 31 63.6 61.1 96.6 90.2 -34.3-27.7-69.4-54.5-105.1-80.2 33 29.2 66.9 57.5 101.4 84.7 -35.8-25.8-72.3-50.5-109.4-74.3 34.6 27.3 70 53.7 106 79 -37.1-23.7-75-46.4-113.5-68.1 36.1 25.4 72.8 49.6 110.3 73 -38.4-21.6-77.5-42.2-117.1-61.7 37.4 23.3 75.6 45.6 114.3 66.8 -39.6-19.5-79.8-37.9-120.5-55.2 38.7 21.2 78.1 41.3 118 60.3 -40.5-17.2-81.7-33.4-123.3-48.4 39.9 19 80.3 36.9 121.2 53.6 -41.5-14.9-83.6-28.7-126-41.3 40.9 16.8 82.3 32.4 124 46.8 -42.4-12.6-85.1-24-128.1-34.3 41.8 14.5 84 27.7 126.5 39.8 -43.1-10.2-86.3-19.2-129.9-27 42.5 12.1 85.4 23 128.5 32.6 -43.5-7.8-87.2-14.4-131.2-19.7 43.2 9.7 86.5 18.2 130.2 25.4 -43.9-5.3-87.9-9.5-132.1-12.4 43.6 7.3 87.4 13.3 131.4 18.2 -44.1-2.9-88.3-4.7-132.6-5.1 43.9 4.8 88.1 8.5 132.3 10.9 -28.3-0.3-133.3 3.3-133.3 3.3 28.3 0.7 105 4.2 133.3 3.9 -44.2 2.4-88.3 6.1-132.2 11 44.3-0.5 88.5-2.3 132.6-5.2 -44 4.9-87.8 10.9-131.4 18.2 44.2-2.9 88.2-7.1 132.1-12.5 -43.7 7.3-87 15.7-130.2 25.5 43.9-5.4 87.7-12 131.1-19.8 -43.1 9.7-85.9 20.6-128.5 32.7 43.5-7.8 86.8-16.9 129.8-27.1 -42.5 12.1-84.7 25.4-126.5 39.8 43-10.2 85.7-21.7 128.1-34.3 -41.7 14.4-83.1 30-124 46.8 42.3-12.6 84.4-26.4 125.9-41.4 -40.7 16.6-81.1 34.6-121 53.6 41.6-15 82.8-31.1 123.4-48.4 -39.8 19-79.2 39.2-117.9 60.3 40.7-17.3 80.9-35.7 120.5-55.2 -38.7 21.2-76.9 43.5-114.3 66.8 39.7-19.5 78.7-40.1 117.1-61.8 -37.5 23.4-74.2 47.6-110.3 73 38.5-21.7 76.3-44.4 113.4-68.1 -36 25.3-71.4 51.7-106 79 37.2-23.8 73.6-48.5 109.5-74.3 -34.6 27.4-68.4 55.7-101.5 84.9 35.7-25.8 70.8-52.6 105.1-80.3 -33 29.2-65.2 59.3-96.5 90.3 34.3-27.7 67.8-56.4 100.5-86 -31.3 30.9-61.8 62.8-91.3 95.4 32.7-29.6 64.5-60 95.5-91.3 -29.6 32.6-58.2 66.1-85.9 100.3 31-31.4 61.1-63.5 90.2-96.4 -27.7 34.2-54.3 69.1-80 104.9 29.2-33 57.4-66.8 84.6-101.2 -25.7 35.6-50.3 72-74 109.1 27.3-34.6 53.5-69.8 78.8-105.7 -23.6 37-46.2 74.7-67.7 113 25.3-36 49.5-72.7 72.7-110 -21.5 38.2-41.9 77.2-61.2 116.6 23.2-37.3 45.4-75.4 66.4-113.9 -19.3 39.4-37.5 79.4-54.6 119.9 21.1-38.6 41-77.8 59.8-117.4 -17 40.5-32.9 81.4-47.6 122.7 18.8-39.7 36.5-79.9 53-120.5 -14.7 41.4-28.2 83-40.6 125.1 16.6-40.7 31.9-81.8 46.1-123.2 -12.3 42.1-23.4 84.4-33.4 127.2 14.2-41.6 27.1-83.4 38.9-125.6 -9.9 42.7-18.6 85.6-26.1 128.9 11.8-42.2 22.4-84.8 31.8-127.6 -7.5 43.2-13.7 86.6-18.8 130.1 9.4-42.8 17.6-85.9 24.5-129.2 -5 43.5-8.8 87.2-11.3 131 6.9-43.2 12.6-86.8 17.1-130.3 -2.5 43.7-3.9 87.5-3.9 131.4 4.5-43.6 7.8-87.4 9.8-131.2 -0.1 43.8 1 87.7 3.4 131.5 2.1-43.8 2.9-87.7 2.5-131.5 2.3 43.7 5.9 87.5 10.7 131 -0.4-43.9-2-87.7-4.8-131.4 4.8 43.6 10.8 87 18 130.2 -2.8-43.8-6.9-87.4-12.2-130.9 7.2 43.3 15.6 86.3 25.3 129 -5.3-43.5-11.8-86.9-19.6-130 9.7 42.8 20.5 85.2 32.6 127.4 -7.8-43.2-16.7-86-26.9-128.6 12.1 42.1 25.3 83.9 39.8 125.3 -10.2-42.6-21.6-84.9-34.2-127 14.4 41.4 30.1 82.4 46.9 123 -12.6-42-26.4-83.7-41.4-124.9 16.8 40.6 34.7 80.6 53.8 120.2 -15-41.2-31.1-82.1-48.4-122.4 19.1 39.5 39.3 78.6 60.6 117 -17.3-40.4-35.8-80.2-55.3-119.5 21.3 38.4 43.7 76.3 67.1 113.4 -19.6-39.4-40.2-78.1-62-116.2 23.4 37.2 47.9 73.7 73.4 109.5 -21.8-38.2-44.6-75.7-68.4-112.6 25.5 35.8 51.9 70.9 79.4 105.2 -23.9-36.9-48.8-73.1-74.7-108.6 27.4 34.3 55.9 67.9 85.2 100.7 -25.9-35.5-52.8-70.3-80.7-104.3 29.3 32.8 59.6 64.7 90.8 95.9 -27.8-34-56.8-67.3-86.4-99.8 31.1 31.1 63.2 61.4 96.1 90.8 -29.8-32.5-60.5-64.1-92-94.9 32.8 29.3 66.6 57.8 101 85.3 -31.6-30.8-63.9-60.7-97.1-89.6 34.5 27.5 69.6 54 105.6 79.6 -33.2-29-67.2-57-102-84.1 35.9 25.5 72.6 50 109.9 73.6 -34.8-27.1-70.3-53.2-106.5-78.3 37.3 23.5 75.3 46 113.9 67.4 -36.2-25.1-73.2-49.2-110.8-72.3 38.6 21.4 77.8 41.8 117.6 61 -37.6-23-75.9-45.1-114.8-66 39.7 19.2 80.1 37.4 120.9 54.4 -38.9-21-78.4-40.9-118.4-59.6 40.7 17 82.1 32.9 123.7 47.6 -40-18.8-80.5-36.4-121.5-52.9 41.7 14.7 83.8 28.2 126.2 40.6 -41.1-16.5-82.5-31.8-124.3-46 42.5 12.4 85.2 23.5 128.3 33.5 -41.9-14.2-84.1-27.2-126.7-39 43 9.9 86.4 18.7 130 26.2 -42.6-11.8-85.5-22.4-128.7-31.8 43.5 7.5 87.3 13.8 131.3 18.9 -43.2-9.4-86.6-17.7-130.3-24.7 43.9 5.1 88 9 132.2 11.7 -43.6-7-87.6-12.8-131.6-17.4 44.1 2.7 88.4 4.1 132.7 4.3 -44.3-4.7-88.5-8.1-132.7-10.3Z" fill="#fefff7"/>
  <path d="M429.9 266.2c6.4-6.6 12.3-14 17.9-22 -5.5-8-11.5-15.3-17.9-22 4.6-7.9 8.7-16.5 12.1-25.5 -7.3-6.4-14.8-12.1-22.6-17 2.6-8.8 4.4-18.1 5.6-27.7 -8.6-4.5-17.3-8.2-26-11.1 0.4-9.2 0-18.6-1.2-28.3 -9.4-2.3-18.8-3.8-27.9-4.6 -1.8-9-4.5-18.1-7.9-27.2 -9.7 0-19.2 0.7-28.2 2.2 -3.9-8.3-8.7-16.5-14.2-24.5 -9.4 2.3-18.4 5.3-26.8 8.9 -5.8-7.1-12.4-13.9-19.7-20.4 -8.6 4.5-16.6 9.6-23.9 15.1 -7.3-5.5-15.3-10.6-23.9-15.1 -7.3 6.4-13.9 13.3-19.7 20.4 -8.4-3.6-17.4-6.6-26.9-8.9 -5.5 8-10.2 16.2-14.2 24.5 -9.1-1.5-18.5-2.2-28.2-2.2 -3.4 9.1-6.1 18.2-7.9 27.2 -9.2 0.7-18.5 2.2-27.9 4.6 -1.2 9.6-1.5 19.1-1.2 28.3 -8.7 2.9-17.4 6.6-26 11.1 1.2 9.6 3.1 18.9 5.6 27.7 -7.8 4.9-15.3 10.6-22.6 17 3.4 9.1 7.5 17.6 12.1 25.5 -6.3 6.6-12.3 14-17.8 22 5.5 8 11.5 15.3 17.8 22 -4.6 7.9-8.7 16.5-12.1 25.6 7.2 6.4 14.8 12.1 22.6 17 -2.6 8.8-4.4 18.1-5.6 27.7 8.6 4.5 17.3 8.2 26 11.1 -0.3 9.2 0 18.6 1.2 28.3 9.4 2.3 18.8 3.8 27.9 4.6 1.8 9 4.5 18.1 7.9 27.2 9.7 0 19.2-0.7 28.2-2.2 3.9 8.3 8.6 16.5 14.2 24.5 9.4-2.3 18.4-5.3 26.9-8.9 5.8 7.1 12.4 13.9 19.7 20.4 8.6-4.5 16.6-9.6 23.9-15.1 7.3 5.5 15.3 10.6 23.9 15.1 7.3-6.4 13.9-13.3 19.7-20.4 8.4 3.6 17.4 6.6 26.8 8.9 5.5-8 10.3-16.2 14.2-24.5 9.1 1.5 18.5 2.2 28.2 2.2 3.4-9.1 6.1-18.2 7.9-27.2 9.1-0.7 18.5-2.2 27.9-4.6 1.2-9.6 1.6-19.1 1.2-28.3 8.7-2.9 17.4-6.6 26-11.1 -1.2-9.7-3-18.9-5.6-27.7 7.8-4.9 15.3-10.6 22.6-17 -3.4-9.1-7.5-17.7-12.1-25.6Zm-180.7 136.9c-86.6 0-156.9-70.2-156.9-156.9 0-86.6 70.2-156.9 156.9-156.9 86.7 0 156.9 70.2 156.9 156.9 0 86.7-70.2 156.9-156.9 156.9Z" fill="#60b5ca"/>
  <path d="M227.9 423.7l0.6 0.5c6.5 6.2 13.7 12 21.3 17.3 7.6-5.3 14.7-11.2 21.2-17.4l0.6-0.5 0.7 0.4c7.8 4.5 16.2 8.4 24.8 11.7 6.1-7 11.6-14.3 16.4-22l0.4-0.7 0.8 0.2c8.6 2.5 17.7 4.3 26.9 5.4 4.2-8.2 7.8-16.7 10.6-25.3l0.2-0.7 0.8 0c9 0.3 18.3 0 27.4-1.1 2.2-9 3.6-18.1 4.3-27.1l0.1-0.8 0.8-0.2c8.8-1.8 17.7-4.4 26.3-7.7 0-9.2-0.8-18.4-2.3-27.3l-0.1-0.8 0.7-0.3c8.1-3.9 16.1-8.5 23.7-13.8 -2.3-9-5.2-17.7-8.8-26l-0.3-0.7 0.6-0.5c7-5.7 13.6-12.1 19.7-19 -4.4-8.2-9.3-16-14.7-23.2l-0.5-0.6 0.5-0.6c5.4-7.2 10.3-15 14.6-23.2 -6.2-6.9-12.9-13.3-19.8-18.9l-0.6-0.5 0.3-0.7c3.5-8.3 6.4-17 8.6-26 -7.6-5.2-15.7-9.8-23.8-13.6l-0.7-0.3 0.1-0.8c1.4-8.8 2.1-18 2.1-27.3 -8.7-3.3-17.6-5.8-26.4-7.6l-0.8-0.1 -0.1-0.8c-0.7-9-2.2-18.1-4.4-27.1 -6.7-0.8-13.5-1.2-20.1-1.2 -2.4 0-4.9 0-7.3 0.2l-0.8 0 -0.2-0.7c-2.9-8.5-6.5-17-10.8-25.2 -9.2 1.2-18.2 3.1-26.8 5.6l-0.7 0.2 -0.4-0.7c-4.8-7.6-10.4-14.9-16.5-21.9 -8.6 3.3-16.9 7.3-24.7 11.8l-0.7 0.4 -0.6-0.5c-6.5-6.2-13.7-12-21.3-17.3 -7.6 5.3-14.7 11.1-21.2 17.4l-0.6 0.5 -0.7-0.4c-7.8-4.5-16.2-8.4-24.8-11.7 -6.1 7-11.6 14.4-16.4 22l-0.4 0.7 -0.8-0.2c-8.6-2.5-17.7-4.3-26.9-5.4 -4.2 8.2-7.8 16.7-10.7 25.3l-0.2 0.7 -0.8 0c-9-0.3-18.3 0.1-27.4 1.2 -2.2 9-3.6 18.1-4.3 27.1l0 0.8 -0.8 0.2c-8.8 1.8-17.7 4.4-26.4 7.7 0.1 9.3 0.8 18.4 2.3 27.3l0.1 0.8 -0.7 0.4c-8.1 3.9-16.1 8.5-23.7 13.8 2.3 9 5.2 17.7 8.8 26l0.3 0.7 -0.6 0.5c-7 5.7-13.6 12.1-19.7 19 4.3 8.2 9.3 16 14.7 23.1l0.5 0.6 -0.5 0.6c-5.4 7.2-10.3 15-14.6 23.2 6.1 6.9 12.8 13.3 19.8 18.9l0.6 0.5 -0.3 0.7c-3.5 8.3-6.4 17-8.6 26 7.6 5.2 15.6 9.8 23.8 13.6l0.7 0.3 -0.1 0.8c-1.4 8.8-2.1 18-2.1 27.3 8.7 3.2 17.6 5.8 26.4 7.6l0.7 0.2 0.1 0.8c0.7 9 2.2 18.1 4.4 27.1 6.7 0.8 13.5 1.2 20.1 1.2 2.4 0 4.9 0 7.3-0.2l0.8 0 0.2 0.7c2.9 8.5 6.5 17 10.8 25.2 9.2-1.2 18.2-3.1 26.9-5.6l0.7-0.2 0.4 0.7c4.9 7.6 10.4 14.9 16.6 21.9 8.6-3.3 16.9-7.3 24.7-11.8l0.7-0.6Z" style="fill:none;stroke-width:4.8;stroke:#333"/>
  <path d="M437.3 244.8l0.4-0.6 -0.4-0.6c-4.6-6.4-9.6-12.4-14.9-17.9l-2.2-2.3 1.6-2.7c3.8-6.6 7.3-13.7 10.2-20.9l0.3-0.7 -0.6-0.5c-6-5.1-12.3-9.7-18.7-13.8l-2.7-1.7 0.9-3c2.1-7.3 3.8-15 4.9-22.8l0.1-0.7 -0.7-0.3c-7-3.5-14.3-6.5-21.5-8.9l-3-1 0.1-3.2c0.3-7.6 0.1-15.5-0.8-23.3l-0.1-0.7 -0.7-0.1c-7.7-1.7-15.4-2.9-23-3.5l-3.2-0.3 -0.6-3.1c-1.5-7.5-3.6-15-6.3-22.4l-0.2-0.7 -0.7 0c-7.8 0.1-15.7 0.8-23.2 2.1l-3.1 0.5 -1.4-2.9c-3.3-6.9-7.1-13.7-11.4-20.3l-0.4-0.6 -0.7 0.2c-7.6 2-15 4.6-22 7.6l-2.9 1.3 -2-2.5c-4.8-5.9-10.2-11.6-16-16.9l-0.5-0.5 -0.6 0.4c-6.8 3.8-13.4 8-19.6 12.6l-2.5 1.9 -2.5-1.9c-6.1-4.6-12.7-8.9-19.6-12.6l-0.6-0.4 -0.5 0.5c-5.8 5.3-11.2 11-16 16.9l-2 2.5 -2.9-1.3c-7-3-14.4-5.5-22-7.6l-0.7-0.2 -0.4 0.6c-4.3 6.6-8.2 13.4-11.5 20.3l-1.3 2.9 -3.1-0.5c-7.5-1.2-15.3-1.9-23.2-2.1l-0.7 0 -0.2 0.7c-2.6 7.4-4.7 14.9-6.3 22.4l-0.6 3.1 -3.2 0.3c-7.6 0.6-15.4 1.8-23 3.5l-0.7 0.1 -0.1 0.7c-0.8 7.8-1 15.6-0.7 23.3l0.1 3.2 -3 1c-7.3 2.4-14.5 5.4-21.5 8.9l-0.6 0.3 0.1 0.7c1.1 7.8 2.7 15.4 4.9 22.8l0.9 3 -2.7 1.7c-6.4 4.1-12.8 8.7-18.7 13.8l-0.5 0.5 0.3 0.7c2.9 7.3 6.4 14.3 10.2 20.9l1.6 2.7 -2.2 2.3c-5.3 5.5-10.3 11.5-14.9 17.9l-0.4 0.6 0.4 0.6c4.6 6.4 9.6 12.4 14.9 17.9l2.2 2.3 -1.6 2.8c-3.8 6.6-7.3 13.6-10.2 20.9l-0.3 0.7 0.5 0.5c6 5.1 12.3 9.7 18.7 13.8l2.7 1.7 -0.9 3.1c-2.1 7.3-3.8 15-4.9 22.8l-0.1 0.7 0.6 0.3c7 3.5 14.3 6.5 21.5 8.9l3 1 -0.1 3.2c-0.3 7.6 0 15.5 0.7 23.3l0.1 0.7 0.7 0.2c7.7 1.7 15.4 2.9 23 3.5l3.2 0.3 0.6 3.1c1.5 7.5 3.6 15.1 6.3 22.4l0.2 0.7 0.7 0c7.8-0.2 15.6-0.9 23.2-2.1l3.1-0.5 1.3 2.9c3.3 6.9 7.1 13.7 11.5 20.3l0.4 0.6 0.7-0.2c7.6-2 15-4.6 22-7.6l2.9-1.3 2 2.5c4.8 5.9 10.2 11.6 16 16.9l0.5 0.5 0.6-0.4c6.8-3.8 13.4-8 19.6-12.6l2.5-1.9 2.5 1.9c6.1 4.6 12.7 8.9 19.6 12.6l0.6 0.4 0.5-0.5c5.8-5.3 11.2-11 16-16.9l2-2.5 2.9 1.3c7 3 14.4 5.5 22 7.6l0.7 0.2 0.4-0.6c4.3-6.6 8.2-13.4 11.4-20.3l1.4-2.9 3.1 0.5c7.5 1.2 15.3 1.9 23.2 2.1l0.7 0 0.2-0.7c2.6-7.4 4.7-15 6.3-22.4l0.6-3.1 3.2-0.3c7.6-0.6 15.4-1.8 23-3.5l0.7-0.2 0.1-0.7c0.8-7.8 1.1-15.7 0.8-23.3l-0.1-3.2 3-1c7.2-2.4 14.5-5.4 21.5-8.9l0.7-0.3 -0.1-0.7c-1.1-7.8-2.7-15.4-4.9-22.8l-0.9-3.1 2.7-1.7c6.5-4.1 12.8-8.7 18.7-13.8l0.6-0.5 -0.3-0.7c-2.9-7.3-6.4-14.3-10.2-20.9l-1.6-2.8 2.2-2.3c5.3-5.5 10.3-11.5 14.9-17.9Zm-188.1 163.2c-89.3 0-161.8-72.4-161.8-161.8 0-89.3 72.4-161.8 161.8-161.8 89.4 0 161.8 72.4 161.8 161.8 0 89.4-72.4 161.8-161.8 161.8Z" fill="#fefff7"/>
  <path d="M249.2 385.7c-77.1 0-139.8-62.7-139.8-139.8 0-77.1 62.7-139.8 139.8-139.8 77.1 0 139.8 62.7 139.8 139.8 0 77.1-62.7 139.8-139.8 139.8Z" style="fill:#fce889;stroke-width:2.6;stroke:#333"/>
  <path d="M376.2 293.8c-19.4 51.3-69 87.9-127 87.9 -55.6 0-103.5-33.6-124.4-81.5m-3.8-98.8c18.5-53 69-91.2 128.3-91.2 60.1 0 111.3 39.3 129.1 93.6" style="fill:none;stroke-width:5.7;stroke:#fefff7"/>
  <rect x="43.7" y="209.5" width="414.2" height="76.2" style="fill:#fce889;stroke-width:2.9;stroke:#333"/>
  <path d="M105 249.8l5.4-17.6 7.1 0 5.4 17.6 6.1-17.6 7.4 0 -10.7 30.7 -5.1 0 -6.7-21.3 -6.7 21.3 -5.1 0 -10.7-30.7 7.6 0 6 17.6Zm57.2-17.7l0 6.1 -15.2 0 0 6.3 13.7 0 0 5.8 -13.7 0 0 6.4 15.7 0 0 6.1 -22.6 0 0-30.7 22.1 0Zm20 30.7l-13.4 0 0-30.7 11.9 0c2.1 0 3.9 0.2 5.4 0.7 1.5 0.5 2.6 1.2 3.4 2 1.4 1.6 2.1 3.4 2.1 5.3 0 2.4-0.8 4.2-2.3 5.3 -0.5 0.4-0.9 0.7-1.1 0.8 -0.2 0.1-0.6 0.3-1.1 0.5 1.9 0.4 3.4 1.3 4.5 2.6 1.1 1.3 1.7 2.9 1.7 4.8 0 2.1-0.7 4-2.2 5.7 -1.7 2-4.6 3-8.9 3Zm-6.5-18.2l3.2 0c1.9 0 3.3-0.2 4.2-0.6 0.9-0.4 1.4-1.3 1.4-2.7 0-1.4-0.4-2.3-1.3-2.7 -0.8-0.4-2.3-0.7-4.3-0.7l-3.3 0 0 6.7 0.1 0Zm0 12.4l4.7 0c2 0 3.4-0.2 4.4-0.7 1-0.5 1.5-1.4 1.5-2.9 0-1.4-0.5-2.4-1.6-2.8 -1-0.5-2.7-0.7-5-0.7l-4 0 0 7.1Zm47.9-18.9l0 24.7 -6.8 0 0-24.7 -8.7 0 0-5.9 24.2 0 0 5.9 -8.7 0Zm38.5 4.2c0 4.9-1.9 8.1-5.8 9.5l7.8 11 -8.4 0 -6.8-9.8 -4.7 0 0 9.8 -6.8 0 0-30.7 11.6 0c4.8 0 8.2 0.8 10.2 2.4 1.9 1.7 2.9 4.3 2.9 7.8Zm-8.2 3.7c0.8-0.8 1.3-2 1.3-3.6 0-1.7-0.4-2.8-1.3-3.4 -0.9-0.6-2.4-0.9-4.6-0.9l-5.1 0 0 9.1 5 0c2.3-0.1 3.8-0.5 4.7-1.2Zm37.1 16.8l-2.8-6.6 -12.8 0 -2.9 6.6 -7.3 0 13.2-30.7 6.6 0 13.2 30.7 -7.2 0Zm-9.3-21.5l-3.9 8.9 7.7 0 -3.8-8.9Zm20.1-9.2l6.8 0 0 30.7 -6.8 0 0-30.7Zm35.8 0l6.8 0 0 30.7 -6.8 0 -14.6-19.2 0 19.2 -6.8 0 0-30.7 6.4 0 15 19.7 0-19.7Zm36.5 0l0 6.1 -15.3 0 0 6.3 13.7 0 0 5.8 -13.7 0 0 6.4 15.7 0 0 6.1 -22.5 0 0-30.7 22.1 0Zm31.5 10.2c0 4.9-1.9 8.1-5.8 9.5l7.8 11 -8.4 0 -6.8-9.8 -4.7 0 0 9.8 -6.8 0 0-30.7 11.6 0c4.8 0 8.2 0.8 10.2 2.4 1.9 1.7 2.9 4.3 2.9 7.8Zm-8.3 3.7c0.8-0.8 1.3-2 1.3-3.6 0-1.7-0.4-2.8-1.3-3.4 -0.9-0.6-2.4-0.9-4.6-0.9l-5.1 0 0 9.1 5 0c2.3-0.1 3.9-0.5 4.7-1.2Z" fill="#333"/>
  <path d="M264.3 191.5l0-20.8c0-0.3-0.1-0.5-0.4-0.7 -4.5-2.8-9-5.6-13.4-8.3 -0.3-0.2-0.5-0.2-0.8 0l-13.5 8.4c-0.3 0.2-0.3 0.4-0.3 0.7l0 20.9c-0.2-0.1-0.3-0.1-0.4-0.2 -1.5-0.9-3-1.8-4.4-2.6 -0.2-0.1-0.3-0.3-0.3-0.5l0-20.5c0-0.3 0.1-0.4 0.3-0.6 6.3-3.9 12.5-7.7 18.8-11.6 0.2-0.1 0.4-0.1 0.6 0 6.2 3.9 12.5 7.7 18.7 11.6 0.2 0.1 0.3 0.3 0.3 0.6l0 20.5c0 0.2-0.1 0.4-0.2 0.5 -1.5 0.9-3.1 1.8-4.6 2.7 -0.2-0.2-0.3-0.2-0.4-0.1ZM246.9 169.2l0 24.1c0 0.4 0.1 0.6 0.5 0.8 0.8 0.4 1.5 0.9 2.3 1.4 0.2 0.2 0.4 0.1 0.7 0 0.8-0.5 1.6-1 2.4-1.4 0.3-0.2 0.4-0.4 0.4-0.7l0-24.1c0.2 0.1 0.2 0.1 0.3 0.1 1.7 1 3.5 2.1 5.2 3.1 0.2 0.1 0.3 0.3 0.3 0.6l0 21.4c0 0.3-0.1 0.4-0.3 0.6 -2.8 1.7-5.6 3.5-8.3 5.2 -0.2 0.1-0.4 0.2-0.6 0 -2.8-1.8-5.6-3.5-8.4-5.2 -0.2-0.1-0.3-0.3-0.3-0.6l0-21.4c0-0.2 0.1-0.4 0.2-0.5l5.4-3.3c0.1 0 0.1 0 0.2-0.1Z" fill="#333"/>
  <path d="M235.3 318.8l-0.8-0.8c-2.5-2.5-3.2-6-2.3-9.1 -2.5-0.6-4.3-2.8-4.3-5.4 0-3.1 2.5-5.5 5.5-5.5 2.7 0 5 2 5.5 4.6 3-0.7 6.2 0.1 8.6 2.4l0.3 0.3 -4.1 4.1 -0.3-0.3c-1.3-1.3-3.5-1.3-4.8 0 -1.3 1.3-1.3 3.5 0 4.8l9.2 9.2 -4.1 4.1 -4.3-4.3 -4.1-4.1ZM239.9 314.2l4.3-4.3 4.1-4.1 0.8-0.8c2.5-2.5 6-3.2 9.1-2.3 0.4-2.7 2.7-4.8 5.5-4.8 3.1 0 5.5 2.5 5.5 5.5 0 2.8-2.1 5.1-4.8 5.5 0.9 3.1 0.1 6.6-2.3 9l-0.3 0.3 -4.1-4.1 0.3-0.3c1.3-1.3 1.3-3.5 0-4.8 -1.3-1.3-3.5-1.3-4.8 0l-0.8 0.8 -4.1 4.1 -4.3 4.3 -4.1-4ZM258.3 334.8c-3.1 1-6.7 0.2-9.2-2.3l-0.3-0.3 4.1-4.1 0.3 0.3c1.3 1.3 3.5 1.3 4.8 0 1.3-1.3 1.3-3.5 0-4.8l-0.8-0.8 -4.1-4.1 -4.3-4.3 4.1-4.1 9.2 9.2c2.3 2.3 3.2 5.6 2.4 8.6 2.7 0.4 4.7 2.7 4.7 5.5 0 3.1-2.5 5.5-5.5 5.5 -2.7 0.2-4.9-1.7-5.4-4.3ZM256.7 323.4l-4.3 4.3 -4.1 4.1 -0.8 0.8c-2.4 2.4-5.7 3.2-8.7 2.4 -0.6 2.5-2.8 4.3-5.4 4.3 -3.1 0-5.5-2.5-5.5-5.5 0-2.6 1.8-4.8 4.3-5.4 -0.8-3 0-6.4 2.4-8.7l0.3-0.3 4.1 4.1 -0.3 0.3c-1.3 1.3-1.3 3.5 0 4.8 1.3 1.3 3.5 1.3 4.8 0l0.8-0.8 4.1-4.1 4.3-4.3 4 4Z" fill="#333"/>
  <path d="M43.9 231.3l32.6 0m-32.6 10.6l32.6 0m-32.6 10.5l32.6 0m-32.6 10.6l32.6 0m349.6-31.7l32.6 0m-32.6 10.6l32.6 0m-32.6 10.5l32.6 0m-32.6 10.6l32.6 0" style="fill:none;stroke-width:2.9;stroke:#333"/>
  <path d="M45.1 283.9l411.1 0m-411.1-71.8l411.1 0" style="fill:none;stroke-width:2.9;stroke:#60b5ca"/>
  <path d="M152.5 189c-1.1 0.2-2.1 0.1-3-0.5 -0.9-0.6-1.5-1.4-1.8-2.5 -0.2-1.1-0.1-2.1 0.5-3 0.6-0.9 1.4-1.5 2.5-1.8 1.1-0.2 2.1-0.1 3 0.5 0.9 0.6 1.5 1.4 1.8 2.5 0.2 1.1 0.1 2.1-0.5 3 -0.6 1-1.4 1.6-2.5 1.8Zm12-16.6c-1.1 0-2.1-0.3-2.9-1.1 -0.8-0.7-1.3-1.7-1.3-2.8 0-1.1 0.3-2.1 1-2.9 0.8-0.8 1.7-1.3 2.8-1.3 1.1 0 2.1 0.3 2.9 1.1 0.8 0.8 1.3 1.7 1.3 2.8 0.1 1.1-0.3 2.1-1 2.9 -0.8 0.8-1.7 1.3-2.8 1.3Zm25.3-29.2l1.5 12.2 -2.2 1.5 -10.6-6.2 7 10.6 -3.7 2.5 -11-16.8 5.1-3.3 10.4 6.4 -1.7-12.1 5-3.3 11 16.8 -3.7 2.5 -7.1-10.8Zm27.8 1.5l-3.3-3.4 -7.9 3 -0.2 4.7 -4.5 1.7 1.1-21.9 4.1-1.5 15.1 15.7 -4.4 1.7Zm-10.7-11.1l-0.3 6.4 4.7-1.8 -4.4-4.6Zm27.8-2.9l4.5-0.7 1.2 7c-1.6 2.5-4.1 4.1-7.6 4.6 -2.9 0.5-5.5-0.1-7.8-1.7 -2.3-1.6-3.7-3.9-4.2-6.8 -0.5-2.9 0.1-5.6 1.8-7.9 1.7-2.3 4-3.7 6.8-4.2 2.8-0.5 5.5 0.1 7.9 1.6l-1.8 3.7c-1-0.6-1.9-1-2.7-1.2 -0.8-0.2-1.6-0.2-2.5 0 -1.7 0.3-3 1.1-4 2.4 -1 1.3-1.3 2.9-1 4.8 0.3 1.9 1.1 3.3 2.4 4.2 1.3 0.9 2.7 1.3 4.2 1 1.5-0.3 2.8-0.8 3.7-1.5l-0.9-5.3Zm24.1-10.5l-0.1 4 -10-0.2 -0.1 4.1 9 0.2 -0.1 3.8 -9-0.2 -0.1 4.2 10.3 0.2 -0.1 4 -14.6-0.3 0.4-20.1 14.4 0.3Zm21.1 3.6l4.4 0.9 -4.2 19.7 -4.4-0.9 -6.8-14.3 -2.6 12.3 -4.4-0.9 4.2-19.7 4.1 0.9 7 14.7 2.7-12.7Zm18.1 10.4l-6.3 15 -4.1-1.7 6.3-15 -5.3-2.2 1.5-3.6 14.7 6.1 -1.5 3.6 -5.3-2.2Zm16.5 24.8c-2.8 0.6-5.4 0-7.9-1.6 -2.5-1.6-4-3.8-4.7-6.6 -0.6-2.8-0.1-5.4 1.5-7.9 1.6-2.5 3.8-4 6.6-4.5 2.8-0.6 5.4 0 7.9 1.6 2.5 1.6 4 3.8 4.7 6.6 0.6 2.8 0.1 5.4-1.5 7.9 -1.7 2.5-3.9 4-6.6 4.5Zm2.7-7c1-1.5 1.3-3.1 1.1-4.8 -0.3-1.7-1.1-3-2.5-3.9 -1.4-0.9-2.9-1.2-4.6-0.7 -1.7 0.5-3 1.4-4 2.9 -1 1.5-1.3 3.1-1.1 4.8 0.3 1.7 1.1 3 2.5 3.9 1.4 0.9 2.9 1.2 4.6 0.7 1.7-0.4 3-1.4 4-2.9Zm11 14.6c0-1.1 0.4-2 1.3-2.8 0.8-0.8 1.8-1.1 2.9-1.1 1.1 0 2 0.4 2.8 1.3 0.8 0.9 1.1 1.8 1.1 2.9 0 1.1-0.4 2-1.3 2.8 -0.8 0.8-1.8 1.1-2.9 1.1 -1.1 0-2-0.4-2.8-1.3 -0.8-0.8-1.2-1.8-1.1-2.9Zm13 15.7c0.2-1.1 0.8-1.9 1.7-2.5 0.9-0.6 1.9-0.8 3-0.6 1.1 0.2 1.9 0.8 2.5 1.7 0.6 0.9 0.8 1.9 0.6 3 -0.2 1.1-0.8 1.9-1.7 2.5 -0.9 0.6-1.9 0.8-3 0.6 -1.1-0.2-1.9-0.8-2.5-1.7 -0.6-0.9-0.8-1.9-0.6-3Zm-184.9 131.2c0.2-1.1 0.8-1.9 1.7-2.6 0.9-0.7 1.9-0.8 3-0.6 1.1 0.2 1.9 0.8 2.6 1.7 0.6 0.9 0.8 1.9 0.6 3 -0.2 1.1-0.8 1.9-1.7 2.6 -0.9 0.6-1.9 0.8-3 0.6 -1.1-0.2-1.9-0.8-2.6-1.7 -0.6-0.9-0.8-1.9-0.6-3Zm13.2 16.7c0-1.1 0.4-2 1.2-2.8 0.8-0.8 1.7-1.2 2.8-1.2 1.1 0 2 0.4 2.8 1.2 0.8 0.8 1.2 1.7 1.2 2.8 0 1.1-0.4 2-1.2 2.8 -0.8 0.8-1.7 1.2-2.8 1.2 -1.1 0-2-0.4-2.8-1.2 -0.8-0.7-1.2-1.7-1.2-2.8Zm21.4 5.6l2.1-3.2 8.8 5.7 -7.1 11c-1.3 2-2.8 3.2-4.5 3.5 -1.7 0.3-3.3 0-5-1.1 -2-1.3-3.3-3.2-3.8-5.8l3.7-1.4c0.3 1.8 1 3 2.1 3.7 0.5 0.3 1.1 0.4 1.8 0.3 0.6-0.2 1.2-0.7 1.8-1.5l5.1-7.9 -5-3.3Zm22.9 26.7c-2.6 1.1-5.3 1.1-8.1 0 -2.8-1.1-4.7-3-5.9-5.6 -1.2-2.6-1.2-5.3-0.1-8 1.1-2.7 3-4.7 5.6-5.7 2.6-1.1 5.3-1.1 8.1 0 2.8 1.1 4.7 3 5.9 5.6 1.1 2.6 1.2 5.3 0.1 8 -1.1 2.7-3 4.6-5.6 5.7Zm1.3-7.5c0.7-1.7 0.7-3.3 0.1-4.9 -0.6-1.6-1.7-2.7-3.2-3.3 -1.6-0.6-3.1-0.6-4.6 0.2 -1.5 0.7-2.6 2-3.3 3.6 -0.7 1.6-0.7 3.3-0.1 4.9 0.6 1.6 1.7 2.7 3.2 3.3 1.6 0.6 3.1 0.6 4.6-0.2 1.5-0.7 2.6-1.9 3.3-3.6Zm24.1 12.6c-2.3 1.7-4.9 2.3-7.9 1.8 -2.9-0.4-5.3-1.8-7-4.1 -1.7-2.3-2.3-4.9-1.9-7.8 0.4-2.9 1.8-5.2 4.1-6.9 2.3-1.7 4.9-2.3 7.9-1.8 2.9 0.4 5.3 1.8 7 4.1 1.7 2.3 2.3 4.9 1.9 7.8 -0.4 3-1.8 5.2-4.1 6.9Zm-0.4-7.5c0.3-1.8-0.1-3.4-1-4.8 -0.9-1.4-2.2-2.3-3.9-2.5 -1.7-0.3-3.2 0.2-4.5 1.2 -1.3 1.1-2.1 2.5-2.4 4.3 -0.3 1.8 0.1 3.4 1 4.8 0.9 1.4 2.3 2.2 3.9 2.5 1.7 0.3 3.2-0.2 4.5-1.2 1.3-1.1 2.1-2.6 2.4-4.3Zm26.5-3.3l-4.4 11.4 -2.7 0.2 -6.4-10.4 1.2 12.6 -4.5 0.4 -1.8-20 6-0.6 6.2 10.5 4.2-11.5 6-0.6 1.8 20 -4.5 0.4 -1.1-12.4Zm13 10.2l-6-19.2 4.3-1.3 4.8 15.4 8.2-2.6 1.2 3.8 -12.5 3.9Zm30.3-12.7l-3.7-3 -7.5 3.9 0.4 4.7 -4.2 2.2 -1.7-21.8 3.8-2 17.1 13.7 -4.2 2.3Zm-12-9.6l0.5 6.3 4.5-2.3 -5-4Zm7.1-11.3l4.1-3 2.1 2.9 5.4 8.9 -2.7 2 -6.8-7.9 -2.1-2.9Zm12.2 15.4c-0.7-0.1-1.2-0.4-1.7-1 -0.4-0.6-0.6-1.2-0.5-1.9 0.1-0.7 0.4-1.2 1-1.7 0.6-0.5 1.2-0.6 1.9-0.5 0.7 0.1 1.2 0.4 1.7 1 0.4 0.6 0.6 1.2 0.5 1.9 -0.1 0.7-0.4 1.2-1 1.7 -0.6 0.5-1.3 0.6-1.9 0.5Zm10.7-16.5c-1.1 0-2-0.3-2.9-1.1 -0.8-0.8-1.2-1.7-1.2-2.8 0-1.1 0.3-2 1.1-2.9 0.8-0.8 1.7-1.2 2.8-1.2 1.1 0 2 0.3 2.9 1.1 0.8 0.8 1.2 1.7 1.2 2.8 0 1.1-0.3 2-1.1 2.9 -0.8 0.8-1.7 1.2-2.8 1.2Zm13.6-16.4c-1.1 0.2-2.1 0.1-3-0.5 -0.9-0.6-1.5-1.4-1.8-2.5 -0.2-1.1-0.1-2.1 0.5-3 0.6-0.9 1.4-1.5 2.5-1.8 1.1-0.2 2.1-0.1 3 0.5 0.9 0.6 1.5 1.4 1.8 2.5 0.2 1.1 0.1 2.1-0.5 3 -0.6 1-1.5 1.6-2.5 1.8Z" fill="#333"/>
</symbol><symbol id="icon" viewBox="0 0 24 24"><path d="M12 1c6.1 0 11 4.9 11 11s-4.9 11-11 11S1 18.1 1 12 5.9 1 12 1M12 0C5.4 0 0 5.4 0 12c0 6.6 5.4 12 12 12 6.6 0 12-5.4 12-12C24 5.4 18.6 0 12 0L12 0z"/><path d="M12 7c2.8 0 5 2.2 5 5s-2.2 5-5 5 -5-2.2-5-5S9.2 7 12 7M12 6c-3.3 0-6 2.7-6 6s2.7 6 6 6 6-2.7 6-6S15.3 6 12 6L12 6z"/></symbol><symbol id="linkedin-in" viewBox="0 0 24 24">
  <title>Linked In icon</title>
  <path d="M5.4 24l-5 0 0-16 5 0 0 16Zm-2.5-18.2c-1.6 0-2.9-1.3-2.9-2.9 0-1.6 1.3-2.9 2.9-2.9 1.6 0 2.9 1.3 2.9 2.9 0 1.6-1.3 2.9-2.9 2.9Zm21.1 18.2l-5 0 0-7.8c0-1.9 0-4.2-2.6-4.2 -2.6 0-3 2-3 4.1l0 7.9 -5 0 0-16 4.8 0 0 2.2 0.1 0c0.7-1.3 2.3-2.6 4.7-2.6 5 0 6 3.3 6 7.6l0 8.8 0 0Z"/>
</symbol><symbol id="slideshare" viewBox="0 0 24 24">
  <title>Slideshare icon</title>
  <path d="M11.7 9.9c0 1.5-1.3 2.7-2.9 2.7 -1.6 0-2.9-1.2-2.9-2.7 0-1.5 1.3-2.7 2.9-2.7 1.6 0 2.9 1.2 2.9 2.7Zm11.9 2.3c-0.9 1.1-2.5 2.4-5 3.4 2.6 9-6.4 10.4-6.3 5.8 0 0.1 0-2.5 0-4.4 -0.2 0-0.4-0.1-0.6-0.1 0 1.9 0 4.6 0 4.5 0.1 4.6-8.9 3.2-6.3-5.8 -2.5-1-4.1-2.3-5-3.4 -0.4-0.6 0-1.3 0.8-0.8 0.1 0.1 0.2 0.1 0.3 0.2l0-9.3c0-1.3 1-2.3 2.2-2.3l16.8 0c1.2 0 2.2 1 2.2 2.3l0 9.3 0.3-0.2c0.7-0.5 1.2 0.2 0.8 0.8Zm-2.2-8.9c0-1.5-0.5-2.1-1.9-2.1l-14.9 0c-1.5 0-1.9 0.5-1.9 2.1l0 9c3.2 1.7 5.9 1.4 7.4 1.3 0.6 0 1 0.1 1.3 0.4 0.1 0.1 0.5 0.4 1 0.8 0.1-0.7 0.5-1.2 1.6-1.2 1.5 0.1 4.3 0.4 7.5-1.4l0-8.9 0 0Zm-5.9 3.8c-1.6 0-2.9 1.2-2.9 2.7 0 1.5 1.3 2.7 2.9 2.7 1.6 0 2.9-1.2 2.9-2.7 0-1.5-1.3-2.7-2.9-2.7Z"/>
</symbol><symbol id="soundcloud" viewBox="0 0 24 24">
    <title>Soundcloud</title>
    <path d="M4.2 12l0.2 2.4 -0.2 2.6c0 0.1-0.1 0.2-0.2 0.2 -0.1 0-0.2-0.1-0.2-0.2l-0.2-2.6 0.2-2.4c0-0.1 0.1-0.2 0.2-0.2 0.1 0 0.2 0.1 0.2 0.2Zm0.8-1.7c-0.1 0-0.2 0.1-0.2 0.2l-0.2 4 0.2 2.6c0 0.1 0.1 0.2 0.2 0.2 0.1 0 0.2-0.1 0.2-0.2l0.2-2.6 -0.2-4c0-0.1-0.1-0.2-0.2-0.2Zm1-0.9c-0.1 0-0.2 0.1-0.2 0.2l-0.2 4.9 0.2 2.5c0 0.1 0.1 0.2 0.2 0.2 0.1 0 0.2-0.1 0.2-0.2l0.2-2.5 -0.2-4.9c0-0.1-0.1-0.2-0.2-0.2Zm-5.7 3.6c-0.1 0-0.1 0-0.1 0.1l-0.2 1.3 0.2 1.3c0 0.1 0 0.1 0.1 0.1 0.1 0 0.1 0 0.1-0.1l0.2-1.3 -0.2-1.3c0-0.1 0-0.1-0.1-0.1Zm0.9-0.8c-0.1 0-0.1 0-0.1 0.1l-0.2 2.2 0.2 2.1c0 0.1 0 0.1 0.1 0.1 0.1 0 0.1 0 0.1-0.1l0.3-2.1 -0.3-2.2c0-0.1-0.1-0.1-0.1-0.1Zm0.9-0.4c-0.1 0-0.1 0.1-0.1 0.1l-0.2 2.6 0.2 2.5c0 0.1 0.1 0.1 0.1 0.1 0.1 0 0.1-0.1 0.1-0.1l0.3-2.5 -0.3-2.6c0-0.1-0.1-0.1-0.1-0.1Zm0.9-0.1c-0.1 0-0.1 0.1-0.1 0.1l-0.2 2.6 0.2 2.5c0 0.1 0.1 0.1 0.1 0.1 0.1 0 0.1-0.1 0.1-0.1l0.2-2.5 -0.2-2.6c0-0.1-0.1-0.1-0.1-0.1Zm9.1-4.2c0 0-0.1-0.1-0.2-0.1 -0.1 0-0.2 0-0.2 0.1 -0.1 0.1-0.1 0.2-0.1 0.3l0 0 -0.1 6.6 0.1 1.2 0.1 1.2c0 0.2 0.2 0.3 0.3 0.3 0.2 0 0.3-0.1 0.3-0.3l0.1-2.4 -0.1-6.7c0-0.1-0.1-0.2-0.2-0.3Zm-1 0.6c-0.1 0-0.1-0.1-0.2-0.1 -0.1 0-0.1 0-0.2 0.1 -0.1 0.1-0.1 0.1-0.1 0.3l0 0.1 -0.1 6c0 0 0 0 0.1 2.5l0 0c0 0.1 0 0.1 0.1 0.2 0.1 0.1 0.1 0.1 0.2 0.1 0.1 0 0.2 0 0.2-0.1 0.1-0.1 0.1-0.1 0.1-0.2l0-0.3 0.1-2.2 -0.1-6.1c0-0.1-0.1-0.2-0.1-0.3Zm-4.2 0.8c-0.1 0-0.2 0.1-0.2 0.2l-0.2 5.3 0.2 2.5c0 0.1 0.1 0.2 0.2 0.2 0.1 0 0.2-0.1 0.2-0.2l0.2-2.5 -0.2-5.3c0-0.1-0.1-0.2-0.2-0.2Zm14.1 2.4c-0.4 0-0.8 0.1-1.1 0.2 -0.2-2.7-2.5-4.7-5.2-4.7 -0.7 0-1.3 0.1-1.9 0.4 -0.2 0.1-0.3 0.2-0.3 0.3l0 9.4c0 0.2 0.1 0.3 0.3 0.3l8.2 0c1.6 0 2.9-1.3 2.9-2.9 0-1.6-1.3-3-2.9-3Zm-11.1-2.3c-0.2 0-0.3 0.1-0.3 0.3l-0.1 5.1 0.1 2.5c0 0.2 0.1 0.3 0.3 0.3 0.2 0 0.3-0.1 0.3-0.3l0.1-2.5 -0.1-5.1c0-0.2-0.1-0.3-0.3-0.3Zm-2-0.3c-0.1 0-0.2 0.1-0.2 0.3l-0.1 5.4 0.1 2.5c0 0.1 0.1 0.2 0.2 0.2 0.1 0 0.2-0.1 0.3-0.2l0.2-2.5 -0.2-5.4c0-0.1-0.1-0.3-0.3-0.3Zm1 0.1c-0.1 0-0.3 0.1-0.3 0.3l-0.1 5.3 0.1 2.5c0 0.1 0.1 0.3 0.3 0.3 0.1 0 0.3-0.1 0.3-0.3l0.2-2.5 -0.2-5.3c0-0.1-0.1-0.3-0.3-0.3Z"/>
</symbol><symbol id="twitter" viewBox="0 0 24 24">
  <title>Twitter icon</title>
  <path d="M21.5 7.1c0 0.2 0 0.4 0 0.6 0 6.5-4.9 14-14 14 -2.8 0-5.4-0.8-7.6-2.2 0.4 0 0.8 0.1 1.2 0.1 2.3 0 4.4-0.8 6.1-2.1 -2.2 0-4-1.5-4.6-3.4 0.3 0 0.6 0.1 0.9 0.1 0.4 0 0.9-0.1 1.3-0.2 -2.3-0.5-3.9-2.4-3.9-4.8l0-0.1c0.7 0.4 1.4 0.6 2.2 0.6 -1.3-0.9-2.2-2.4-2.2-4.1 0-0.9 0.2-1.8 0.7-2.5 2.4 3 6.1 4.9 10.1 5.1 -0.1-0.4-0.1-0.7-0.1-1.1 0-2.7 2.2-4.9 4.9-4.9 1.4 0 2.7 0.6 3.6 1.6 1.1-0.2 2.2-0.6 3.1-1.2 -0.4 1.1-1.1 2.1-2.2 2.7 1-0.1 2-0.4 2.8-0.8 -0.7 1-1.5 1.8-2.5 2.5Z"/>
</symbol></svg>