<svg xmlns="http://www.w3.org/2000/svg" xml:space="preserve" viewBox="0 0 24 24" aria-hidden="true">
  <path d="M12 21c-2.5 0-4.625-.875-6.375-2.625S3 14.5 3 12s.875-4.625 2.625-6.375S9.5 3 12 3a9.146 9.146 0 0 1 1.35.1 5.281 5.281 0 0 0-1.637 1.888A5.297 5.297 0 0 0 11.1 7.5c0 1.5.525 2.775 1.575 3.825C13.725 12.375 15 12.9 16.5 12.9a5.29 5.29 0 0 0 2.525-.612A5.328 5.328 0 0 0 20.9 10.65 8.778 8.778 0 0 1 21 12c0 2.5-.875 4.625-2.625 6.375S14.5 21 12 21Zm0-2c1.467 0 2.783-.404 3.95-1.212a7.013 7.013 0 0 0 2.55-3.163c-.333.083-.667.15-1 .2-.333.05-.667.075-1 .075-2.05 0-3.796-.721-5.237-2.163C9.821 11.296 9.1 9.55 9.1 7.5c0-.333.025-.667.075-1 .05-.333.117-.667.2-1a7.005 7.005 0 0 0-3.162 2.55C5.404 9.217 5 10.533 5 12c0 1.933.683 3.583 2.05 4.95C8.417 18.317 10.067 19 12 19Z"/>
</svg>
