<svg xmlns="http://www.w3.org/2000/svg" viewBox="0 0 500 500"><path d="M250.5 429.9c-99.3 0-180-80.7-180-180s80.7-180 180-180 180 80.7 180 180c0 99.2-80.7 180-180 180zm0-354.4c-96.1 0-174.3 78.2-174.3 174.3 0 96.1 78.2 174.3 174.3 174.3 96.1 0 174.3-78.2 174.3-174.3.1-96.1-78.1-174.3-174.3-174.3zm79.8 256.6c-.6 0-1.3-.2-1.8-.7L169 171.9c-1-1-1-2.6 0-3.6s2.6-1 3.6 0l159.5 159.5c1 1 1 2.6 0 3.6-.5.5-1.2.7-1.8.7zm-159.5 0c-.6 0-1.3-.2-1.8-.7-1-1-1-2.6 0-3.6l159.5-159.5c1-1 2.6-1 3.6 0s1 2.6 0 3.6L172.6 331.4c-.5.5-1.2.7-1.8.7z" fill="#333"/><path d="M358.1 259.1v-26.7c0-.4-.1-.7-.5-.9-5.7-3.5-11.5-7.1-17.2-10.7-.4-.2-.6-.3-1 0-5.8 3.6-11.5 7.2-17.3 10.8-.4.2-.4.5-.4.9v26.7c-.2-.1-.4-.2-.5-.3-1.9-1.1-3.8-2.2-5.7-3.4-.3-.2-.4-.4-.4-.7v-26.3c0-.3.1-.5.4-.7 8-5 16-9.9 24-14.9.3-.2.5-.2.8 0 8 5 16 9.9 24 14.8.3.2.4.4.4.7v26.2c0 .2-.1.5-.3.7-1.9 1.2-3.9 2.3-5.9 3.5-.1.2-.2.3-.4.3zm-22.2-28.5v30.8c0 .5.1.8.6 1.1 1 .5 2 1.1 3 1.7.3.2.5.2.8 0 1-.6 2-1.2 3.1-1.8.4-.2.5-.5.5-.9v-30.9c.2.1.3.1.4.2 2.2 1.3 4.4 2.7 6.7 4 .3.2.4.4.4.8V263c0 .4-.1.6-.4.8-3.6 2.2-7.1 4.4-10.7 6.7-.3.2-.5.2-.8 0-3.6-2.2-7.1-4.5-10.7-6.7-.3-.2-.4-.4-.4-.7v-27.4c0-.2.1-.6.3-.7l6.9-4.2c.1-.1.2-.1.3-.2zm-159.2-7c-3.6-.2-6.3 1.7-7 4.9-.5 2.4.3 4.4 2.3 5.8 2.4 1.6 3.3 3.9 3.9 6.5.4 2 0 3.9-.9 5.7-1.7 3.7-3.4 7.3-5.2 10.9 0 .1-.1.1-.2.2-.6-1.9-1.1-3.8-1.6-5.6-1.4-4.9-2.9-9.8-4.3-14.7-.3-1-.3-2.1-.2-3.1.1-1.1.9-1.7 2-1.7h2.2v-2c0-.4-.3-.3-.5-.3h-14.6c-.4 0-.6.1-.6.6v1.7c1.4.2 2.1 1.2 2.5 2.3 1.1 3 2.1 5.9 3.1 8.9.3.8.5 1.6.7 2.4 0 .2.1.4 0 .6-1.5 3.6-3.1 7.1-4.6 10.6 0 .1-.1.1-.2.3-.3-1.1-.5-2.1-.8-3.2l-4.5-18.9c-.2-1-.1-1.9.7-2.6.2-.2.4-.3.7-.4v-2.2h-13.3c3.4-6.1 8.3-10.1 14.8-12.2 9.6-2.8 17.9-.8 25.6 5.5zM149.5 267c-2.5-1.1-4.6-2.4-6.6-4-5.2-4.4-8.3-9.9-9.1-16.7-.6-4.4-.1-8.7 1.5-12.9.2-.5.5-.7 1-.7 1.2 0 2.1.4 2.9 1.3.2.2.4.5.5.8 3.2 10.6 6.5 21.2 9.7 31.8 0 0 0 .1.1.4zm20.9 0c.8-1.8 1.5-3.4 2.2-5.1 3.2-7.6 6.4-15.2 8.9-23.1.9-2.7 1.2-5.4.8-8.2v-.2c7 11.4 3.6 29.5-11.9 36.6zm-16.9 1.6c2.2-5.5 4.4-10.8 6.7-16.3 2 5.5 3.9 10.8 5.8 16.3-4.2 1-8.3 1-12.5 0zM234.6 165.9l-.9-.9c-2.9-2.9-3.8-7.1-2.7-10.8-2.9-.7-5.1-3.3-5.1-6.4 0-3.6 2.9-6.5 6.5-6.5 3.3 0 6 2.4 6.5 5.5 3.5-.8 7.4.1 10.1 2.9l.4.4-4.8 4.8-.4-.4c-1.6-1.6-4.1-1.6-5.7 0-1.6 1.6-1.6 4.1 0 5.7l10.8 10.8-4.8 4.8-5.1-5.1-4.8-4.8zm5.4-5.4l5.1-5.1 4.8-4.8.9-.9c2.9-2.9 7-3.8 10.7-2.7.4-3.2 3.2-5.6 6.5-5.6 3.6 0 6.5 2.9 6.5 6.5 0 3.3-2.5 6.1-5.7 6.5 1.1 3.7.1 7.8-2.8 10.7l-.4.4-4.8-4.8.4-.4c1.6-1.6 1.6-4.1 0-5.7-1.6-1.6-4.1-1.6-5.7 0l-.9.9-4.8 4.8-5.1 5.1-4.7-4.9zm21.8 24.3c-3.7 1.1-7.9.2-10.9-2.7l-.4-.4 4.8-4.8.4.4c1.6 1.6 4.1 1.6 5.7 0 1.6-1.6 1.6-4.1 0-5.7l-.9-.9-4.8-4.8-5.1-5.1 4.8-4.8 10.8 10.8c2.8 2.8 3.7 6.7 2.9 10.2 3.2.4 5.6 3.2 5.6 6.5 0 3.6-2.9 6.5-6.5 6.5-3.2.1-5.8-2.2-6.4-5.2zm-1.9-13.5l-5.1 5.1-4.8 4.8-.9.9c-2.8 2.8-6.7 3.7-10.3 2.8-.7 2.9-3.3 5.1-6.4 5.1-3.6 0-6.6-2.9-6.5-6.5 0-3.1 2.1-5.7 5-6.4-.9-3.6 0-7.5 2.8-10.4l.4-.4 4.8 4.8-.4.4c-1.6 1.6-1.6 4.1 0 5.7 1.6 1.6 4.1 1.6 5.7 0l.9-.9 4.8-4.8 5.1-5.1 4.9 4.9zm12.2 151c0-3.4 2.1-6 5.2-7.9-.6-1.9-1.3-3.7-2.2-5.4-3.5.9-6.3-.5-8.7-2.8-2.4-2.4-3.1-5.2-2.2-8.7-1.7-.9-3.5-1.7-5.4-2.2-1.8 3.1-5.1 5.2-8.5 5.2-3.4 0-6.7-2.1-8.5-5.2-1.9.6-3.7 1.3-5.4 2.2.9 3.5.2 6.3-2.2 8.7-2.4 2.4-5.2 3.8-8.7 2.8-.9 1.7-1.7 3.5-2.2 5.4 3.1 1.8 5.2 4.5 5.2 7.9 0 3.4-2.1 6.7-5.2 8.5.6 1.9 1.3 3.7 2.2 5.4 3.5-.9 6.3-.2 8.7 2.2 2.4 2.4 3.1 5.2 2.2 8.7 1.7.9 3.5 1.7 5.4 2.2 1.8-3.1 5.1-5.2 8.5-5.2 3.4 0 6.7 2.1 8.5 5.2 1.9-.6 3.7-1.3 5.4-2.2-.9-3.5-.2-6.3 2.2-8.7 2.4-2.4 5.2-3.8 8.7-2.8.9-1.7 1.7-3.5 2.2-5.4-3.1-1.9-5.2-4.6-5.2-7.9zM250.2 334c-6.5 0-11.8-5.3-11.8-11.8 0-6.5 5.3-11.8 11.8-11.8 6.5 0 11.8 5.3 11.8 11.8 0 6.5-5.3 11.8-11.8 11.8z" fill="#333"/><path d="M250.5 387.9c-76.1 0-138.1-61.9-138.1-138.1 0-76.2 61.9-138.1 138.1-138.1 76.1 0 138.1 61.9 138.1 138.1 0 76.2-61.9 138.1-138.1 138.1zm0-273.2c-74.5 0-135.1 60.6-135.1 135.1S176 384.9 250.5 384.9s135.1-60.6 135.1-135.1c.1-74.4-60.6-135.1-135.1-135.1z" fill="#fefff7"/><path d="M250.5 382.7c-73.2 0-132.8-59.6-132.8-132.8 0-73.2 59.6-132.9 132.8-132.9 73.2 0 132.8 59.6 132.8 132.8 0 73.2-59.5 132.9-132.8 132.9zm0-262.7c-71.6 0-129.8 58.2-129.8 129.8 0 71.6 58.2 129.8 129.8 129.8 71.6 0 129.8-58.2 129.8-129.8 0-71.6-58.2-129.8-129.8-129.8z" fill="#fce889"/><path d="M123.4 147.2l2.6 1.9-4.5 6.1 2.8 2.1 4.3-5.8 2.6 1.9-4.3 5.8 5.1 3.8-2.2 2.9-13.1-9.8 6.7-8.9zm15.8-9.4c1.9 1.8 2.5 3.7 1.6 5.7l7.1.9-3 3.3-6.3-.9-1.7 1.9 3.8 3.5-2.5 2.7-12-11.1 4.2-4.5c1.7-1.9 3.3-2.9 4.6-3.1 1.4-.2 2.8.3 4.2 1.6zm-1.6 4.5c0-.6-.3-1.2-1-1.8-.6-.6-1.2-.8-1.8-.7-.6.1-1.2.6-2 1.5l-1.9 2 3.6 3.3 1.8-2c.9-.9 1.3-1.7 1.3-2.3zm20.8-9.9c-.2 2.3-1.2 4.2-3.1 5.8-1.8 1.6-3.9 2.3-6.2 2.1-2.3-.2-4.2-1.1-5.8-3-1.6-1.9-2.2-3.9-2-6.2.2-2.3 1.2-4.2 3.1-5.8 1.8-1.6 3.9-2.3 6.2-2.1 2.3.2 4.2 1.1 5.8 3 1.5 1.8 2.2 3.9 2 6.2zm-4.9-3.8c-.9-1.1-2.1-1.7-3.5-1.9-1.4-.2-2.6.2-3.6 1.1-1 .9-1.6 2-1.6 3.4s.4 2.6 1.4 3.7c.9 1.1 2.1 1.7 3.5 1.9 1.4.2 2.6-.2 3.6-1.1 1-.9 1.6-2 1.6-3.4s-.4-2.6-1.4-3.7zm11-17.6l3-2 8.9 13.7-3 2-12.1-4.3 5.6 8.6-3 2-8.9-13.7 2.9-1.9 12.5 4.4-5.9-8.8zm15.4-4.9l6 11.8-3.3 1.6-6-11.8-4.1 2.1-1.4-2.8 11.5-5.8 1.4 2.8-4.1 2.1zm8.6 4.4l-1.2-2.9 7.7-3.2 1.2 2.9-7.7 3.2zm19.1-18.3l1 3.1-7.8 2.4 1 3.2 7-2.2.9 3-7 2.2 1 3.2 8-2.5 1 3.1-11.5 3.6-4.9-15.6 11.3-3.5zm16-3.5l3.6-.7 3.1 16-3.6.7-9.6-8.6 1.9 10.1-3.6.7-3.1-16 3.4-.6 9.8 8.8-1.9-10.4zm21.7 0c1.6 1.3 2.6 3.2 2.7 5.8.1 2.6-.5 4.6-1.9 6.2-1.4 1.6-3.7 2.5-6.8 2.7l-5.6.4-1.1-16.3 5.8-.4c3-.3 5.3.3 6.9 1.6zm-2 9.9c.8-.9 1.2-2.1 1.1-3.7-.1-1.6-.6-2.8-1.6-3.6-1-.8-2.4-1.1-4.2-1l-2 .1.7 9.9 2.3-.2c1.6-.1 2.8-.6 3.7-1.5zm27.7-8.7c1.4 1.6 2 3.6 1.8 6.1-.2 2.5-1.2 4.5-2.8 5.8-1.6 1.3-4 1.9-7.1 1.6l-5.6-.5 1.5-16.3 5.7.5c2.9.3 5.1 1.3 6.5 2.8zm-3.5 9.4c1-.8 1.5-1.9 1.7-3.5.1-1.6-.2-2.9-1-3.8-.8-.9-2.1-1.5-4-1.7l-2-.2-.9 9.9 2.3.2c1.6.2 2.9-.1 3.9-.9zm22-8.2l-.7 3.2-8-1.6-.7 3.3 7.2 1.5-.6 3-7.2-1.5-.7 3.3 8.2 1.7-.6 3.2-11.8-2.4 3.3-16 11.6 2.3zm7.3 13l7.1-8.7 3.8 1.2-11.2 13.6-2.9-.9-1.3-17.6 3.8 1.2.7 11.2zm24.6-1.5l-1.3 3-7.5-3.3-1.3 3.1 6.7 2.9-1.2 2.8-6.7-2.9-1.4 3.1 7.7 3.4-1.3 3-11-4.8 6.5-15 10.8 4.7zm-3.7 16.4l7.9-14.3 3.2 1.8-6.3 11.4 6.1 3.4-1.6 2.8-9.3-5.1zm23.4 12.1c-2.3.4-4.4-.1-6.4-1.5s-3.2-3.2-3.6-5.5c-.4-2.3 0-4.4 1.4-6.3 1.4-2 3.2-3.1 5.5-3.5 2.3-.4 4.4.1 6.4 1.5s3.2 3.2 3.6 5.5c.4 2.3 0 4.4-1.4 6.3-1.4 2-3.2 3.1-5.5 3.5zm2.4-5.6c.8-1.2 1.2-2.5 1-3.9-.2-1.4-.8-2.5-1.9-3.2-1.1-.8-2.4-1-3.7-.7-1.3.3-2.5 1.1-3.3 2.2-.8 1.2-1.2 2.5-1 3.8.2 1.4.8 2.4 1.9 3.2 1.1.8 2.3 1 3.7.7 1.4-.2 2.5-.9 3.3-2.1zm18.6 7c.2 1.5-.4 3-1.7 4.5-1.3 1.5-2.8 2.2-4.3 2.1-1.5-.1-3.2-.9-5-2.5l-1.6-1.4-3 3.4-2.7-2.4 10.9-12.2 4.3 3.8c1.8 1.6 2.9 3.2 3.1 4.7zm-6.3 3c.7-.1 1.3-.5 1.9-1.2.6-.7.9-1.4.7-2.1-.2-.7-.7-1.4-1.6-2.2l-1.6-1.4-3.7 4.1 1.8 1.6c1.1.9 1.9 1.3 2.5 1.2zm19.3 8.7l-2.4 2.2-5.5-6-2.5 2.3 4.9 5.4-2.3 2.1-4.9-5.4-2.4 2.2 5.7 6.2-2.4 2.2-8.1-8.9 12-11 7.9 8.7zm6.6 17.6c-2.1 1.6-4.1 1.7-5.9.5l-2.3 6.8-2.7-3.6 2-6-1.5-2-4.2 3.1-2.2-2.9 13.2-9.7 3.7 5c1.5 2 2.2 3.8 2.2 5.1 0 1.3-.7 2.6-2.3 3.7zm-4.1-2.4c.6.1 1.2-.1 2-.6.7-.5 1.1-1.1 1-1.6-.1-.5-.4-1.3-1.1-2.3l-1.6-2.2-3.9 2.9 1.6 2.1c.7 1 1.4 1.6 2 1.7z" fill="#333"/><path d="M94.4 233.7c.8-.6 1.7-.9 2.6-.8 1 .1 1.8.5 2.4 1.3.6.8.9 1.7.8 2.6-.1 1-.5 1.8-1.3 2.4-.8.6-1.7.9-2.6.8-1-.1-1.8-.5-2.4-1.3-.6-.8-.9-1.7-.8-2.6.1-1 .5-1.8 1.3-2.4z" fill="#fff"/><path d="M102.2 252l3.5-.1.2 9.4-11.8.3c-2.2 0-3.8-.5-4.9-1.6-1.1-1.1-1.7-2.5-1.7-4.3 0-2.2.7-4.1 2.4-5.8l2.9 2c-1.1 1.1-1.7 2.3-1.7 3.5 0 .6.2 1.1.7 1.4.4.4 1.1.6 2 .6l8.5-.2-.1-5.2zm-9.6 30.1c-2-1.6-3.2-3.7-3.6-6.3-.4-2.6.2-5 1.7-7.1 1.5-2.1 3.6-3.3 6.2-3.6 2.6-.4 5 .2 7 1.8s3.2 3.7 3.6 6.3c.4 2.6-.2 5-1.7 7.1-1.5 2.1-3.6 3.3-6.2 3.6-2.6.4-5-.2-7-1.8zm6.4-2.3c1.6-.2 2.9-.9 3.9-2.1 1-1.2 1.4-2.5 1.2-4-.2-1.5-1-2.7-2.2-3.5-1.3-.9-2.7-1.2-4.3-1-1.6.2-2.9.9-3.9 2.1-1 1.2-1.4 2.5-1.1 4 .2 1.5.9 2.7 2.2 3.5 1.2.9 2.6 1.2 4.2 1zm-.7 24.2c-2.2-1.3-3.7-3.2-4.5-5.8-.7-2.6-.5-5 .7-7.2s3.1-3.8 5.6-4.5c2.6-.7 4.9-.5 7.2.8 2.2 1.3 3.7 3.2 4.5 5.8.7 2.6.5 5-.7 7.2s-3.1 3.8-5.6 4.5c-2.6.7-5 .5-7.2-.8zm6-3.2c1.6-.4 2.7-1.3 3.5-2.6.8-1.3 1-2.7.6-4.1-.4-1.5-1.3-2.5-2.7-3.2-1.4-.7-2.9-.8-4.4-.3-1.6.4-2.7 1.3-3.5 2.6-.8 1.3-1 2.7-.6 4.1.4 1.5 1.3 2.5 2.7 3.2 1.4.7 2.8.8 4.4.3zm11.3 21.3l-11-.3-1-2.2 6.9-8.6-10.3 4.8-1.7-3.7 16.4-7.6 2.3 5-7.1 8.4 11 .1 2.3 4.9-16.4 7.6-1.7-3.7 10.3-4.7zm-5.6 13.5l15.3-9.7 2.2 3.4-12.3 7.8 4.1 6.5-3 1.9-6.3-9.9zm16.8 23.4l2-3.8-4.8-5.9-4.1 1.1-2.7-3.4 19-5.2 2.4 3.1-9.2 17.4-2.6-3.3zm6.5-12.2l-5.5 1.5 2.8 3.5 2.7-5zm-1 17.5c0-.6.2-1.2.7-1.6.5-.4 1-.7 1.6-.6.6 0 1.2.2 1.6.7.4.5.7 1 .6 1.6 0 .6-.2 1.2-.7 1.6-.5.4-1 .7-1.6.6-.6 0-1.2-.2-1.6-.7-.4-.4-.6-.9-.6-1.6zm12.3-12.7l3.2 3.3-2.3 2.2-7.3 5.9-2.1-2.2 6.2-7 2.3-2.2z" fill="#333"/><path d="M147.8 372c-.1-1 .2-1.9.8-2.6.6-.8 1.5-1.2 2.4-1.3 1-.1 1.9.2 2.6.8.8.6 1.2 1.5 1.3 2.4.1.9-.2 1.9-.8 2.6-.6.7-1.5 1.2-2.4 1.3-1 .1-1.9-.2-2.6-.8-.8-.6-1.2-1.4-1.3-2.4z" fill="#fff"/><path d="M179 386.6l-9.2 6-2.1-1.2.8-11-5.8 9.8-3.5-2.1 9.2-15.6 4.7 2.8-1 10.9 9.1-6.2 4.7 2.8-9.2 15.6-3.5-2.1 5.8-9.7zm15.1 19.3l-.1-4.3-7-2.9-3 3-4-1.6 14.1-13.8 3.6 1.5.4 19.7-4-1.6zm-.2-13.9l-4.1 4 4.2 1.7-.1-5.7zm21.4 10.6l3.9 1-1.6 6.2c-2.2 1.5-4.9 1.8-8 1-2.6-.7-4.5-2.1-5.8-4.3-1.3-2.2-1.6-4.5-.9-7.1.7-2.6 2.1-4.5 4.4-5.8 2.2-1.3 4.6-1.6 7.1-.9 2.5.7 4.5 2.1 5.9 4.2l-2.8 2.4c-.6-.9-1.2-1.6-1.8-2-.6-.4-1.3-.8-2-1-1.5-.4-2.9-.2-4.2.5-1.3.7-2.1 1.9-2.6 3.6-.5 1.7-.3 3.1.4 4.4.7 1.3 1.7 2.1 3.1 2.4 1.4.3 2.5.4 3.6.1l1.3-4.7zm21.8-5.4l-.5 3.6-8.9-1.2-.5 3.7 8 1.1-.5 3.4-8-1.1-.5 3.7 9.2 1.3-.5 3.5-13.2-1.8 2.5-17.9 12.9 1.7zm15.7.5l4 .1-.3 18.1-4-.1-8.4-11.5-.2 11.3-4-.1.3-18.1 3.8.1 8.7 11.8.1-11.6zm15.7 2.4l1.6 14.5-4 .4-1.6-14.5-5.1.5-.4-3.5 14.2-1.5.4 3.5-5.1.6zm24.7 7.6c-1.4 2.2-3.4 3.5-6 4.1-2.6.6-5 .2-7.2-1.1s-3.6-3.3-4.2-5.9c-.6-2.6-.2-5 1.2-7.1 1.4-2.2 3.4-3.5 6-4.1 2.6-.6 5-.2 7.2 1.1s3.6 3.3 4.2 5.9c.6 2.6.2 5-1.2 7.1zm-2.8-6.2c-.4-1.6-1.2-2.8-2.4-3.7-1.2-.9-2.6-1.1-4.1-.8-1.5.3-2.6 1.2-3.3 2.5-.8 1.3-1 2.8-.6 4.4.4 1.6 1.2 2.8 2.4 3.7 1.3.9 2.6 1.1 4.1.8 1.5-.3 2.6-1.2 3.3-2.5.7-1.3.9-2.8.6-4.4z" fill="#333"/><path d="M306.5 399.9c-.9-.4-1.6-1-1.9-2-.3-1-.4-1.9 0-2.8.4-.9 1.1-1.5 2-1.9.9-.4 1.9-.4 2.8 0 .9.4 1.5 1.1 1.9 2 .4.9.4 1.8 0 2.8-.4.9-1.1 1.5-2 1.9-1 .4-1.9.4-2.8 0z" fill="#fff"/><path d="M327 388.1l-2.7-10.6 3.6-2.2 8.2 7.2-2.4-10.8 3.7-2.3 4.1 18.7-2.6 1.6-10-8.7 3.2 12.8-2.6 1.6-14.9-12.1 3.7-2.3 8.7 7.1zm32.6-17.4c-.2 2.5-1.4 4.7-3.4 6.4-2 1.7-4.3 2.5-6.9 2.3-2.6-.2-4.7-1.3-6.4-3.3-1.7-2-2.5-4.3-2.2-6.9.2-2.5 1.4-4.7 3.4-6.4 2-1.7 4.3-2.5 6.9-2.3 2.6.2 4.7 1.3 6.4 3.3 1.7 2.1 2.4 4.4 2.2 6.9zm-5.3-4.2c-1-1.2-2.3-1.9-3.9-2.1-1.5-.2-2.9.2-4 1.2s-1.8 2.2-1.8 3.8c-.1 1.5.4 2.9 1.5 4.2 1 1.2 2.3 1.9 3.9 2.1 1.5.2 2.9-.2 4-1.2 1.2-1 1.8-2.2 1.8-3.8 0-1.6-.5-2.9-1.5-4.2zm13.3-18.2c2.2 1.9 2.8 4.1 1.9 6.3l7.9.9-3.3 3.7-7-.9-1.9 2.1 4.3 3.9-2.7 3-13.4-12.1 4.6-5.1c1.9-2.1 3.6-3.3 5.1-3.5 1.5-.2 2.9.3 4.5 1.7zm-1.7 5c0-.7-.4-1.3-1.1-2-.7-.7-1.4-.9-2-.8-.6.1-1.4.7-2.2 1.7l-2 2.3 4 3.6 2-2.2c.9-1 1.3-1.9 1.3-2.6zm9.1-21.6c2.3-.5 4.6 0 6.9 1.6 2.3 1.6 3.7 3.6 4.1 5.9.4 2.3-.4 4.9-2.4 7.7l-3.5 5.1-14.9-10.3 3.6-5.3c1.9-2.6 3.9-4.2 6.2-4.7zm7.2 8.6c-.2-1.3-1-2.5-2.5-3.5s-2.9-1.4-4.2-1.1c-1.4.3-2.6 1.2-3.8 2.9l-1.3 1.9 9 6.3 1.5-2.1c1-1.6 1.5-3.1 1.3-4.4zm.8-24.7c1.5-.6 3.3-.4 5.3.6s3.1 2.4 3.4 4c.3 1.6-.2 3.6-1.4 6l-1.1 2.1 4.5 2.3-1.9 3.6-16-8.4 3-5.7c1.3-2.3 2.7-3.9 4.2-4.5zm5 5.9c-.3-.7-.8-1.3-1.8-1.8-.9-.5-1.7-.6-2.4-.2-.7.4-1.3 1.1-2 2.3l-1.1 2 5.4 2.8 1.3-2.4c.6-1 .8-2 .6-2.7zm6.3-22.1c2.7 1 4.1 2.8 4 5.2l7.7-2-1.8 4.7-6.8 1.7-1 2.6 5.4 2.1-1.4 3.8-16.9-6.4 2.4-6.4c1-2.6 2.2-4.3 3.5-5.1 1.3-.8 2.9-1 4.9-.2zm.3 5.3c-.2-.6-.8-1.1-1.7-1.5-.9-.3-1.6-.3-2.2 0-.5.4-1 1.1-1.5 2.4l-1.1 2.8 5 1.9 1-2.8c.6-1.2.7-2.2.5-2.8zm-1.9-23.3l3.5.9-2.2 8.7 3.6.9 2-7.9 3.3.8-2 7.9 3.6.9 2.2-9 3.5.9-3.2 12.9-17.6-4.4 3.3-12.6zm4.7-6.8c.3.4.7.7 1.2.7.5.1 1-.1 1.3-.5.3-.4.9-1.5 1.5-3.1s1.5-2.9 2.4-3.7c.9-.8 2.3-1.1 3.9-.9 1.6.2 2.8 1 3.7 2.3.8 1.3 1.1 3 .9 5-.4 2.8-1.8 5.3-4.2 7.3l-2.6-2.8c2-1.7 3-3.4 3.3-5 .1-.7 0-1.3-.2-1.8-.3-.5-.7-.7-1.2-.8-.5-.1-1 .1-1.4.5-.4.4-.8 1.2-1.3 2.5-.8 2-1.6 3.5-2.6 4.3-.9.9-2.2 1.2-3.9.9-1.7-.2-2.9-1-3.7-2.4-.8-1.3-1-2.9-.8-4.8.2-1.2.5-2.4 1.1-3.5.6-1.1 1.3-2.1 2.2-2.9l2.7 2.4c-1.4 1.4-2.2 2.9-2.4 4.6-.2.7-.2 1.3.1 1.7zm1.5-16.1c.3.4.7.6 1.3.6.5 0 1-.2 1.3-.7.3-.5.7-1.6 1.2-3.3.5-1.7 1.1-3 2-4 .9-.9 2.1-1.4 3.7-1.3 1.6.1 2.9.7 3.9 1.9s1.4 2.9 1.4 4.8c-.1 2.9-1.2 5.4-3.4 7.7l-2.9-2.5c1.8-1.9 2.7-3.7 2.7-5.3 0-.7-.1-1.3-.4-1.8-.3-.4-.7-.7-1.3-.7-.5 0-1 .2-1.3.6-.3.4-.7 1.3-1 2.6-.6 2.1-1.2 3.6-2.1 4.6-.8 1-2.1 1.4-3.8 1.4-1.7 0-3-.7-3.9-2-.9-1.3-1.3-2.8-1.3-4.7 0-1.2.3-2.4.7-3.6.4-1.2 1.1-2.2 1.8-3.1l2.9 2.1c-1.2 1.5-1.9 3.1-1.9 4.8-.1 1 .1 1.5.4 1.9z" fill="#333"/><path d="M407.1 238c-.6.8-1.4 1.2-2.4 1.3-1 .1-1.9-.1-2.7-.8-.8-.7-1.2-1.4-1.3-2.4-.1-1 .1-1.9.8-2.7.7-.8 1.4-1.2 2.4-1.3 1-.1 1.9.1 2.7.8.8.7 1.2 1.4 1.3 2.4.1 1-.1 1.9-.8 2.7z" fill="#fff"/><path d="M69.1 179.1c2.2.9 4.9-.3 5.8-2.4.9-2.2-.1-4.8-2.4-5.7-.5-.2-1.1-.3-1.7-.3-1.8 0-3.4 1.1-4.1 2.7-.5 1.1-.4 2.3 0 3.4.5 1 1.4 1.8 2.4 2.3zM212.4 54.4c-.3 0-.6 0-.9.1-1.1.2-2.1.9-2.8 1.9-.7 1-.9 2.1-.7 3.3.5 2.3 2.8 3.9 5.2 3.5 1.1-.2 2.1-.9 2.8-1.9.7-1 .9-2.2.7-3.3-.4-2.1-2.2-3.6-4.3-3.6zm-67.6 37.1c2-1.3 2.5-4.1 1.2-6.1-.8-1.2-2.2-2-3.7-2-.9 0-1.7.3-2.4.7-2 1.3-2.6 4.1-1.2 6.1 1.3 2 4.1 2.6 6.1 1.3zM58.9 215.8c2.4.5 4.7-1.1 5.2-3.4.2-1.2 0-2.3-.6-3.3-.7-1-1.7-1.6-2.8-1.9-.3-.1-.6-.1-.9-.1-2.1 0-3.9 1.5-4.3 3.5-.2 1.2 0 2.3.7 3.3.6 1 1.6 1.6 2.7 1.9zm117-150.3c-.6 0-1.1.1-1.7.3-1.1.5-1.9 1.3-2.4 2.4-.5 1.1-.5 2.3 0 3.4.9 2.2 3.5 3.3 5.7 2.4 1.1-.4 1.9-1.3 2.4-2.4.4-1.1.4-2.3 0-3.4-.6-1.6-2.2-2.7-4-2.7zm111.4-2.3c2.3.5 4.7-1.2 5.2-3.5.2-1.2 0-2.3-.7-3.3-.6-1-1.7-1.6-2.8-1.9-.3-.1-.6-.1-.9-.1-2.1 0-3.9 1.5-4.3 3.5-.2 1.2 0 2.3.7 3.3.6 1.1 1.6 1.7 2.8 2zM88.8 352.8c-.9 0-1.7.3-2.4.8-1 .7-1.6 1.6-1.9 2.8-.2 1.1 0 2.3.7 3.3 1.3 1.9 4.1 2.5 6.1 1.2 2-1.4 2.6-4.1 1.2-6.1-.9-1.2-2.2-2-3.7-2zm199.4 82.6c-.3 0-.6 0-.9.1-1.1.2-2.1.9-2.8 1.9-.6 1-.9 2.1-.6 3.3.4 2.3 2.8 3.9 5.2 3.4 1.1-.2 2.1-.9 2.8-1.9.7-1 .9-2.1.7-3.3-.6-2-2.4-3.5-4.4-3.5zM250.3 50.7c-2.4 0-4.4 2-4.4 4.4 0 2.4 2 4.4 4.4 4.4 2.4 0 4.4-2 4.4-4.4 0-2.4-2-4.4-4.4-4.4zm-37.1 384.8c-.3-.1-.6-.1-.9-.1-2.1 0-3.9 1.5-4.3 3.5-.2 1.1 0 2.3.7 3.3.6 1 1.6 1.6 2.8 1.9 2.4.5 4.7-1.2 5.2-3.4.2-1.2 0-2.3-.7-3.3-.6-1-1.6-1.7-2.8-1.9zm-100.3-53.2c-1.2 0-2.3.4-3.1 1.3-.8.8-1.3 1.9-1.3 3.1 0 1.2.4 2.3 1.3 3.1 1.7 1.7 4.5 1.7 6.2 0 1.7-1.7 1.7-4.5 0-6.2-.8-.9-1.9-1.3-3.1-1.3zm0-274.7c-1.2 0-2.3.5-3.1 1.3-.8.8-1.3 1.9-1.3 3.1 0 1.2.4 2.3 1.3 3.1 1.5 1.6 4.7 1.6 6.2 0 1.7-1.7 1.7-4.5 0-6.2-.8-.8-1.9-1.3-3.1-1.3zM74.9 322c-.7-1.6-2.3-2.7-4.1-2.7-.6 0-1.1.1-1.7.3-1.1.5-1.9 1.3-2.4 2.4-.5 1.1-.5 2.3 0 3.4.7 1.7 2.3 2.7 4.1 2.7.6 0 1.1-.1 1.7-.3 2.2-1 3.3-3.6 2.4-5.8zm16.3-184.2c-.7-.5-1.6-.7-2.4-.7-1.5 0-2.8.7-3.7 2-.6 1-.9 2.1-.7 3.3.2 1.2.9 2.1 1.9 2.8 1.9 1.3 4.9.6 6.1-1.2.7-1 .9-2.1.7-3.3-.2-1.3-.9-2.3-1.9-2.9zM63.4 289.7c.6-1 .9-2.2.6-3.3-.4-2-2.2-3.5-4.3-3.5-.3 0-.6 0-.9.1-1.2.2-2.2.9-2.8 1.9-.7 1-.9 2.2-.7 3.3.5 2.3 2.8 3.9 5.2 3.5 1.3-.4 2.3-1.1 2.9-2zm-7.4-36c2.4 0 4.4-2 4.4-4.4 0-2.4-2-4.4-4.4-4.4-2.4 0-4.4 2-4.4 4.4 0 2.5 2 4.4 4.4 4.4zm121.6 171c-.5-.2-1.1-.3-1.7-.3-1.8 0-3.4 1.1-4.1 2.7-.5 1.1-.5 2.3 0 3.4.4 1.1 1.3 1.9 2.4 2.4.5.2 1.1.3 1.7.3 1.8 0 3.4-1.1 4.1-2.7.5-1.1.5-2.3 0-3.4s-1.3-2-2.4-2.4zm-32.8-17.5c-.7-.5-1.6-.7-2.4-.7-1.5 0-2.9.7-3.7 2-.6 1-.9 2.1-.6 3.3.2 1.2.9 2.1 1.9 2.8.7.5 1.5.7 2.3.7 1.5 0 3-.7 3.8-1.9.6-1 .9-2.1.6-3.3-.3-1.3-.9-2.3-1.9-2.9zm105.5 31.9c-2.4 0-4.4 2-4.4 4.4 0 2.4 2 4.4 4.4 4.4 2.4 0 4.4-2 4.4-4.4 0-2.4-2-4.4-4.4-4.4zm163.9-85.5c-.7-.5-1.6-.8-2.4-.8-1.5 0-2.8.7-3.7 2-.6 1-.9 2.2-.6 3.3.2 1.1.9 2.1 1.9 2.8 2 1.3 4.8.7 6.1-1.2.7-1 .9-2.1.7-3.3-.4-1.2-1-2.2-2-2.8zm-26.6-246c-1.2 0-2.3.5-3.1 1.3-.8.8-1.3 1.9-1.3 3.1 0 1.2.5 2.3 1.3 3.1.8.8 1.9 1.2 3.1 1.2 1.2 0 2.3-.4 3.1-1.2.8-.8 1.3-1.9 1.3-3.1 0-1.2-.5-2.3-1.3-3.1-.8-.8-1.9-1.3-3.1-1.3zm38 69.1c.9 2.2 3.5 3.3 5.8 2.4 1.1-.4 1.9-1.3 2.4-2.4.5-1.1.5-2.3 0-3.4-.7-1.6-2.3-2.7-4.1-2.7-.6 0-1.1.1-1.7.3-2.2 1-3.3 3.5-2.4 5.8zm11.5 32.3c-.7 1-.9 2.1-.7 3.3.4 2.3 2.8 3.9 5.2 3.5 1.1-.2 2.1-.9 2.8-1.9.7-1 .9-2.1.7-3.3-.4-2.1-2.2-3.5-4.3-3.5-.3 0-.6 0-.9.1-1.2.2-2.2.8-2.8 1.8zm-49.5 173.3c-1.2 0-2.3.4-3.1 1.3-1.7 1.7-1.7 4.5 0 6.2 1.7 1.6 4.6 1.7 6.2 0 .8-.8 1.3-1.9 1.3-3.1 0-1.2-.5-2.3-1.3-3.1-.8-.9-1.9-1.3-3.1-1.3zm54-99.4c-.3-.1-.6-.1-.9-.1-2.1 0-3.9 1.5-4.3 3.5-.2 1.2 0 2.3.7 3.3.6 1 1.6 1.6 2.8 1.9 2.3.5 4.7-1.2 5.2-3.5.2-1.1 0-2.3-.7-3.3-.7-.9-1.7-1.6-2.8-1.8zm2.9-38c-2.4 0-4.4 2-4.4 4.4 0 2.4 2 4.4 4.4 4.4 2.4 0 4.4-2 4.4-4.4 0-2.4-2-4.4-4.4-4.4zm-13.1 74.7c-.6-.2-1.1-.3-1.7-.3-1.8 0-3.4 1.1-4.1 2.7-.9 2.2.2 4.8 2.4 5.7 2.1.9 4.9-.3 5.7-2.4.4-1.1.4-2.3 0-3.4-.4-1-1.2-1.9-2.3-2.3zm-17.2-174.5c1-.7 1.6-1.6 1.9-2.8.2-1.2 0-2.3-.7-3.3-.8-1.2-2.2-2-3.7-2-.9 0-1.7.3-2.4.7-1 .7-1.6 1.7-1.9 2.8-.2 1.1 0 2.3.7 3.3 1.3 2 4.1 2.6 6.1 1.3zm-58.5-53.6c2 1.3 4.8.7 6.1-1.2.7-1 .9-2.1.7-3.3-.2-1.2-.9-2.1-1.9-2.8-.7-.5-1.6-.7-2.4-.7-1.5 0-2.9.7-3.7 2-1.3 1.9-.8 4.7 1.2 6zm-31.1 332.9c-.6 0-1.1.1-1.7.3-1.1.4-1.9 1.3-2.4 2.4-.4 1.1-.4 2.3 0 3.4.9 2.2 3.5 3.3 5.7 2.4 1.1-.4 1.9-1.3 2.4-2.4.4-1.1.4-2.3 0-3.4-.6-1.7-2.2-2.7-4-2.7zM322.9 74c.5.2 1 .3 1.6.3 1.8 0 3.5-1.1 4.2-2.7.4-1.1.4-2.3 0-3.4-.5-1.1-1.3-1.9-2.4-2.4-.5-.2-1.1-.3-1.7-.3-1.8 0-3.4 1.1-4.1 2.7-.5 1.1-.5 2.3 0 3.4s1.3 1.9 2.4 2.4zm35.2 332.4c-.9 0-1.7.3-2.4.7-1 .7-1.6 1.6-1.9 2.8-.2 1.2 0 2.3.7 3.3.8 1.2 2.2 2 3.7 2 .9 0 1.7-.3 2.4-.7 2-1.3 2.6-4.1 1.2-6.1-.8-1.3-2.2-2-3.7-2zM76.9 161.6c2 1.1 4.9.1 6-1.8.6-1 .7-2.2.3-3.3-.3-1.1-1.1-2-2.1-2.6-.8-.4-1.6-.6-2.5-.5-1.5.1-2.8 1-3.5 2.3-.6 1-.7 2.2-.3 3.4.3 1.1 1.1 2 2.1 2.5zm346.7 0c1-.6 1.8-1.5 2.1-2.6.3-1.1.2-2.3-.3-3.4-.8-1.6-2.5-2.5-4.3-2.3-.6.1-1.1.2-1.6.5-2.1 1.2-3 3.8-1.8 6 1.1 2.1 3.8 3 5.9 1.8zM56.5 234.7c2.5.3 4.6-1.6 4.8-3.9.1-1.2-.2-2.3-1-3.2-.8-.9-1.8-1.5-3-1.6h-.9c-2.1.2-3.7 1.9-3.9 3.9-.1 1.2.2 2.3 1 3.2.8.9 1.9 1.5 3 1.6zm22 101.8c-.6.1-1.1.2-1.6.5-1 .6-1.8 1.5-2.1 2.6-.3 1.1-.2 2.3.3 3.3.8 1.6 2.5 2.5 4.3 2.3.6-.1 1.1-.2 1.6-.5 2.2-1.1 3-3.8 1.8-6-.8-1.5-2.5-2.4-4.3-2.2zm360.7-105.8c.2 2.4 2.4 4.2 4.8 4 2.4-.2 4.2-2.4 3.9-4.8-.2-2.4-2.4-4.2-4.8-3.9-2.4.2-4.2 2.3-3.9 4.7zM268.9 60.4c2.4.2 4.6-1.6 4.8-3.9.1-1.2-.2-2.3-1-3.2-.7-.9-1.8-1.5-3-1.6h-.9c-2.1.2-3.7 1.9-3.9 3.9-.1 1.2.2 2.3 1 3.2.7 1 1.8 1.5 3 1.6zM61.4 267.9c-.2-2.4-2.4-4.2-4.8-3.9-2.4.2-4.2 2.4-3.9 4.8.2 2.4 2.4 4.2 4.8 4 2.3-.3 4.1-2.4 3.9-4.9zm6.9 39.9c.6-1 .7-2.2.3-3.4-.6-2-2.5-3.3-4.6-3.1-.3 0-.6.1-.9.2-1.1.3-2 1.1-2.6 2.1-.6 1-.7 2.2-.3 3.3.7 2.2 3.1 3.6 5.5 2.9 1.1-.2 2-1 2.6-2zm363.9-116.9c-.6 1-.7 2.2-.3 3.3.7 2.2 3.2 3.6 5.5 2.9 1.1-.3 2-1.1 2.6-2.1.6-1 .7-2.2.3-3.3-.6-2-2.5-3.3-4.6-3.1-.3 0-.6.1-.8.2-1.2.3-2.1 1-2.7 2.1zm-369.1 6.3c2.2.7 4.8-.7 5.5-2.9.7-2.3-.6-4.8-2.9-5.5-.6-.2-1.1-.2-1.7-.2-1.8.2-3.3 1.4-3.8 3.1-.3 1.1-.2 2.3.3 3.3.6 1.1 1.5 1.8 2.6 2.2zM400 121.7c-.9.1-1.7.4-2.3 1-.9.7-1.5 1.8-1.6 3-.1 1.2.2 2.3 1 3.2 1.5 1.8 4.4 2.1 6.2.6.9-.7 1.5-1.8 1.6-3 .1-1.2-.2-2.3-1-3.2-1-1.1-2.5-1.7-3.9-1.6zm-29.3-19.1c.8.7 2 1 3.2.9 1.2-.1 2.3-.7 3-1.5.8-.9 1.1-2 1-3.2-.1-1.2-.7-2.2-1.6-3-.9-.8-2.1-1.1-3.2-1-1.2.1-2.2.7-3 1.6-.7.9-1.1 2.1-1 3.2.1 1.2.7 2.3 1.6 3zm-65.3-34.9c.5.2 1.1.2 1.6.2 1.8-.2 3.4-1.4 3.9-3.1.3-1.1.2-2.3-.3-3.3-.6-1-1.5-1.8-2.6-2.1-.6-.2-1.1-.2-1.7-.2-1.8.2-3.3 1.4-3.8 3.1-.3 1.1-.2 2.3.3 3.4.5.9 1.4 1.7 2.6 2zm36 348.5c-.6.1-1.1.2-1.6.5-1 .6-1.8 1.5-2.1 2.6-.3 1.1-.2 2.3.3 3.4 1.1 2.1 3.8 2.9 5.9 1.8 1-.6 1.8-1.5 2.1-2.6.3-1.1.2-2.3-.3-3.3-.9-1.6-2.5-2.5-4.3-2.4zM97.3 129.5c1.7 1.4 4.8 1.1 6.2-.6 1.5-1.9 1.3-4.6-.6-6.2-.9-.7-2-1.1-3.2-1-1.2.1-2.2.7-3 1.6-.7.9-1.1 2-1 3.2.2 1.2.7 2.3 1.6 3zm242.4-47.6c2.1 1.1 4.8.2 6-1.8.6-1 .7-2.2.3-3.3-.3-1.1-1.1-2-2.1-2.6-.8-.4-1.6-.6-2.5-.5-1.5.1-2.8 1-3.5 2.3-1.1 2.1-.3 4.8 1.8 5.9zM373 395.1c-.9.1-1.7.4-2.3 1-.9.7-1.5 1.8-1.6 3-.1 1.2.2 2.3 1 3.2.9 1.1 2.4 1.7 3.8 1.6.9-.1 1.7-.4 2.3-1 1.9-1.5 2.2-4.3.6-6.2-.9-1.2-2.3-1.8-3.8-1.6zm64.4-93.6c-.6-.2-1.1-.2-1.7-.2-1.8.2-3.3 1.4-3.8 3.1-.7 2.3.6 4.8 2.9 5.5 2.2.7 4.8-.8 5.5-2.9.3-1.1.2-2.3-.3-3.4-.6-1-1.5-1.7-2.6-2.1zm-34.2 67.6c-.9-.7-2.1-1.1-3.2-1-1.2.1-2.2.7-3 1.6-1.5 1.9-1.3 4.6.6 6.2 1.8 1.5 4.7 1.2 6.2-.6.7-.9 1.1-2 1-3.2-.1-1.2-.7-2.2-1.6-3zM444 264h-.9c-2.1.2-3.7 1.9-3.9 3.9-.1 1.2.2 2.3 1 3.2.8.9 1.8 1.5 3 1.6 2.4.2 4.6-1.6 4.8-4 .1-1.2-.2-2.3-1-3.2-.8-.8-1.9-1.4-3-1.5zm-20.4 73c-.8-.4-1.6-.6-2.5-.5-1.5.1-2.8 1-3.5 2.3-.6 1-.7 2.2-.3 3.4.3 1.1 1.1 2 2.1 2.6 2.1 1.1 4.8.3 5.9-1.8.6-1 .7-2.2.3-3.3-.2-1.2-.9-2.1-2-2.7zm-117.4 93.8c-.3 0-.6.1-.8.2-1.1.4-2 1.1-2.6 2.1-.6 1-.7 2.2-.3 3.4.7 2.2 3.2 3.6 5.5 2.9 1.1-.3 2-1.1 2.6-2.1.6-1 .7-2.2.3-3.3-.7-2.1-2.6-3.4-4.7-3.2zm-179.6-336c-.9.1-1.7.4-2.3 1-1.9 1.5-2.2 4.3-.6 6.2 1.5 1.8 4.4 2.1 6.2.6 1.9-1.5 2.1-4.3.6-6.2-1-1.1-2.4-1.7-3.9-1.6zm34.2 321.9c-.8-.4-1.6-.6-2.5-.5-1.5.1-2.8 1-3.5 2.3-.5 1-.7 2.2-.3 3.3.3 1.1 1.1 2.1 2.1 2.6.7.4 1.5.5 2.4.4 1.5-.1 2.9-1 3.5-2.3.6-1 .7-2.2.3-3.4-.2-.9-1-1.8-2-2.4zm108.1 21.5c-2.4.2-4.2 2.4-3.9 4.8.2 2.4 2.4 4.2 4.8 3.9 2.4-.2 4.2-2.4 3.9-4.8-.3-2.3-2.4-4.1-4.8-3.9zm-142.3-43.1c-1.2.1-2.2.7-3 1.6-.8.9-1.1 2-1 3.2.1 1.2.7 2.2 1.6 3 1.8 1.5 4.7 1.2 6.2-.6 1.5-1.9 1.3-4.7-.6-6.2-.9-.8-2-1.1-3.2-1zm-26.9-26.9c-.9.1-1.7.4-2.4 1-.9.7-1.5 1.8-1.6 3-.1 1.2.2 2.3 1 3.2 1.5 1.8 4.4 2.1 6.2.6 1.9-1.5 2.2-4.3.6-6.2-.9-1.2-2.3-1.8-3.8-1.6zm61.1-286.3c1-.6 1.8-1.5 2.1-2.6.3-1.1.2-2.3-.3-3.4-.8-1.6-2.5-2.5-4.3-2.3-.6.1-1.1.2-1.6.5-1 .6-1.8 1.5-2.1 2.6-.3 1.1-.2 2.3.3 3.3 1 2.2 3.7 3.1 5.9 1.9zm70-30.2c-2.4.2-4.2 2.4-3.9 4.8.2 2.4 2.4 4.2 4.8 3.9 2.4-.2 4.2-2.4 3.9-4.8-.2-2.4-2.4-4.2-4.8-3.9zm.9 386.5h-.9c-2.1.2-3.7 1.9-3.9 3.9-.1 1.2.2 2.3 1 3.2.7.9 1.8 1.5 3 1.6 2.5.2 4.6-1.6 4.8-3.9.1-1.2-.2-2.3-1-3.2-.8-.9-1.9-1.5-3-1.6zM193.5 59.1c-.3 0-.6.1-.9.2-1.1.3-2 1.1-2.6 2.1-.6 1-.7 2.2-.3 3.3.7 2.2 3.2 3.6 5.5 2.9 1.1-.3 2-1.1 2.6-2.1.6-1 .7-2.2.3-3.4-.6-1.9-2.6-3.2-4.6-3zm1.7 371.9c-.6-.2-1.1-.2-1.7-.2-1.8.2-3.3 1.4-3.8 3.1-.3 1.1-.2 2.3.3 3.3.6 1 1.5 1.8 2.6 2.1.6.2 1.1.2 1.7.2 1.8-.2 3.2-1.4 3.8-3.1.3-1.1.2-2.3-.3-3.4-.6-.9-1.5-1.7-2.6-2z" fill="#fefff7"/><circle cx="87.6" cy="88.8" r="2.9" fill="#fce889"/><circle cx="117.5" cy="84.3" r="2.9" fill="#fce889"/><circle cx="117.3" cy="63" r="2.9" fill="#fce889"/><circle cx="146.9" cy="64.7" r="2.9" fill="#fce889"/><circle cx="160.1" cy="34.8" r="2.9" fill="#fce889"/><circle cx="175" cy="51.4" r="2.9" fill="#fce889"/><circle cx="190.6" cy="34" r="2.9" fill="#fce889"/><circle cx="191" cy="11.8" r="2.9" fill="#fce889"/><circle cx="212.6" cy="41.4" r="2.9" fill="#fce889"/><circle cx="246.5" cy="38.7" r="2.9" fill="#fce889"/><circle cx="263.9" cy="20.8" r="2.9" fill="#fce889"/><circle cx="288.6" cy="8.9" r="2.9" fill="#fce889"/><circle cx="286.4" cy="38.1" r="2.9" fill="#fce889"/><circle cx="309.2" cy="24.2" r="2.9" fill="#fce889"/><circle cx="325.4" cy="43.6" r="2.9" fill="#fce889"/><circle cx="338.2" cy="11.2" r="2.9" fill="#fce889"/><circle cx="360.7" cy="34.8" r="2.9" fill="#fce889"/><circle cx="351.1" cy="59.1" r="2.9" fill="#fce889"/><circle cx="382.5" cy="85.3" r="2.9" fill="#fce889"/><circle cx="422.2" cy="123.3" r="2.9" fill="#fce889"/><circle cx="417.1" cy="92" r="2.9" fill="#fce889"/><circle cx="444" cy="91.8" r="2.9" fill="#fce889"/><circle cx="444.8" cy="123.3" r="2.9" fill="#fce889"/><circle cx="440.7" cy="156" r="2.9" fill="#fce889"/><circle cx="471.8" cy="142.7" r="2.9" fill="#fce889"/><circle cx="459.9" cy="170.5" r="2.9" fill="#fce889"/><circle cx="458.1" cy="197.4" r="2.9" fill="#fce889"/><circle cx="483.4" cy="202.3" r="2.9" fill="#fce889"/><circle cx="469.3" cy="218.2" r="2.9" fill="#fce889"/><circle cx="489.2" cy="244" r="2.9" fill="#fce889"/><circle cx="460.8" cy="244.8" r="2.9" fill="#fce889"/><circle cx="476.3" cy="268.5" r="2.9" fill="#fce889"/><circle cx="456.9" cy="286.3" r="2.9" fill="#fce889"/><circle cx="450.8" cy="315.7" r="2.9" fill="#fce889"/><circle cx="474.4" cy="307.3" r="2.9" fill="#fce889"/><circle cx="468.7" cy="340.6" r="2.9" fill="#fce889"/><circle cx="441" cy="345.9" r="2.9" fill="#fce889"/><circle cx="466.5" cy="372" r="2.9" fill="#fce889"/><circle cx="441.2" cy="372.2" r="2.9" fill="#fce889"/><circle cx="415.8" cy="377.5" r="2.9" fill="#fce889"/><circle cx="435.2" cy="399.6" r="2.9" fill="#fce889"/><circle cx="408.3" cy="405.5" r="2.9" fill="#fce889"/><circle cx="383" cy="411" r="2.9" fill="#fce889"/><circle cx="403.4" cy="429.8" r="2.9" fill="#fce889"/><circle cx="371.5" cy="441.9" r="2.9" fill="#fce889"/><circle cx="365.8" cy="467.2" r="2.9" fill="#fce889"/><circle cx="341.9" cy="438.8" r="2.9" fill="#fce889"/><circle cx="336" cy="459.4" r="2.9" fill="#fce889"/><circle cx="308.4" cy="450.9" r="2.9" fill="#fce889"/><circle cx="288.2" cy="475.4" r="2.9" fill="#fce889"/><circle cx="277.6" cy="456" r="2.9" fill="#fce889"/><circle cx="258.4" cy="469.9" r="2.9" fill="#fce889"/><circle cx="252.5" cy="491.1" r="2.9" fill="#fce889"/><circle cx="222.8" cy="475.6" r="2.9" fill="#fce889"/><circle cx="238.8" cy="456.4" r="2.9" fill="#fce889"/><circle cx="204.5" cy="450.2" r="2.9" fill="#fce889"/><circle cx="182.8" cy="464.3" r="2.9" fill="#fce889"/><circle cx="157.5" cy="469.9" r="2.9" fill="#fce889"/><circle cx="167.1" cy="442.1" r="2.9" fill="#fce889"/><circle cx="140.7" cy="449.8" r="2.9" fill="#fce889"/><circle cx="130.3" cy="426.4" r="2.9" fill="#fce889"/><circle cx="93.6" cy="426.6" r="2.9" fill="#fce889"/><circle cx="109.3" cy="405.5" r="2.9" fill="#fce889"/><circle cx="79.3" cy="397.8" r="2.9" fill="#fce889"/><circle cx="85" cy="371.6" r="2.9" fill="#fce889"/><circle cx="53.1" cy="385.1" r="2.9" fill="#fce889"/><circle cx="53.3" cy="356.9" r="2.9" fill="#fce889"/><circle cx="23.3" cy="351.6" r="2.9" fill="#fce889"/><circle cx="56.2" cy="325.5" r="2.9" fill="#fce889"/><circle cx="34.3" cy="319.5" r="2.9" fill="#fce889"/><circle cx="47" cy="288.9" r="2.9" fill="#fce889"/><circle cx="10.8" cy="289.3" r="2.9" fill="#fce889"/><circle cx="31.3" cy="270.9" r="2.9" fill="#fce889"/><circle cx="39.8" cy="244.4" r="2.9" fill="#fce889"/><circle cx="33.9" cy="221.5" r="2.9" fill="#fce889"/><circle cx="16.6" cy="207.8" r="2.9" fill="#fce889"/><circle cx="49.7" cy="197.8" r="2.9" fill="#fce889"/><circle cx="40.1" cy="171.3" r="2.9" fill="#fce889"/><circle cx="31.3" cy="142.5" r="2.9" fill="#fce889"/><circle cx="63.3" cy="159" r="2.9" fill="#fce889"/><circle cx="65.8" cy="129" r="2.9" fill="#fce889"/><circle cx="56" cy="102.2" r="2.9" fill="#fce889"/><circle cx="409.9" cy="64.9" r="2.9" fill="#fce889"/><circle cx="381.7" cy="58.9" r="2.9" fill="#fce889"/><circle cx="223.9" cy="19.3" r="2.9" fill="#fce889"/></svg>