<svg xmlns="http://www.w3.org/2000/svg" viewBox="0 0 24 24"><path d="M11.7 9.9c0 1.5-1.3 2.7-2.9 2.7-1.6 0-2.9-1.2-2.9-2.7 0-1.5 1.3-2.7 2.9-2.7 1.6 0 2.9 1.2 2.9 2.7zm11.9 2.3c-.9 1.1-2.5 2.4-5 3.4 2.6 9-6.4 10.4-6.3 5.8V17c-.2 0-.4-.1-.6-.1v4.5c.1 4.6-8.9 3.2-6.3-5.8-2.5-1-4.1-2.3-5-3.4-.4-.6 0-1.3.8-.8.1.1.2.1.3.2V2.3C1.5 1 2.5 0 3.7 0h16.8c1.2 0 2.2 1 2.2 2.3v9.3l.3-.2c.7-.5 1.2.2.8.8zm-2.2-8.9c0-1.5-.5-2.1-1.9-2.1H4.6c-1.5 0-1.9.5-1.9 2.1v9c3.2 1.7 5.9 1.4 7.4 1.3.6 0 1 .1 1.3.4.1.1.5.4 1 .8.1-.7.5-1.2 1.6-1.2 1.5.1 4.3.4 7.5-1.4V3.3zm-5.9 3.8c-1.6 0-2.9 1.2-2.9 2.7 0 1.5 1.3 2.7 2.9 2.7 1.6 0 2.9-1.2 2.9-2.7 0-1.5-1.3-2.7-2.9-2.7z"/></svg>