<?xml version="1.0" encoding="UTF-8" standalone="no"?>
<!DOCTYPE svg PUBLIC "-//W3C//DTD SVG 1.1//EN" "http://www.w3.org/Graphics/SVG/1.1/DTD/svg11.dtd">
<svg width="100%" height="100%" viewBox="0 0 800 400" version="1.1" xmlns="http://www.w3.org/2000/svg" xmlns:xlink="http://www.w3.org/1999/xlink" xml:space="preserve" xmlns:serif="http://www.serif.com/" style="fill-rule:evenodd;clip-rule:evenodd;stroke-linejoin:round;stroke-miterlimit:2;">
    <g transform="matrix(1.92209,0,0,1.92209,25,136.379)">
        <path d="M9.5,20.8L9.5,11.3L0,11.3L0,1.9L19,1.9L19,20.8L9.5,20.8ZM39,32.8C49.9,34.2 52.6,39.8 52.6,47.6C52.6,56.6 47.5,65.3 32.2,65.3L9.5,65.3L9.5,27.3L31.3,27.3C37.2,27.2 40.7,27 40.9,19.3C41,15.8 39.6,11.5 32.9,11.4L25.3,11.4L25.3,1.9L32.9,1.9C45.6,2.2 50.7,10.3 50.7,17.8C50.7,23.9 48.3,30 39,31.3L39,32.8ZM32.5,55.7C40.5,55.6 43.1,53.1 43,46.2C43,38 40.4,36.5 32.4,36.5L19.1,36.5L19.1,55.7L32.5,55.7ZM60,49.8C60,41.7 65.3,33.5 76.7,33.5C83.2,33.5 86.9,35.4 89.6,39.1L89.6,27L65.4,27L65.4,18.6L98.9,18.6L98.9,55.8L104.5,55.8L104.5,65.1L89.6,65.1L89.6,60.4C86.8,64.1 83.2,66 76.7,66C65.3,66.1 60,57.9 60,49.8ZM89.6,49.8C89.6,45.1 86.3,41.9 79.4,41.9C72.5,41.9 69.2,45.2 69.2,49.8C69.2,54.4 72.5,57.7 79.4,57.7C86.3,57.7 89.6,54.5 89.6,49.8ZM108.7,41.9C108.7,27.3 115.9,17.7 129.6,17.7C141.8,17.7 149,25.2 149,36.3L139.7,36.3C139.3,30.5 137.4,26.1 130.1,26.1C121.4,26.1 118.1,29.8 118.1,41.9C118.1,54 121.4,57.7 130.1,57.7C137.4,57.7 139.3,53.2 139.7,47.5L149,47.5C149,58.6 141.8,66.1 129.6,66.1C115.9,66.1 108.7,56.5 108.7,41.9ZM167.1,46.2L167.1,65.2L157.8,65.2L157.8,0L167.1,0L167.1,37.8L174.4,37.8L187.4,18.6L198.7,18.6L182.7,42L198.6,65.2L187.3,65.2L174.3,46.2L167.1,46.2ZM249.2,41.9C249.2,55.6 243.9,66.1 228.8,66.1C222.3,66.1 217.7,63.6 214.9,59.6L214.9,65.2L205.6,65.2L205.6,0L214.9,0L214.9,24.2C217.7,20.2 222.3,17.7 228.8,17.7C243.9,17.7 249.2,28.2 249.2,41.9ZM239.9,41.9C239.9,30.7 236.5,26.1 227.4,26.1C218.3,26.1 214.9,30.7 214.9,41.9C214.9,53.1 218.3,57.7 227.4,57.7C236.5,57.7 239.9,53.1 239.9,41.9ZM255.2,49.8C255.2,41.7 260.5,33.5 271.9,33.5C278.4,33.5 282,35.4 284.8,39.1L284.8,27L260.6,27L260.6,18.6L294.1,18.6L294.1,55.8L299.7,55.8L299.7,65.1L284.8,65.1L284.8,60.4C282,64.1 278.4,66 271.9,66C260.5,66.1 255.2,57.9 255.2,49.8ZM284.8,49.8C284.8,45.1 281.4,41.9 274.7,41.9C268,41.9 264.6,45.2 264.6,49.8C264.6,54.4 268,57.7 274.7,57.7C281.4,57.7 284.8,54.5 284.8,49.8ZM306.7,60.1L306.7,50.7C315.2,56 319.6,57.7 326.4,57.7C332.4,57.7 334.6,55.1 334.6,52.2C334.6,48.9 332.2,47.2 323.6,45.3C310.3,42.4 306.7,38 306.7,30.7C306.7,23 313.3,17.7 323.3,17.7C329.5,17.7 335.7,19.4 340.2,22.5L340.2,30.9C333.4,27.5 327.4,26.1 322.3,26.1C317.5,26.1 316,28.1 316,30.5C316,33.1 317.2,34.9 325.1,37C338.9,40.7 343.9,43.6 343.9,52.2C343.9,60.1 337.3,66.2 326.4,66.2C319.2,66.1 313.5,64.7 306.7,60.1ZM350,41.9C350,27.3 355.8,17.7 370.1,17.7C384.4,17.7 390.2,26.4 390.2,41L390.2,46.1L359.5,46.1C360.1,52.6 362.8,57.7 373.6,57.7C377.3,57.7 381,57.7 387,56L387,64.2C379.7,66.1 377.1,66.1 373.6,66.1C352.6,66.1 350,51.1 350,41.9ZM380.9,37.7C380.7,29.6 377.6,26.1 370.1,26.1C362.6,26.1 359.8,30.2 359.3,37.7L380.9,37.7Z"/>
    </g>
</svg>
