<?xml version="1.0" encoding="UTF-8" standalone="no"?>
<!DOCTYPE svg PUBLIC "-//W3C//DTD SVG 1.1//EN" "http://www.w3.org/Graphics/SVG/1.1/DTD/svg11.dtd">
<svg width="100%" height="100%" viewBox="0 0 800 400" version="1.1" xmlns="http://www.w3.org/2000/svg" xmlns:xlink="http://www.w3.org/1999/xlink" xml:space="preserve" xmlns:serif="http://www.serif.com/" style="fill-rule:evenodd;clip-rule:evenodd;stroke-linejoin:round;stroke-miterlimit:2;">
    <g>
        <path d="M398.408,200.114C398.408,175.712 416.702,157.866 441.478,157.866C459.074,157.866 471.582,164.867 479.686,178.535L471.696,183.847L469.727,183.395C462.896,173.111 454.677,168.257 441.826,168.257C423.647,168.257 410.448,181.701 410.448,200.114C410.448,218.416 423.304,231.86 441.015,231.86C455.601,231.86 469.149,224.063 469.961,208.358L469.961,207.682L446.345,207.682L446.345,198.533L480.263,198.533L480.263,239.99L469.727,239.99L469.727,235.244C469.727,232.198 470.19,229.823 470.771,227.789L470.536,227.674C463.593,237.619 453.055,242.138 440.438,242.138C415.778,242.138 398.408,224.628 398.408,200.114M495.189,200.114C495.189,175.712 513.483,157.866 538.259,157.866C555.855,157.866 568.358,164.867 576.462,178.535L568.478,183.847L566.508,183.395C559.677,173.111 551.458,168.257 538.602,168.257C520.429,168.257 507.229,181.701 507.229,200.114C507.229,218.416 520.085,231.86 537.791,231.86C552.383,231.86 565.931,224.063 566.735,208.358L566.735,207.682L543.119,207.682L543.119,198.533L577.044,198.533L577.044,239.99L566.508,239.99L566.508,235.244C566.508,232.198 566.969,229.823 567.546,227.789L567.318,227.674C560.374,237.619 549.836,242.138 537.214,242.138C512.557,242.138 495.189,224.628 495.189,200.114M595.79,160.009L604.243,160.009L639.092,199.21C644.38,205.167 649.589,211.192 654.719,217.285L655.067,217.285C654.953,210.959 654.833,205.085 654.833,196.95L654.833,160.009L666.067,160.009L666.067,241.458L661.664,241.458L622.999,198.191C617.784,192.431 612.575,186.443 607.138,180.23L606.789,180.23C607.018,186.443 607.018,192.431 607.018,200.454L607.018,239.993L595.79,239.993L595.79,160.009ZM692.226,209.377L721.635,209.377C721.053,201.019 715.496,196.043 707.276,196.043C699.406,196.043 693.615,200.904 692.226,209.377M691.994,216.609L691.994,217.169C691.994,227.224 698.943,233.436 708.087,233.436C714.455,233.436 718.969,230.613 722.908,224.63L723.834,224.401L731.709,228.696C726.615,237.392 718.277,242.138 707.739,242.138C691.651,242.138 680.879,230.951 680.879,214.914C680.879,198.534 691.765,187.575 707.163,187.575C722.327,187.575 732.515,197.629 732.515,214.685C732.515,215.361 732.515,215.704 732.4,216.609L691.994,216.609ZM775,240.442C772.105,241.571 768.632,242.138 765.044,242.138C754.969,242.138 749.184,236.6 749.184,226.662L749.184,198.189L739.453,198.189L739.453,189.721L749.293,189.721L749.293,174.469L758.094,169.385L759.716,169.385L759.716,189.721L774.886,189.721L774.886,198.189L759.716,198.189L759.716,223.725C759.716,230.617 761.686,232.874 767.357,232.874C769.443,232.874 771.413,232.312 773.611,231.293L774.652,231.745L775,240.442Z" style="fill:rgb(39,39,39);fill-rule:nonzero;"/>
        <path d="M178.288,110.384C176.451,110.27 174.843,111.68 174.716,113.515C174.596,115.353 176.008,116.965 177.846,117.089C196.165,118.297 213.161,125.342 226.999,137.468C227.607,137.986 228.38,138.271 229.179,138.271C231.023,138.271 232.54,136.755 232.54,134.911C232.54,133.958 232.134,133.049 231.425,132.412C216.468,119.304 198.091,111.686 178.288,110.384M289.201,244C290.943,244.599 292.87,243.66 293.473,241.919C298.127,228.435 300.495,214.266 300.478,200.001C300.478,167.946 288.596,137.26 267.02,113.598C266.385,112.901 265.485,112.503 264.541,112.503C263.704,112.503 262.896,112.817 262.278,113.382C260.917,114.624 260.817,116.766 262.057,118.131C282.503,140.547 293.763,169.625 293.763,200.001C293.779,213.52 291.535,226.947 287.122,239.726C286.522,241.468 287.46,243.396 289.201,244M127.881,299.581C129.562,300.331 131.564,299.566 132.316,297.885C133.068,296.202 132.304,294.197 130.622,293.443C93.83,276.991 70.053,240.307 70.053,200.001C70.053,184.383 73.477,169.396 80.234,155.453C80.464,154.989 80.583,154.479 80.583,153.961C80.583,152.118 79.066,150.601 77.223,150.601C75.927,150.601 74.741,151.351 74.186,152.522C66.988,167.386 63.338,183.36 63.338,200.001C63.338,242.956 88.674,282.043 127.881,299.581M305.237,256.163C304.803,255.967 304.333,255.866 303.857,255.866C302.538,255.866 301.336,256.643 300.795,257.846C294.666,271.43 286.419,283.956 276.364,294.955C275.798,295.573 275.484,296.381 275.484,297.219C275.484,298.163 275.883,299.065 276.581,299.7C277.222,300.29 278.032,300.579 278.843,300.579C279.755,300.579 280.659,300.212 281.323,299.487C291.858,287.963 300.498,274.84 306.919,260.608C307.674,258.927 306.916,256.922 305.237,256.163" style="fill:rgb(50,190,240);fill-rule:nonzero;"/>
        <path d="M169.58,203.843C169.58,205.702 171.082,207.203 172.939,207.203L196.716,207.203C194.061,216.245 186.587,223.097 177.35,224.959C175.78,225.266 174.637,226.654 174.637,228.253C174.637,230.095 176.152,231.61 177.994,231.61C177.999,231.61 178.004,231.61 178.009,231.61C178.229,231.61 178.451,231.591 178.676,231.546C191.142,229.041 200.851,219.432 203.646,207.203L235.713,207.203C234.314,219.73 229.35,231.406 221.16,241.132C219.974,242.542 220.157,244.677 221.563,245.865C222.195,246.398 222.963,246.654 223.729,246.654C224.72,246.656 225.662,246.218 226.299,245.46C236.204,233.699 241.896,219.371 242.759,204.032C242.763,203.999 242.754,203.97 242.754,203.942C242.754,203.909 242.766,203.876 242.766,203.843C242.766,203.756 242.747,203.68 242.742,203.594C242.73,203.483 242.726,203.368 242.706,203.257C242.69,203.151 242.657,203.046 242.628,202.943C242.602,202.834 242.57,202.727 242.53,202.623C242.489,202.52 242.44,202.43 242.39,202.336C242.344,202.236 242.293,202.139 242.236,202.045C242.178,201.957 242.116,201.879 242.05,201.796C241.981,201.707 241.917,201.617 241.839,201.534C241.768,201.465 241.696,201.399 241.622,201.334C241.532,201.256 241.445,201.178 241.351,201.112C241.273,201.055 241.188,201.007 241.102,200.956C240.999,200.899 240.897,200.838 240.791,200.79C240.701,200.749 240.608,200.715 240.512,200.688C240.398,200.646 240.287,200.604 240.165,200.577C240.067,200.556 239.964,200.544 239.862,200.528C239.772,200.519 239.685,200.49 239.597,200.487L239.489,200.49C239.462,200.49 239.437,200.483 239.408,200.483L172.939,200.483C171.096,200.483 169.58,201.999 169.58,203.841C169.58,203.842 169.58,203.843 169.58,203.843M245.301,276.436C244.666,275.725 243.756,275.318 242.802,275.318C241.974,275.318 241.174,275.625 240.559,276.179C221.819,293.01 197.495,302.32 172.306,302.304C161.694,302.313 151.145,300.669 141.039,297.432C140.739,297.347 140.429,297.304 140.117,297.304C138.273,297.304 136.755,298.821 136.755,300.665C136.755,302.083 137.652,303.355 138.987,303.832C149.756,307.282 160.998,309.034 172.306,309.023C199.15,309.043 225.073,299.12 245.043,281.181C245.754,280.545 246.161,279.634 246.161,278.68C246.161,277.852 245.854,277.052 245.301,276.436M267.261,304.052C243.026,326.17 211.66,339.167 178.94,340.653C177.098,340.738 175.652,342.323 175.735,344.165C175.817,345.948 177.306,347.371 179.09,347.371C179.139,347.371 179.193,347.371 179.241,347.368C213.529,345.811 246.393,332.192 271.79,309.018C273.149,307.773 273.247,305.632 272.007,304.269C271.371,303.571 270.47,303.172 269.526,303.172C268.688,303.172 267.88,303.486 267.261,304.052" style="fill:rgb(239,130,165);fill-rule:nonzero;"/>
        <path d="M77.666,286.48C78.328,287.205 79.237,287.572 80.145,287.572C81.988,287.57 83.502,286.054 83.502,284.212C83.502,283.375 83.189,282.567 82.625,281.948C73.946,272.455 66.829,261.644 61.54,249.919C61.016,248.677 59.793,247.865 58.445,247.865C56.603,247.865 55.087,249.381 55.087,251.224C55.087,251.728 55.201,252.226 55.42,252.681C60.997,265.055 68.507,276.464 77.666,286.48M228.012,70.595C277.231,91.78 310.607,140.02 313.032,193.498C313.113,195.28 314.6,196.703 316.384,196.707C316.437,196.707 316.489,196.702 316.54,196.702C318.323,196.621 319.746,195.132 319.746,193.347C319.746,193.296 319.744,193.245 319.742,193.194C317.197,137.163 282.235,86.619 230.668,64.423C230.26,64.254 229.823,64.167 229.381,64.167C227.538,64.167 226.021,65.683 226.021,67.527C226.021,68.85 226.803,70.055 228.012,70.595M239.857,140.847C239.219,140.12 238.298,139.702 237.331,139.702C235.488,139.702 233.971,141.219 233.971,143.062C233.971,143.877 234.267,144.664 234.805,145.277C246.927,159.125 253.974,176.135 255.177,194.467C255.29,196.222 256.765,197.605 258.523,197.607C258.598,197.607 258.676,197.607 258.748,197.603C260.587,197.48 261.999,195.867 261.878,194.028C260.578,174.207 252.963,155.818 239.857,140.847M99.313,123.563C99.977,124.305 100.892,124.681 101.813,124.681C102.61,124.681 103.413,124.398 104.055,123.821C122.795,106.99 147.119,97.679 172.308,97.694C182.676,97.694 192.909,99.243 202.717,102.292C203.01,102.374 203.314,102.415 203.618,102.415C205.461,102.415 206.978,100.899 206.978,99.055C206.978,97.624 206.063,96.342 204.709,95.877C194.218,92.617 183.294,90.964 172.308,90.974C145.463,90.956 119.541,100.879 99.571,118.819C98.86,119.455 98.453,120.366 98.453,121.32C98.453,122.148 98.76,122.947 99.313,123.563" style="fill:rgb(248,185,144);fill-rule:nonzero;"/>
        <path d="M217.746,254.016C218.503,253.378 218.94,252.437 218.94,251.447C218.94,249.605 217.424,248.089 215.582,248.089C214.79,248.089 214.024,248.369 213.418,248.879C201.911,258.561 187.346,263.875 172.308,263.878C139.391,263.878 111.446,238.211 108.687,205.437C108.584,203.671 107.102,202.274 105.333,202.274C103.49,202.274 101.973,203.79 101.973,205.634C101.973,205.757 101.98,205.88 101.993,206.002C105.041,242.226 135.929,270.6 172.308,270.6C188.93,270.597 205.029,264.721 217.746,254.016M258.748,202.397C256.911,202.284 255.303,203.694 255.175,205.53C254.736,212.281 253.471,218.953 251.408,225.396C251.302,225.727 251.248,226.073 251.248,226.421C251.248,228.264 252.763,229.782 254.606,229.784C256.026,229.784 257.349,228.876 257.802,227.451C260.033,220.485 261.401,213.271 261.878,205.972C262,204.133 260.587,202.52 258.748,202.397M178.059,328.105C178.113,328.105 178.161,328.105 178.215,328.102C226.574,325.907 269.058,297.099 289.09,252.926C289.85,251.246 289.095,249.238 287.417,248.475C286.981,248.277 286.508,248.174 286.029,248.174C284.713,248.174 283.514,248.949 282.973,250.15C263.988,292.007 223.729,319.308 177.911,321.388C176.149,321.497 174.757,322.978 174.757,324.744C174.757,326.565 176.237,328.073 178.059,328.105M75.48,96.727C76.316,96.727 77.122,96.414 77.739,95.85C101.962,73.789 133.295,60.825 165.971,59.342C167.754,59.262 169.178,57.773 169.178,55.987C169.178,55.937 169.177,55.886 169.175,55.835C169.079,53.998 167.502,52.558 165.664,52.629C131.43,54.181 98.598,67.767 73.217,90.88C72.52,91.517 72.123,92.419 72.123,93.363C72.123,95.206 73.637,96.723 75.48,96.727" style="fill:rgb(101,194,196);fill-rule:nonzero;"/>
        <path d="M166.326,110.384C122.374,113.278 87.32,147.198 82.984,191.042C82.885,192.029 82.8,193.019 82.738,194.018C82.733,194.092 82.73,194.166 82.73,194.24C82.73,195.999 84.113,197.474 85.869,197.588C85.942,197.591 86.016,197.596 86.089,197.596C87.848,197.593 89.323,196.211 89.44,194.456C89.498,193.536 89.576,192.619 89.666,191.705C93.68,151.149 126.105,119.766 166.768,117.089C168.606,116.966 170.019,115.354 169.898,113.515C169.79,111.761 168.317,110.376 166.56,110.376C166.482,110.376 166.404,110.379 166.326,110.384M172.308,174.542C177.937,174.542 183.272,176.343 187.737,179.754C188.322,180.2 189.038,180.442 189.774,180.442C191.616,180.442 193.132,178.926 193.132,177.084C193.132,176.038 192.643,175.05 191.811,174.415C186.221,170.119 179.359,167.798 172.308,167.82C154.574,167.82 140.147,182.256 140.147,200.001C140.147,215.213 150.94,228.468 165.818,231.518C166.04,231.564 166.266,231.587 166.493,231.587C168.081,231.587 169.463,230.46 169.782,228.904C169.827,228.681 169.851,228.454 169.851,228.227C169.851,226.638 168.723,225.256 167.167,224.937C155.4,222.525 146.861,212.037 146.861,200.001C146.861,185.964 158.276,174.542 172.308,174.542M166.704,321.387C138.464,320.105 111.394,308.889 90.481,289.8C89.862,289.234 89.054,288.92 88.216,288.92C87.272,288.92 86.371,289.319 85.735,290.017C84.495,291.381 84.594,293.523 85.955,294.766C108.027,314.907 136.595,326.749 166.402,328.1C166.451,328.105 166.505,328.105 166.557,328.105C168.371,328.062 169.84,326.557 169.84,324.743C169.84,322.983 168.46,321.506 166.704,321.387M263.005,254.273C263.504,254.552 264.067,254.698 264.639,254.698C265.856,254.698 266.981,254.035 267.57,252.971C276.539,236.865 281.278,218.546 281.278,199.998C281.278,156.892 255.82,117.751 216.421,100.279C215.993,100.09 215.529,99.992 215.061,99.992C213.218,99.992 211.701,101.508 211.701,103.352C211.701,104.679 212.487,105.887 213.701,106.424C250.672,122.819 274.559,159.548 274.559,199.998C274.559,217.403 270.115,234.589 261.703,249.704C260.808,251.315 261.396,253.376 263.005,254.273M178.946,59.344C192.074,59.934 205.055,62.365 217.506,66.566C217.862,66.689 218.226,66.746 218.581,66.746C220.423,66.74 221.935,65.224 221.935,63.382C221.935,61.947 221.016,60.663 219.658,60.199C206.609,55.796 193.006,53.248 179.248,52.631C179.196,52.628 179.144,52.627 179.092,52.627C177.308,52.627 175.82,54.052 175.742,55.835C175.661,57.676 177.106,59.259 178.946,59.344" style="fill:rgb(61,88,164);fill-rule:nonzero;"/>
        <path d="M101.997,193.952C101.989,194.046 101.985,194.141 101.985,194.236C101.985,196.079 103.501,197.595 105.344,197.595C107.08,197.595 108.544,196.25 108.691,194.52C111.468,161.771 139.416,136.121 172.308,136.121C187.977,136.111 203.113,141.88 214.8,152.318C216.187,153.559 218.311,153.436 219.542,152.049C220.768,150.673 220.646,148.532 219.271,147.304C206.355,135.767 189.626,129.389 172.308,129.399C135.953,129.399 105.069,157.752 101.997,193.952M85.867,202.409C84.028,202.532 82.615,204.145 82.736,205.984C84.05,225.977 91.779,244.494 105.085,259.521C105.749,260.275 106.673,260.655 107.597,260.655C107.598,260.655 107.598,260.655 107.599,260.655C109.442,260.655 110.959,259.138 110.959,257.295C110.959,256.474 110.658,255.681 110.114,255.067C97.803,241.162 90.654,224.037 89.439,205.542C89.331,203.787 87.857,202.401 86.099,202.401C86.021,202.401 85.944,202.404 85.867,202.409" style="fill:rgb(251,190,61);fill-rule:nonzero;"/>
        <path d="M165.957,340.654C90.684,337.237 31.715,275.455 31.715,199.999C31.715,164.801 44.762,131.115 68.453,105.132C69.692,103.77 69.593,101.629 68.232,100.387C67.615,99.822 66.807,99.509 65.971,99.509C65.027,99.509 64.126,99.907 63.491,100.605C38.669,127.824 25,163.123 25,199.999C25,279.052 86.779,343.787 165.655,347.369L165.809,347.373C165.827,347.373 165.845,347.373 165.863,347.373C167.707,347.373 169.223,345.857 169.223,344.013C169.223,342.205 167.764,340.705 165.957,340.654M250.948,273.889C251.869,273.889 252.784,273.513 253.448,272.771C256.221,269.678 258.817,266.43 261.223,263.044C261.626,262.476 261.844,261.795 261.844,261.098C261.844,259.254 260.327,257.737 258.483,257.737C257.396,257.737 256.374,258.265 255.744,259.152C253.487,262.332 251.051,265.382 248.448,268.285C247.898,268.902 247.593,269.699 247.593,270.525C247.593,272.367 249.106,273.884 250.948,273.889M177.898,78.61C206.096,79.888 233.138,91.076 254.043,110.115C254.684,110.705 255.494,110.991 256.3,110.991C258.143,110.989 259.658,109.472 259.658,107.629C259.658,106.685 259.26,105.783 258.563,105.146C236.502,85.053 207.962,73.244 178.199,71.897C176.382,71.828 174.778,73.248 174.693,75.103C174.613,76.943 176.058,78.525 177.898,78.61" style="fill:rgb(251,190,61);fill-rule:nonzero;"/>
        <path d="M166.55,289.623C168.308,289.622 169.782,288.238 169.896,286.483C169.901,286.409 169.903,286.335 169.903,286.261C169.903,284.502 168.522,283.026 166.766,282.91C148.456,281.703 131.464,274.662 117.63,262.545C117.018,262.008 116.231,261.712 115.416,261.712C113.573,261.712 112.056,263.229 112.056,265.073C112.056,266.041 112.474,266.963 113.202,267.6C128.158,280.699 146.529,288.309 166.324,289.616C166.402,289.62 166.475,289.623 166.55,289.623M166.394,71.899C134.434,73.352 104.344,86.643 81.676,109.323C59.005,132.006 45.719,162.107 44.271,194.084C44.269,194.136 44.268,194.188 44.268,194.24C44.268,196.023 45.689,197.51 47.47,197.591C47.524,197.596 47.578,197.596 47.626,197.596C49.41,197.596 50.9,196.192 50.981,194.39C52.356,164.092 64.942,135.568 86.424,114.075C107.909,92.583 136.414,79.987 166.697,78.612C168.475,78.523 169.889,77.036 169.889,75.256C169.889,73.413 168.372,71.896 166.529,71.896C166.484,71.896 166.439,71.897 166.394,71.899" style="fill:rgb(232,51,104);fill-rule:nonzero;"/>
        <path d="M91.166,127.226C87.01,131.861 83.257,136.842 79.948,142.114C79.612,142.65 79.433,143.27 79.433,143.902C79.433,145.743 80.945,147.259 82.786,147.264C83.904,147.264 84.997,146.707 85.635,145.688C88.743,140.74 92.266,136.065 96.166,131.713C96.752,131.09 97.078,130.267 97.078,129.411C97.078,127.568 95.561,126.051 93.718,126.051C92.737,126.051 91.804,126.481 91.166,127.226M57.4,239.464C53.658,228.543 51.497,217.143 50.981,205.61C50.894,203.755 49.324,202.35 47.474,202.408C45.691,202.487 44.268,203.975 44.268,205.759C44.268,205.812 44.269,205.864 44.271,205.917C44.817,218.088 47.098,230.119 51.047,241.645C51.645,243.389 53.57,244.332 55.314,243.735C57.057,243.135 57.998,241.208 57.4,239.464M316.54,203.297C314.704,203.24 313.119,204.648 313.034,206.501C312.433,219.864 309.927,233.073 305.591,245.727C305.47,246.078 305.409,246.446 305.409,246.817C305.409,248.662 306.926,250.18 308.771,250.181C310.166,250.181 311.467,249.305 311.945,247.91C316.49,234.649 319.116,220.808 319.744,206.805C319.827,204.964 318.38,203.381 316.54,203.297M178.059,289.623C178.133,289.623 178.206,289.62 178.284,289.616C210.632,287.487 239.413,267.935 253.391,238.587C254.182,236.923 253.465,234.903 251.803,234.109C250.139,233.319 248.12,234.035 247.326,235.697C234.392,262.852 207.768,280.94 177.842,282.91C176.084,283.023 174.698,284.501 174.698,286.263C174.698,288.106 176.215,289.623 178.058,289.623C178.058,289.623 178.058,289.623 178.059,289.623" style="fill:rgb(72,46,73);fill-rule:nonzero;"/>
    </g>
</svg>
