<?xml version="1.0" encoding="UTF-8" standalone="no"?>
<!DOCTYPE svg PUBLIC "-//W3C//DTD SVG 1.1//EN" "http://www.w3.org/Graphics/SVG/1.1/DTD/svg11.dtd">
<svg width="100%" height="100%" viewBox="0 0 800 400" version="1.1" xmlns="http://www.w3.org/2000/svg" xmlns:xlink="http://www.w3.org/1999/xlink" xml:space="preserve" xmlns:serif="http://www.serif.com/" style="fill-rule:evenodd;clip-rule:evenodd;stroke-linejoin:round;stroke-miterlimit:2;">
    <g id="NPO">
        <g id="g3031">
            <path id="path3033" d="M33.712,181.706C22.096,193.322 22.096,206.651 33.712,218.267L149.123,333.672C160.739,345.3 174.062,345.3 185.678,333.672L301.095,218.267C312.711,206.651 312.711,193.322 301.095,181.706L185.678,66.307C174.057,54.707 160.745,54.707 149.128,66.307L33.712,181.706Z" style="fill:rgb(255,109,0);fill-rule:nonzero;"/>
        </g>
        <g id="g3035">
            <path id="path3037" d="M172.749,123.347C168.809,127.281 165.536,127.389 162.032,123.89L153.62,115.456C150.11,111.963 150.223,108.667 154.135,104.761L161.506,97.39C165.429,93.462 168.713,93.354 172.212,96.853L180.646,105.287C184.139,108.769 184.026,112.07 180.126,115.976L172.749,123.347ZM145.283,95.485C135.538,105.236 135.69,115.665 144.373,124.37L153.134,133.109C161.823,141.809 172.269,141.967 182.019,132.216L188.955,125.263C198.717,115.513 198.559,105.083 189.877,96.378L181.109,87.639C172.427,78.94 161.981,78.787 152.224,88.532L145.283,95.485ZM128.856,167.246C124.922,171.174 121.649,171.276 118.139,167.771L109.722,159.343C106.223,155.85 106.325,152.56 110.236,148.654L117.602,141.277C121.547,137.349 124.82,137.247 128.319,140.735L136.759,149.174C140.246,152.668 140.145,155.963 136.222,159.875L128.856,167.246ZM128.59,196.34C131.824,199.579 135.475,199.099 137.98,196.606C140.455,194.113 140.885,190.518 137.657,187.279L131.191,180.818C132.937,180.45 135.114,179.111 137.657,176.567L145.074,169.145C154.836,159.4 154.666,148.965 145.989,140.26L137.222,131.521C128.528,122.821 118.093,122.669 108.343,132.425L101.396,139.372C91.645,149.123 91.797,159.552 100.48,168.258L128.59,196.34ZM102.085,203.864C105.313,207.103 108.925,206.673 111.418,204.192C113.911,201.687 114.391,198.041 111.146,194.808L92.549,176.211C83.85,167.506 73.409,167.348 63.658,177.104L56.711,184.04C46.96,193.796 47.119,204.237 55.812,212.931L74.415,231.545C77.66,234.784 81.306,234.309 83.793,231.822C86.292,229.323 86.716,225.7 83.465,222.478L65.038,204.022C61.527,200.54 61.64,197.244 65.575,193.322L72.94,185.956C76.857,182.027 80.147,181.926 83.64,185.425L102.085,203.864Z" style="fill:white;fill-rule:nonzero;"/>
        </g>
        <path id="g3039" d="M377.918,145.295C375.397,145.295 374.323,144.21 374.323,141.7L374.323,113.55C374.323,111.108 375.397,109.746 377.85,109.243C382.231,108.304 386.318,107.943 388.895,107.943C401.902,107.943 407.645,111.899 407.645,124.392L407.645,141.7C407.645,144.21 406.565,145.295 404.061,145.295L401.467,145.295C398.957,145.295 397.889,144.21 397.889,141.7L397.889,127.625C397.889,120.441 397.171,116.354 389.619,116.354C387.827,116.354 385.453,116.636 384.085,116.998L384.085,141.7C384.085,144.21 383.005,145.295 380.507,145.295L377.918,145.295ZM445.289,129.772L424.453,129.772C424.6,134.305 427.687,137.748 435.374,137.748C437.731,137.748 439.896,137.318 441.756,136.747C444.339,135.95 445.639,136.6 446.578,139.116L446.855,139.902C447.641,142.055 447.002,143.706 444.848,144.497C441.468,145.65 437.658,146.153 433.854,146.153C421.079,146.153 414.544,139.331 414.544,127.059C414.544,113.617 422.514,107.941 431.988,107.941C442.406,107.941 448.867,114.346 448.867,126.183C448.867,128.704 447.787,129.772 445.289,129.772ZM424.453,123.17L439.252,123.17C438.958,118.071 436.301,114.979 431.785,114.979C427.331,114.979 424.809,118.071 424.453,123.17ZM485.067,94.305C487.577,94.305 488.662,95.379 488.662,97.895L488.662,140.618C488.662,143.065 487.577,144.207 485.209,144.863C481.687,145.796 478.312,146.152 475.305,146.152C460.433,146.152 454.26,138.685 454.26,127.051C454.26,115.418 461.298,107.945 473.79,107.945C475.384,107.945 477.385,108.16 478.895,108.522L478.895,97.895C478.895,95.379 479.974,94.305 482.484,94.305L485.067,94.305ZM464.169,127.119C464.169,133.512 467.182,137.746 474.079,137.746C475.808,137.746 477.742,137.464 478.895,137.034L478.895,117.069C477.742,116.639 475.95,116.351 474.152,116.351C467.261,116.351 464.169,120.585 464.169,127.119ZM526.728,129.772L505.898,129.772C506.045,134.305 509.131,137.748 516.813,137.748C519.17,137.748 521.33,137.318 523.201,136.747C525.784,135.95 527.084,136.6 528.023,139.116L528.3,139.902C529.091,142.055 528.452,143.706 526.287,144.497C522.913,145.65 519.114,146.153 515.31,146.153C502.512,146.153 495.989,139.331 495.989,127.059C495.989,113.617 503.959,107.941 513.433,107.941C523.851,107.941 530.318,114.346 530.318,126.183C530.318,128.704 529.238,129.772 526.728,129.772ZM505.898,123.17L520.691,123.17C520.403,118.071 517.735,114.979 513.224,114.979C508.775,114.979 506.26,118.071 505.898,123.17ZM557.821,108.305C560.189,108.655 561.19,109.955 560.833,112.33L560.551,113.907C560.121,116.422 559.177,117.208 556.667,116.925C555.452,116.784 554.158,116.71 553.078,116.71C550.998,116.71 548.771,116.925 547.408,117.281L547.408,141.701C547.408,144.211 546.334,145.296 543.819,145.296L541.236,145.296C538.726,145.296 537.629,144.211 537.629,141.701L537.629,113.765C537.629,111.323 538.726,109.955 541.089,109.311C544.887,108.237 548.771,107.943 551.716,107.943C553.937,107.943 555.95,108.022 557.821,108.305ZM569.675,145.295C567.159,145.295 566.08,144.21 566.08,141.7L566.08,97.898C566.08,95.382 567.159,94.303 569.675,94.303L572.258,94.303C574.762,94.303 575.853,95.382 575.853,97.898L575.853,141.7C575.853,144.21 574.762,145.295 572.258,145.295L569.675,145.295ZM591.287,116.999C588.703,117.853 587.556,117.35 586.55,114.834L586.267,114.122C585.397,111.901 586.052,110.397 588.274,109.594C591.501,108.599 595.17,107.944 599.263,107.944C609.737,107.944 615.277,112.047 615.277,122.889L615.277,140.769C615.277,143.211 614.203,144.499 611.755,144.929C607.662,145.72 603.005,146.15 599.183,146.15C588.924,146.15 582.316,142.708 582.316,134.302C582.316,125.817 588.992,122.375 598.042,122.375C601.563,122.375 604.079,122.889 605.509,123.24L605.509,121.957C605.509,118.571 603.643,115.914 597.9,115.914C595.532,115.914 593.305,116.355 591.287,116.999ZM605.509,138.468L605.509,130.074C604.005,129.571 602.055,129.345 600.048,129.345C594.808,129.345 592.225,130.848 592.225,134.234C592.225,137.535 594.735,139.124 599.913,139.124C602.134,139.124 604.079,138.819 605.509,138.468ZM627.344,145.295C624.829,145.295 623.755,144.21 623.755,141.7L623.755,113.55C623.755,111.108 624.829,109.746 627.277,109.243C631.646,108.304 635.75,107.943 638.339,107.943C651.334,107.943 657.072,111.899 657.072,124.392L657.072,141.7C657.072,144.21 655.992,145.295 653.482,145.295L650.899,145.295C648.384,145.295 647.304,144.21 647.304,141.7L647.304,127.625C647.304,120.441 646.597,116.354 639.051,116.354C637.248,116.354 634.879,116.636 633.517,116.998L633.517,141.7C633.517,144.21 632.437,145.295 629.933,145.295L627.344,145.295ZM694.785,94.305C697.301,94.305 698.375,95.379 698.375,97.895L698.375,140.618C698.375,143.065 697.301,144.207 694.921,144.863C691.405,145.796 688.025,146.152 685.012,146.152C670.145,146.152 663.973,138.685 663.973,127.051C663.973,115.418 671.005,107.945 683.503,107.945C685.091,107.945 687.103,108.16 688.607,108.522L688.607,97.895C688.607,95.379 689.675,94.305 692.191,94.305L694.785,94.305ZM673.882,127.119C673.882,133.512 676.9,137.746 683.785,137.746C685.521,137.746 687.448,137.464 688.607,137.034L688.607,117.069C687.448,116.639 685.662,116.351 683.864,116.351C676.974,116.351 673.882,120.585 673.882,127.119ZM707.639,144.28C705.485,143.494 704.767,141.775 705.689,139.695L706.124,138.689C707.209,136.241 708.362,135.671 710.946,136.603C713.597,137.536 716.61,138.107 719.419,138.107C724.077,138.107 726.095,136.959 726.095,134.879C726.095,132.499 723.715,131.934 720.188,131.216C712.167,129.492 705.621,127.842 705.621,119.724C705.621,112.687 710.799,107.939 721.787,107.939C724.874,107.939 728.605,108.442 731.911,109.68C734.059,110.46 734.789,112.116 733.85,114.196L733.489,114.976C732.347,117.497 731.267,118 728.605,117.135C726.163,116.355 723.579,115.988 721.641,115.988C717.548,115.988 715.394,117.073 715.394,119.153C715.394,121.239 717.186,121.805 721.273,122.675C729.108,124.326 735.863,125.976 735.863,134.303C735.863,141.34 730.905,146.151 719.34,146.151C715.457,146.151 711.16,145.574 707.639,144.28ZM771.405,129.772L750.586,129.772C750.722,134.305 753.808,137.748 761.501,137.748C763.864,137.748 766.012,137.318 767.889,136.747C770.472,135.95 771.767,136.6 772.705,139.116L772.993,139.902C773.785,142.055 773.135,143.706 770.975,144.497C767.601,145.65 763.802,146.153 759.987,146.153C747.211,146.153 740.671,139.331 740.671,127.059C740.671,113.617 748.642,107.941 758.115,107.941C768.539,107.941 775,114.346 775,126.183C775,128.704 773.92,129.772 771.405,129.772ZM750.586,123.17L765.368,123.17C765.097,118.071 762.428,114.979 757.901,114.979C753.452,114.979 750.942,118.071 750.586,123.17Z" style="fill:rgb(255,109,0);"/>
        <path id="g3083" d="M377.915,232.657C375.394,232.657 374.32,231.583 374.32,229.062L374.32,187.922C374.32,185.474 375.394,184.321 377.774,183.683C381.301,182.75 384.664,182.382 387.688,182.382C402.544,182.382 408.722,189.855 408.722,201.488C408.722,213.127 401.684,220.589 389.186,220.589C387.609,220.589 385.591,220.374 384.088,220.018L384.088,229.062C384.088,231.583 383.008,232.657 380.509,232.657L377.915,232.657ZM398.813,201.421C398.813,195.033 395.794,190.794 388.898,190.794C387.168,190.794 385.241,191.082 384.088,191.512L384.088,211.471C385.241,211.901 387.033,212.195 388.83,212.195C395.726,212.195 398.813,207.955 398.813,201.421ZM445.06,183.252C447.575,183.252 448.649,184.326 448.649,186.847L448.649,214.992C448.649,217.439 447.575,218.801 445.133,219.305C440.82,220.232 436.727,220.588 434.212,220.588C421.301,220.588 415.62,216.501 415.62,204.15L415.62,186.847C415.62,184.326 416.694,183.252 419.204,183.252L421.793,183.252C424.309,183.252 425.383,184.326 425.383,186.847L425.383,200.916C425.383,208.095 426.1,212.194 433.5,212.194C435.224,212.194 437.519,211.9 438.887,211.543L438.887,186.847C438.887,184.326 439.961,183.252 442.476,183.252L445.06,183.252ZM463.74,168.745C466.25,168.745 467.329,169.819 467.329,172.335L467.329,182.968C468.833,182.606 470.851,182.385 472.428,182.385C484.915,182.385 491.964,189.852 491.964,201.491C491.964,213.13 485.791,220.592 470.913,220.592C467.9,220.592 464.526,220.23 461.004,219.297C458.641,218.653 457.567,217.505 457.567,215.063L457.567,172.335C457.567,169.819 458.641,168.745 461.145,168.745L463.74,168.745ZM467.329,191.509L467.329,211.468C468.482,211.909 470.41,212.192 472.134,212.192C479.03,212.192 482.055,207.952 482.055,201.57C482.055,195.03 478.951,190.791 472.066,190.791C470.269,190.791 468.482,191.079 467.329,191.509ZM502.873,219.735C500.357,219.735 499.289,218.655 499.289,216.14L499.289,172.331C499.289,169.822 500.357,168.748 502.873,168.748L505.467,168.748C507.971,168.748 509.057,169.822 509.057,172.331L509.057,216.14C509.057,218.655 507.971,219.735 505.467,219.735L502.873,219.735ZM522.848,179.085C519.32,179.085 516.957,176.858 516.957,173.489C516.957,170.108 519.32,167.887 522.848,167.887C526.358,167.887 528.738,170.108 528.738,173.489C528.738,176.858 526.358,179.085 522.848,179.085ZM521.553,219.733C519.032,219.733 517.958,218.653 517.958,216.144L517.958,186.84C517.958,184.325 519.032,183.251 521.553,183.251L524.136,183.251C526.646,183.251 527.737,184.325 527.737,186.84L527.737,216.144C527.737,218.653 526.646,219.733 524.136,219.733L521.553,219.733ZM565.789,204.228L544.964,204.228C545.1,208.745 548.186,212.193 555.874,212.193C558.248,212.193 560.396,211.758 562.267,211.181C564.856,210.401 566.145,211.04 567.083,213.55L567.366,214.341C568.157,216.506 567.513,218.157 565.359,218.942C561.979,220.095 558.18,220.593 554.365,220.593C541.584,220.593 535.049,213.776 535.049,201.492C535.049,188.062 543.014,182.392 552.499,182.392C562.911,182.392 569.378,188.785 569.378,200.628C569.378,203.149 568.298,204.228 565.789,204.228ZM544.964,197.609L559.752,197.609C559.469,192.516 556.812,189.43 552.29,189.43C547.83,189.43 545.326,192.516 544.964,197.609ZM608.38,215.71C610.109,217.864 609.171,219.735 606.724,219.735L603.14,219.735C600.551,219.735 598.9,219.017 597.323,216.931L586.476,203.003L586.476,216.145C586.476,218.655 585.396,219.735 582.881,219.735L580.309,219.735C577.782,219.735 576.714,218.655 576.714,216.145L576.714,172.331C576.714,169.822 577.782,168.748 580.309,168.748L582.881,168.748C585.396,168.748 586.476,169.822 586.476,172.331L586.476,198.407L597.606,185.904C599.335,183.97 600.975,183.252 603.564,183.252L606.3,183.252C608.742,183.252 609.81,185.265 607.95,187.277L596.102,200.487L608.38,215.71ZM642.779,204.228L621.949,204.228C622.096,208.745 625.182,212.193 632.87,212.193C635.233,212.193 637.392,211.758 639.263,211.181C641.852,210.401 643.135,211.04 644.074,213.55L644.362,214.341C645.153,216.506 644.503,218.157 642.349,218.942C638.975,220.095 635.165,220.593 631.366,220.593C618.58,220.593 612.051,213.776 612.051,201.492C612.051,188.062 620.016,182.392 629.495,182.392C639.913,182.392 646.38,188.785 646.38,200.628C646.38,203.149 645.294,204.228 642.779,204.228ZM621.949,197.609L636.748,197.609C636.459,192.516 633.803,189.43 629.275,189.43C624.826,189.43 622.316,192.516 621.949,197.609Z" style="fill:rgb(255,109,0);"/>
        <path id="g3115" d="M391.268,291.851C380.002,291.851 372.739,285.022 372.739,272.739C372.739,260.467 380.002,253.639 391.268,253.639C402.545,253.639 409.798,260.467 409.798,272.739C409.798,285.022 402.545,291.851 391.268,291.851ZM391.268,283.445C397.028,283.445 399.894,279.353 399.894,272.739C399.894,266.137 397.028,262.039 391.268,262.039C385.519,262.039 382.654,266.137 382.654,272.739C382.654,279.353 385.519,283.445 391.268,283.445ZM448.797,262.831C449.447,264.843 449.735,267.217 449.735,270.083L449.735,287.391C449.735,289.901 448.65,290.981 446.14,290.981L443.557,290.981C441.042,290.981 439.962,289.901 439.962,287.391L439.962,273.322C439.962,266.132 439.323,262.039 432.133,262.039C430.409,262.039 428.182,262.328 426.887,262.695L426.887,287.391C426.887,289.901 425.819,290.981 423.304,290.981L420.72,290.981C418.199,290.981 417.131,289.901 417.131,287.391L417.131,259.241C417.131,256.805 418.199,255.437 420.641,254.94C424.881,254.001 428.905,253.639 431.426,253.639C436.152,253.639 439.962,254.222 442.845,255.578C446.796,254.222 451.16,253.639 453.884,253.639C466.247,253.639 471.849,257.585 471.849,270.083L471.849,287.391C471.849,289.901 470.775,290.981 468.254,290.981L465.67,290.981C463.155,290.981 462.092,289.901 462.092,287.391L462.092,273.322C462.092,266.132 461.442,262.039 454.252,262.039C452.454,262.039 450.527,262.328 448.797,262.831ZM500.499,253.998C502.873,254.36 503.885,255.649 503.528,258.023L503.229,259.6C502.805,262.121 501.867,262.907 499.362,262.613C498.147,262.472 496.853,262.404 495.767,262.404C493.676,262.404 491.46,262.613 490.098,262.975L490.098,287.389C490.098,289.91 489.018,290.978 486.514,290.978L483.914,290.978C481.41,290.978 480.336,289.91 480.336,287.389L480.336,259.459C480.336,257.011 481.41,255.649 483.778,255.005C487.577,253.925 491.46,253.648 494.399,253.648C496.632,253.648 498.645,253.716 500.499,253.998ZM523.565,291.851C512.293,291.851 505.03,285.022 505.03,272.739C505.03,260.467 512.293,253.639 523.565,253.639C534.836,253.639 542.1,260.467 542.1,272.739C542.1,285.022 534.836,291.851 523.565,291.851ZM523.565,283.445C529.308,283.445 532.174,279.353 532.174,272.739C532.174,266.137 529.308,262.039 523.565,262.039C517.805,262.039 514.95,266.137 514.95,272.739C514.95,279.353 517.805,283.445 523.565,283.445ZM578.571,275.472L557.747,275.472C557.888,279.994 560.974,283.448 568.656,283.448C571.03,283.448 573.19,283.013 575.055,282.448C577.644,281.645 578.933,282.295 579.871,284.805L580.154,285.602C580.945,287.75 580.306,289.406 578.141,290.197C574.761,291.339 570.962,291.848 567.153,291.848C554.366,291.848 547.832,285.02 547.832,272.742C547.832,259.317 555.813,253.642 565.293,253.642C575.699,253.642 582.16,260.035 582.16,271.883C582.16,274.398 581.092,275.472 578.571,275.472ZM557.747,268.87L572.545,268.87C572.251,263.771 569.6,260.679 565.078,260.679C560.618,260.679 558.103,263.771 557.747,268.87ZM593.078,303.912C590.568,303.912 589.494,302.838 589.494,300.328L589.494,259.177C589.494,256.735 590.568,255.576 592.937,254.937C596.464,253.999 599.839,253.637 602.857,253.637C617.718,253.637 623.885,261.116 623.885,272.743C623.885,284.376 616.859,291.849 604.361,291.849C602.784,291.849 600.766,291.634 599.262,291.278L599.262,300.328C599.262,302.838 598.188,303.912 595.661,303.912L593.078,303.912ZM613.982,272.675C613.982,266.282 610.963,262.043 604.072,262.043C602.343,262.043 600.398,262.331 599.262,262.766L599.262,282.726C600.398,283.161 602.207,283.444 604.005,283.444C610.895,283.444 613.982,279.21 613.982,272.675Z" style="fill:rgb(255,109,0);"/>
    </g>
</svg>
