<?xml version="1.0" encoding="UTF-8" standalone="no"?>
<!DOCTYPE svg PUBLIC "-//W3C//DTD SVG 1.1//EN" "http://www.w3.org/Graphics/SVG/1.1/DTD/svg11.dtd">
<svg width="100%" height="100%" viewBox="0 0 800 400" version="1.1" xmlns="http://www.w3.org/2000/svg" xmlns:xlink="http://www.w3.org/1999/xlink" xml:space="preserve" xmlns:serif="http://www.serif.com/" style="fill-rule:evenodd;clip-rule:evenodd;stroke-linejoin:round;stroke-miterlimit:2;">
    <g transform="matrix(0.694444,0,0,0.694444,25,24.6979)">
        <path d="M472.402,247.871C472.402,256.439 470.507,264.081 466.72,270.797C462.933,277.516 457.703,282.768 451.03,286.555C444.357,290.342 436.693,292.236 428.036,292.236C419.469,292.236 411.826,290.342 405.111,286.555C398.392,282.768 393.14,277.516 389.352,270.797C385.565,264.081 383.672,256.439 383.672,247.871L383.672,93.164C383.672,84.184 376.393,76.905 367.413,76.905L324.727,76.905C315.748,76.905 308.469,84.184 308.469,93.164L308.469,254.364C308.469,275.464 313.45,293.703 323.414,309.076C333.377,324.451 347.332,336.309 365.277,344.649C383.219,352.99 404.14,357.16 428.036,357.16C451.751,357.16 472.581,352.99 490.526,344.649C508.468,336.309 522.468,324.451 532.524,309.076C542.577,293.703 547.605,275.464 547.605,254.364L547.605,93.164C547.605,84.184 540.326,76.905 531.346,76.905L488.66,76.905C479.681,76.905 472.402,84.184 472.402,93.164L472.402,247.871Z" style="fill:rgb(3,78,62);fill-rule:nonzero;"/>
        <path d="M651.1,153.218C651.1,144.238 658.38,136.959 667.359,136.959L677.611,136.959C686.446,136.959 693.998,138.156 700.266,140.544C706.533,142.934 711.357,146.631 714.739,151.635C718.121,156.639 719.811,163.111 719.811,171.045C719.811,178.89 718.121,185.247 714.739,190.116C711.357,194.985 706.533,198.526 700.266,200.734C693.998,202.944 686.446,204.048 677.611,204.048L667.359,204.048C658.38,204.048 651.1,196.768 651.1,187.789L651.1,153.218ZM785.073,221.225C793.865,207.611 798.261,190.883 798.261,171.045C798.261,151.388 793.977,134.525 785.412,120.458C776.844,106.391 764.852,95.618 749.432,88.132C734.014,80.648 716.024,76.905 695.464,76.905L592.155,76.905C583.176,76.905 575.897,84.184 575.897,93.164L575.897,337.655C575.897,346.635 583.176,353.914 592.155,353.914L634.842,353.914C643.821,353.914 651.1,346.635 651.1,337.655L651.1,278.738C651.1,269.758 658.38,262.479 667.359,262.479C673.37,262.479 678.891,265.795 681.713,271.102L721.175,345.29C723.998,350.597 729.519,353.914 735.53,353.914L780.089,353.914C792.426,353.914 800.268,340.712 794.367,329.878L758.721,264.434C754.774,257.188 756.859,248.099 763.632,243.385C772.245,237.389 779.401,230.011 785.073,221.225Z" style="fill:rgb(3,78,62);fill-rule:nonzero;"/>
        <path d="M996.072,257.407C991.697,268.815 985.252,277.472 976.73,283.376C968.208,289.284 957.726,292.236 945.283,292.236C932.839,292.236 922.356,289.284 913.835,283.376C905.314,277.472 898.866,268.815 894.493,257.407C890.118,246.001 887.934,232.001 887.934,215.409C887.934,198.819 890.118,184.82 894.493,173.412C898.866,162.005 905.314,153.349 913.835,147.442C922.356,141.537 932.839,138.583 945.283,138.583C957.726,138.583 968.208,141.537 976.73,147.442C985.252,153.349 991.697,162.005 996.072,173.412C1000.45,184.82 1002.63,198.819 1002.63,215.409C1002.63,232.001 1000.45,246.001 996.072,257.407ZM1062.01,137.433C1050.02,116.288 1033.83,100.284 1013.45,89.417C993.074,78.552 970.35,73.118 945.283,73.118C920.033,73.118 897.242,78.552 876.91,89.417C856.574,100.284 840.435,116.288 828.487,137.433C816.537,158.58 810.566,184.57 810.566,215.409C810.566,246.068 816.537,271.971 828.487,293.115C840.435,314.262 856.574,330.312 876.91,341.267C897.242,352.223 920.033,357.701 945.283,357.701C970.35,357.701 993.074,352.269 1013.45,341.402C1033.83,330.537 1050.02,314.533 1062.01,293.386C1074,272.241 1080,246.248 1080,215.409C1080,184.57 1074,158.58 1062.01,137.433Z" style="fill:rgb(3,78,62);fill-rule:nonzero;"/>
        <path d="M270.202,60.276C259.15,41.329 243.68,26.618 223.793,16.145C203.906,5.672 180.701,0.435 154.199,0.435L10.727,0.435C4.802,0.435 0,5.238 0,11.163L0,346.952C0.003,347.284 0.022,347.757 0.089,348.32C0.201,349.25 0.592,352.496 2.811,354.857C5.713,357.945 10.057,357.724 10.727,357.68L87.493,357.68C88.334,357.684 91.507,357.6 94.341,355.201C97.436,352.581 97.906,349.081 97.99,348.32C98.174,346.45 98.387,344.168 98.605,341.562C98.746,339.867 99.027,336.389 99.32,331.749C99.683,325.999 99.963,321.453 100.064,315.31C100.097,313.282 100.106,311.153 100.083,308.868C100.057,306.276 99.951,299.597 99.303,290.957C99.103,288.29 98.662,282.907 97.795,276.073C97.114,270.71 96.15,264.283 94.75,257.038C94.746,257.017 94.743,256.995 94.741,256.974C94.489,254.197 94.236,251.421 93.984,248.644C93.982,248.626 93.981,248.608 93.981,248.589C93.943,245.384 94.315,240.758 96.269,235.651C97.593,232.193 99.263,229.504 100.633,227.627C103.188,224.124 105.721,222.054 108.354,219.906C111.765,217.123 114.674,214.749 119.165,212.956C120.214,212.537 124.201,211.505 132.174,209.44C134.148,208.928 134.803,208.788 135.825,208.65C139.109,208.206 140.541,208.778 143.457,207.184C148.144,204.623 150.218,199.99 151.282,197.614C151.787,196.485 151.531,196.124 153.443,182.997C153.888,179.935 152.651,177.607 150.186,175.91C148.49,174.742 146.826,173.361 144.93,172.679C137.837,170.128 132.057,165.649 126.683,160.596C119.417,153.763 110.878,150.223 100.933,149.768C94.354,149.467 92.161,147.411 90.411,140.984C88.859,135.286 89.228,133.208 86.813,129.489C86.655,129.246 85.876,128.048 84.633,126.751C82.9,124.944 80.994,123.7 79.558,122.907C79.252,122.738 78.868,122.843 78.683,123.138C73.099,132.028 70.672,137.518 69.506,140.964C69.033,142.362 67.338,147.433 63.86,153.667C63.652,154.041 63.461,154.363 63.269,154.682C58.781,162.152 52.958,167.824 50.327,170.269C49.059,171.448 47.909,172.467 46.834,173.385C46.242,173.878 45.644,174.371 45.041,174.864C42.97,176.555 40.909,178.184 38.861,179.754C38.068,162.631 39.02,131.461 54.921,100.114C61.489,87.164 71.327,68.391 92.399,57.345C97.376,54.736 101.803,53.175 104.877,52.244C118.793,48.21 130.92,49.869 142.182,51.525C151.713,52.927 156.479,53.627 160.613,55.59C173.5,61.707 174.339,70.678 186.501,76.961C193.697,80.679 200.061,80.978 208.282,81.364C217.334,81.789 246.219,81.471 249.361,82.964C250.217,83.371 252.602,85.55 252.732,85.676C252.865,85.804 252.935,85.979 252.929,86.163C252.885,87.465 252.78,89.218 252.519,91.267C251.854,97.135 249.726,107.793 241.88,117.84C232.566,129.766 217.662,137.669 203.892,137.898C198.272,137.991 185.593,136.926 185.467,136.919C204.869,140.297 213.484,142.962 213.484,142.962C214.379,143.239 214.824,143.387 215.411,143.574C226.132,146.979 244.408,161.307 243.075,164.013C242.879,164.409 242.179,164.729 239.913,164.335C239.896,164.332 239.878,164.328 239.862,164.324C238.2,163.918 236.538,163.511 234.876,163.105C234.263,162.955 233.832,163.662 234.22,164.159C235.69,166.042 236.021,168.441 235.149,170.142C234.112,172.166 231.698,172.567 231.244,172.628C231.214,172.632 231.188,172.637 231.158,172.645C225.731,174.169 218.784,175.795 210.624,176.897C203.843,177.812 198.177,177.957 193.242,178.108C193.223,178.108 193.203,178.109 193.184,178.109L181.077,178.109C181.053,178.109 181.03,178.108 181.007,178.108C180.983,178.108 180.96,178.109 180.936,178.109C170.301,178.147 161.691,186.779 161.691,197.423L161.691,233.693C161.691,243.057 169.281,250.647 178.645,250.647L182.718,250.647C186.836,250.654 190.712,249.884 193.242,249.246C194.159,249.015 194.905,248.8 195.416,248.647C195.43,248.643 195.442,248.639 195.456,248.634C206.794,244.483 215.778,239.976 222.134,236.44C232.498,230.674 243.846,224.286 255.186,212.339C260.673,206.558 265.531,200.176 269.762,193.188C281.095,174.481 286.771,152.335 286.771,126.752C286.771,101.369 281.235,79.224 270.202,60.276Z" style="fill:rgb(3,78,62);fill-rule:nonzero;"/>
        <path d="M20.377,412.293C25.062,412.293 31.737,411.003 35.952,411.003C39.232,411.003 41.573,412.526 41.573,415.218C41.573,417.446 40.052,419.199 37.709,419.199C35.952,419.199 34.078,418.615 32.204,418.615C28.576,418.615 25.882,420.021 25.882,428.451L25.882,476.468C25.882,483.262 27.052,484.902 33.611,484.902L48.835,484.902C58.437,484.902 62.771,483.262 62.771,475.179C62.771,470.73 62.304,466.165 62.304,463.936C62.304,460.543 63.825,458.553 66.519,458.553C69.916,458.553 71.554,459.721 71.554,463.352C71.554,467.099 70.619,471.198 70.619,475.062C70.619,478.81 71.554,482.323 71.554,485.954C71.554,490.169 69.563,492.631 64.762,492.631C54.105,492.631 29.98,491.342 25.999,491.342C20.494,491.342 11.593,492.631 5.504,492.631C1.64,492.631 0,490.991 0,488.65C0,486.421 1.64,484.431 3.864,484.431C5.738,484.431 7.611,485.253 9.485,485.253C14.873,485.253 15.81,481.038 15.81,467.45L15.81,432.082C15.81,423.886 15.223,421.895 14.17,420.606C13.116,419.32 11.945,418.615 9.485,418.615C7.611,418.615 5.738,419.199 3.864,419.199C1.64,419.199 0.116,417.446 0.116,415.218C0.116,412.526 1.873,411.003 4.801,411.003C8.901,411.003 15.693,412.293 20.377,412.293Z" style="fill:rgb(3,78,62);fill-rule:nonzero;"/>
        <path d="M122.743,455.039C122.04,444.264 115.598,438.058 106.112,438.058C96.743,438.058 89.248,444.614 88.194,455.039L122.743,455.039ZM132.462,457.263C132.462,462.534 132.462,463.469 127.427,463.469L87.141,463.469L87.141,464.641C87.257,477.758 94.753,486.305 105.996,486.305C114.194,486.305 120.402,482.09 122.509,473.543C123.212,470.847 124.383,469.557 126.607,469.557C129.3,469.557 131.292,471.314 131.292,474.127C131.292,477.053 130.004,480.333 127.427,483.963C122.392,491.108 114.077,494.271 105.295,494.271C87.961,494.271 77.421,481.622 77.421,463.235C77.421,443.208 89.248,430.091 105.879,430.091C121.455,430.091 132.462,441.334 132.462,457.263Z" style="fill:rgb(3,78,62);fill-rule:nonzero;"/>
        <path d="M169.829,440.165L158.117,440.165C156.83,440.165 156.126,440.867 156.126,442.273L156.126,471.198C156.126,479.982 157.766,484.786 164.675,484.786C169.36,484.786 172.99,482.44 172.99,472.721C172.99,466.165 172.99,462.062 177.675,462.062C180.018,462.062 182.009,463.235 182.009,468.74C182.009,487.711 174.981,492.982 163.271,492.982C161.045,492.982 157.297,492.514 154.722,491.108C150.388,488.767 147.11,484.902 147.11,472.954L147.11,443.913C147.11,440.516 146.524,440.165 142.426,440.165C137.624,440.165 136.218,438.759 136.218,435.83C136.218,433.488 138.209,431.615 141.136,431.615L145.12,431.615C146.874,431.615 147.11,430.563 147.11,429.157L147.11,417.563C147.11,414.049 148.631,412.293 151.676,412.293C154.488,412.293 156.126,413.816 156.126,417.797L156.126,429.858C156.126,431.147 156.479,431.615 157.65,431.615L170.18,431.615C174.044,431.615 175.801,432.787 175.801,435.946C175.801,438.876 173.694,440.165 169.829,440.165Z" style="fill:rgb(3,78,62);fill-rule:nonzero;"/>
        <path d="M244.672,433.021C248.069,433.021 253.924,431.731 256.734,431.731C259.545,431.731 261.769,433.605 261.769,436.067C261.769,438.292 260.131,439.932 258.725,439.932C257.204,439.932 254.157,438.876 252.753,438.876C251.816,438.876 251.466,439.577 251.466,440.165C251.466,441.217 252.167,443.091 252.636,444.614L265.753,483.73L265.986,483.73L278.986,448.128C280.626,443.679 281.21,442.39 281.21,440.867C281.21,439.343 279.806,438.876 278.4,438.876C276.995,438.876 274.769,439.932 273.012,439.932C271.021,439.932 269.383,438.292 269.383,436.067C269.383,433.722 271.491,431.731 273.951,431.731C276.76,431.731 282.381,433.021 286.247,433.021C289.876,433.021 295.497,431.731 298.31,431.731C300.651,431.731 302.291,433.371 302.291,435.596C302.291,437.82 300.534,439.932 298.544,439.932C297.254,439.932 295.38,438.876 294.327,438.876C291.869,438.876 290.462,443.208 289.292,446.137L274.886,482.207C265.87,505.981 257.437,515 241.744,515C233.899,515 225.233,509.963 225.233,502C225.233,497.314 228.628,493.683 232.962,493.683C236.592,493.683 239.52,495.79 239.52,499.538C239.52,501.766 238.113,503.757 236.006,504.224C236.826,505.981 239.403,507.15 243.032,507.15C253.221,507.15 259.428,497.197 259.428,491.809C259.428,487.477 256.384,482.09 252.636,472.487L241.51,444.264C240.104,440.867 238.7,438.759 237.06,438.759C236.006,438.759 232.962,439.932 230.971,439.932C229.448,439.932 227.691,438.292 227.691,436.067C227.691,433.722 229.915,431.731 232.375,431.731C234.952,431.731 241.627,433.021 244.672,433.021Z" style="fill:rgb(3,78,62);fill-rule:nonzero;"/>
        <path d="M331.345,486.305C343.642,486.305 350.434,476.936 350.434,461.478C350.434,449.301 345.749,438.058 331.93,438.058C317.409,438.058 313.192,451.525 313.192,462.062C313.192,476.468 319.633,486.305 331.345,486.305ZM349.497,435.713C356.758,441.685 360.153,451.642 360.153,461.946C360.153,480.917 349.144,494.271 331.226,494.271C314.129,494.271 303.472,481.038 303.472,462.3C303.472,452.109 306.634,443.325 312.255,437.586C317.056,432.787 323.614,430.091 331.345,430.091C338.957,430.091 344.929,431.965 349.497,435.713Z" style="fill:rgb(3,78,62);fill-rule:nonzero;"/>
        <path d="M376.203,433.021C377.96,433.021 381.357,431.731 382.88,431.731C385.572,431.731 386.745,432.67 386.745,437.002C386.745,443.913 386.042,447.544 386.042,463.702C386.042,465.693 386.042,476.118 388.266,479.982C390.257,483.496 394.004,486.305 401.032,486.305C407.59,486.305 411.922,483.73 414.851,478.926C417.543,474.595 417.777,462.884 417.777,454.1C417.777,442.857 417.076,439.227 412.978,439.227C411.221,439.227 409.931,439.932 408.174,439.932C405.833,439.932 404.193,438.292 404.193,436.067C404.193,433.605 406.419,431.731 409.697,431.731C411.688,431.731 415.202,433.021 416.959,433.021C419.183,433.021 421.408,431.731 423.636,431.731C426.094,431.731 427.146,433.138 427.146,436.067C427.146,441.217 426.795,447.894 426.795,452.226L426.795,476.001C426.795,480.45 427.029,485.136 430.192,485.136C431.949,485.136 433.823,484.431 435.58,484.431C437.921,484.431 439.561,486.071 439.561,488.295C439.561,490.991 436.986,492.631 434.524,492.631C432.767,492.631 429.608,491.342 427.851,491.342C425.977,491.342 422.814,492.631 421.057,492.631C418.833,492.631 418.248,490.757 418.248,486.538L418.248,485.487L418.011,485.487C414.267,491.225 408.174,494.271 399.625,494.271C389.086,494.271 377.023,489.935 377.023,474.127L377.023,448.479C377.023,443.325 376.086,439.227 372.925,439.227C371.168,439.227 369.411,439.932 367.654,439.932C365.313,439.932 363.673,438.292 363.673,436.067C363.673,433.371 366.25,431.731 369.411,431.731C371.638,431.731 373.862,433.021 376.203,433.021Z" style="fill:rgb(3,78,62);fill-rule:nonzero;"/>
        <path d="M499.534,446.605C499.534,453.983 495.787,458.67 489.815,458.67C486.184,458.67 483.371,456.207 483.371,453.048C483.371,450.352 485.6,448.011 488.175,448.011C488.642,448.011 489.231,448.245 489.698,448.362C490.282,447.31 490.399,446.605 490.399,445.67C490.399,440.75 485.245,437.47 479.979,437.47C469.203,437.47 465.222,445.432 465.222,459.254L465.222,476.118C465.222,479.982 465.573,485.136 468.853,485.136C470.844,485.136 472.834,484.431 474.357,484.431C476.699,484.431 478.339,486.071 478.339,488.295C478.339,490.991 475.993,492.631 473.185,492.631C470.372,492.631 464.988,491.342 461.241,491.342C457.493,491.342 452.573,492.631 448.942,492.631C446.013,492.631 443.555,490.757 443.555,488.295C443.555,486.071 445.195,484.431 447.536,484.431C449.293,484.431 451.167,485.136 453.041,485.136C456.204,485.136 456.204,481.155 456.204,475.413L456.204,448.362C456.204,444.614 456.204,439.227 452.807,439.227C451.05,439.227 448.826,439.932 446.013,439.932C443.555,439.932 441.915,438.292 441.915,436.067C441.915,433.722 444.022,431.731 447.186,431.731C448.709,431.731 451.755,433.021 453.98,433.021C456.554,433.021 458.896,431.731 460.652,431.731C463.115,431.731 463.933,433.371 463.933,437.119L463.933,438.876L464.166,438.876C467.797,432.904 473.652,430.091 480.68,430.091C490.983,430.091 499.534,436.184 499.534,446.605Z" style="fill:rgb(3,78,62);fill-rule:nonzero;"/>
        <path d="M570.629,476.936C572.737,481.973 577.185,486.305 585.148,486.305C597.33,486.305 603.886,477.407 603.886,461.829C603.886,446.488 597.914,438.058 586.554,438.058C581.989,438.058 577.891,439.46 574.377,442.624C570.863,445.787 569.106,452.109 569.106,463.819C569.106,470.146 569.457,474.361 570.629,476.936ZM613.609,460.894C613.609,482.674 601.545,494.271 585.62,494.271C578.592,494.271 572.503,491.692 569.34,487.01L569.106,487.01L569.106,496.963C569.106,502.234 569.574,505.864 572.503,505.864C574.494,505.864 576.367,505.159 577.891,505.159C580.232,505.159 581.872,506.799 581.872,509.024C581.872,511.72 579.41,513.36 576.601,513.36C573.321,513.36 567.583,512.07 564.303,512.07C561.377,512.07 554.7,513.36 552.476,513.36C549.784,513.36 547.322,511.72 547.322,509.024C547.322,506.799 548.962,505.159 551.303,505.159C552.826,505.159 554.7,505.864 556.691,505.864C559.387,505.864 560.088,503.285 560.088,496.846L560.088,448.362C560.088,443.208 559.854,439.227 556.691,439.227C554.7,439.227 552.826,439.932 551.303,439.932C548.962,439.932 547.322,438.292 547.322,436.067C547.322,433.605 549.667,431.731 552.476,431.731C554.35,431.731 556.574,433.021 558.915,433.021C560.672,433.021 564.069,431.731 565.592,431.731C567.349,431.731 568.639,432.67 568.639,435.362L568.639,439.227L568.872,439.227C572.153,433.722 578.826,430.091 586.788,430.091C603.652,430.091 613.609,441.806 613.609,460.894Z" style="fill:rgb(3,78,62);fill-rule:nonzero;"/>
        <path d="M667.373,455.039C666.668,444.264 660.228,438.058 650.743,438.058C641.374,438.058 633.879,444.614 632.823,455.039L667.373,455.039ZM677.092,457.263C677.092,462.534 677.092,463.469 672.055,463.469L631.771,463.469L631.771,464.641C631.888,477.758 639.383,486.305 650.626,486.305C658.822,486.305 665.028,482.09 667.135,473.543C667.84,470.847 669.009,469.557 671.237,469.557C673.929,469.557 675.92,471.314 675.92,474.127C675.92,477.053 674.63,480.333 672.055,483.963C667.018,491.108 658.705,494.271 649.921,494.271C632.589,494.271 622.048,481.622 622.048,463.235C622.048,443.208 633.879,430.091 650.509,430.091C666.083,430.091 677.092,441.334 677.092,457.263Z" style="fill:rgb(3,78,62);fill-rule:nonzero;"/>
        <path d="M714.459,440.165L702.749,440.165C701.46,440.165 700.759,440.867 700.759,442.273L700.759,471.198C700.759,479.982 702.399,484.786 709.305,484.786C713.992,484.786 717.623,482.44 717.623,472.721C717.623,466.165 717.623,462.062 722.305,462.062C724.646,462.062 726.637,463.235 726.637,468.74C726.637,487.711 719.613,492.982 707.899,492.982C705.675,492.982 701.927,492.514 699.352,491.108C695.021,488.767 691.74,484.902 691.74,472.954L691.74,443.913C691.74,440.516 691.156,440.165 687.054,440.165C682.255,440.165 680.848,438.759 680.848,435.83C680.848,433.488 682.839,431.615 685.768,431.615L689.75,431.615C691.507,431.615 691.74,430.563 691.74,429.157L691.74,417.563C691.74,414.049 693.264,412.293 696.306,412.293C699.119,412.293 700.759,413.816 700.759,417.797L700.759,429.858C700.759,431.147 701.109,431.615 702.278,431.615L714.81,431.615C718.674,431.615 720.431,432.787 720.431,435.946C720.431,438.876 718.324,440.165 714.459,440.165Z" style="fill:rgb(3,78,62);fill-rule:nonzero;"/>
        <path d="M824.203,433.255C824.203,435.946 823.497,438.876 823.497,441.806C823.497,444.614 824.203,447.661 824.203,450.352C824.203,453.048 822.679,454.805 819.983,454.805C817.759,454.805 816.236,453.399 816.236,448.829C816.236,447.427 816.236,445.315 815.535,444.147C814.6,442.624 812.138,441.217 810.736,440.399C807.222,438.525 804.292,438.058 802.652,438.058C795.507,438.058 789.536,442.039 789.536,448.362C789.536,453.866 792.933,456.09 803.24,457.38C822.446,459.721 827.716,464.641 827.716,475.062C827.716,487.127 817.058,494.271 803.474,494.271C797.264,494.271 791.176,492.748 786.376,488.767C786.493,489.117 786.493,489.702 786.493,490.286C786.493,493.449 784.736,495.323 782.391,495.323C779.232,495.323 777.942,493.099 777.942,490.286C777.942,487.127 778.881,483.847 778.881,480.566C778.881,477.407 777.942,474.244 777.942,471.314C777.942,468.506 779.349,466.983 782.04,466.983C784.265,466.983 785.554,468.155 785.671,470.613C785.905,474.945 786.139,478.108 787.428,479.982C790.003,483.73 798.32,486.305 804.759,486.305C813.778,486.305 817.993,480.917 817.993,476.001C817.993,470.73 814.717,467.216 803.474,466.165C785.788,464.525 779.816,458.67 779.816,449.063C779.816,437.353 790.241,430.091 802.652,430.091C807.455,430.091 812.726,430.913 816.474,434.189L816.474,433.255C816.474,430.913 817.525,429.273 820.221,429.273C822.679,429.273 824.203,430.563 824.203,433.255Z" style="fill:rgb(3,78,62);fill-rule:nonzero;"/>
        <path d="M890.845,438.759C895.176,432.554 901.854,430.091 909.466,430.091C922.933,430.091 931.717,435.946 931.717,452.927L931.717,475.884C931.717,481.505 932.185,485.136 935.231,485.136C936.984,485.136 938.741,484.431 940.498,484.431C942.843,484.431 944.479,486.071 944.479,488.295C944.479,490.991 942.726,492.631 939.446,492.631C936.633,492.631 931.717,491.342 927.498,491.342C922.933,491.342 918.012,492.631 915.087,492.631C911.807,492.631 909.933,490.991 909.933,488.295C909.933,486.071 911.573,484.431 913.914,484.431C915.671,484.431 917.428,485.136 919.185,485.136C921.994,485.136 922.699,483.029 922.699,476.001L922.699,456.913C922.699,452.109 922.348,447.661 920.942,444.848C918.129,439.46 912.746,438.058 908.76,438.058C905.251,438.058 901.854,439.343 898.924,441.922C895.999,444.497 894.475,450.352 894.475,459.604L894.475,476.702C894.475,480.8 894.709,485.136 897.989,485.136C899.746,485.136 901.503,484.431 903.256,484.431C905.601,484.431 907.241,486.071 907.241,488.295C907.241,490.991 905.367,492.631 902.087,492.631C899.275,492.631 894.475,491.342 890.26,491.342C885.691,491.342 880.887,492.631 877.728,492.631C874.448,492.631 872.691,490.991 872.691,488.295C872.691,486.071 874.331,484.431 876.672,484.431C878.429,484.431 880.186,485.136 881.943,485.136C884.756,485.136 885.457,482.908 885.457,476.001L885.457,451.992C885.457,448.128 884.873,445.082 883.233,442.857C880.303,438.876 875.621,438.058 873.159,438.058C868.126,438.058 863.205,439.932 860.28,444.848C858.285,448.128 857.234,451.291 857.234,459.02L857.234,471.314C857.234,481.856 857.584,485.136 860.631,485.136C862.504,485.136 864.495,484.431 866.018,484.431C868.359,484.431 869.999,486.071 869.999,488.295C869.999,490.991 868.126,492.631 864.846,492.631C862.033,492.631 857.234,491.342 853.019,491.342C848.449,491.342 843.65,492.631 840.486,492.631C837.206,492.631 835.449,490.991 835.449,488.295C835.449,486.071 837.089,484.431 839.431,484.431C840.954,484.431 842.828,485.136 844.818,485.136C847.514,485.136 848.215,482.908 848.215,476.001L848.215,448.362C848.215,441.806 847.748,439.227 844.818,439.227C842.828,439.227 840.954,439.932 839.431,439.932C837.089,439.932 835.449,438.292 835.449,436.067C835.449,434.073 837.674,431.731 839.902,431.731C841.421,431.731 843.883,433.021 846.108,433.021C848.566,433.021 851.495,431.731 853.369,431.731C855.593,431.731 856.061,433.021 856.061,438.759L856.295,438.759C860.864,432.787 866.135,430.091 873.63,430.091C881.476,430.091 887.681,433.255 890.845,438.759Z" style="fill:rgb(3,78,62);fill-rule:nonzero;"/>
        <path d="M970.257,418.966C970.257,422.713 967.215,425.76 963.467,425.76C959.836,425.76 956.79,422.596 956.79,418.966C956.79,415.335 959.719,412.293 963.467,412.293C967.215,412.293 970.257,415.335 970.257,418.966ZM960.07,433.021C962.528,433.021 964.986,431.731 966.743,431.731C969.088,431.731 970.023,433.839 970.023,436.535L970.023,480.566C970.023,482.908 970.845,485.136 973.07,485.136C974.355,485.136 975.761,484.431 977.168,484.431C980.448,484.431 981.733,486.071 981.733,488.295C981.733,490.991 979.392,492.631 976.583,492.631C973.771,492.631 968.5,491.342 964.635,491.342C960.771,491.342 955.267,492.631 952.341,492.631C950.113,492.631 948.239,490.524 948.239,488.295C948.239,486.071 949.879,484.431 952.224,484.431C953.743,484.431 955.617,485.136 957.608,485.136C960.537,485.136 961.005,481.622 961.005,476.001L961.005,448.245C961.005,441.922 960.537,439.227 957.608,439.227C955.617,439.227 953.743,439.932 952.224,439.932C949.879,439.932 948.239,438.292 948.239,436.067C948.239,433.371 950.113,431.731 952.458,431.731C954.682,431.731 958.079,433.021 960.07,433.021Z" style="fill:rgb(3,78,62);fill-rule:nonzero;"/>
        <path d="M998.601,411.47C1000.95,411.47 1003.4,410.185 1004.93,410.185C1008.09,410.185 1008.2,412.643 1008.2,415.806L1008.2,476.001C1008.2,480.917 1008.56,485.136 1011.72,485.136C1013.47,485.136 1015.23,484.431 1016.99,484.431C1019.33,484.431 1020.97,486.071 1020.97,488.295C1020.97,490.757 1018.86,492.631 1015.82,492.631C1013.01,492.631 1008.56,491.342 1003.87,491.342C999.54,491.342 994.386,492.631 991.578,492.631C988.765,492.631 986.424,490.991 986.424,488.295C986.424,486.071 988.064,484.431 990.405,484.431C992.162,484.431 993.919,485.136 995.676,485.136C998.835,485.136 999.19,481.155 999.19,475.884L999.19,426.815C999.19,421.895 998.718,417.68 995.676,417.68C993.919,417.68 991.928,418.381 989.466,418.381C987.008,418.381 985.368,416.741 985.368,414.517C985.368,411.825 987.947,410.185 990.756,410.185C993.568,410.185 997.078,411.47 998.601,411.47Z" style="fill:rgb(3,78,62);fill-rule:nonzero;"/>
        <path d="M1070.28,455.039C1069.58,444.264 1063.14,438.058 1053.65,438.058C1044.28,438.058 1036.79,444.614 1035.73,455.039L1070.28,455.039ZM1080,457.263C1080,462.534 1080,463.469 1074.96,463.469L1034.68,463.469L1034.68,464.641C1034.8,477.758 1042.29,486.305 1053.53,486.305C1061.73,486.305 1067.94,482.09 1070.04,473.543C1070.75,470.847 1071.92,469.557 1074.15,469.557C1076.84,469.557 1078.83,471.314 1078.83,474.127C1078.83,477.053 1077.54,480.333 1074.96,483.963C1069.93,491.108 1061.61,494.271 1052.83,494.271C1035.5,494.271 1024.96,481.622 1024.96,463.235C1024.96,443.208 1036.79,430.091 1053.42,430.091C1068.99,430.091 1080,441.334 1080,457.263Z" style="fill:rgb(3,78,62);fill-rule:nonzero;"/>
    </g>
</svg>
