<?xml version="1.0" encoding="UTF-8" standalone="no"?>
<!DOCTYPE svg PUBLIC "-//W3C//DTD SVG 1.1//EN" "http://www.w3.org/Graphics/SVG/1.1/DTD/svg11.dtd">
<svg width="100%" height="100%" viewBox="0 0 800 400" version="1.1" xmlns="http://www.w3.org/2000/svg" xmlns:xlink="http://www.w3.org/1999/xlink" xml:space="preserve" xmlns:serif="http://www.serif.com/" style="fill-rule:evenodd;clip-rule:evenodd;stroke-linejoin:round;stroke-miterlimit:2;">
    <g>
        <g id="nijmegen">
            <path d="M203.981,370.878L193.879,307.097L199.439,306.219L252.233,354.648L249.316,355.112L240.537,299.713L247.186,298.661L257.287,362.443L251.732,363.325L199.036,314.865L201.957,314.405L210.735,369.804L203.981,370.878Z" style="fill:rgb(63,46,86);fill-rule:nonzero;"/>
            <path d="M270.739,300.429C269.398,300.644 268.203,300.361 267.151,299.6C266.092,298.835 265.47,297.81 265.263,296.536C265.059,295.265 265.35,294.112 266.119,293.087C266.887,292.062 267.947,291.447 269.277,291.236C270.619,291.021 271.806,291.27 272.858,291.979C273.898,292.687 274.531,293.675 274.727,294.949C274.938,296.291 274.674,297.474 273.939,298.526C273.204,299.577 272.138,300.207 270.739,300.429ZM276.706,359.363L269.126,311.518L275.598,310.497L283.181,358.338L276.706,359.363Z" style="fill:rgb(63,46,86);fill-rule:nonzero;"/>
            <path d="M296.988,374.738C295.039,375.047 293.136,375.081 291.259,374.851C289.389,374.617 287.757,374.082 286.374,373.234L287.878,367.961C290.079,369.291 292.702,369.717 295.74,369.238C298.292,368.839 300.131,367.765 301.258,366.031C302.385,364.297 302.709,361.941 302.238,358.96L294.101,307.568L300.572,306.543L308.71,357.939C309.411,362.367 308.77,366.099 306.791,369.122C304.816,372.144 301.548,374.014 296.988,374.738ZM295.706,296.475C294.364,296.69 293.17,296.407 292.122,295.65C291.063,294.881 290.437,293.856 290.233,292.582C290.026,291.312 290.316,290.158 291.085,289.133C291.854,288.112 292.913,287.486 294.255,287.282C295.586,287.068 296.78,287.316 297.832,288.025C298.876,288.734 299.498,289.725 299.701,290.995C299.916,292.337 299.652,293.524 298.917,294.572C298.175,295.624 297.108,296.253 295.706,296.475Z" style="fill:rgb(63,46,86);fill-rule:nonzero;"/>
            <path d="M378.329,293.762C382.215,293.147 385.724,293.351 388.841,294.383C391.966,295.416 394.571,297.323 396.662,300.105C398.754,302.887 400.164,306.584 400.895,311.205L405.301,338.991L398.83,340.016L394.525,312.86C393.734,307.813 391.921,304.195 389.113,301.993C386.305,299.788 382.709,299.031 378.337,299.728C375.058,300.252 372.325,301.387 370.139,303.128C367.953,304.869 366.415,307.138 365.522,309.931C364.625,312.724 364.463,315.932 365.043,319.58L369.031,344.728L362.556,345.753L358.255,318.596C357.46,313.55 355.632,309.931 352.797,307.738C349.955,305.544 346.352,304.794 341.98,305.484C338.757,305.996 336.043,307.123 333.823,308.872C331.611,310.625 330.058,312.894 329.153,315.687C328.256,318.476 328.094,321.687 328.675,325.332L332.663,350.483L326.191,351.508L318.607,303.667L324.808,302.683L326.854,315.626L325.49,313.508C326.402,309.811 328.324,306.731 331.26,304.236C334.2,301.752 337.887,300.158 342.319,299.449C347,298.707 351.158,299.249 354.814,301.062C358.466,302.879 361.15,306.056 362.857,310.572L360.151,309.973C360.935,305.868 362.906,302.333 366.083,299.37C369.268,296.426 373.35,294.557 378.329,293.762Z" style="fill:rgb(63,46,86);fill-rule:nonzero;"/>
            <path d="M443.283,333.451C438.308,334.238 433.762,333.888 429.665,332.384C425.564,330.884 422.161,328.464 419.451,325.128C416.744,321.789 415.011,317.752 414.26,313.014C413.51,308.276 413.861,303.919 415.32,299.95C416.778,295.982 419.119,292.669 422.338,290.015C425.557,287.358 429.39,285.677 433.822,284.976C438.323,284.267 442.472,284.652 446.291,286.129C450.105,287.614 453.309,290.03 455.894,293.385C458.484,296.743 460.157,300.821 460.919,305.619C460.968,305.928 461.001,306.245 461.02,306.584C461.047,306.927 461.081,307.278 461.141,307.643L419.484,314.235L418.719,309.403L456.904,303.358L454.658,305.68C454.111,302.212 452.883,299.253 450.96,296.784C449.038,294.316 446.69,292.525 443.897,291.413C441.108,290.305 438.04,290.004 434.693,290.535C431.414,291.055 428.587,292.284 426.216,294.214C423.842,296.144 422.142,298.594 421.116,301.564C420.091,304.526 419.854,307.771 420.415,311.299L420.578,312.298C421.158,315.943 422.466,319.022 424.516,321.525C426.567,324.035 429.152,325.837 432.284,326.93C435.42,328.023 438.835,328.268 442.54,327.688C445.461,327.228 448.092,326.282 450.448,324.846C452.804,323.413 454.726,321.491 456.211,319.075L460.523,322.686C458.8,325.573 456.452,327.944 453.471,329.779C450.516,331.615 447.12,332.847 443.283,333.451Z" style="fill:rgb(63,46,86);fill-rule:nonzero;"/>
            <path d="M496.884,322.626C492.323,323.342 488.071,323.01 484.11,321.612C480.145,320.21 476.843,317.922 474.186,314.729C471.532,311.537 469.848,307.662 469.124,303.109C468.396,298.552 468.807,294.368 470.353,290.543C471.898,286.717 474.34,283.543 477.669,281.026C481.008,278.504 484.954,276.883 489.515,276.156C493.767,275.485 497.735,275.756 501.418,276.978C505.097,278.199 508.214,280.385 510.765,283.525C513.321,286.676 514.994,290.731 515.778,295.718C516.566,300.693 516.231,305.084 514.779,308.857C513.321,312.637 511.04,315.702 507.923,318.069C504.814,320.439 501.135,321.951 496.884,322.626ZM496.608,316.787C500.136,316.233 503.14,314.993 505.643,313.063C508.146,311.145 509.974,308.736 511.135,305.842C512.296,302.947 512.601,299.773 512.058,296.306C511.512,292.838 510.238,289.928 508.24,287.565C506.242,285.206 503.766,283.491 500.792,282.443C497.822,281.384 494.577,281.135 491.049,281.7C487.585,282.243 484.596,283.483 482.067,285.413C479.542,287.343 477.702,289.732 476.568,292.582C475.433,295.443 475.143,298.601 475.69,302.069C476.236,305.536 477.499,308.461 479.463,310.862C481.426,313.259 483.914,314.986 486.918,316.037C489.914,317.085 493.145,317.334 496.608,316.787ZM501.229,342.398C496.857,343.092 492.56,343.115 488.354,342.474C484.144,341.837 480.597,340.529 477.74,338.55L480.239,333.111C482.802,334.758 485.832,335.919 489.334,336.575C492.836,337.235 496.439,337.276 500.144,336.688C506.223,335.723 510.46,333.605 512.868,330.326C515.277,327.051 516.008,322.43 515.062,316.478L513.166,304.545L512.782,296.204L510.844,288.1L508.545,273.616L514.745,272.632L521.398,314.635C522.706,322.901 521.647,329.278 518.221,333.775C514.787,338.275 509.126,341.143 501.229,342.398Z" style="fill:rgb(63,46,86);fill-rule:nonzero;"/>
            <path d="M560.763,314.85C555.784,315.634 551.242,315.283 547.141,313.783C543.044,312.287 539.637,309.863 536.931,306.524C534.224,303.188 532.491,299.148 531.741,294.41C530.987,289.672 531.337,285.319 532.796,281.35C534.258,277.377 536.599,274.068 539.818,271.411C543.037,268.757 546.87,267.072 551.302,266.375C555.803,265.655 559.952,266.051 563.767,267.528C567.585,269.013 570.789,271.429 573.374,274.784C575.96,278.139 577.637,282.22 578.395,287.019C578.448,287.324 578.482,287.64 578.497,287.983C578.523,288.323 578.557,288.673 578.617,289.031L536.972,295.624L536.203,290.791L574.392,284.746L572.146,287.068C571.599,283.604 570.359,280.641 568.448,278.172C566.526,275.704 564.178,273.913 561.385,272.794C558.592,271.686 555.527,271.384 552.181,271.916C548.901,272.436 546.075,273.665 543.7,275.594C541.329,277.524 539.629,279.974 538.604,282.944C537.579,285.907 537.341,289.152 537.903,292.676L538.065,293.675C538.646,297.323 539.953,300.403 542.004,302.905C544.05,305.416 546.64,307.217 549.772,308.31C552.908,309.403 556.323,309.648 560.028,309.068C562.949,308.608 565.58,307.662 567.935,306.226C570.291,304.794 572.213,302.872 573.698,300.456L578.01,304.066C576.288,306.954 573.94,309.317 570.958,311.16C567.996,313.014 564.588,314.243 560.763,314.85Z" style="fill:rgb(63,46,86);fill-rule:nonzero;"/>
            <path d="M612.185,256.734C616.067,256.119 619.603,256.327 622.788,257.34C625.973,258.366 628.637,260.262 630.79,263.036C632.942,265.81 634.385,269.507 635.109,274.117L639.515,301.907L633.043,302.932L628.739,275.775C627.936,270.728 626.078,267.118 623.146,264.939C620.217,262.764 616.478,262.029 611.917,262.745C608.51,263.284 605.661,264.434 603.354,266.202C601.047,267.969 599.419,270.25 598.462,273.05C597.504,275.851 597.308,279.069 597.889,282.714L601.877,307.866L595.405,308.891L587.821,261.046L594.022,260.066L596.095,273.186L594.704,270.883C595.669,267.185 597.678,264.076 600.701,261.577C603.746,259.082 607.572,257.461 612.185,256.734Z" style="fill:rgb(63,46,86);fill-rule:nonzero;"/>
        </g>
        <path d="M490.028,236.418C490.412,238.842 488.738,241.148 486.311,241.529L360.354,261.441C357.931,261.822 355.624,260.152 355.24,257.725L350.031,224.798C349.646,222.374 351.32,220.068 353.747,219.683L479.704,199.775C482.127,199.39 484.427,201.064 484.807,203.487L490.028,236.418Z" style="fill:rgb(110,110,180);fill-rule:nonzero;"/>
        <g id="roc">
            <path d="M562.402,194.437C524.907,200.362 505.217,188.618 500.306,157.602L489.334,88.216C484.4,56.981 499.503,39.726 536.998,33.801L591.444,25.196C597.018,24.314 599.86,26.383 600.742,31.958L605.012,58.952C605.891,64.527 603.825,67.369 598.247,68.251L553.394,75.337C544.017,76.81 540.345,81.054 541.54,88.645L549.934,141.745C551.095,149.106 555.87,151.786 565.244,150.301L610.093,143.215C615.675,142.337 618.51,144.402 619.399,149.977L623.602,176.526C624.48,182.101 622.414,184.947 616.836,185.825L562.402,194.437Z" style="fill:rgb(63,46,86);fill-rule:nonzero;"/>
            <path d="M220.7,154.236L237.435,151.59C245.249,150.354 246.549,145.578 245.599,139.551L244.405,131.964C243.447,125.945 240.733,121.795 232.928,123.031L216.193,125.681L220.7,154.236ZM192.847,252.859C187.268,253.737 184.426,251.672 183.537,246.097L160.681,101.517C159.799,95.942 161.868,93.101 167.443,92.222L241.747,80.474C275.221,75.182 288.108,88.694 291.598,110.782L293.222,121.045C295.194,133.543 293.486,142.959 284.742,148.458C301.315,147.67 313.892,157.798 316.855,176.538L324.337,223.833C325.215,229.407 323.149,232.249 317.575,233.128L282.982,238.593C277.407,239.475 274.565,237.406 273.683,231.831L268.286,197.701C267.23,191.008 264.539,188.463 258.29,189.455L227.044,194.388L233.96,238.114C234.842,243.689 232.773,246.534 227.198,247.413L192.847,252.859Z" style="fill:rgb(63,46,86);fill-rule:nonzero;"/>
            <path d="M401.562,142.42C387.5,144.64 374.296,135.043 372.076,120.985C369.856,106.922 379.456,93.722 393.511,91.506C407.574,89.286 420.777,98.882 422.994,112.941C425.225,127.004 415.625,140.2 401.562,142.42ZM385.366,39.99C342.839,46.71 313.824,86.621 320.545,129.137C327.265,171.653 367.184,200.664 409.707,193.944C452.234,187.223 481.249,147.312 474.529,104.796C467.808,62.28 427.89,33.262 385.366,39.99Z" style="fill:rgb(63,46,86);fill-rule:nonzero;"/>
        </g>
    </g>
</svg>
