<?xml version="1.0" encoding="UTF-8" standalone="no"?>
<!DOCTYPE svg PUBLIC "-//W3C//DTD SVG 1.1//EN" "http://www.w3.org/Graphics/SVG/1.1/DTD/svg11.dtd">
<svg width="100%" height="100%" viewBox="0 0 800 400" version="1.1" xmlns="http://www.w3.org/2000/svg" xmlns:xlink="http://www.w3.org/1999/xlink" xml:space="preserve" xmlns:serif="http://www.serif.com/" style="fill-rule:evenodd;clip-rule:evenodd;stroke-linejoin:round;stroke-miterlimit:2;">
    <g transform="matrix(2.80395,0,0,2.80395,-720.848,-360.199)">
        <g id="tagline" transform="matrix(1,0,0,1,265,157.5)">
            <path d="M101.566,55.43C101.286,56.7 100.278,58.043 98.542,59.462C96.712,60.992 94.967,61.712 93.306,61.617C92.354,65.762 91.934,68.217 92.046,68.981L92.13,69.601C91.943,69.751 91.72,69.831 91.458,69.831C91.178,69.831 90.982,69.761 90.87,69.611C90.89,69.181 90.964,68.551 91.094,67.721C91.224,66.891 91.411,65.861 91.654,64.631C91.804,63.961 92.05,62.911 92.396,61.471L93.726,55.961C93.782,55.761 93.861,55.461 93.964,55.071C94.066,54.681 94.192,54.201 94.342,53.641L95.126,53.561C95.126,53.581 95.219,53.621 95.406,53.671C95.368,53.821 95.312,54.001 95.238,54.221C95.163,54.441 95.078,54.701 94.986,54.991C94.762,55.571 94.622,56.031 94.566,56.371C96.171,54.901 97.936,54.091 99.858,53.961C101.22,53.891 101.79,54.391 101.566,55.471L101.566,55.43ZM151.277,53.945C151.177,54.021 151.028,54.125 150.829,54.254C149.909,54.254 148.889,54.404 147.749,54.701C147.599,55.171 147.459,55.631 147.339,56.091C147.219,56.551 147.079,57.021 146.929,57.511C146.479,59.291 146.299,60.351 146.389,60.701C147.059,63.431 148.819,64.781 151.649,64.761C152.559,64.761 153.499,64.601 154.449,64.291C154.469,64.331 154.489,64.371 154.499,64.421C154.519,64.471 154.529,64.511 154.549,64.551C153.319,64.961 152.169,65.171 151.099,65.171C148.429,65.171 146.609,63.861 145.639,61.221C145.409,60.531 145.489,59.461 145.859,58.001L146.189,56.711C146.319,56.211 146.489,55.611 146.689,54.921L146.749,54.891C146.499,54.991 146.119,55.111 145.599,55.261C145.469,55.261 145.339,55.231 145.209,55.151C145.209,55.121 145.209,55.081 145.219,55.041C145.229,55.011 145.249,54.951 145.289,54.871C145.569,54.741 146.069,54.571 146.799,54.371C146.949,53.891 147.109,53.281 147.289,52.551C147.463,51.821 147.682,50.991 147.944,50.031C148.204,49.771 148.587,49.631 149.094,49.611C149.114,49.651 149.124,49.701 149.124,49.751C149.124,49.791 149.134,49.861 149.154,49.951C148.944,50.511 148.744,51.141 148.554,51.841C148.354,52.541 148.124,53.311 147.864,54.151C149.264,53.871 150.279,53.731 150.914,53.731C151.156,53.731 151.324,53.761 151.418,53.821C151.386,53.853 151.342,53.891 151.277,53.945ZM236.267,56.954C236.275,56.927 236.29,56.871 236.312,56.788L236.55,55.878C236.662,55.431 236.708,55.076 236.69,54.815C236.186,54.815 235.467,55.253 234.534,56.131C233.004,57.551 231.902,58.901 231.23,60.171L231.034,60.661C230.941,60.901 230.838,61.201 230.726,61.571C230.632,61.591 230.548,61.601 230.474,61.601L230.278,61.601C230.091,61.601 229.97,61.571 229.914,61.491C230.156,60.281 230.744,58.311 231.678,55.581C232.144,54.221 232.528,53.031 232.826,52.011C233.124,51.001 233.348,50.141 233.498,49.451C233.758,48.151 233.824,47.281 233.694,46.851C233.992,46.801 234.347,46.711 234.758,46.601C234.738,46.981 234.702,47.401 234.646,47.881C234.59,48.361 234.506,48.881 234.394,49.441C234.207,50.301 233.974,51.221 233.694,52.191C233.414,53.161 233.078,54.211 232.686,55.331C232.536,55.711 232.364,56.171 232.168,56.731C231.977,57.277 231.754,57.928 231.501,58.664L231.454,58.721L231.482,58.721L231.501,58.664C232.505,57.463 233.272,56.582 233.806,56.031C234.74,55.041 235.654,54.341 236.55,53.911C236.886,53.761 237.194,53.691 237.474,53.691C237.884,53.691 237.969,54.111 237.726,54.951C237.632,55.191 237.566,55.391 237.53,55.551L237.446,55.901C237.222,56.961 237.068,57.901 236.984,58.711C236.9,59.521 236.904,60.231 236.998,60.821C237.24,62.521 238.118,63.651 239.63,64.211C239.723,64.231 239.807,64.251 239.882,64.261C239.956,64.271 240.04,64.281 240.134,64.281C240.376,64.281 240.664,64.201 241.001,64.051C241.301,63.921 241.531,63.838 241.681,63.801C241.681,63.857 241.741,63.865 241.851,63.828C241.944,63.809 242.005,63.795 242.035,63.787C242.033,63.779 242.028,63.775 242.021,63.775C242.062,63.775 242.066,63.778 242.035,63.787C242.038,63.801 242.034,63.827 242.021,63.865C241.391,64.445 240.571,64.735 239.561,64.735L239.546,64.67L239.266,64.67C239.191,64.67 239.106,64.66 239.013,64.642C237.503,64.12 236.568,62.84 236.213,60.806C235.972,59.485 235.99,58.202 236.267,56.954ZM201.799,56.954C201.807,56.927 201.822,56.871 201.844,56.788L202.082,55.878C202.194,55.431 202.24,55.076 202.222,54.815C201.718,54.815 200.999,55.253 200.066,56.131C198.536,57.551 197.434,58.901 196.762,60.171L196.566,60.661C196.473,60.901 196.37,61.201 196.258,61.571C196.164,61.591 196.08,61.601 196.006,61.601L195.81,61.601C195.623,61.601 195.502,61.571 195.446,61.491C195.688,60.281 196.276,58.311 197.21,55.581C197.676,54.221 198.06,53.031 198.358,52.011C198.656,51.001 198.88,50.141 199.03,49.451C199.29,48.151 199.356,47.281 199.226,46.851C199.524,46.801 199.879,46.711 200.29,46.601C200.27,46.981 200.234,47.401 200.178,47.881C200.122,48.361 200.038,48.881 199.926,49.441C199.739,50.301 199.506,51.221 199.226,52.191C198.946,53.161 198.61,54.211 198.218,55.331C198.068,55.711 197.896,56.171 197.7,56.731C197.509,57.277 197.286,57.928 197.033,58.664L196.986,58.721L197.014,58.721L197.033,58.664C198.037,57.463 198.804,56.582 199.338,56.031C200.272,55.041 201.186,54.341 202.082,53.911C202.418,53.761 202.726,53.691 203.006,53.691C203.416,53.691 203.501,54.111 203.258,54.951C203.164,55.191 203.098,55.391 203.062,55.551L202.978,55.901C202.754,56.961 202.6,57.901 202.516,58.711C202.432,59.521 202.436,60.231 202.53,60.821C202.772,62.521 203.65,63.651 205.162,64.211C205.255,64.231 205.339,64.251 205.414,64.261C205.488,64.271 205.572,64.281 205.666,64.281C205.909,64.281 206.198,64.201 206.534,64.051C206.832,63.921 207.056,63.838 207.206,63.801C207.206,63.857 207.262,63.865 207.374,63.828C207.467,63.808 207.528,63.795 207.556,63.787C207.554,63.779 207.549,63.775 207.542,63.775C207.579,63.775 207.584,63.778 207.556,63.787C207.559,63.8 207.555,63.826 207.542,63.865C206.907,64.445 206.086,64.735 205.078,64.735L205.078,64.67L204.798,64.67C204.723,64.67 204.638,64.66 204.546,64.642C203.034,64.12 202.101,62.84 201.746,60.806C201.504,59.485 201.522,58.202 201.799,56.954ZM92.718,48.85C92.158,48.16 91.131,47.814 89.638,47.814C88.742,47.814 87.808,47.964 86.838,48.262C85.531,48.654 84.794,49.196 84.626,49.886C84.514,50.371 85.036,51.08 86.194,52.014C86.716,52.444 87.258,52.882 87.818,53.329C88.378,53.769 88.928,54.249 89.47,54.749C90.104,55.329 90.548,55.879 90.8,56.399C91.052,56.919 91.13,57.399 91.038,57.829L90.954,58.219C90.674,59.429 89.946,60.449 88.77,61.269C87.63,62.029 86.437,62.419 85.186,62.419C83.898,62.419 82.61,61.949 81.322,61.019C79.847,59.989 79.24,58.879 79.502,57.679C79.652,56.969 80.09,56.609 80.818,56.609C81.116,56.609 81.443,56.709 81.798,56.919C81.742,56.949 81.672,56.999 81.588,57.039C81.504,57.079 81.406,57.139 81.294,57.219C81.126,57.139 80.949,57.099 80.762,57.099C80.444,57.099 80.258,57.249 80.202,57.549C80.052,58.199 80.267,58.849 80.846,59.509C81.276,60.009 81.826,60.419 82.498,60.739C83.45,61.189 84.438,61.409 85.466,61.409C87.743,61.409 89.162,60.399 89.722,58.379C89.834,57.969 89.806,57.549 89.638,57.129C89.47,56.709 89.143,56.289 88.658,55.879C88.396,55.669 88.075,55.429 87.692,55.139C87.309,54.849 86.875,54.479 86.39,54.029L85.298,53C84.57,52.31 84.14,51.85 84.01,51.63C83.636,51.05 83.524,50.4 83.674,49.69C83.86,48.76 84.664,48.05 86.082,47.565C86.586,47.395 87.108,47.265 87.65,47.175C88.19,47.085 88.75,47.035 89.33,47.035C91.514,47.035 92.858,47.511 93.362,48.465L92.718,48.798L92.718,48.85ZM186.627,59.713C186.627,59.808 186.607,59.901 186.571,59.993C186.431,60.703 186.021,61.253 185.371,61.643C184.771,61.981 184.111,62.149 183.381,62.149C181.811,62.149 180.691,61.599 180.021,60.519L179.741,60.039C179.821,60.059 179.881,59.999 179.941,59.869C179.961,59.829 179.971,59.779 179.971,59.729C179.971,59.669 179.981,59.619 180.001,59.559C180.021,59.519 180.061,59.469 180.121,59.419C180.201,59.579 180.311,59.799 180.461,60.059C181.211,61.009 182.301,61.489 183.741,61.489C184.811,61.489 185.421,61.069 185.591,60.249C185.741,59.569 185.351,58.989 184.421,58.499L183.461,58.019C183.081,57.829 182.631,57.609 182.111,57.339C181.251,56.869 180.821,56.299 180.821,55.649C180.821,54.909 181.381,54.329 182.501,53.899C183.341,53.559 184.171,53.389 184.991,53.389C185.891,53.389 186.501,53.569 186.841,53.949C186.671,54.149 186.481,54.289 186.281,54.369C186.001,54.139 185.541,54.029 184.911,54.029C184.371,54.029 183.751,54.139 183.061,54.369C182.161,54.649 181.701,54.999 181.661,55.429C181.601,55.739 182.141,56.179 183.261,56.739C183.601,56.919 183.941,57.089 184.301,57.239C184.656,57.389 185.011,57.549 185.366,57.739C186.266,58.199 186.711,58.749 186.711,59.359C186.691,59.449 186.681,59.559 186.681,59.669L186.627,59.713ZM143.299,59.714C143.299,59.808 143.279,59.901 143.239,59.994C143.089,60.704 142.689,61.254 142.029,61.644C141.429,61.981 140.769,62.149 140.039,62.149C138.469,62.149 137.349,61.599 136.679,60.519L136.399,60.039C136.469,60.059 136.539,59.999 136.589,59.869C136.609,59.829 136.619,59.779 136.619,59.729C136.619,59.669 136.629,59.619 136.639,59.559C136.659,59.519 136.689,59.469 136.749,59.419C136.819,59.579 136.929,59.799 137.079,60.059C137.819,61.009 138.919,61.489 140.349,61.489C141.409,61.489 142.029,61.069 142.199,60.249C142.349,59.569 141.959,58.989 141.019,58.499L140.049,58.019C139.659,57.829 139.209,57.609 138.689,57.339C137.829,56.869 137.399,56.299 137.399,55.649C137.399,54.909 137.959,54.329 139.079,53.899C139.919,53.559 140.749,53.389 141.569,53.389C142.459,53.389 143.079,53.569 143.409,53.949C143.239,54.149 143.051,54.289 142.849,54.369C142.569,54.139 142.109,54.029 141.474,54.029C140.934,54.029 140.314,54.139 139.624,54.369C138.729,54.649 138.264,54.999 138.224,55.429C138.169,55.739 138.701,56.179 139.821,56.739C140.157,56.919 140.501,57.089 140.857,57.239C141.214,57.389 141.567,57.549 141.924,57.739C142.821,58.199 143.269,58.749 143.269,59.359C143.249,59.449 143.239,59.559 143.239,59.669L143.299,59.714ZM132.409,61.8C132.309,61.81 132.219,61.814 132.129,61.814C131.099,61.814 130.659,61.17 130.809,59.882C131.009,57.942 131.489,55.178 132.239,51.594C132.439,50.624 132.619,49.807 132.779,49.144C132.939,48.482 133.069,47.974 133.179,47.618L133.569,47.478C134.019,47.478 134.269,47.506 134.329,47.562C134.289,47.749 134.229,48 134.139,48.318L133.839,49.438L133.309,51.314C133.179,51.799 133.039,52.429 132.889,53.204C132.739,53.979 132.559,54.917 132.359,56.018C132.249,56.616 132.149,57.241 132.059,57.894L131.789,59.938C131.789,60.61 132.059,60.974 132.599,61.03C132.769,61.068 132.849,61.105 132.849,61.142L132.709,61.758C132.579,61.776 132.459,61.79 132.369,61.8L132.409,61.8ZM118.953,61.758C118.281,61.758 117.861,61.618 117.693,61.338C117.713,60.984 117.763,60.493 117.847,59.868C117.931,59.242 118.077,58.472 118.281,57.558C118.681,55.728 119.011,54.515 119.291,53.918C119.521,53.823 119.701,53.776 119.851,53.776C120.001,53.776 120.121,53.833 120.221,53.944C120.071,54.299 119.941,54.747 119.821,55.288C119.701,55.83 119.571,56.465 119.421,57.192L119.031,58.984C118.811,59.992 118.741,60.571 118.841,60.72C118.971,60.757 119.111,60.84 119.261,60.972C119.221,61.347 119.131,61.607 118.981,61.758L118.953,61.758ZM164.189,61.758C163.522,61.756 163.106,61.616 162.94,61.338C162.958,60.984 163.01,60.493 163.093,59.868C163.177,59.242 163.323,58.472 163.527,57.558C163.919,55.728 164.255,54.515 164.535,53.918C164.759,53.823 164.945,53.776 165.095,53.776C165.245,53.776 165.365,53.833 165.459,53.944C165.309,54.299 165.169,54.747 165.049,55.288C164.929,55.83 164.789,56.465 164.639,57.192L164.249,58.984C164.019,59.992 163.959,60.571 164.049,60.72C164.179,60.757 164.319,60.84 164.469,60.972C164.429,61.347 164.339,61.607 164.189,61.758L164.2,61.758L164.189,61.758ZM248.289,61.758C247.628,61.755 247.215,61.615 247.048,61.338C247.068,60.984 247.118,60.493 247.202,59.868C247.286,59.242 247.432,58.472 247.637,57.558C248.029,55.728 248.365,54.515 248.645,53.918C248.869,53.823 249.055,53.776 249.205,53.776C249.355,53.776 249.475,53.833 249.569,53.944C249.419,54.299 249.279,54.747 249.159,55.288C249.039,55.83 248.899,56.465 248.749,57.192C248.619,57.79 248.489,58.387 248.349,58.984C248.119,59.992 248.059,60.571 248.149,60.72C248.279,60.757 248.419,60.84 248.569,60.972C248.529,61.347 248.429,61.607 248.289,61.758L248.31,61.758L248.289,61.758ZM135.219,61.758C134.561,61.755 134.147,61.615 133.979,61.338C133.999,60.984 134.049,60.493 134.129,59.868C134.209,59.242 134.359,58.472 134.559,57.558C134.949,55.728 135.289,54.515 135.569,53.918C135.789,53.823 135.979,53.776 136.129,53.776C136.279,53.776 136.399,53.833 136.489,53.944C136.339,54.299 136.199,54.747 136.079,55.288C135.949,55.83 135.819,56.465 135.669,57.192L135.279,58.984C135.049,59.992 134.989,60.571 135.079,60.72C135.209,60.757 135.349,60.84 135.499,60.972C135.459,61.347 135.369,61.607 135.219,61.758L135.239,61.758L135.219,61.758ZM156.514,59.63C156.354,59.78 156.144,59.947 155.884,60.134C154.634,61.104 153.522,61.627 152.552,61.701C151.469,61.821 150.704,61.591 150.256,61.031C149.77,60.441 149.64,59.611 149.864,58.571C150.144,57.231 150.806,56.031 151.852,54.991C152.992,53.851 154.204,53.311 155.492,53.371C156.63,53.431 157.116,53.791 156.948,54.461C156.836,54.991 156.07,55.811 154.652,56.931C154.017,57.441 152.766,58.041 150.9,58.721C150.9,58.931 150.923,59.171 150.97,59.451C151.016,59.731 151.077,60.051 151.152,60.401C151.45,60.891 151.945,61.121 152.636,61.101C153.289,61.071 154.129,60.751 155.156,60.151C156.22,59.541 156.798,59.231 156.892,59.231C156.798,59.361 156.672,59.501 156.514,59.651L156.514,59.63ZM108.468,59.63C108.308,59.78 108.098,59.947 107.838,60.134C106.588,61.104 105.476,61.627 104.506,61.701C103.423,61.821 102.658,61.591 102.21,61.031C101.724,60.441 101.594,59.611 101.818,58.571C102.098,57.231 102.76,56.031 103.806,54.991C104.946,53.851 106.158,53.311 107.446,53.371C108.584,53.431 109.07,53.791 108.902,54.461C108.79,54.991 108.024,55.811 106.606,56.931C105.971,57.441 104.72,58.041 102.854,58.721C102.854,58.931 102.877,59.171 102.924,59.451C102.97,59.731 103.031,60.051 103.106,60.401C103.404,60.891 103.899,61.121 104.59,61.101C105.243,61.071 106.083,60.751 107.11,60.151C108.174,59.541 108.752,59.231 108.846,59.231C108.752,59.361 108.626,59.501 108.468,59.651L108.468,59.63ZM245.803,59.63C245.643,59.78 245.435,59.947 245.173,60.134C243.923,61.104 242.813,61.627 241.841,61.701C240.761,61.821 240.001,61.591 239.551,61.031C239.071,60.441 238.941,59.611 239.161,58.571C239.441,57.231 240.101,56.031 241.151,54.991C242.291,53.851 243.511,53.311 244.791,53.371C245.931,53.431 246.421,53.791 246.251,54.461C246.141,54.991 245.371,55.811 243.961,56.931C243.331,57.441 242.081,58.041 240.211,58.721C240.211,58.931 240.231,59.171 240.281,59.451C240.331,59.731 240.391,60.051 240.461,60.401C240.761,60.891 241.261,61.121 241.951,61.101C242.611,61.071 243.451,60.751 244.471,60.151C245.541,59.541 246.121,59.231 246.211,59.231C246.121,59.361 245.991,59.501 245.841,59.651L245.803,59.63ZM116.56,59.588C116.308,59.84 115.977,60.144 115.566,60.498C115.136,60.873 114.651,61.158 114.11,61.352C113.57,61.547 112.97,61.645 112.318,61.645C110.058,61.645 109.172,60.553 109.658,58.369C109.975,56.909 110.703,55.729 111.842,54.839C112.98,53.889 114.268,53.409 115.706,53.409C116.806,53.409 117.292,53.719 117.162,54.329C117.124,54.549 117.012,54.799 116.826,55.079C116.602,55.359 116.396,55.509 116.21,55.529C116.117,55.529 116,55.529 115.86,55.539C115.72,55.549 115.548,55.559 115.342,55.579C115.772,55.259 116.014,54.969 116.07,54.709C116.144,54.369 115.864,54.169 115.23,54.119C114.577,54.059 113.896,54.269 113.186,54.729C112.532,55.159 111.991,55.669 111.562,56.259C111.132,56.849 110.842,57.519 110.694,58.269C110.582,58.829 110.572,59.369 110.666,59.889C110.796,60.609 111.422,60.979 112.542,60.979C113.4,60.979 114.156,60.759 114.81,60.329C114.884,60.289 115.01,60.199 115.188,60.059C115.365,59.919 115.612,59.729 115.93,59.479C116.284,59.199 116.695,59.019 117.162,58.949L116.56,59.549L116.56,59.588ZM194.872,59.588C194.62,59.84 194.289,60.144 193.878,60.498C193.448,60.873 192.963,61.158 192.422,61.352C191.882,61.547 191.282,61.645 190.63,61.645C188.37,61.645 187.484,60.553 187.97,58.369C188.287,56.909 189.015,55.729 190.154,54.839C191.292,53.889 192.58,53.409 194.018,53.409C195.118,53.409 195.604,53.719 195.474,54.329C195.436,54.549 195.324,54.799 195.138,55.079C194.914,55.359 194.708,55.509 194.522,55.529C194.429,55.529 194.312,55.529 194.172,55.539C194.032,55.549 193.86,55.559 193.654,55.579C194.084,55.259 194.326,54.969 194.382,54.709C194.456,54.369 194.176,54.169 193.542,54.119C192.889,54.059 192.208,54.269 191.498,54.729C190.844,55.159 190.303,55.669 189.874,56.259C189.444,56.849 189.154,57.519 189.006,58.269C188.894,58.829 188.884,59.369 188.978,59.889C189.108,60.609 189.734,60.979 190.854,60.979C191.712,60.979 192.468,60.759 193.122,60.329C193.196,60.289 193.322,60.199 193.5,60.059C193.677,59.919 193.924,59.729 194.242,59.479C194.596,59.199 195.007,59.019 195.474,58.949L194.872,59.549L194.872,59.588ZM210.034,59.825C208.671,61.151 207.337,61.748 206.03,61.617C204.65,61.449 204.135,60.487 204.49,58.733C204.677,57.856 205.087,56.969 205.722,56.073C206.375,55.177 207.122,54.553 207.962,54.197C208.764,53.861 209.679,53.703 210.706,53.721C212.068,53.741 212.61,54.461 212.33,55.881C212.012,57.301 211.247,58.621 210.034,59.831L210.034,59.825ZM218.35,59.825C216.987,61.151 215.653,61.748 214.346,61.617C212.966,61.449 212.451,60.487 212.806,58.733C212.993,57.856 213.403,56.969 214.038,56.073C214.691,55.177 215.438,54.553 216.278,54.197C217.08,53.861 217.995,53.703 219.022,53.721C220.384,53.741 220.926,54.461 220.646,55.881C220.328,57.301 219.563,58.621 218.35,59.831L218.35,59.825ZM259.09,61.422L259.06,61.506C258.874,61.543 258.734,61.562 258.64,61.562C258.34,61.562 258.1,61.45 257.913,61.226C257.669,60.796 257.669,59.396 257.913,57.026C256.661,58.706 255.327,59.948 253.909,60.751C253.049,61.241 252.369,61.511 251.889,61.571C251.029,61.671 250.719,61.141 250.959,60.001C251.109,59.311 251.389,58.611 251.799,57.901C252.209,57.191 252.769,56.481 253.479,55.771C255.059,54.131 256.739,53.231 258.519,53.081C259.169,49.721 259.749,47.711 260.249,47.031L261.339,47.011C260.659,48.231 260.079,49.951 259.569,52.191C259.509,52.451 259.459,52.731 259.399,53.021C259.339,53.311 259.289,53.611 259.259,53.911L259.119,54.501C258.839,55.791 258.669,57.881 258.609,60.781L259.249,60.951L259.049,61.461L259.09,61.422ZM128.609,61.422L128.579,61.506C128.389,61.543 128.229,61.562 128.099,61.562C127.759,61.562 127.479,61.442 127.259,61.198C127.199,60.844 127.189,60.321 127.229,59.631C127.259,58.941 127.329,58.081 127.419,57.031C126.779,57.871 126.129,58.601 125.469,59.221C124.809,59.841 124.119,60.351 123.409,60.761C122.569,61.251 121.899,61.521 121.389,61.571C120.549,61.651 120.239,61.131 120.459,60.011C120.759,58.541 121.679,57.051 123.229,55.551C124.979,53.821 126.819,53.001 128.739,53.101C128.829,53.101 128.869,53.171 128.849,53.301C128.789,53.601 128.739,53.991 128.679,54.471C128.619,54.961 128.559,55.551 128.479,56.261C128.379,57.141 128.329,57.951 128.309,58.701C128.289,59.461 128.299,60.161 128.339,60.811L128.759,60.951L128.559,61.451L128.609,61.422ZM172.7,61.469C172.314,60.801 172.383,59.287 172.907,56.929C173.167,55.619 173.299,54.919 173.299,54.809C172.809,54.809 172.099,55.239 171.169,56.119C169.559,57.569 168.459,58.909 167.859,60.139C167.749,60.339 167.579,60.809 167.349,61.529C167.249,61.549 167.169,61.559 167.099,61.559L166.899,61.559C166.689,61.559 166.559,61.519 166.509,61.449C166.599,61.039 166.729,60.529 166.889,59.929C167.049,59.319 167.229,58.619 167.429,57.819C167.629,56.999 167.809,56.289 167.969,55.679C168.129,55.069 168.249,54.569 168.349,54.159L169.409,53.909C169.449,53.979 169.429,54.169 169.349,54.459C169.309,54.639 169.239,54.929 169.129,55.309C169.019,55.689 168.869,56.179 168.679,56.769C168.579,56.969 168.489,57.229 168.409,57.529C168.319,57.839 168.209,58.199 168.059,58.629C170.069,56.119 171.769,54.519 173.149,53.829C173.479,53.679 173.789,53.599 174.069,53.599C174.349,53.599 174.499,53.689 174.519,53.879C174.369,54.469 174.189,55.129 173.999,55.859C173.799,56.579 173.619,57.389 173.449,58.289C173.319,58.919 173.269,59.419 173.309,59.789C173.339,60.159 173.439,60.399 173.589,60.509C173.699,60.509 173.799,60.469 173.889,60.399C173.979,60.319 174.059,60.289 174.139,60.289L174.139,60.429C174.139,60.479 174.129,60.559 174.109,60.649C174.089,60.719 174.069,60.799 174.049,60.879C174.031,60.959 174.003,61.049 173.969,61.139C173.602,61.357 173.176,61.467 172.7,61.469C172.713,61.491 172.726,61.513 172.74,61.533L172.689,61.469L172.7,61.469ZM227.254,61.533C226.824,60.901 226.88,59.366 227.422,56.929C227.682,55.619 227.814,54.919 227.814,54.809C227.328,54.809 226.619,55.239 225.686,56.119C224.081,57.569 222.979,58.909 222.382,60.139C222.27,60.339 222.102,60.809 221.878,61.529C221.784,61.549 221.7,61.559 221.626,61.559L221.43,61.559C221.224,61.559 221.094,61.519 221.038,61.449C221.131,61.039 221.258,60.529 221.416,59.929C221.576,59.319 221.756,58.619 221.962,57.819C222.167,56.999 222.349,56.289 222.508,55.679C222.666,55.069 222.792,54.569 222.886,54.159L223.95,53.909C223.987,53.979 223.97,54.169 223.894,54.459C223.856,54.639 223.782,54.929 223.67,55.309C223.558,55.689 223.408,56.179 223.222,56.769C223.128,56.969 223.04,57.229 222.956,57.529C222.872,57.839 222.756,58.199 222.606,58.629C224.622,56.119 226.32,54.519 227.702,53.829C228.038,53.679 228.346,53.599 228.626,53.599C228.906,53.599 229.056,53.689 229.074,53.879C228.924,54.469 228.752,55.129 228.556,55.859C228.36,56.579 228.178,57.389 228.01,58.289C227.88,58.919 227.832,59.419 227.87,59.789C227.907,60.159 228,60.399 228.15,60.509C228.262,60.509 228.364,60.469 228.458,60.399C228.551,60.319 228.635,60.289 228.71,60.289L228.71,60.429C228.71,60.479 228.7,60.559 228.682,60.649C228.662,60.719 228.644,60.799 228.626,60.879C228.606,60.959 228.579,61.049 228.542,61.139C228.168,61.359 227.739,61.469 227.254,61.469L227.254,61.533ZM96.862,55.542C95.592,56.139 94.752,56.728 94.342,57.306C94.248,57.716 94.127,58.226 93.978,58.831C93.828,59.441 93.651,60.161 93.446,61.011L94.23,60.871C95.462,60.651 96.75,60.041 98.094,59.051C99.568,57.971 100.418,56.881 100.642,55.781C100.81,55.041 100.539,54.661 99.83,54.661C99.158,54.661 98.168,54.961 96.862,55.561L96.862,55.542ZM123.339,56.325C122.229,57.502 121.549,58.687 121.289,59.882C121.179,60.497 121.269,60.834 121.569,60.89C121.979,60.87 122.709,60.517 123.749,59.826C124.699,59.211 125.359,58.688 125.729,58.259C126.809,56.949 127.509,55.489 127.829,53.889C126.169,54.049 124.659,54.869 123.319,56.319L123.339,56.325ZM253.825,56.325C252.723,57.502 252.042,58.687 251.78,59.882C251.67,60.497 251.76,60.834 252.06,60.89C252.47,60.87 253.198,60.517 254.245,59.826C255.195,59.211 255.858,58.688 256.233,58.259C257.315,56.949 258.013,55.489 258.333,53.889C256.671,54.049 255.169,54.869 253.825,56.319L253.825,56.325ZM215.494,55.43C214.56,56.27 213.982,57.25 213.758,58.37C213.608,59.023 213.636,59.583 213.842,60.05C214.066,60.59 214.486,60.862 215.102,60.862C216.259,60.862 217.398,60.116 218.518,58.622C218.835,58.192 219.101,57.768 219.316,57.349C219.53,56.929 219.684,56.519 219.778,56.129C220.02,54.929 219.545,54.339 218.35,54.359C217.155,54.389 216.203,54.749 215.494,55.419L215.494,55.43ZM207.178,55.43C206.244,56.27 205.666,57.25 205.442,58.37C205.292,59.023 205.32,59.583 205.526,60.05C205.75,60.59 206.17,60.862 206.786,60.862C207.943,60.862 209.082,60.116 210.202,58.622C210.519,58.192 210.785,57.768 211,57.349C211.214,56.929 211.368,56.519 211.462,56.129C211.704,54.929 211.229,54.339 210.034,54.359C208.839,54.389 207.887,54.749 207.178,55.419L207.178,55.43ZM241.783,55.346C241.001,56.166 240.497,57.064 240.273,58.034C240.888,57.829 241.467,57.6 242.008,57.348C242.548,57.096 243.053,56.812 243.52,56.494C243.707,56.384 243.884,56.252 244.052,56.102C244.22,55.952 244.397,55.785 244.584,55.598C245.031,55.15 245.284,54.786 245.34,54.506C245.414,54.17 245.125,54.002 244.472,54.002C243.539,54.002 242.644,54.449 241.784,55.346L241.783,55.346ZM152.496,55.346C151.712,56.166 151.208,57.064 150.984,58.034C151.6,57.829 152.178,57.6 152.72,57.348C153.26,57.096 153.765,56.812 154.232,56.494C154.419,56.384 154.596,56.252 154.764,56.102C154.932,55.952 155.109,55.785 155.296,55.598C155.744,55.15 155.996,54.786 156.052,54.506C156.126,54.17 155.837,54.002 155.184,54.002C154.25,54.002 153.354,54.449 152.496,55.346ZM104.45,55.346C103.666,56.166 103.162,57.064 102.938,58.034C103.554,57.829 104.132,57.6 104.674,57.348C105.214,57.096 105.719,56.812 106.186,56.494C106.373,56.384 106.55,56.252 106.718,56.102C106.886,55.952 107.063,55.785 107.25,55.598C107.698,55.15 107.95,54.786 108.006,54.506C108.08,54.17 107.791,54.002 107.138,54.002C106.204,54.002 105.308,54.449 104.45,55.346ZM236.267,56.954L236.27,56.942C236.259,56.982 236.259,56.986 236.267,56.954ZM201.799,56.954L201.802,56.942C201.791,56.982 201.791,56.986 201.799,56.954ZM151.277,53.945L151.279,53.944L151.223,53.991L151.277,53.945ZM121.599,49.396C121.549,49.574 121.479,49.792 121.389,50.054L121.119,50.81C121.049,50.997 121.009,51.11 120.989,51.146C120.859,51.276 120.709,51.342 120.539,51.342C120.389,51.342 120.239,51.277 120.089,51.146C120.349,49.876 120.559,49.139 120.729,48.934C120.879,48.914 120.999,48.902 121.089,48.892C121.179,48.882 121.269,48.878 121.369,48.878C121.549,48.878 121.659,48.905 121.699,48.962C121.659,49.072 121.619,49.219 121.569,49.396L121.599,49.396ZM166.845,49.396C166.798,49.574 166.728,49.792 166.635,50.054L166.369,50.81C166.299,50.997 166.259,51.11 166.239,51.146C166.109,51.276 165.959,51.342 165.789,51.342C165.639,51.342 165.489,51.277 165.339,51.146C165.599,49.876 165.809,49.139 165.979,48.934C166.129,48.914 166.249,48.902 166.339,48.892C166.429,48.882 166.519,48.878 166.619,48.878C166.799,48.878 166.919,48.905 166.949,48.962C166.909,49.072 166.869,49.219 166.819,49.396L166.845,49.396ZM250.954,49.396C250.907,49.574 250.838,49.792 250.744,50.054L250.478,50.81C250.412,50.997 250.371,51.11 250.352,51.146C250.222,51.276 250.072,51.342 249.905,51.342C249.755,51.342 249.605,51.277 249.455,51.146C249.718,49.876 249.933,49.139 250.101,48.934C250.251,48.914 250.381,48.902 250.471,48.892C250.571,48.882 250.661,48.878 250.751,48.878C250.941,48.878 251.051,48.905 251.091,48.962C251.061,49.072 251.011,49.219 250.971,49.396L250.954,49.396ZM137.879,49.396C137.829,49.574 137.759,49.792 137.669,50.054L137.399,50.81C137.329,50.997 137.289,51.11 137.269,51.146C137.139,51.276 136.989,51.342 136.819,51.342C136.669,51.342 136.519,51.277 136.369,51.146C136.629,49.876 136.839,49.139 137.009,48.934C137.159,48.914 137.279,48.902 137.369,48.892C137.459,48.882 137.559,48.878 137.649,48.878C137.839,48.878 137.949,48.905 137.979,48.962C137.939,49.072 137.899,49.219 137.849,49.396L137.879,49.396Z" style="fill-rule:nonzero;"/>
        </g>
        <g id="title" transform="matrix(1,0,0,1,265,157.5)">
            <path d="M76.654,9.466C75.246,11.942 73.816,14.672 72.366,17.658C72.366,17.83 72.152,18.256 71.726,18.938C70.274,21.67 68.824,24.912 67.374,28.666C65.922,32.422 64.6,36.646 63.406,41.338C62.21,45.86 60.91,49.87 59.502,53.37C58.094,56.868 56.664,59.854 55.214,62.33C50.946,69.326 45.358,74.702 38.446,78.458C31.962,81.956 25.434,83.706 18.862,83.706C10.414,83.706 4.954,80.676 2.478,74.618C1.028,71.204 0.644,68.004 1.326,65.018C1.838,62.628 2.99,60.878 4.782,59.77C6.574,58.49 8.622,57.85 10.926,57.85C12.036,57.85 12.718,58.106 12.974,58.618C12.634,59.13 12.206,59.641 11.694,60.153C11.354,60.067 10.842,60.026 10.158,60.026C8.11,60.026 6.83,61.133 6.318,63.354C6.062,64.634 6.062,66.381 6.318,68.602C6.83,72.526 8.708,75.469 11.95,77.434C14.682,79.309 18.266,80.249 22.702,80.249C27.396,80.249 31.876,79.089 36.142,76.789C40.408,74.399 43.95,71.109 46.766,66.929C50.606,61.119 53.762,54.549 56.238,47.219C56.92,44.999 57.816,42.229 58.926,38.899C60.034,35.569 61.358,31.649 62.894,27.119C60.59,29.849 58.754,31.999 57.39,33.579C56.024,35.159 55.042,36.159 54.446,36.589C52.824,38.209 51.032,39.099 49.07,39.279C46.424,39.449 44.974,36.629 44.718,30.829C44.632,29.629 44.654,27.649 44.782,24.879C44.91,22.109 45.102,18.499 45.358,14.059C45.698,7.569 45.4,3.779 44.462,2.669C47.022,1.989 48.686,1.769 49.454,2.029C50.222,3.139 50.35,6.379 49.838,11.759L48.558,24.809C48.216,28.139 48.28,30.609 48.75,32.229C49.218,33.849 49.922,34.569 50.862,34.399C54.53,33.889 59.266,29.579 65.07,21.469C65.154,21.299 65.688,20.399 66.67,18.779C67.65,17.159 69.08,14.769 70.958,11.609C73.09,8.029 74.626,4.909 75.566,2.269C76.846,1.929 77.912,1.759 78.766,1.759C79.96,1.759 80.686,2.099 80.942,2.779C79.49,4.739 78.062,6.959 76.654,9.429L76.654,9.466ZM106.798,12.026C105.858,14.074 104.962,16.122 104.11,18.17C103.256,20.218 102.36,22.266 101.422,24.314C99.97,27.386 98.414,30.138 96.75,32.57C95.086,35.002 93.314,37.114 91.438,38.906L88.494,38.906C86.786,37.626 85.89,35.238 85.806,31.738C85.634,30.374 85.506,28.454 85.422,25.978C85.336,23.504 85.294,20.39 85.294,16.634C85.038,8.528 85.08,4.048 85.422,3.194C85.592,3.11 85.89,3.002 86.318,2.874C86.744,2.746 87.214,2.554 87.726,2.298C88.92,1.702 89.816,1.402 90.414,1.402C90.242,4.474 90.114,7.546 90.03,10.618C89.944,13.69 89.902,16.806 89.902,19.962C90.072,28.582 90.754,33.872 91.95,35.834C93.998,33.446 96.174,29.99 98.478,25.466C100.696,21.2 102.274,17.36 103.214,13.946C104.494,9.082 106.754,4.902 109.998,1.402L114.094,1.786C112.216,2.47 109.784,5.882 106.798,12.026ZM138.413,30.458C132.183,36.518 126.081,39.246 120.109,38.65C113.789,37.882 111.439,33.488 113.069,25.466C113.919,21.456 115.799,17.402 118.699,13.306C121.679,9.21 125.099,6.352 128.939,4.73C132.609,3.194 136.789,2.47 141.479,2.554C147.709,2.64 150.179,5.926 148.899,12.41C147.439,18.896 143.949,24.912 138.399,30.458L138.413,30.458ZM125.357,10.362C121.089,14.202 118.445,18.682 117.421,23.802C116.741,26.79 116.871,29.35 117.811,31.482C118.841,33.958 120.761,35.194 123.571,35.194C128.861,35.194 134.071,31.782 139.191,24.954C140.641,22.992 141.861,21.05 142.841,19.13C143.821,17.21 144.531,15.354 144.951,13.562C146.061,8.102 143.891,5.414 138.431,5.498C132.971,5.67 128.621,7.29 125.381,10.362L125.357,10.362ZM179.117,38.266C177.153,35.376 177.409,28.36 179.885,17.22C181.079,11.268 181.677,8.038 181.677,7.528C179.457,7.528 176.215,9.526 171.949,13.522C164.609,20.154 159.569,26.276 156.839,31.888C156.329,32.824 155.559,34.95 154.529,38.266C154.099,38.352 153.719,38.394 153.379,38.394L152.479,38.394C151.539,38.394 150.939,38.224 150.679,37.884C151.109,36.014 151.679,33.698 152.409,30.934C153.129,28.17 153.959,24.96 154.899,21.302C155.839,17.562 156.669,14.31 157.389,11.546C158.109,8.782 158.689,6.466 159.119,4.594L164,3.446C164.17,3.786 164.083,4.636 163.743,5.996C163.569,6.848 163.229,8.144 162.717,9.888C162.207,11.632 161.524,13.864 160.672,16.584C160.242,17.52 159.839,18.688 159.455,20.092C159.071,21.496 158.535,23.174 157.855,25.128C167.071,13.65 174.835,6.338 181.151,3.19C182.691,2.51 184.101,2.17 185.381,2.17C186.661,2.17 187.341,2.596 187.431,3.446C186.751,6.168 185.961,9.186 185.071,12.502C184.171,15.818 183.341,19.518 182.571,23.598C181.971,26.49 181.761,28.786 181.931,30.486C182.101,32.186 182.531,33.292 183.211,33.802C183.721,33.802 184.191,33.632 184.621,33.292C185.051,32.952 185.431,32.782 185.771,32.782L185.771,33.42C185.771,33.676 185.731,34.016 185.651,34.44C185.561,34.78 185.481,35.142 185.391,35.524C185.311,35.908 185.181,36.312 185.011,36.736C183.301,37.756 181.341,38.266 179.121,38.266L179.117,38.266ZM221.1,38.266C219.135,35.376 219.39,28.36 221.867,17.22C223.061,11.268 223.659,8.038 223.659,7.528C221.439,7.528 218.189,9.526 213.929,13.522C206.589,20.154 201.549,26.276 198.819,31.888C198.309,32.824 197.539,34.95 196.509,38.266C196.079,38.352 195.699,38.394 195.359,38.394L194.459,38.394C193.519,38.394 192.919,38.224 192.669,37.884C193.089,36.014 193.669,33.698 194.399,30.934C195.119,28.17 195.949,24.96 196.889,21.302C197.829,17.562 198.659,14.31 199.379,11.546C200.099,8.782 200.679,6.466 201.109,4.594L205.969,3.446C206.139,3.786 206.049,4.636 205.709,5.996C205.539,6.848 205.199,8.144 204.689,9.888C204.179,11.632 203.489,13.864 202.639,16.584C202.209,17.52 201.799,18.688 201.419,20.092C201.039,21.496 200.499,23.174 199.819,25.128C209.029,13.65 216.799,6.338 223.109,3.19C224.639,2.51 226.049,2.17 227.329,2.17C228.609,2.17 229.289,2.596 229.379,3.446C228.689,6.168 227.899,9.186 227.009,12.502C226.109,15.818 225.279,19.518 224.509,23.598C223.909,26.49 223.689,28.786 223.869,30.486C224.039,32.186 224.459,33.292 225.149,33.802C225.659,33.802 226.129,33.632 226.549,33.292C226.969,32.952 227.359,32.782 227.699,32.782L227.699,33.42C227.699,33.676 227.649,34.016 227.569,34.44C227.479,34.78 227.399,35.142 227.309,35.524C227.224,35.908 227.099,36.312 226.929,36.736C225.229,37.756 223.259,38.266 221.049,38.266L221.1,38.266ZM266.346,29.562C265.619,30.246 264.659,31.014 263.466,31.866C257.746,36.304 252.669,38.692 248.234,39.034C243.284,39.546 239.786,38.522 237.738,35.962C235.518,33.232 234.923,29.478 235.946,24.698C237.226,18.554 240.254,13.094 245.034,8.314C250.238,3.11 255.786,0.634 261.674,0.89C266.878,1.146 269.099,2.81 268.33,5.882C267.818,8.272 264.318,12.026 257.834,17.146C254.934,19.45 249.214,22.182 240.684,25.338C240.684,26.278 240.788,27.386 241.002,28.666C241.215,29.946 241.492,31.398 241.834,33.018C243.198,35.238 245.46,36.304 248.618,36.218C251.604,36.048 255.444,34.598 260.138,31.866C265.002,29.05 267.648,27.642 268.075,27.642C267.645,28.24 267.069,28.88 266.345,29.562L266.346,29.562ZM247.978,9.978C244.394,13.734 242.09,17.83 241.066,22.266C243.882,21.328 246.526,20.282 249.002,19.13C251.477,17.978 253.78,16.678 255.914,15.226C256.767,14.714 257.578,14.118 258.347,13.434C259.115,12.752 259.925,11.984 260.779,11.13C262.819,9.082 263.979,7.418 264.229,6.138C264.569,4.602 263.249,3.834 260.259,3.834C255.989,3.834 251.889,5.882 247.969,9.978L247.978,9.978Z" style="fill-rule:nonzero;"/>
        </g>
    </g>
</svg>
