<svg xmlns="http://www.w3.org/2000/svg" version="1.1" xmlns:xlink="http://www.w3.org/1999/xlink" width="700" height="700">
    <svg xmlns="http://www.w3.org/2000/svg" viewBox="0 0 700 700">
        <style>
            @media (prefers-color-scheme: dark) {
              path { fill: #ffffff; }
            }
        </style>
        <path d="M475.8 105.7c-19 14.6-41.8 71.3-51.3 127.3-.3 1.9-1 5.3-1.5 7.5s-1.1 6.4-1.5 9.4c-.4 3-.9 6.3-1.1 7.5-.2 1.2-.6 4.1-.9 6.6-.3 2.5-.7 5.8-.9 7.5-.7 5.1-1.8 15.6-2.1 19.9-2.1 24.6-2.1 23.8-2.9 52.1-.3 12.1-.9 24.5-1.1 27.6-1.6 17.5-18.5 48.2-41.4 74.9-14.6 17-50.9 50.9-53.1 49.5-.4-.3-1.1-3-1.5-6.1-.6-5.4-.9-7.2-2-13.9-.2-1.7-.7-5.3-1-8-.3-2.8-1-7.5-1.5-10.5s-1.2-7.8-1.5-10.5c-.6-4.6-1.7-12.8-2.9-21.5-1.5-10.1-3.3-25.7-4.1-35.7-.3-3.2-.7-7.4-1-9.3-.2-1.9-.7-7.3-1-12-.3-4.7-.8-10.3-1-12.5-.2-2.2-.6-7.6-1-12-1.1-16-1.6-22.1-2-25.5-.2-1.9-.7-8-1-13.5-.4-5.5-.8-11.1-1-12.5-.2-1.4-.6-6.3-1-11-.7-9.7-1.4-18.1-2.1-26-.2-3-.7-8.9-1-13-1-14.2-1.3-19.5-1.9-27-.4-4.1-.8-9.8-1-12.5-1.3-17.2-1.7-21.8-2.6-28.5-2.5-20-5.6-31.9-9.7-38.3-1.4-2-3.2-3.7-4.2-3.7-5.1 0-9.9 11.9-13.5 33.5-3.4 20.9-3.7 25-1.9 26.6 1.1.9 2 1 3.2.2 3-1.9 5.1-6.7 8.2-19.3 4.8-19.6 4.7-19.6 6.4-2 .4 3.6.9 8.5 1.2 11 .2 2.5.6 7.2.9 10.5.3 3.3.7 8.5 1 11.5 1 11.8 1.5 17.8 2 25 .3 4.1.7 10 1 13 .3 3 .7 9.8 1 15 .3 5.2.7 13 1 17.2.6 8.2 1 15.6 2 33.3.3 6 .7 13.7 1 17 .2 3.3.7 10.5 1 16 .3 5.5.8 12.7 1 16 .2 3.3.7 10 1 15 .7 10.3 1.3 19.4 2 28 .3 3.3.7 8.7 1 12 .3 3.3.7 8.5 1 11.5.3 3 .8 7.7 1 10.5.9 9.4 1.6 17 2.1 21 .2 2.2.7 6.2 1 9 .3 2.7 1.4 11.3 2.4 19 1 7.7 1.7 14.1 1.5 14.3-.1.2-7.4-3.2-16.1-7.6-16.7-8.2-26.2-11.9-45.9-17.5-18.5-5.3-48.1-11.8-64.5-14.2-2.5-.3-5.8-.8-7.5-1.1-6.5-1.1-8.2-1.3-14.5-1.9-3.6-.4-7.4-.9-8.5-1.2-5.1-1.2-52.5-1-61.9.2-26.6 3.7-43.6 11.1-58.7 25.6C8.5 493 1.8 507.2.3 527c-1.8 24.8 9.7 43.2 35.2 55.8 7.3 3.6 23.7 9.5 29.6 10.6 1.3.2 4 .7 5.9 1.1 1.9.3 4.9.9 6.5 1.1 5.7 1 40 1.2 46.5.3 3.6-.5 8.1-1.1 10-1.3 40.1-5.4 88.7-24.6 152-60.1 14.1-7.9 18.9-10.5 19.4-10.5.4 0 2 6.7 3.2 13.6.2 1.6.9 5.6 1.5 8.9.6 3.3 1.2 7 1.4 8.3 1.9 11.5 8.7 15.9 13.8 8.9 5.3-7 5.5-12.9 1.2-29.7-3-11.8-3.6-20.1-1.7-24.5.7-1.7 4-5 7.4-7.5 20.1-14.6 35.2-29.3 49.9-48.1 9.5-12.1 16.1-22.4 23.9-37.4 3.5-6.6 6.6-12.4 7.1-12.9.4-.4 1 2.3 1.4 6 .6 6.7.8 8.7 2 18.4.3 2.5.7 6.5.9 9 .3 2.5.7 5.8 1 7.5.2 1.6.7 5.2 1.1 7.9.3 2.7.8 5.2 1 5.5.1.3.6 2.2.9 4.1 1.2 7.4 1.8 9.8 4.7 19.9 13.5 46.5 42 75.8 75.3 77.4 12.6.7 22.8-2.6 36.5-11.8 11-7.2 27.2-23.2 34.6-34 5.3-7.7 8.8-9.6 13.7-7.7.9.4 11.1 9.9 22.5 21.2 11.5 11.3 26.4 25.4 33.1 31.4 23.9 21.1 45.7 35.6 53.7 35.6 3.8 0 5.5-1.8 3.3-3.4-1.2-.9-15.7-14.1-23.2-21.1-1.2-1.1-4.6-4.2-7.6-7-30.9-27.9-70.8-67.1-72.9-71.5-3.2-6.6-4.2-4.7 27.3-51.8 11-16.3 20.1-30.6 20.4-31.8.4-2.4-4.1-6.6-6.2-5.8-1.6.6-8.1 9.3-48.9 65.1-33.3 45.5-44.7 58.9-56.8 66.5-19.8 12.7-38.4 10.4-55.4-6.6-20.7-20.7-35.5-59.7-40.3-106.1-1.4-14.2-.7-55.3 1.3-65.5.2-1.4.6-4.1.9-6 .9-7.5 3.8-17.4 10.1-35.1 10.1-28.3 22-64.3 27.9-84.4 14-48.1 19-73.8 19-97.5 0-14-.2-16-2.3-20.3-2.3-5-6.9-8.7-10.7-8.7-1.1 0-3.7 1.2-5.6 2.7Zm5.7 34.8c-.2 9.9-.5 18.9-.8 20-.3 1.1-.8 4.7-1.2 8-.3 3.3-1.3 8.9-2 12.5-.8 3.7-1.6 7.7-1.9 9-2.5 13.7-8.3 32.9-23.7 79.5-10.8 32.6-16.4 47.5-18 47.5-.4 0-.6-1.9-.4-4.3.2-2.3.7-9.6 1-16.1.8-15.4 1.8-26.7 4-43.1.2-1.7.7-5.3 1-8 .6-4.8 4.9-29.7 5.9-34.1.2-1.1 1.6-7 3.1-13 1.4-6 2.8-11.6 3-12.4.9-4.1 9.2-28.6 12.6-37.2 5.4-13.5 12.7-29.1 14.2-30 2.8-1.7 3.6 3.4 3.2 21.7Zm-332 331.9c2.2.2 7 .7 10.7 1.1 3.7.3 7.7.8 9 1 1.3.2 4.3.6 6.8.9 9.6 1.3 23.6 4 35.5 7.1 5.5 1.4 10.9 2.7 12.1 3 4.3 1 24.2 7.8 33.5 11.5 11.8 4.8 35.9 16.1 35.9 16.9 0 .4-1.7 1.5-3.7 2.6-2.1 1.1-5.8 3.2-8.3 4.6-13.2 7.9-50.3 26.7-67.5 34.1-34.9 15.3-70.4 23.9-97.4 23.8-19.2 0-31.1-1.4-47.8-5.6-39.2-9.7-55.2-29.5-46.3-57.3 7.4-22.7 26.4-37.5 55-42.6 1.9-.4 5.3-1 7.5-1.4 4.2-.9 58.1-.6 65 .3Z"></path>
    </svg>
    <style>
        @media (prefers-color-scheme: light) { :root { filter: none; } }
        @media (prefers-color-scheme: dark) { :root { filter: none; } }
    </style>
</svg>
