<svg xmlns="http://www.w3.org/2000/svg" viewBox="0 0 24 24">
  <title>Behance icon</title>
  <path d="M9.7 11.2c1.3-0.6 2-1.6 2-3.1 0-2.9-2.2-3.7-4.7-3.7l-7 0 0 14.8 7.2 0c2.7 0 5.2-1.3 5.2-4.3 0-1.9-0.9-3.2-2.7-3.7Zm-6.4-4.2l3 0c1.2 0 2.2 0.3 2.2 1.7 0 1.3-0.8 1.8-2 1.8l-3.3 0 0-3.4Zm3.5 9.7l-3.5 0 0-4.1 3.5 0c1.4 0 2.3 0.6 2.3 2.1 0 1.5-1.1 2-2.4 2Zm14.9-10l-6 0 0-1.5 6 0 0 1.5Zm2.3 7.3c0-3.2-1.8-5.8-5.2-5.8 -3.3 0-5.5 2.5-5.5 5.7 0 3.3 2.1 5.6 5.5 5.6 2.6 0 4.2-1.1 5-3.6l-2.6 0c-0.3 0.9-1.4 1.4-2.3 1.4 -1.7 0-2.6-1-2.6-2.7l7.7 0c0-0.2 0-0.4 0-0.5Zm-7.7-1.3c0.1-1.4 1-2.3 2.4-2.3 1.5 0 2.2 0.9 2.3 2.3l-4.8 0Z"/>
</svg>
