<svg xmlns="http://www.w3.org/2000/svg" viewBox="0 0 24 24">
  <title>Github icon</title>
  <path d="M8 19.3c0 0.1-0.1 0.2-0.3 0.2 -0.2 0-0.3-0.1-0.3-0.2 0-0.1 0.1-0.2 0.3-0.2 0.1 0 0.3 0.1 0.3 0.2Zm-1.5-0.2c0 0.1 0.1 0.2 0.2 0.2 0.1 0 0.3 0 0.3-0.1 0-0.1-0.1-0.2-0.2-0.3 -0.1 0-0.3 0-0.3 0.1Zm2.1-0.1c-0.1 0-0.2 0.1-0.2 0.2 0 0.1 0.1 0.2 0.3 0.1 0.1 0 0.2-0.1 0.2-0.2 0-0.1-0.1-0.2-0.3-0.1Zm3.2-19c-6.7 0-11.8 5.2-11.8 12.1 0 5.5 3.4 10.2 8.2 11.9 0.6 0.1 0.8-0.3 0.8-0.6 0-0.3 0-2 0-3 0 0-3.4 0.7-4.1-1.5 0 0-0.6-1.4-1.3-1.8 0 0-1.1-0.8 0.1-0.8 0 0 1.2 0.1 1.9 1.3 1.1 1.9 2.8 1.4 3.5 1 0.1-0.8 0.4-1.3 0.8-1.7 -2.7-0.3-5.4-0.7-5.4-5.5 0-1.4 0.4-2 1.1-2.9 -0.1-0.3-0.5-1.7 0.1-3.4 1-0.3 3.3 1.3 3.3 1.3 1-0.3 2-0.4 3-0.4 1 0 2.1 0.1 3 0.4 0 0 2.3-1.7 3.3-1.3 0.7 1.7 0.3 3 0.1 3.4 0.8 0.9 1.2 1.6 1.2 2.9 0 4.8-2.8 5.2-5.6 5.5 0.4 0.4 0.8 1.1 0.8 2.3 0 1.7 0 3.7 0 4.1 0 0.3 0.2 0.7 0.8 0.6 4.8-1.6 8.1-6.4 8.1-11.9 0-6.9-5.4-12.1-12.2-12.1Zm-7.1 17.1c-0.1 0.1 0 0.2 0 0.3 0.1 0.1 0.2 0.1 0.3 0.1 0.1 0 0-0.2 0-0.3 -0.1-0.1-0.2-0.1-0.3 0Zm-0.5-0.4c0 0.1 0 0.1 0.1 0.2 0.1 0.1 0.2 0 0.2 0 0-0.1 0-0.1-0.1-0.2 -0.1 0-0.2 0-0.2 0Zm1.6 1.8c-0.1 0.1 0 0.2 0.1 0.3 0.1 0.1 0.3 0.1 0.3 0 0.1-0.1 0-0.2-0.1-0.3 -0.1-0.1-0.3-0.1-0.3 0Zm-0.6-0.7c-0.1 0-0.1 0.2 0 0.3 0.1 0.1 0.2 0.2 0.3 0.1 0.1-0.1 0.1-0.2 0-0.3 -0.1-0.1-0.2-0.2-0.3-0.1Z"/>
</svg>
