<svg xmlns="http://www.w3.org/2000/svg" viewBox="0 0 500 500">
  <title>Hans is coding</title>
  <path d="M250.5 429.9c-99.3 0-180-80.7-180-180 0-99.3 80.7-180 180-180 99.3 0 180 80.7 180 180 0 99.2-80.7 180-180 180Zm0-354.4c-96.1 0-174.3 78.2-174.3 174.3 0 96.1 78.2 174.3 174.3 174.3 96.1 0 174.3-78.2 174.3-174.3 0.1-96.1-78.1-174.3-174.3-174.3ZM330.3 332.1c-0.6 0-1.3-0.2-1.8-0.7l-159.5-159.5c-1-1-1-2.6 0-3.6 1-1 2.6-1 3.6 0l159.5 159.5c1 1 1 2.6 0 3.6 -0.5 0.5-1.2 0.7-1.8 0.7ZM170.8 332.1c-0.6 0-1.3-0.2-1.8-0.7 -1-1-1-2.6 0-3.6l159.5-159.5c1-1 2.6-1 3.6 0 1 1 1 2.6 0 3.6l-159.5 159.5c-0.5 0.5-1.2 0.7-1.8 0.7Z" fill="#333"/>
  <path d="M358.1 259.1l0-26.7c0-0.4-0.1-0.7-0.5-0.9 -5.7-3.5-11.5-7.1-17.2-10.7 -0.4-0.2-0.6-0.3-1 0 -5.8 3.6-11.5 7.2-17.3 10.8 -0.4 0.2-0.4 0.5-0.4 0.9l0 26.7c-0.2-0.1-0.4-0.2-0.5-0.3 -1.9-1.1-3.8-2.2-5.7-3.4 -0.3-0.2-0.4-0.4-0.4-0.7l0-26.3c0-0.3 0.1-0.5 0.4-0.7 8-5 16-9.9 24-14.9 0.3-0.2 0.5-0.2 0.8 0 8 5 16 9.9 24 14.8 0.3 0.2 0.4 0.4 0.4 0.7l0 26.2c0 0.2-0.1 0.5-0.3 0.7 -1.9 1.2-3.9 2.3-5.9 3.5 -0.1 0.2-0.2 0.3-0.4 0.3ZM335.9 230.6l0 30.8c0 0.5 0.1 0.8 0.6 1.1 1 0.5 2 1.1 3 1.7 0.3 0.2 0.5 0.2 0.8 0 1-0.6 2-1.2 3.1-1.8 0.4-0.2 0.5-0.5 0.5-0.9l0-30.9c0.2 0.1 0.3 0.1 0.4 0.2 2.2 1.3 4.4 2.7 6.7 4 0.3 0.2 0.4 0.4 0.4 0.8l0 27.4c0 0.4-0.1 0.6-0.4 0.8 -3.6 2.2-7.1 4.4-10.7 6.7 -0.3 0.2-0.5 0.2-0.8 0 -3.6-2.2-7.1-4.5-10.7-6.7 -0.3-0.2-0.4-0.4-0.4-0.7l0-27.4c0-0.2 0.1-0.6 0.3-0.7l6.9-4.2c0.1-0.1 0.2-0.1 0.3-0.2Zm-159.2-7c-3.6-0.2-6.3 1.7-7 4.9 -0.5 2.4 0.3 4.4 2.3 5.8 2.4 1.6 3.3 3.9 3.9 6.5 0.4 2 0 3.9-0.9 5.7 -1.7 3.7-3.4 7.3-5.2 10.9 0 0.1-0.1 0.1-0.2 0.2 -0.6-1.9-1.1-3.8-1.6-5.6 -1.4-4.9-2.9-9.8-4.3-14.7 -0.3-1-0.3-2.1-0.2-3.1 0.1-1.1 0.9-1.7 2-1.7l2.2 0 0-2c0-0.4-0.3-0.3-0.5-0.3l-14.6 0c-0.4 0-0.6 0.1-0.6 0.6l0 1.7c1.4 0.2 2.1 1.2 2.5 2.3 1.1 3 2.1 5.9 3.1 8.9 0.3 0.8 0.5 1.6 0.7 2.4 0 0.2 0.1 0.4 0 0.6 -1.5 3.6-3.1 7.1-4.6 10.6 0 0.1-0.1 0.1-0.2 0.3 -0.3-1.1-0.5-2.1-0.8-3.2l-4.5-18.9c-0.2-1-0.1-1.9 0.7-2.6 0.2-0.2 0.4-0.3 0.7-0.4l0-2.2 -13.3 0c3.4-6.1 8.3-10.1 14.8-12.2 9.6-2.8 17.9-0.8 25.6 5.5ZM149.5 267c-2.5-1.1-4.6-2.4-6.6-4 -5.2-4.4-8.3-9.9-9.1-16.7 -0.6-4.4-0.1-8.7 1.5-12.9 0.2-0.5 0.5-0.7 1-0.7 1.2 0 2.1 0.4 2.9 1.3 0.2 0.2 0.4 0.5 0.5 0.8 3.2 10.6 6.5 21.2 9.7 31.8 0 0 0 0.1 0.1 0.4Zm20.9 0c0.8-1.8 1.5-3.4 2.2-5.1 3.2-7.6 6.4-15.2 8.9-23.1 0.9-2.7 1.2-5.4 0.8-8.2l0-0.2c7 11.4 3.6 29.5-11.9 36.6Zm-16.9 1.6c2.2-5.5 4.4-10.8 6.7-16.3 2 5.5 3.9 10.8 5.8 16.3 -4.2 1-8.3 1-12.5 0Z" fill="#333"/>
  <path d="M234.6 165.9l-0.9-0.9c-2.9-2.9-3.8-7.1-2.7-10.8 -2.9-0.7-5.1-3.3-5.1-6.4 0-3.6 2.9-6.5 6.5-6.5 3.3 0 6 2.4 6.5 5.5 3.5-0.8 7.4 0.1 10.1 2.9l0.4 0.4 -4.8 4.8 -0.4-0.4c-1.6-1.6-4.1-1.6-5.7 0 -1.6 1.6-1.6 4.1 0 5.7l10.8 10.8 -4.8 4.8 -5.1-5.1 -4.8-4.8ZM240 160.5l5.1-5.1 4.8-4.8 0.9-0.9c2.9-2.9 7-3.8 10.7-2.7 0.4-3.2 3.2-5.6 6.5-5.6 3.6 0 6.5 2.9 6.5 6.5 0 3.3-2.5 6.1-5.7 6.5 1.1 3.7 0.1 7.8-2.8 10.7l-0.4 0.4 -4.8-4.8 0.4-0.4c1.6-1.6 1.6-4.1 0-5.7 -1.6-1.6-4.1-1.6-5.7 0l-0.9 0.9 -4.8 4.8 -5.1 5.1 -4.7-4.9ZM261.8 184.8c-3.7 1.1-7.9 0.2-10.9-2.7l-0.4-0.4 4.8-4.8 0.4 0.4c1.6 1.6 4.1 1.6 5.7 0 1.6-1.6 1.6-4.1 0-5.7l-0.9-0.9 -4.8-4.8 -5.1-5.1 4.8-4.8 10.8 10.8c2.8 2.8 3.7 6.7 2.9 10.2 3.2 0.4 5.6 3.2 5.6 6.5 0 3.6-2.9 6.5-6.5 6.5 -3.2 0.1-5.8-2.2-6.4-5.2ZM259.9 171.3l-5.1 5.1 -4.8 4.8 -0.9 0.9c-2.8 2.8-6.7 3.7-10.3 2.8 -0.7 2.9-3.3 5.1-6.4 5.1 -3.6 0-6.6-2.9-6.5-6.5 0-3.1 2.1-5.7 5-6.4 -0.9-3.6 0-7.5 2.8-10.4l0.4-0.4 4.8 4.8 -0.4 0.4c-1.6 1.6-1.6 4.1 0 5.7 1.6 1.6 4.1 1.6 5.7 0l0.9-0.9 4.8-4.8 5.1-5.1 4.9 4.9Zm12.2 151c0-3.4 2.1-6 5.2-7.9 -0.6-1.9-1.3-3.7-2.2-5.4 -3.5 0.9-6.3-0.5-8.7-2.8 -2.4-2.4-3.1-5.2-2.2-8.7 -1.7-0.9-3.5-1.7-5.4-2.2 -1.8 3.1-5.1 5.2-8.5 5.2 -3.4 0-6.7-2.1-8.5-5.2 -1.9 0.6-3.7 1.3-5.4 2.2 0.9 3.5 0.2 6.3-2.2 8.7 -2.4 2.4-5.2 3.8-8.7 2.8 -0.9 1.7-1.7 3.5-2.2 5.4 3.1 1.8 5.2 4.5 5.2 7.9 0 3.4-2.1 6.7-5.2 8.5 0.6 1.9 1.3 3.7 2.2 5.4 3.5-0.9 6.3-0.2 8.7 2.2 2.4 2.4 3.1 5.2 2.2 8.7 1.7 0.9 3.5 1.7 5.4 2.2 1.8-3.1 5.1-5.2 8.5-5.2 3.4 0 6.7 2.1 8.5 5.2 1.9-0.6 3.7-1.3 5.4-2.2 -0.9-3.5-0.2-6.3 2.2-8.7 2.4-2.4 5.2-3.8 8.7-2.8 0.9-1.7 1.7-3.5 2.2-5.4 -3.1-1.9-5.2-4.6-5.2-7.9Zm-21.9 11.7c-6.5 0-11.8-5.3-11.8-11.8 0-6.5 5.3-11.8 11.8-11.8 6.5 0 11.8 5.3 11.8 11.8 0 6.5-5.3 11.8-11.8 11.8Z" fill="#333"/>
  <path d="M250.5 387.9c-76.1 0-138.1-61.9-138.1-138.1 0-76.2 61.9-138.1 138.1-138.1 76.1 0 138.1 61.9 138.1 138.1 0 76.2-61.9 138.1-138.1 138.1Zm0-273.2c-74.5 0-135.1 60.6-135.1 135.1 0 74.5 60.6 135.1 135.1 135.1 74.5 0 135.1-60.6 135.1-135.1 0.1-74.4-60.6-135.1-135.1-135.1Z" fill="#fefff7"/>
  <path d="M250.5 382.7c-73.2 0-132.8-59.6-132.8-132.8 0-73.2 59.6-132.9 132.8-132.9 73.2 0 132.8 59.6 132.8 132.8 0 73.2-59.5 132.9-132.8 132.9Zm0-262.7c-71.6 0-129.8 58.2-129.8 129.8 0 71.6 58.2 129.8 129.8 129.8 71.6 0 129.8-58.2 129.8-129.8 0-71.6-58.2-129.8-129.8-129.8Z" fill="#fce889"/>
  <path d="M123.4 147.2l2.6 1.9 -4.5 6.1 2.8 2.1 4.3-5.8 2.6 1.9 -4.3 5.8 5.1 3.8 -2.2 2.9 -13.1-9.8 6.7-8.9Zm15.8-9.4c1.9 1.8 2.5 3.7 1.6 5.7l7.1 0.9 -3 3.3 -6.3-0.9 -1.7 1.9 3.8 3.5 -2.5 2.7 -12-11.1 4.2-4.5c1.7-1.9 3.3-2.9 4.6-3.1 1.4-0.2 2.8 0.3 4.2 1.6Zm-1.6 4.5c0-0.6-0.3-1.2-1-1.8 -0.6-0.6-1.2-0.8-1.8-0.7 -0.6 0.1-1.2 0.6-2 1.5l-1.9 2 3.6 3.3 1.8-2c0.9-0.9 1.3-1.7 1.3-2.3Zm20.8-9.9c-0.2 2.3-1.2 4.2-3.1 5.8 -1.8 1.6-3.9 2.3-6.2 2.1 -2.3-0.2-4.2-1.1-5.8-3 -1.6-1.9-2.2-3.9-2-6.2 0.2-2.3 1.2-4.2 3.1-5.8 1.8-1.6 3.9-2.3 6.2-2.1 2.3 0.2 4.2 1.1 5.8 3 1.5 1.8 2.2 3.9 2 6.2Zm-4.9-3.8c-0.9-1.1-2.1-1.7-3.5-1.9 -1.4-0.2-2.6 0.2-3.6 1.1 -1 0.9-1.6 2-1.6 3.4 0 1.4 0.4 2.6 1.4 3.7 0.9 1.1 2.1 1.7 3.5 1.9 1.4 0.2 2.6-0.2 3.6-1.1 1-0.9 1.6-2 1.6-3.4 0-1.4-0.4-2.6-1.4-3.7Zm11-17.6l3-2 8.9 13.7 -3 2 -12.1-4.3 5.6 8.6 -3 2 -8.9-13.7 2.9-1.9 12.5 4.4 -5.9-8.8Zm15.4-4.9l6 11.8 -3.3 1.6 -6-11.8 -4.1 2.1 -1.4-2.8 11.5-5.8 1.4 2.8 -4.1 2.1Zm8.6 4.4l-1.2-2.9 7.7-3.2 1.2 2.9 -7.7 3.2Zm19.1-18.3l1 3.1 -7.8 2.4 1 3.2 7-2.2 0.9 3 -7 2.2 1 3.2 8-2.5 1 3.1 -11.5 3.6 -4.9-15.6 11.3-3.5Zm16-3.5l3.6-0.7 3.1 16 -3.6 0.7 -9.6-8.6 1.9 10.1 -3.6 0.7 -3.1-16 3.4-0.6 9.8 8.8 -1.9-10.4Zm21.7 0c1.6 1.3 2.6 3.2 2.7 5.8 0.1 2.6-0.5 4.6-1.9 6.2 -1.4 1.6-3.7 2.5-6.8 2.7l-5.6 0.4 -1.1-16.3 5.8-0.4c3-0.3 5.3 0.3 6.9 1.6Zm-2 9.9c0.8-0.9 1.2-2.1 1.1-3.7 -0.1-1.6-0.6-2.8-1.6-3.6 -1-0.8-2.4-1.1-4.2-1l-2 0.1 0.7 9.9 2.3-0.2c1.6-0.1 2.8-0.6 3.7-1.5Zm27.7-8.7c1.4 1.6 2 3.6 1.8 6.1 -0.2 2.5-1.2 4.5-2.8 5.8 -1.6 1.3-4 1.9-7.1 1.6l-5.6-0.5 1.5-16.3 5.7 0.5c2.9 0.3 5.1 1.3 6.5 2.8Zm-3.5 9.4c1-0.8 1.5-1.9 1.7-3.5 0.1-1.6-0.2-2.9-1-3.8 -0.8-0.9-2.1-1.5-4-1.7l-2-0.2 -0.9 9.9 2.3 0.2c1.6 0.2 2.9-0.1 3.9-0.9Zm22-8.2l-0.7 3.2 -8-1.6 -0.7 3.3 7.2 1.5 -0.6 3 -7.2-1.5 -0.7 3.3 8.2 1.7 -0.6 3.2 -11.8-2.4 3.3-16 11.6 2.3Zm7.3 13l7.1-8.7 3.8 1.2 -11.2 13.6 -2.9-0.9 -1.3-17.6 3.8 1.2 0.7 11.2Zm24.6-1.5l-1.3 3 -7.5-3.3 -1.3 3.1 6.7 2.9 -1.2 2.8 -6.7-2.9 -1.4 3.1 7.7 3.4 -1.3 3 -11-4.8 6.5-15 10.8 4.7Zm-3.7 16.4l7.9-14.3 3.2 1.8 -6.3 11.4 6.1 3.4 -1.6 2.8 -9.3-5.1Zm23.4 12.1c-2.3 0.4-4.4-0.1-6.4-1.5 -2-1.4-3.2-3.2-3.6-5.5 -0.4-2.3 0-4.4 1.4-6.3 1.4-2 3.2-3.1 5.5-3.5 2.3-0.4 4.4 0.1 6.4 1.5 2 1.4 3.2 3.2 3.6 5.5 0.4 2.3 0 4.4-1.4 6.3 -1.4 2-3.2 3.1-5.5 3.5Zm2.4-5.6c0.8-1.2 1.2-2.5 1-3.9 -0.2-1.4-0.8-2.5-1.9-3.2 -1.1-0.8-2.4-1-3.7-0.7 -1.3 0.3-2.5 1.1-3.3 2.2 -0.8 1.2-1.2 2.5-1 3.8 0.2 1.4 0.8 2.4 1.9 3.2 1.1 0.8 2.3 1 3.7 0.7 1.4-0.2 2.5-0.9 3.3-2.1Zm18.6 7c0.2 1.5-0.4 3-1.7 4.5 -1.3 1.5-2.8 2.2-4.3 2.1 -1.5-0.1-3.2-0.9-5-2.5l-1.6-1.4 -3 3.4 -2.7-2.4 10.9-12.2 4.3 3.8c1.8 1.6 2.9 3.2 3.1 4.7Zm-6.3 3c0.7-0.1 1.3-0.5 1.9-1.2 0.6-0.7 0.9-1.4 0.7-2.1 -0.2-0.7-0.7-1.4-1.6-2.2l-1.6-1.4 -3.7 4.1 1.8 1.6c1.1 0.9 1.9 1.3 2.5 1.2Zm19.3 8.7l-2.4 2.2 -5.5-6 -2.5 2.3 4.9 5.4 -2.3 2.1 -4.9-5.4 -2.4 2.2 5.7 6.2 -2.4 2.2 -8.1-8.9 12-11 7.9 8.7Zm6.6 17.6c-2.1 1.6-4.1 1.7-5.9 0.5l-2.3 6.8 -2.7-3.6 2-6 -1.5-2 -4.2 3.1 -2.2-2.9 13.2-9.7 3.7 5c1.5 2 2.2 3.8 2.2 5.1 0 1.3-0.7 2.6-2.3 3.7Zm-4.1-2.4c0.6 0.1 1.2-0.1 2-0.6 0.7-0.5 1.1-1.1 1-1.6 -0.1-0.5-0.4-1.3-1.1-2.3l-1.6-2.2 -3.9 2.9 1.6 2.1c0.7 1 1.4 1.6 2 1.7Z" fill="#333"/>
  <path d="M94.4 233.7c0.8-0.6 1.7-0.9 2.6-0.8 1 0.1 1.8 0.5 2.4 1.3 0.6 0.8 0.9 1.7 0.8 2.6 -0.1 1-0.5 1.8-1.3 2.4 -0.8 0.6-1.7 0.9-2.6 0.8 -1-0.1-1.8-0.5-2.4-1.3 -0.6-0.8-0.9-1.7-0.8-2.6 0.1-1 0.5-1.8 1.3-2.4Z" fill="#fff"/>
  <path d="M102.2 252l3.5-0.1 0.2 9.4 -11.8 0.3c-2.2 0-3.8-0.5-4.9-1.6 -1.1-1.1-1.7-2.5-1.7-4.3 0-2.2 0.7-4.1 2.4-5.8l2.9 2c-1.1 1.1-1.7 2.3-1.7 3.5 0 0.6 0.2 1.1 0.7 1.4 0.4 0.4 1.1 0.6 2 0.6l8.5-0.2 -0.1-5.2Zm-9.6 30.1c-2-1.6-3.2-3.7-3.6-6.3 -0.4-2.6 0.2-5 1.7-7.1 1.5-2.1 3.6-3.3 6.2-3.6 2.6-0.4 5 0.2 7 1.8 2 1.6 3.2 3.7 3.6 6.3 0.4 2.6-0.2 5-1.7 7.1 -1.5 2.1-3.6 3.3-6.2 3.6 -2.6 0.4-5-0.2-7-1.8Zm6.4-2.3c1.6-0.2 2.9-0.9 3.9-2.1 1-1.2 1.4-2.5 1.2-4 -0.2-1.5-1-2.7-2.2-3.5 -1.3-0.9-2.7-1.2-4.3-1 -1.6 0.2-2.9 0.9-3.9 2.1 -1 1.2-1.4 2.5-1.1 4 0.2 1.5 0.9 2.7 2.2 3.5 1.2 0.9 2.6 1.2 4.2 1Zm-0.7 24.2c-2.2-1.3-3.7-3.2-4.5-5.8 -0.7-2.6-0.5-5 0.7-7.2 1.2-2.2 3.1-3.8 5.6-4.5 2.6-0.7 4.9-0.5 7.2 0.8 2.2 1.3 3.7 3.2 4.5 5.8 0.7 2.6 0.5 5-0.7 7.2 -1.2 2.2-3.1 3.8-5.6 4.5 -2.6 0.7-5 0.5-7.2-0.8Zm6-3.2c1.6-0.4 2.7-1.3 3.5-2.6 0.8-1.3 1-2.7 0.6-4.1 -0.4-1.5-1.3-2.5-2.7-3.2 -1.4-0.7-2.9-0.8-4.4-0.3 -1.6 0.4-2.7 1.3-3.5 2.6 -0.8 1.3-1 2.7-0.6 4.1 0.4 1.5 1.3 2.5 2.7 3.2 1.4 0.7 2.8 0.8 4.4 0.3Zm11.3 21.3l-11-0.3 -1-2.2 6.9-8.6 -10.3 4.8 -1.7-3.7 16.4-7.6 2.3 5 -7.1 8.4 11 0.1 2.3 4.9 -16.4 7.6 -1.7-3.7 10.3-4.7Zm-5.6 13.5l15.3-9.7 2.2 3.4 -12.3 7.8 4.1 6.5 -3 1.9 -6.3-9.9Zm16.8 23.4l2-3.8 -4.8-5.9 -4.1 1.1 -2.7-3.4 19-5.2 2.4 3.1 -9.2 17.4 -2.6-3.3Zm6.5-12.2l-5.5 1.5 2.8 3.5 2.7-5Zm-1 17.5c0-0.6 0.2-1.2 0.7-1.6 0.5-0.4 1-0.7 1.6-0.6 0.6 0 1.2 0.2 1.6 0.7 0.4 0.5 0.7 1 0.6 1.6 0 0.6-0.2 1.2-0.7 1.6 -0.5 0.4-1 0.7-1.6 0.6 -0.6 0-1.2-0.2-1.6-0.7 -0.4-0.4-0.6-0.9-0.6-1.6Zm12.3-12.7l3.2 3.3 -2.3 2.2 -7.3 5.9 -2.1-2.2 6.2-7 2.3-2.2Z" fill="#333"/>
  <path d="M147.8 372c-0.1-1 0.2-1.9 0.8-2.6 0.6-0.8 1.5-1.2 2.4-1.3 1-0.1 1.9 0.2 2.6 0.8 0.8 0.6 1.2 1.5 1.3 2.4 0.1 0.9-0.2 1.9-0.8 2.6 -0.6 0.7-1.5 1.2-2.4 1.3 -1 0.1-1.9-0.2-2.6-0.8 -0.8-0.6-1.2-1.4-1.3-2.4Z" fill="#fff"/>
  <path d="M179 386.6l-9.2 6 -2.1-1.2 0.8-11 -5.8 9.8 -3.5-2.1 9.2-15.6 4.7 2.8 -1 10.9 9.1-6.2 4.7 2.8 -9.2 15.6 -3.5-2.1 5.8-9.7Zm15.1 19.3l-0.1-4.3 -7-2.9 -3 3 -4-1.6 14.1-13.8 3.6 1.5 0.4 19.7 -4-1.6Zm-0.2-13.9l-4.1 4 4.2 1.7 -0.1-5.7Zm21.4 10.6l3.9 1 -1.6 6.2c-2.2 1.5-4.9 1.8-8 1 -2.6-0.7-4.5-2.1-5.8-4.3 -1.3-2.2-1.6-4.5-0.9-7.1 0.7-2.6 2.1-4.5 4.4-5.8 2.2-1.3 4.6-1.6 7.1-0.9 2.5 0.7 4.5 2.1 5.9 4.2l-2.8 2.4c-0.6-0.9-1.2-1.6-1.8-2 -0.6-0.4-1.3-0.8-2-1 -1.5-0.4-2.9-0.2-4.2 0.5 -1.3 0.7-2.1 1.9-2.6 3.6 -0.5 1.7-0.3 3.1 0.4 4.4 0.7 1.3 1.7 2.1 3.1 2.4 1.4 0.3 2.5 0.4 3.6 0.1l1.3-4.7Zm21.8-5.4l-0.5 3.6 -8.9-1.2 -0.5 3.7 8 1.1 -0.5 3.4 -8-1.1 -0.5 3.7 9.2 1.3 -0.5 3.5 -13.2-1.8 2.5-17.9 12.9 1.7Zm15.7 0.5l4 0.1 -0.3 18.1 -4-0.1 -8.4-11.5 -0.2 11.3 -4-0.1 0.3-18.1 3.8 0.1 8.7 11.8 0.1-11.6Zm15.7 2.4l1.6 14.5 -4 0.4 -1.6-14.5 -5.1 0.5 -0.4-3.5 14.2-1.5 0.4 3.5 -5.1 0.6Zm24.7 7.6c-1.4 2.2-3.4 3.5-6 4.1 -2.6 0.6-5 0.2-7.2-1.1 -2.2-1.3-3.6-3.3-4.2-5.9 -0.6-2.6-0.2-5 1.2-7.1 1.4-2.2 3.4-3.5 6-4.1 2.6-0.6 5-0.2 7.2 1.1 2.2 1.3 3.6 3.3 4.2 5.9 0.6 2.6 0.2 5-1.2 7.1Zm-2.8-6.2c-0.4-1.6-1.2-2.8-2.4-3.7 -1.2-0.9-2.6-1.1-4.1-0.8 -1.5 0.3-2.6 1.2-3.3 2.5 -0.8 1.3-1 2.8-0.6 4.4 0.4 1.6 1.2 2.8 2.4 3.7 1.3 0.9 2.6 1.1 4.1 0.8 1.5-0.3 2.6-1.2 3.3-2.5 0.7-1.3 0.9-2.8 0.6-4.4Z" fill="#333"/>
  <path d="M306.5 399.9c-0.9-0.4-1.6-1-1.9-2 -0.3-1-0.4-1.9 0-2.8 0.4-0.9 1.1-1.5 2-1.9 0.9-0.4 1.9-0.4 2.8 0 0.9 0.4 1.5 1.1 1.9 2 0.4 0.9 0.4 1.8 0 2.8 -0.4 0.9-1.1 1.5-2 1.9 -1 0.4-1.9 0.4-2.8 0Z" fill="#fff"/>
  <path d="M327 388.1l-2.7-10.6 3.6-2.2 8.2 7.2 -2.4-10.8 3.7-2.3 4.1 18.7 -2.6 1.6 -10-8.7 3.2 12.8 -2.6 1.6 -14.9-12.1 3.7-2.3 8.7 7.1Zm32.6-17.4c-0.2 2.5-1.4 4.7-3.4 6.4 -2 1.7-4.3 2.5-6.9 2.3 -2.6-0.2-4.7-1.3-6.4-3.3 -1.7-2-2.5-4.3-2.2-6.9 0.2-2.5 1.4-4.7 3.4-6.4 2-1.7 4.3-2.5 6.9-2.3 2.6 0.2 4.7 1.3 6.4 3.3 1.7 2.1 2.4 4.4 2.2 6.9Zm-5.3-4.2c-1-1.2-2.3-1.9-3.9-2.1 -1.5-0.2-2.9 0.2-4 1.2 -1.1 1-1.8 2.2-1.8 3.8 -0.1 1.5 0.4 2.9 1.5 4.2 1 1.2 2.3 1.9 3.9 2.1 1.5 0.2 2.9-0.2 4-1.2 1.2-1 1.8-2.2 1.8-3.8 0-1.6-0.5-2.9-1.5-4.2Zm13.3-18.2c2.2 1.9 2.8 4.1 1.9 6.3l7.9 0.9 -3.3 3.7 -7-0.9 -1.9 2.1 4.3 3.9 -2.7 3 -13.4-12.1 4.6-5.1c1.9-2.1 3.6-3.3 5.1-3.5 1.5-0.2 2.9 0.3 4.5 1.7Zm-1.7 5c0-0.7-0.4-1.3-1.1-2 -0.7-0.7-1.4-0.9-2-0.8 -0.6 0.1-1.4 0.7-2.2 1.7l-2 2.3 4 3.6 2-2.2c0.9-1 1.3-1.9 1.3-2.6Zm9.1-21.6c2.3-0.5 4.6 0 6.9 1.6 2.3 1.6 3.7 3.6 4.1 5.9 0.4 2.3-0.4 4.9-2.4 7.7l-3.5 5.1 -14.9-10.3 3.6-5.3c1.9-2.6 3.9-4.2 6.2-4.7Zm7.2 8.6c-0.2-1.3-1-2.5-2.5-3.5 -1.5-1-2.9-1.4-4.2-1.1 -1.4 0.3-2.6 1.2-3.8 2.9l-1.3 1.9 9 6.3 1.5-2.1c1-1.6 1.5-3.1 1.3-4.4Zm0.8-24.7c1.5-0.6 3.3-0.4 5.3 0.6 2 1 3.1 2.4 3.4 4 0.3 1.6-0.2 3.6-1.4 6l-1.1 2.1 4.5 2.3 -1.9 3.6 -16-8.4 3-5.7c1.3-2.3 2.7-3.9 4.2-4.5Zm5 5.9c-0.3-0.7-0.8-1.3-1.8-1.8 -0.9-0.5-1.7-0.6-2.4-0.2 -0.7 0.4-1.3 1.1-2 2.3l-1.1 2 5.4 2.8 1.3-2.4c0.6-1 0.8-2 0.6-2.7Zm6.3-22.1c2.7 1 4.1 2.8 4 5.2l7.7-2 -1.8 4.7 -6.8 1.7 -1 2.6 5.4 2.1 -1.4 3.8 -16.9-6.4 2.4-6.4c1-2.6 2.2-4.3 3.5-5.1 1.3-0.8 2.9-1 4.9-0.2Zm0.3 5.3c-0.2-0.6-0.8-1.1-1.7-1.5 -0.9-0.3-1.6-0.3-2.2 0 -0.5 0.4-1 1.1-1.5 2.4l-1.1 2.8 5 1.9 1-2.8c0.6-1.2 0.7-2.2 0.5-2.8Zm-1.9-23.3l3.5 0.9 -2.2 8.7 3.6 0.9 2-7.9 3.3 0.8 -2 7.9 3.6 0.9 2.2-9 3.5 0.9 -3.2 12.9 -17.6-4.4 3.3-12.6Zm4.7-6.8c0.3 0.4 0.7 0.7 1.2 0.7 0.5 0.1 1-0.1 1.3-0.5 0.3-0.4 0.9-1.5 1.5-3.1 0.6-1.6 1.5-2.9 2.4-3.7 0.9-0.8 2.3-1.1 3.9-0.9 1.6 0.2 2.8 1 3.7 2.3 0.8 1.3 1.1 3 0.9 5 -0.4 2.8-1.8 5.3-4.2 7.3l-2.6-2.8c2-1.7 3-3.4 3.3-5 0.1-0.7 0-1.3-0.2-1.8 -0.3-0.5-0.7-0.7-1.2-0.8 -0.5-0.1-1 0.1-1.4 0.5 -0.4 0.4-0.8 1.2-1.3 2.5 -0.8 2-1.6 3.5-2.6 4.3 -0.9 0.9-2.2 1.2-3.9 0.9 -1.7-0.2-2.9-1-3.7-2.4 -0.8-1.3-1-2.9-0.8-4.8 0.2-1.2 0.5-2.4 1.1-3.5 0.6-1.1 1.3-2.1 2.2-2.9l2.7 2.4c-1.4 1.4-2.2 2.9-2.4 4.6 -0.2 0.7-0.2 1.3 0.1 1.7Zm1.5-16.1c0.3 0.4 0.7 0.6 1.3 0.6 0.5 0 1-0.2 1.3-0.7 0.3-0.5 0.7-1.6 1.2-3.3 0.5-1.7 1.1-3 2-4 0.9-0.9 2.1-1.4 3.7-1.3 1.6 0.1 2.9 0.7 3.9 1.9 1 1.2 1.4 2.9 1.4 4.8 -0.1 2.9-1.2 5.4-3.4 7.7l-2.9-2.5c1.8-1.9 2.7-3.7 2.7-5.3 0-0.7-0.1-1.3-0.4-1.8 -0.3-0.4-0.7-0.7-1.3-0.7 -0.5 0-1 0.2-1.3 0.6 -0.3 0.4-0.7 1.3-1 2.6 -0.6 2.1-1.2 3.6-2.1 4.6 -0.8 1-2.1 1.4-3.8 1.4 -1.7 0-3-0.7-3.9-2 -0.9-1.3-1.3-2.8-1.3-4.7 0-1.2 0.3-2.4 0.7-3.6 0.4-1.2 1.1-2.2 1.8-3.1l2.9 2.1c-1.2 1.5-1.9 3.1-1.9 4.8 -0.1 1 0.1 1.5 0.4 1.9Z" fill="#333"/>
  <path d="M407.1 238c-0.6 0.8-1.4 1.2-2.4 1.3 -1 0.1-1.9-0.1-2.7-0.8 -0.8-0.7-1.2-1.4-1.3-2.4 -0.1-1 0.1-1.9 0.8-2.7 0.7-0.8 1.4-1.2 2.4-1.3 1-0.1 1.9 0.1 2.7 0.8 0.8 0.7 1.2 1.4 1.3 2.4 0.1 1-0.1 1.9-0.8 2.7Z" fill="#fff"/>
  <path d="M69.1 179.1c2.2 0.9 4.9-0.3 5.8-2.4 0.9-2.2-0.1-4.8-2.4-5.7 -0.5-0.2-1.1-0.3-1.7-0.3 -1.8 0-3.4 1.1-4.1 2.7 -0.5 1.1-0.4 2.3 0 3.4 0.5 1 1.4 1.8 2.4 2.3Zm143.3-124.7c-0.3 0-0.6 0-0.9 0.1 -1.1 0.2-2.1 0.9-2.8 1.9 -0.7 1-0.9 2.1-0.7 3.3 0.5 2.3 2.8 3.9 5.2 3.5 1.1-0.2 2.1-0.9 2.8-1.9 0.7-1 0.9-2.2 0.7-3.3 -0.4-2.1-2.2-3.6-4.3-3.6Zm-67.6 37.1c2-1.3 2.5-4.1 1.2-6.1 -0.8-1.2-2.2-2-3.7-2 -0.9 0-1.7 0.3-2.4 0.7 -2 1.3-2.6 4.1-1.2 6.1 1.3 2 4.1 2.6 6.1 1.3Zm-85.9 124.3c2.4 0.5 4.7-1.1 5.2-3.4 0.2-1.2 0-2.3-0.6-3.3 -0.7-1-1.7-1.6-2.8-1.9 -0.3-0.1-0.6-0.1-0.9-0.1 -2.1 0-3.9 1.5-4.3 3.5 -0.2 1.2 0 2.3 0.7 3.3 0.6 1 1.6 1.6 2.7 1.9Zm117-150.3c-0.6 0-1.1 0.1-1.7 0.3 -1.1 0.5-1.9 1.3-2.4 2.4 -0.5 1.1-0.5 2.3 0 3.4 0.9 2.2 3.5 3.3 5.7 2.4 1.1-0.4 1.9-1.3 2.4-2.4 0.4-1.1 0.4-2.3 0-3.4 -0.6-1.6-2.2-2.7-4-2.7Zm111.4-2.3c2.3 0.5 4.7-1.2 5.2-3.5 0.2-1.2 0-2.3-0.7-3.3 -0.6-1-1.7-1.6-2.8-1.9 -0.3-0.1-0.6-0.1-0.9-0.1 -2.1 0-3.9 1.5-4.3 3.5 -0.2 1.2 0 2.3 0.7 3.3 0.6 1.1 1.6 1.7 2.8 2Zm-198.5 289.6c-0.9 0-1.7 0.3-2.4 0.8 -1 0.7-1.6 1.6-1.9 2.8 -0.2 1.1 0 2.3 0.7 3.3 1.3 1.9 4.1 2.5 6.1 1.2 2-1.4 2.6-4.1 1.2-6.1 -0.9-1.2-2.2-2-3.7-2Zm199.4 82.6c-0.3 0-0.6 0-0.9 0.1 -1.1 0.2-2.1 0.9-2.8 1.9 -0.6 1-0.9 2.1-0.6 3.3 0.4 2.3 2.8 3.9 5.2 3.4 1.1-0.2 2.1-0.9 2.8-1.9 0.7-1 0.9-2.1 0.7-3.3 -0.6-2-2.4-3.5-4.4-3.5Zm-37.9-384.7c-2.4 0-4.4 2-4.4 4.4 0 2.4 2 4.4 4.4 4.4 2.4 0 4.4-2 4.4-4.4 0-2.4-2-4.4-4.4-4.4Zm-37.1 384.8c-0.3-0.1-0.6-0.1-0.9-0.1 -2.1 0-3.9 1.5-4.3 3.5 -0.2 1.1 0 2.3 0.7 3.3 0.6 1 1.6 1.6 2.8 1.9 2.4 0.5 4.7-1.2 5.2-3.4 0.2-1.2 0-2.3-0.7-3.3 -0.6-1-1.6-1.7-2.8-1.9Zm-100.3-53.2c-1.2 0-2.3 0.4-3.1 1.3 -0.8 0.8-1.3 1.9-1.3 3.1 0 1.2 0.4 2.3 1.3 3.1 1.7 1.7 4.5 1.7 6.2 0 1.7-1.7 1.7-4.5 0-6.2 -0.8-0.9-1.9-1.3-3.1-1.3Zm0-274.7c-1.2 0-2.3 0.5-3.1 1.3 -0.8 0.8-1.3 1.9-1.3 3.1 0 1.2 0.4 2.3 1.3 3.1 1.5 1.6 4.7 1.6 6.2 0 1.7-1.7 1.7-4.5 0-6.2 -0.8-0.8-1.9-1.3-3.1-1.3Zm-38 214.4c-0.7-1.6-2.3-2.7-4.1-2.7 -0.6 0-1.1 0.1-1.7 0.3 -1.1 0.5-1.9 1.3-2.4 2.4 -0.5 1.1-0.5 2.3 0 3.4 0.7 1.7 2.3 2.7 4.1 2.7 0.6 0 1.1-0.1 1.7-0.3 2.2-1 3.3-3.6 2.4-5.8Zm16.3-184.2c-0.7-0.5-1.6-0.7-2.4-0.7 -1.5 0-2.8 0.7-3.7 2 -0.6 1-0.9 2.1-0.7 3.3 0.2 1.2 0.9 2.1 1.9 2.8 1.9 1.3 4.9 0.6 6.1-1.2 0.7-1 0.9-2.1 0.7-3.3 -0.2-1.3-0.9-2.3-1.9-2.9Zm-27.8 151.9c0.6-1 0.9-2.2 0.6-3.3 -0.4-2-2.2-3.5-4.3-3.5 -0.3 0-0.6 0-0.9 0.1 -1.2 0.2-2.2 0.9-2.8 1.9 -0.7 1-0.9 2.2-0.7 3.3 0.5 2.3 2.8 3.9 5.2 3.5 1.3-0.4 2.3-1.1 2.9-2Zm-7.4-36c2.4 0 4.4-2 4.4-4.4 0-2.4-2-4.4-4.4-4.4 -2.4 0-4.4 2-4.4 4.4 0 2.5 2 4.4 4.4 4.4Zm121.6 171c-0.5-0.2-1.1-0.3-1.7-0.3 -1.8 0-3.4 1.1-4.1 2.7 -0.5 1.1-0.5 2.3 0 3.4 0.4 1.1 1.3 1.9 2.4 2.4 0.5 0.2 1.1 0.3 1.7 0.3 1.8 0 3.4-1.1 4.1-2.7 0.5-1.1 0.5-2.3 0-3.4 -0.5-1.1-1.3-2-2.4-2.4Zm-32.8-17.5c-0.7-0.5-1.6-0.7-2.4-0.7 -1.5 0-2.9 0.7-3.7 2 -0.6 1-0.9 2.1-0.6 3.3 0.2 1.2 0.9 2.1 1.9 2.8 0.7 0.5 1.5 0.7 2.3 0.7 1.5 0 3-0.7 3.8-1.9 0.6-1 0.9-2.1 0.6-3.3 -0.3-1.3-0.9-2.3-1.9-2.9Zm105.5 31.9c-2.4 0-4.4 2-4.4 4.4 0 2.4 2 4.4 4.4 4.4 2.4 0 4.4-2 4.4-4.4 0-2.4-2-4.4-4.4-4.4Zm163.9-85.5c-0.7-0.5-1.6-0.8-2.4-0.8 -1.5 0-2.8 0.7-3.7 2 -0.6 1-0.9 2.2-0.6 3.3 0.2 1.1 0.9 2.1 1.9 2.8 2 1.3 4.8 0.7 6.1-1.2 0.7-1 0.9-2.1 0.7-3.3 -0.4-1.2-1-2.2-2-2.8Zm-26.6-246c-1.2 0-2.3 0.5-3.1 1.3 -0.8 0.8-1.3 1.9-1.3 3.1 0 1.2 0.5 2.3 1.3 3.1 0.8 0.8 1.9 1.2 3.1 1.2 1.2 0 2.3-0.4 3.1-1.2 0.8-0.8 1.3-1.9 1.3-3.1 0-1.2-0.5-2.3-1.3-3.1 -0.8-0.8-1.9-1.3-3.1-1.3Zm38 69.1c0.9 2.2 3.5 3.3 5.8 2.4 1.1-0.4 1.9-1.3 2.4-2.4 0.5-1.1 0.5-2.3 0-3.4 -0.7-1.6-2.3-2.7-4.1-2.7 -0.6 0-1.1 0.1-1.7 0.3 -2.2 1-3.3 3.5-2.4 5.8Zm11.5 32.3c-0.7 1-0.9 2.1-0.7 3.3 0.4 2.3 2.8 3.9 5.2 3.5 1.1-0.2 2.1-0.9 2.8-1.9 0.7-1 0.9-2.1 0.7-3.3 -0.4-2.1-2.2-3.5-4.3-3.5 -0.3 0-0.6 0-0.9 0.1 -1.2 0.2-2.2 0.8-2.8 1.8Zm-49.5 173.3c-1.2 0-2.3 0.4-3.1 1.3 -1.7 1.7-1.7 4.5 0 6.2 1.7 1.6 4.6 1.7 6.2 0 0.8-0.8 1.3-1.9 1.3-3.1 0-1.2-0.5-2.3-1.3-3.1 -0.8-0.9-1.9-1.3-3.1-1.3Zm54-99.4c-0.3-0.1-0.6-0.1-0.9-0.1 -2.1 0-3.9 1.5-4.3 3.5 -0.2 1.2 0 2.3 0.7 3.3 0.6 1 1.6 1.6 2.8 1.9 2.3 0.5 4.7-1.2 5.2-3.5 0.2-1.1 0-2.3-0.7-3.3 -0.7-0.9-1.7-1.6-2.8-1.8Zm2.9-38c-2.4 0-4.4 2-4.4 4.4 0 2.4 2 4.4 4.4 4.4 2.4 0 4.4-2 4.4-4.4 0-2.4-2-4.4-4.4-4.4Zm-13.1 74.7c-0.6-0.2-1.1-0.3-1.7-0.3 -1.8 0-3.4 1.1-4.1 2.7 -0.9 2.2 0.2 4.8 2.4 5.7 2.1 0.9 4.9-0.3 5.7-2.4 0.4-1.1 0.4-2.3 0-3.4 -0.4-1-1.2-1.9-2.3-2.3Zm-17.2-174.5c1-0.7 1.6-1.6 1.9-2.8 0.2-1.2 0-2.3-0.7-3.3 -0.8-1.2-2.2-2-3.7-2 -0.9 0-1.7 0.3-2.4 0.7 -1 0.7-1.6 1.7-1.9 2.8 -0.2 1.1 0 2.3 0.7 3.3 1.3 2 4.1 2.6 6.1 1.3Zm-58.5-53.6c2 1.3 4.8 0.7 6.1-1.2 0.7-1 0.9-2.1 0.7-3.3 -0.2-1.2-0.9-2.1-1.9-2.8 -0.7-0.5-1.6-0.7-2.4-0.7 -1.5 0-2.9 0.7-3.7 2 -1.3 1.9-0.8 4.7 1.2 6Zm-31.1 332.9c-0.6 0-1.1 0.1-1.7 0.3 -1.1 0.4-1.9 1.3-2.4 2.4 -0.4 1.1-0.4 2.3 0 3.4 0.9 2.2 3.5 3.3 5.7 2.4 1.1-0.4 1.9-1.3 2.4-2.4 0.4-1.1 0.4-2.3 0-3.4 -0.6-1.7-2.2-2.7-4-2.7Zm-1.7-350.4c0.5 0.2 1 0.3 1.6 0.3 1.8 0 3.5-1.1 4.2-2.7 0.4-1.1 0.4-2.3 0-3.4 -0.5-1.1-1.3-1.9-2.4-2.4 -0.5-0.2-1.1-0.3-1.7-0.3 -1.8 0-3.4 1.1-4.1 2.7 -0.5 1.1-0.5 2.3 0 3.4 0.5 1.1 1.3 1.9 2.4 2.4Zm35.2 332.4c-0.9 0-1.7 0.3-2.4 0.7 -1 0.7-1.6 1.6-1.9 2.8 -0.2 1.2 0 2.3 0.7 3.3 0.8 1.2 2.2 2 3.7 2 0.9 0 1.7-0.3 2.4-0.7 2-1.3 2.6-4.1 1.2-6.1 -0.8-1.3-2.2-2-3.7-2Zm-281.2-244.8c2 1.1 4.9 0.1 6-1.8 0.6-1 0.7-2.2 0.3-3.3 -0.3-1.1-1.1-2-2.1-2.6 -0.8-0.4-1.6-0.6-2.5-0.5 -1.5 0.1-2.8 1-3.5 2.3 -0.6 1-0.7 2.2-0.3 3.4 0.3 1.1 1.1 2 2.1 2.5Zm346.7 0c1-0.6 1.8-1.5 2.1-2.6 0.3-1.1 0.2-2.3-0.3-3.4 -0.8-1.6-2.5-2.5-4.3-2.3 -0.6 0.1-1.1 0.2-1.6 0.5 -2.1 1.2-3 3.8-1.8 6 1.1 2.1 3.8 3 5.9 1.8Zm-367.1 73.1c2.5 0.3 4.6-1.6 4.8-3.9 0.1-1.2-0.2-2.3-1-3.2 -0.8-0.9-1.8-1.5-3-1.6l-0.9 0c-2.1 0.2-3.7 1.9-3.9 3.9 -0.1 1.2 0.2 2.3 1 3.2 0.8 0.9 1.9 1.5 3 1.6Zm22 101.8c-0.6 0.1-1.1 0.2-1.6 0.5 -1 0.6-1.8 1.5-2.1 2.6 -0.3 1.1-0.2 2.3 0.3 3.3 0.8 1.6 2.5 2.5 4.3 2.3 0.6-0.1 1.1-0.2 1.6-0.5 2.2-1.1 3-3.8 1.8-6 -0.8-1.5-2.5-2.4-4.3-2.2Zm360.7-105.8c0.2 2.4 2.4 4.2 4.8 4 2.4-0.2 4.2-2.4 3.9-4.8 -0.2-2.4-2.4-4.2-4.8-3.9 -2.4 0.2-4.2 2.3-3.9 4.7Zm-170.3-170.3c2.4 0.2 4.6-1.6 4.8-3.9 0.1-1.2-0.2-2.3-1-3.2 -0.7-0.9-1.8-1.5-3-1.6l-0.9 0c-2.1 0.2-3.7 1.9-3.9 3.9 -0.1 1.2 0.2 2.3 1 3.2 0.7 1 1.8 1.5 3 1.6Zm-207.5 207.5c-0.2-2.4-2.4-4.2-4.8-3.9 -2.4 0.2-4.2 2.4-3.9 4.8 0.2 2.4 2.4 4.2 4.8 4 2.3-0.3 4.1-2.4 3.9-4.9Zm6.9 39.9c0.6-1 0.7-2.2 0.3-3.4 -0.6-2-2.5-3.3-4.6-3.1 -0.3 0-0.6 0.1-0.9 0.2 -1.1 0.3-2 1.1-2.6 2.1 -0.6 1-0.7 2.2-0.3 3.3 0.7 2.2 3.1 3.6 5.5 2.9 1.1-0.2 2-1 2.6-2Zm363.9-116.9c-0.6 1-0.7 2.2-0.3 3.3 0.7 2.2 3.2 3.6 5.5 2.9 1.1-0.3 2-1.1 2.6-2.1 0.6-1 0.7-2.2 0.3-3.3 -0.6-2-2.5-3.3-4.6-3.1 -0.3 0-0.6 0.1-0.8 0.2 -1.2 0.3-2.1 1-2.7 2.1Zm-369.1 6.3c2.2 0.7 4.8-0.7 5.5-2.9 0.7-2.3-0.6-4.8-2.9-5.5 -0.6-0.2-1.1-0.2-1.7-0.2 -1.8 0.2-3.3 1.4-3.8 3.1 -0.3 1.1-0.2 2.3 0.3 3.3 0.6 1.1 1.5 1.8 2.6 2.2Zm336.9-75.5c-0.9 0.1-1.7 0.4-2.3 1 -0.9 0.7-1.5 1.8-1.6 3 -0.1 1.2 0.2 2.3 1 3.2 1.5 1.8 4.4 2.1 6.2 0.6 0.9-0.7 1.5-1.8 1.6-3 0.1-1.2-0.2-2.3-1-3.2 -1-1.1-2.5-1.7-3.9-1.6Zm-29.3-19.1c0.8 0.7 2 1 3.2 0.9 1.2-0.1 2.3-0.7 3-1.5 0.8-0.9 1.1-2 1-3.2 -0.1-1.2-0.7-2.2-1.6-3 -0.9-0.8-2.1-1.1-3.2-1 -1.2 0.1-2.2 0.7-3 1.6 -0.7 0.9-1.1 2.1-1 3.2 0.1 1.2 0.7 2.3 1.6 3Zm-65.3-34.9c0.5 0.2 1.1 0.2 1.6 0.2 1.8-0.2 3.4-1.4 3.9-3.1 0.3-1.1 0.2-2.3-0.3-3.3 -0.6-1-1.5-1.8-2.6-2.1 -0.6-0.2-1.1-0.2-1.7-0.2 -1.8 0.2-3.3 1.4-3.8 3.1 -0.3 1.1-0.2 2.3 0.3 3.4 0.5 0.9 1.4 1.7 2.6 2Zm36 348.5c-0.6 0.1-1.1 0.2-1.6 0.5 -1 0.6-1.8 1.5-2.1 2.6 -0.3 1.1-0.2 2.3 0.3 3.4 1.1 2.1 3.8 2.9 5.9 1.8 1-0.6 1.8-1.5 2.1-2.6 0.3-1.1 0.2-2.3-0.3-3.3 -0.9-1.6-2.5-2.5-4.3-2.4Zm-244.1-286.7c1.7 1.4 4.8 1.1 6.2-0.6 1.5-1.9 1.3-4.6-0.6-6.2 -0.9-0.7-2-1.1-3.2-1 -1.2 0.1-2.2 0.7-3 1.6 -0.7 0.9-1.1 2-1 3.2 0.2 1.2 0.7 2.3 1.6 3Zm242.4-47.6c2.1 1.1 4.8 0.2 6-1.8 0.6-1 0.7-2.2 0.3-3.3 -0.3-1.1-1.1-2-2.1-2.6 -0.8-0.4-1.6-0.6-2.5-0.5 -1.5 0.1-2.8 1-3.5 2.3 -1.1 2.1-0.3 4.8 1.8 5.9Zm33.3 313.2c-0.9 0.1-1.7 0.4-2.3 1 -0.9 0.7-1.5 1.8-1.6 3 -0.1 1.2 0.2 2.3 1 3.2 0.9 1.1 2.4 1.7 3.8 1.6 0.9-0.1 1.7-0.4 2.3-1 1.9-1.5 2.2-4.3 0.6-6.2 -0.9-1.2-2.3-1.8-3.8-1.6Zm64.4-93.6c-0.6-0.2-1.1-0.2-1.7-0.2 -1.8 0.2-3.3 1.4-3.8 3.1 -0.7 2.3 0.6 4.8 2.9 5.5 2.2 0.7 4.8-0.8 5.5-2.9 0.3-1.1 0.2-2.3-0.3-3.4 -0.6-1-1.5-1.7-2.6-2.1Zm-34.2 67.6c-0.9-0.7-2.1-1.1-3.2-1 -1.2 0.1-2.2 0.7-3 1.6 -1.5 1.9-1.3 4.6 0.6 6.2 1.8 1.5 4.7 1.2 6.2-0.6 0.7-0.9 1.1-2 1-3.2 -0.1-1.2-0.7-2.2-1.6-3Zm40.8-105.1l-0.9 0c-2.1 0.2-3.7 1.9-3.9 3.9 -0.1 1.2 0.2 2.3 1 3.2 0.8 0.9 1.8 1.5 3 1.6 2.4 0.2 4.6-1.6 4.8-4 0.1-1.2-0.2-2.3-1-3.2 -0.8-0.8-1.9-1.4-3-1.5Zm-20.4 73c-0.8-0.4-1.6-0.6-2.5-0.5 -1.5 0.1-2.8 1-3.5 2.3 -0.6 1-0.7 2.2-0.3 3.4 0.3 1.1 1.1 2 2.1 2.6 2.1 1.1 4.8 0.3 5.9-1.8 0.6-1 0.7-2.2 0.3-3.3 -0.2-1.2-0.9-2.1-2-2.7Zm-117.4 93.8c-0.3 0-0.6 0.1-0.8 0.2 -1.1 0.4-2 1.1-2.6 2.1 -0.6 1-0.7 2.2-0.3 3.4 0.7 2.2 3.2 3.6 5.5 2.9 1.1-0.3 2-1.1 2.6-2.1 0.6-1 0.7-2.2 0.3-3.3 -0.7-2.1-2.6-3.4-4.7-3.2Zm-179.6-336c-0.9 0.1-1.7 0.4-2.3 1 -1.9 1.5-2.2 4.3-0.6 6.2 1.5 1.8 4.4 2.1 6.2 0.6 1.9-1.5 2.1-4.3 0.6-6.2 -1-1.1-2.4-1.7-3.9-1.6Zm34.2 321.9c-0.8-0.4-1.6-0.6-2.5-0.5 -1.5 0.1-2.8 1-3.5 2.3 -0.5 1-0.7 2.2-0.3 3.3 0.3 1.1 1.1 2.1 2.1 2.6 0.7 0.4 1.5 0.5 2.4 0.4 1.5-0.1 2.9-1 3.5-2.3 0.6-1 0.7-2.2 0.3-3.4 -0.2-0.9-1-1.8-2-2.4Zm108.1 21.5c-2.4 0.2-4.2 2.4-3.9 4.8 0.2 2.4 2.4 4.2 4.8 3.9 2.4-0.2 4.2-2.4 3.9-4.8 -0.3-2.3-2.4-4.1-4.8-3.9Zm-142.3-43.1c-1.2 0.1-2.2 0.7-3 1.6 -0.8 0.9-1.1 2-1 3.2 0.1 1.2 0.7 2.2 1.6 3 1.8 1.5 4.7 1.2 6.2-0.6 1.5-1.9 1.3-4.7-0.6-6.2 -0.9-0.8-2-1.1-3.2-1Zm-26.9-26.9c-0.9 0.1-1.7 0.4-2.4 1 -0.9 0.7-1.5 1.8-1.6 3 -0.1 1.2 0.2 2.3 1 3.2 1.5 1.8 4.4 2.1 6.2 0.6 1.9-1.5 2.2-4.3 0.6-6.2 -0.9-1.2-2.3-1.8-3.8-1.6Zm61.1-286.3c1-0.6 1.8-1.5 2.1-2.6 0.3-1.1 0.2-2.3-0.3-3.4 -0.8-1.6-2.5-2.5-4.3-2.3 -0.6 0.1-1.1 0.2-1.6 0.5 -1 0.6-1.8 1.5-2.1 2.6 -0.3 1.1-0.2 2.3 0.3 3.3 1 2.2 3.7 3.1 5.9 1.9Zm70-30.2c-2.4 0.2-4.2 2.4-3.9 4.8 0.2 2.4 2.4 4.2 4.8 3.9 2.4-0.2 4.2-2.4 3.9-4.8 -0.2-2.4-2.4-4.2-4.8-3.9Zm0.9 386.5l-0.9 0c-2.1 0.2-3.7 1.9-3.9 3.9 -0.1 1.2 0.2 2.3 1 3.2 0.7 0.9 1.8 1.5 3 1.6 2.5 0.2 4.6-1.6 4.8-3.9 0.1-1.2-0.2-2.3-1-3.2 -0.8-0.9-1.9-1.5-3-1.6Zm-38.2-379.1c-0.3 0-0.6 0.1-0.9 0.2 -1.1 0.3-2 1.1-2.6 2.1 -0.6 1-0.7 2.2-0.3 3.3 0.7 2.2 3.2 3.6 5.5 2.9 1.1-0.3 2-1.1 2.6-2.1 0.6-1 0.7-2.2 0.3-3.4 -0.6-1.9-2.6-3.2-4.6-3Zm1.7 371.9c-0.6-0.2-1.1-0.2-1.7-0.2 -1.8 0.2-3.3 1.4-3.8 3.1 -0.3 1.1-0.2 2.3 0.3 3.3 0.6 1 1.5 1.8 2.6 2.1 0.6 0.2 1.1 0.2 1.7 0.2 1.8-0.2 3.2-1.4 3.8-3.1 0.3-1.1 0.2-2.3-0.3-3.4 -0.6-0.9-1.5-1.7-2.6-2Z" fill="#fefff7"/>
  <circle cx="87.6" cy="88.8" r="2.9" fill="#fce889"/>
  <circle cx="117.5" cy="84.3" r="2.9" fill="#fce889"/>
  <circle cx="117.3" cy="63" r="2.9" fill="#fce889"/>
  <circle cx="146.9" cy="64.7" r="2.9" fill="#fce889"/>
  <circle cx="160.1" cy="34.8" r="2.9" fill="#fce889"/>
  <circle cx="175" cy="51.4" r="2.9" fill="#fce889"/>
  <circle cx="190.6" cy="34" r="2.9" fill="#fce889"/>
  <circle cx="191" cy="11.8" r="2.9" fill="#fce889"/>
  <circle cx="212.6" cy="41.4" r="2.9" fill="#fce889"/>
  <circle cx="246.5" cy="38.7" r="2.9" fill="#fce889"/>
  <circle cx="263.9" cy="20.8" r="2.9" fill="#fce889"/>
  <circle cx="288.6" cy="8.9" r="2.9" fill="#fce889"/>
  <circle cx="286.4" cy="38.1" r="2.9" fill="#fce889"/>
  <circle cx="309.2" cy="24.2" r="2.9" fill="#fce889"/>
  <circle cx="325.4" cy="43.6" r="2.9" fill="#fce889"/>
  <circle cx="338.2" cy="11.2" r="2.9" fill="#fce889"/>
  <circle cx="360.7" cy="34.8" r="2.9" fill="#fce889"/>
  <circle cx="351.1" cy="59.1" r="2.9" fill="#fce889"/>
  <circle cx="382.5" cy="85.3" r="2.9" fill="#fce889"/>
  <circle cx="422.2" cy="123.3" r="2.9" fill="#fce889"/>
  <circle cx="417.1" cy="92" r="2.9" fill="#fce889"/>
  <circle cx="444" cy="91.8" r="2.9" fill="#fce889"/>
  <circle cx="444.8" cy="123.3" r="2.9" fill="#fce889"/>
  <circle cx="440.7" cy="156" r="2.9" fill="#fce889"/>
  <circle cx="471.8" cy="142.7" r="2.9" fill="#fce889"/>
  <circle cx="459.9" cy="170.5" r="2.9" fill="#fce889"/>
  <circle cx="458.1" cy="197.4" r="2.9" fill="#fce889"/>
  <circle cx="483.4" cy="202.3" r="2.9" fill="#fce889"/>
  <circle cx="469.3" cy="218.2" r="2.9" fill="#fce889"/>
  <circle cx="489.2" cy="244" r="2.9" fill="#fce889"/>
  <circle cx="460.8" cy="244.8" r="2.9" fill="#fce889"/>
  <circle cx="476.3" cy="268.5" r="2.9" fill="#fce889"/>
  <circle cx="456.9" cy="286.3" r="2.9" fill="#fce889"/>
  <circle cx="450.8" cy="315.7" r="2.9" fill="#fce889"/>
  <circle cx="474.4" cy="307.3" r="2.9" fill="#fce889"/>
  <circle cx="468.7" cy="340.6" r="2.9" fill="#fce889"/>
  <circle cx="441" cy="345.9" r="2.9" fill="#fce889"/>
  <circle cx="466.5" cy="372" r="2.9" fill="#fce889"/>
  <circle cx="441.2" cy="372.2" r="2.9" fill="#fce889"/>
  <circle cx="415.8" cy="377.5" r="2.9" fill="#fce889"/>
  <circle cx="435.2" cy="399.6" r="2.9" fill="#fce889"/>
  <circle cx="408.3" cy="405.5" r="2.9" fill="#fce889"/>
  <circle cx="383" cy="411" r="2.9" fill="#fce889"/>
  <circle cx="403.4" cy="429.8" r="2.9" fill="#fce889"/>
  <circle cx="371.5" cy="441.9" r="2.9" fill="#fce889"/>
  <circle cx="365.8" cy="467.2" r="2.9" fill="#fce889"/>
  <circle cx="341.9" cy="438.8" r="2.9" fill="#fce889"/>
  <circle cx="336" cy="459.4" r="2.9" fill="#fce889"/>
  <circle cx="308.4" cy="450.9" r="2.9" fill="#fce889"/>
  <circle cx="288.2" cy="475.4" r="2.9" fill="#fce889"/>
  <circle cx="277.6" cy="456" r="2.9" fill="#fce889"/>
  <circle cx="258.4" cy="469.9" r="2.9" fill="#fce889"/>
  <circle cx="252.5" cy="491.1" r="2.9" fill="#fce889"/>
  <circle cx="222.8" cy="475.6" r="2.9" fill="#fce889"/>
  <circle cx="238.8" cy="456.4" r="2.9" fill="#fce889"/>
  <circle cx="204.5" cy="450.2" r="2.9" fill="#fce889"/>
  <circle cx="182.8" cy="464.3" r="2.9" fill="#fce889"/>
  <circle cx="157.5" cy="469.9" r="2.9" fill="#fce889"/>
  <circle cx="167.1" cy="442.1" r="2.9" fill="#fce889"/>
  <circle cx="140.7" cy="449.8" r="2.9" fill="#fce889"/>
  <circle cx="130.3" cy="426.4" r="2.9" fill="#fce889"/>
  <circle cx="93.6" cy="426.6" r="2.9" fill="#fce889"/>
  <circle cx="109.3" cy="405.5" r="2.9" fill="#fce889"/>
  <circle cx="79.3" cy="397.8" r="2.9" fill="#fce889"/>
  <circle cx="85" cy="371.6" r="2.9" fill="#fce889"/>
  <circle cx="53.1" cy="385.1" r="2.9" fill="#fce889"/>
  <circle cx="53.3" cy="356.9" r="2.9" fill="#fce889"/>
  <circle cx="23.3" cy="351.6" r="2.9" fill="#fce889"/>
  <circle cx="56.2" cy="325.5" r="2.9" fill="#fce889"/>
  <circle cx="34.3" cy="319.5" r="2.9" fill="#fce889"/>
  <circle cx="47" cy="288.9" r="2.9" fill="#fce889"/>
  <circle cx="10.8" cy="289.3" r="2.9" fill="#fce889"/>
  <circle cx="31.3" cy="270.9" r="2.9" fill="#fce889"/>
  <circle cx="39.8" cy="244.4" r="2.9" fill="#fce889"/>
  <circle cx="33.9" cy="221.5" r="2.9" fill="#fce889"/>
  <circle cx="16.6" cy="207.8" r="2.9" fill="#fce889"/>
  <circle cx="49.7" cy="197.8" r="2.9" fill="#fce889"/>
  <circle cx="40.1" cy="171.3" r="2.9" fill="#fce889"/>
  <circle cx="31.3" cy="142.5" r="2.9" fill="#fce889"/>
  <circle cx="63.3" cy="159" r="2.9" fill="#fce889"/>
  <circle cx="65.8" cy="129" r="2.9" fill="#fce889"/>
  <circle cx="56" cy="102.2" r="2.9" fill="#fce889"/>
  <circle cx="409.9" cy="64.9" r="2.9" fill="#fce889"/>
  <circle cx="381.7" cy="58.9" r="2.9" fill="#fce889"/>
  <circle cx="223.9" cy="19.3" r="2.9" fill="#fce889"/>
</svg>
