<svg xmlns="http://www.w3.org/2000/svg" viewBox="0 0 24 24">
  <title>Twitter icon</title>
  <path d="M21.5 7.1c0 0.2 0 0.4 0 0.6 0 6.5-4.9 14-14 14 -2.8 0-5.4-0.8-7.6-2.2 0.4 0 0.8 0.1 1.2 0.1 2.3 0 4.4-0.8 6.1-2.1 -2.2 0-4-1.5-4.6-3.4 0.3 0 0.6 0.1 0.9 0.1 0.4 0 0.9-0.1 1.3-0.2 -2.3-0.5-3.9-2.4-3.9-4.8l0-0.1c0.7 0.4 1.4 0.6 2.2 0.6 -1.3-0.9-2.2-2.4-2.2-4.1 0-0.9 0.2-1.8 0.7-2.5 2.4 3 6.1 4.9 10.1 5.1 -0.1-0.4-0.1-0.7-0.1-1.1 0-2.7 2.2-4.9 4.9-4.9 1.4 0 2.7 0.6 3.6 1.6 1.1-0.2 2.2-0.6 3.1-1.2 -0.4 1.1-1.1 2.1-2.2 2.7 1-0.1 2-0.4 2.8-0.8 -0.7 1-1.5 1.8-2.5 2.5Z"/>
</svg>
