<svg xmlns="http://www.w3.org/2000/svg" viewBox="0 0 500 500">
  <title>Hans is training</title>
  <path d="M354.3 252.9c44.2 0.2 88.5-0.7 132.7-2.9 -44.2-2.2-88.5-3.2-132.7-2.9 44.1-2.2 88.4-5.6 132.4-10.2 -44.3 0.2-88.6 1.7-132.7 4.3 44-4.6 87.9-10.4 131.6-17.4 -44.2 2.7-88.3 6.6-132.2 11.7 43.7-7 87.2-15.3 130.4-24.7 -44 5.1-87.8 11.5-131.3 19 43.3-9.4 86.1-20.1 128.7-31.9 -43.6 7.6-87 16.3-130 26.3 42.5-11.8 84.8-24.8 126.7-39 -43.1 10-85.8 21.1-128.3 33.5 41.8-14.2 83.2-29.5 124.3-46 -42.4 12.3-84.5 25.9-126.2 40.6 41-16.5 81.5-34.1 121.5-52.9 -41.6 14.7-83 30.6-123.7 47.6 39.9-18.8 79.4-38.7 118.3-59.6 -40.8 17-81.2 35.2-120.9 54.4 38.8-20.9 77.2-43 114.7-66.1 -39.8 19.3-78.9 39.6-117.5 61 37.6-23.1 74.6-47.2 110.8-72.4 -38.6 21.5-76.6 43.9-113.9 67.4 36.3-25.2 71.7-51.2 106.5-78.4 -37.4 23.6-74 48.1-109.9 73.6 34.7-27 68.7-55.1 101.9-84.1 -35.9 25.6-71.1 52.1-105.6 79.6 33.2-28.9 65.5-58.8 97.1-89.6 -34.4 27.5-68.2 56-101 85.3 31.5-30.7 62.1-62.4 91.9-94.9 -32.9 29.4-64.9 59.7-96.1 90.8 29.7-32.4 58.6-65.8 86.4-99.8 -31.2 31.1-61.4 63.1-90.8 95.9 27.9-34.1 54.8-68.9 80.7-104.4 -29.4 32.8-57.8 66.4-85.2 100.7 25.9-35.6 50.8-71.7 74.6-108.7 -27.5 34.4-53.9 69.5-79.4 105.3 23.9-36.8 46.7-74.4 68.4-112.6 -25.5 35.8-49.9 72.3-73.4 109.5 21.8-38.1 42.4-76.9 62-116.3 -23.4 37.2-45.8 75-67 113.5 19.5-39.3 38-79.1 55.3-119.5 -21.3 38.4-41.5 77.5-60.5 117 17.3-40.3 33.5-81.2 48.4-122.4 -19 39.6-37 79.7-53.8 120.2 15-41.3 28.8-82.9 41.4-124.9 -16.8 40.6-32.4 81.6-46.9 123 12.6-42 24-84.3 34.2-127 -14.4 41.4-27.7 83.2-39.8 125.3 10.2-42.6 19.1-85.5 26.9-128.6 -12.1 42.2-22.9 84.6-32.6 127.3 7.7-43.1 14.3-86.4 19.6-129.9 -9.6 42.8-18.1 85.7-25.3 129 5.3-43.4 9.3-87.1 12.2-130.9 -7.2 43.2-13.2 86.7-17.9 130.3 2.8-43.7 4.4-87.5 4.8-131.4 -4.7 43.5-8.3 87.3-10.6 131.1 0.4-43.8-0.5-87.6-2.6-131.5 -2.3 43.8-3.4 87.7-3.3 131.4 -2.1-43.7-5.3-87.5-9.8-131.1 0.1 43.9 1.4 87.7 4 131.5 -4.5-43.6-10.3-87.2-17.2-130.4 2.6 43.8 6.4 87.5 11.4 131 -6.9-43.3-15.1-86.4-24.5-129.2 5 43.6 11.3 87 18.8 130.1 -9.4-42.8-20-85.3-31.8-127.6 7.5 43.2 16.2 86.2 26.1 128.8 -11.8-42.2-24.8-84.1-39-125.6 9.9 42.8 21.1 85.1 33.4 127.2 -14.2-41.5-29.5-82.6-46.1-123.2 12.3 42.1 25.8 83.8 40.6 125.1 -16.5-40.6-34.2-80.8-53-120.5 14.7 41.3 30.6 82.3 47.6 122.7 -18.8-39.6-38.7-78.8-59.8-117.4 17.1 40.5 35.3 80.5 54.6 119.9 -21-38.5-43.2-76.6-66.4-113.9 19.4 39.5 39.8 78.4 61.3 116.6 -23.2-37.3-47.4-74-72.7-110 21.5 38.3 44.1 76 67.8 113 -25.3-36-51.5-71.2-78.8-105.8 23.7 37.1 48.3 73.4 74 109.1 -27.3-34.1-55.5-67.9-84.7-100.9 25.7 35.7 52.4 70.6 80 104.8 -29.1-32.9-59.2-65.1-90.2-96.4 27.6 34.2 56.3 67.6 85.8 100.3 -31-31.3-62.8-61.7-95.5-91.3 29.5 32.6 60 64.5 91.3 95.4 -32.6-29.5-66.2-58.2-100.5-85.9 31.4 31 63.6 61.1 96.6 90.2 -34.3-27.7-69.4-54.5-105.1-80.2 33 29.2 66.9 57.5 101.4 84.7 -35.8-25.8-72.3-50.5-109.4-74.3 34.6 27.3 70 53.7 106 79 -37.1-23.7-75-46.4-113.5-68.1 36.1 25.4 72.8 49.6 110.3 73 -38.4-21.6-77.5-42.2-117.1-61.7 37.4 23.3 75.6 45.6 114.3 66.8 -39.6-19.5-79.8-37.9-120.5-55.2 38.7 21.2 78.1 41.3 118 60.3 -40.5-17.2-81.7-33.4-123.3-48.4 39.9 19 80.3 36.9 121.2 53.6 -41.5-14.9-83.6-28.7-126-41.3 40.9 16.8 82.3 32.4 124 46.8 -42.4-12.6-85.1-24-128.1-34.3 41.8 14.5 84 27.7 126.5 39.8 -43.1-10.2-86.3-19.2-129.9-27 42.5 12.1 85.4 23 128.5 32.6 -43.5-7.8-87.2-14.4-131.2-19.7 43.2 9.7 86.5 18.2 130.2 25.4 -43.9-5.3-87.9-9.5-132.1-12.4 43.6 7.3 87.4 13.3 131.4 18.2 -44.1-2.9-88.3-4.7-132.6-5.1 43.9 4.8 88.1 8.5 132.3 10.9 -28.3-0.3-133.3 3.3-133.3 3.3 28.3 0.7 105 4.2 133.3 3.9 -44.2 2.4-88.3 6.1-132.2 11 44.3-0.5 88.5-2.3 132.6-5.2 -44 4.9-87.8 10.9-131.4 18.2 44.2-2.9 88.2-7.1 132.1-12.5 -43.7 7.3-87 15.7-130.2 25.5 43.9-5.4 87.7-12 131.1-19.8 -43.1 9.7-85.9 20.6-128.5 32.7 43.5-7.8 86.8-16.9 129.8-27.1 -42.5 12.1-84.7 25.4-126.5 39.8 43-10.2 85.7-21.7 128.1-34.3 -41.7 14.4-83.1 30-124 46.8 42.3-12.6 84.4-26.4 125.9-41.4 -40.7 16.6-81.1 34.6-121 53.6 41.6-15 82.8-31.1 123.4-48.4 -39.8 19-79.2 39.2-117.9 60.3 40.7-17.3 80.9-35.7 120.5-55.2 -38.7 21.2-76.9 43.5-114.3 66.8 39.7-19.5 78.7-40.1 117.1-61.8 -37.5 23.4-74.2 47.6-110.3 73 38.5-21.7 76.3-44.4 113.4-68.1 -36 25.3-71.4 51.7-106 79 37.2-23.8 73.6-48.5 109.5-74.3 -34.6 27.4-68.4 55.7-101.5 84.9 35.7-25.8 70.8-52.6 105.1-80.3 -33 29.2-65.2 59.3-96.5 90.3 34.3-27.7 67.8-56.4 100.5-86 -31.3 30.9-61.8 62.8-91.3 95.4 32.7-29.6 64.5-60 95.5-91.3 -29.6 32.6-58.2 66.1-85.9 100.3 31-31.4 61.1-63.5 90.2-96.4 -27.7 34.2-54.3 69.1-80 104.9 29.2-33 57.4-66.8 84.6-101.2 -25.7 35.6-50.3 72-74 109.1 27.3-34.6 53.5-69.8 78.8-105.7 -23.6 37-46.2 74.7-67.7 113 25.3-36 49.5-72.7 72.7-110 -21.5 38.2-41.9 77.2-61.2 116.6 23.2-37.3 45.4-75.4 66.4-113.9 -19.3 39.4-37.5 79.4-54.6 119.9 21.1-38.6 41-77.8 59.8-117.4 -17 40.5-32.9 81.4-47.6 122.7 18.8-39.7 36.5-79.9 53-120.5 -14.7 41.4-28.2 83-40.6 125.1 16.6-40.7 31.9-81.8 46.1-123.2 -12.3 42.1-23.4 84.4-33.4 127.2 14.2-41.6 27.1-83.4 38.9-125.6 -9.9 42.7-18.6 85.6-26.1 128.9 11.8-42.2 22.4-84.8 31.8-127.6 -7.5 43.2-13.7 86.6-18.8 130.1 9.4-42.8 17.6-85.9 24.5-129.2 -5 43.5-8.8 87.2-11.3 131 6.9-43.2 12.6-86.8 17.1-130.3 -2.5 43.7-3.9 87.5-3.9 131.4 4.5-43.6 7.8-87.4 9.8-131.2 -0.1 43.8 1 87.7 3.4 131.5 2.1-43.8 2.9-87.7 2.5-131.5 2.3 43.7 5.9 87.5 10.7 131 -0.4-43.9-2-87.7-4.8-131.4 4.8 43.6 10.8 87 18 130.2 -2.8-43.8-6.9-87.4-12.2-130.9 7.2 43.3 15.6 86.3 25.3 129 -5.3-43.5-11.8-86.9-19.6-130 9.7 42.8 20.5 85.2 32.6 127.4 -7.8-43.2-16.7-86-26.9-128.6 12.1 42.1 25.3 83.9 39.8 125.3 -10.2-42.6-21.6-84.9-34.2-127 14.4 41.4 30.1 82.4 46.9 123 -12.6-42-26.4-83.7-41.4-124.9 16.8 40.6 34.7 80.6 53.8 120.2 -15-41.2-31.1-82.1-48.4-122.4 19.1 39.5 39.3 78.6 60.6 117 -17.3-40.4-35.8-80.2-55.3-119.5 21.3 38.4 43.7 76.3 67.1 113.4 -19.6-39.4-40.2-78.1-62-116.2 23.4 37.2 47.9 73.7 73.4 109.5 -21.8-38.2-44.6-75.7-68.4-112.6 25.5 35.8 51.9 70.9 79.4 105.2 -23.9-36.9-48.8-73.1-74.7-108.6 27.4 34.3 55.9 67.9 85.2 100.7 -25.9-35.5-52.8-70.3-80.7-104.3 29.3 32.8 59.6 64.7 90.8 95.9 -27.8-34-56.8-67.3-86.4-99.8 31.1 31.1 63.2 61.4 96.1 90.8 -29.8-32.5-60.5-64.1-92-94.9 32.8 29.3 66.6 57.8 101 85.3 -31.6-30.8-63.9-60.7-97.1-89.6 34.5 27.5 69.6 54 105.6 79.6 -33.2-29-67.2-57-102-84.1 35.9 25.5 72.6 50 109.9 73.6 -34.8-27.1-70.3-53.2-106.5-78.3 37.3 23.5 75.3 46 113.9 67.4 -36.2-25.1-73.2-49.2-110.8-72.3 38.6 21.4 77.8 41.8 117.6 61 -37.6-23-75.9-45.1-114.8-66 39.7 19.2 80.1 37.4 120.9 54.4 -38.9-21-78.4-40.9-118.4-59.6 40.7 17 82.1 32.9 123.7 47.6 -40-18.8-80.5-36.4-121.5-52.9 41.7 14.7 83.8 28.2 126.2 40.6 -41.1-16.5-82.5-31.8-124.3-46 42.5 12.4 85.2 23.5 128.3 33.5 -41.9-14.2-84.1-27.2-126.7-39 43 9.9 86.4 18.7 130 26.2 -42.6-11.8-85.5-22.4-128.7-31.8 43.5 7.5 87.3 13.8 131.3 18.9 -43.2-9.4-86.6-17.7-130.3-24.7 43.9 5.1 88 9 132.2 11.7 -43.6-7-87.6-12.8-131.6-17.4 44.1 2.7 88.4 4.1 132.7 4.3 -44.3-4.7-88.5-8.1-132.7-10.3Z" fill="#fefff7"/>
  <path d="M429.9 266.2c6.4-6.6 12.3-14 17.9-22 -5.5-8-11.5-15.3-17.9-22 4.6-7.9 8.7-16.5 12.1-25.5 -7.3-6.4-14.8-12.1-22.6-17 2.6-8.8 4.4-18.1 5.6-27.7 -8.6-4.5-17.3-8.2-26-11.1 0.4-9.2 0-18.6-1.2-28.3 -9.4-2.3-18.8-3.8-27.9-4.6 -1.8-9-4.5-18.1-7.9-27.2 -9.7 0-19.2 0.7-28.2 2.2 -3.9-8.3-8.7-16.5-14.2-24.5 -9.4 2.3-18.4 5.3-26.8 8.9 -5.8-7.1-12.4-13.9-19.7-20.4 -8.6 4.5-16.6 9.6-23.9 15.1 -7.3-5.5-15.3-10.6-23.9-15.1 -7.3 6.4-13.9 13.3-19.7 20.4 -8.4-3.6-17.4-6.6-26.9-8.9 -5.5 8-10.2 16.2-14.2 24.5 -9.1-1.5-18.5-2.2-28.2-2.2 -3.4 9.1-6.1 18.2-7.9 27.2 -9.2 0.7-18.5 2.2-27.9 4.6 -1.2 9.6-1.5 19.1-1.2 28.3 -8.7 2.9-17.4 6.6-26 11.1 1.2 9.6 3.1 18.9 5.6 27.7 -7.8 4.9-15.3 10.6-22.6 17 3.4 9.1 7.5 17.6 12.1 25.5 -6.3 6.6-12.3 14-17.8 22 5.5 8 11.5 15.3 17.8 22 -4.6 7.9-8.7 16.5-12.1 25.6 7.2 6.4 14.8 12.1 22.6 17 -2.6 8.8-4.4 18.1-5.6 27.7 8.6 4.5 17.3 8.2 26 11.1 -0.3 9.2 0 18.6 1.2 28.3 9.4 2.3 18.8 3.8 27.9 4.6 1.8 9 4.5 18.1 7.9 27.2 9.7 0 19.2-0.7 28.2-2.2 3.9 8.3 8.6 16.5 14.2 24.5 9.4-2.3 18.4-5.3 26.9-8.9 5.8 7.1 12.4 13.9 19.7 20.4 8.6-4.5 16.6-9.6 23.9-15.1 7.3 5.5 15.3 10.6 23.9 15.1 7.3-6.4 13.9-13.3 19.7-20.4 8.4 3.6 17.4 6.6 26.8 8.9 5.5-8 10.3-16.2 14.2-24.5 9.1 1.5 18.5 2.2 28.2 2.2 3.4-9.1 6.1-18.2 7.9-27.2 9.1-0.7 18.5-2.2 27.9-4.6 1.2-9.6 1.6-19.1 1.2-28.3 8.7-2.9 17.4-6.6 26-11.1 -1.2-9.7-3-18.9-5.6-27.7 7.8-4.9 15.3-10.6 22.6-17 -3.4-9.1-7.5-17.7-12.1-25.6Zm-180.7 136.9c-86.6 0-156.9-70.2-156.9-156.9 0-86.6 70.2-156.9 156.9-156.9 86.7 0 156.9 70.2 156.9 156.9 0 86.7-70.2 156.9-156.9 156.9Z" fill="#60b5ca"/>
  <path d="M227.9 423.7l0.6 0.5c6.5 6.2 13.7 12 21.3 17.3 7.6-5.3 14.7-11.2 21.2-17.4l0.6-0.5 0.7 0.4c7.8 4.5 16.2 8.4 24.8 11.7 6.1-7 11.6-14.3 16.4-22l0.4-0.7 0.8 0.2c8.6 2.5 17.7 4.3 26.9 5.4 4.2-8.2 7.8-16.7 10.6-25.3l0.2-0.7 0.8 0c9 0.3 18.3 0 27.4-1.1 2.2-9 3.6-18.1 4.3-27.1l0.1-0.8 0.8-0.2c8.8-1.8 17.7-4.4 26.3-7.7 0-9.2-0.8-18.4-2.3-27.3l-0.1-0.8 0.7-0.3c8.1-3.9 16.1-8.5 23.7-13.8 -2.3-9-5.2-17.7-8.8-26l-0.3-0.7 0.6-0.5c7-5.7 13.6-12.1 19.7-19 -4.4-8.2-9.3-16-14.7-23.2l-0.5-0.6 0.5-0.6c5.4-7.2 10.3-15 14.6-23.2 -6.2-6.9-12.9-13.3-19.8-18.9l-0.6-0.5 0.3-0.7c3.5-8.3 6.4-17 8.6-26 -7.6-5.2-15.7-9.8-23.8-13.6l-0.7-0.3 0.1-0.8c1.4-8.8 2.1-18 2.1-27.3 -8.7-3.3-17.6-5.8-26.4-7.6l-0.8-0.1 -0.1-0.8c-0.7-9-2.2-18.1-4.4-27.1 -6.7-0.8-13.5-1.2-20.1-1.2 -2.4 0-4.9 0-7.3 0.2l-0.8 0 -0.2-0.7c-2.9-8.5-6.5-17-10.8-25.2 -9.2 1.2-18.2 3.1-26.8 5.6l-0.7 0.2 -0.4-0.7c-4.8-7.6-10.4-14.9-16.5-21.9 -8.6 3.3-16.9 7.3-24.7 11.8l-0.7 0.4 -0.6-0.5c-6.5-6.2-13.7-12-21.3-17.3 -7.6 5.3-14.7 11.1-21.2 17.4l-0.6 0.5 -0.7-0.4c-7.8-4.5-16.2-8.4-24.8-11.7 -6.1 7-11.6 14.4-16.4 22l-0.4 0.7 -0.8-0.2c-8.6-2.5-17.7-4.3-26.9-5.4 -4.2 8.2-7.8 16.7-10.7 25.3l-0.2 0.7 -0.8 0c-9-0.3-18.3 0.1-27.4 1.2 -2.2 9-3.6 18.1-4.3 27.1l0 0.8 -0.8 0.2c-8.8 1.8-17.7 4.4-26.4 7.7 0.1 9.3 0.8 18.4 2.3 27.3l0.1 0.8 -0.7 0.4c-8.1 3.9-16.1 8.5-23.7 13.8 2.3 9 5.2 17.7 8.8 26l0.3 0.7 -0.6 0.5c-7 5.7-13.6 12.1-19.7 19 4.3 8.2 9.3 16 14.7 23.1l0.5 0.6 -0.5 0.6c-5.4 7.2-10.3 15-14.6 23.2 6.1 6.9 12.8 13.3 19.8 18.9l0.6 0.5 -0.3 0.7c-3.5 8.3-6.4 17-8.6 26 7.6 5.2 15.6 9.8 23.8 13.6l0.7 0.3 -0.1 0.8c-1.4 8.8-2.1 18-2.1 27.3 8.7 3.2 17.6 5.8 26.4 7.6l0.7 0.2 0.1 0.8c0.7 9 2.2 18.1 4.4 27.1 6.7 0.8 13.5 1.2 20.1 1.2 2.4 0 4.9 0 7.3-0.2l0.8 0 0.2 0.7c2.9 8.5 6.5 17 10.8 25.2 9.2-1.2 18.2-3.1 26.9-5.6l0.7-0.2 0.4 0.7c4.9 7.6 10.4 14.9 16.6 21.9 8.6-3.3 16.9-7.3 24.7-11.8l0.7-0.6Z" style="fill:none;stroke-width:4.8;stroke:#333"/>
  <path d="M437.3 244.8l0.4-0.6 -0.4-0.6c-4.6-6.4-9.6-12.4-14.9-17.9l-2.2-2.3 1.6-2.7c3.8-6.6 7.3-13.7 10.2-20.9l0.3-0.7 -0.6-0.5c-6-5.1-12.3-9.7-18.7-13.8l-2.7-1.7 0.9-3c2.1-7.3 3.8-15 4.9-22.8l0.1-0.7 -0.7-0.3c-7-3.5-14.3-6.5-21.5-8.9l-3-1 0.1-3.2c0.3-7.6 0.1-15.5-0.8-23.3l-0.1-0.7 -0.7-0.1c-7.7-1.7-15.4-2.9-23-3.5l-3.2-0.3 -0.6-3.1c-1.5-7.5-3.6-15-6.3-22.4l-0.2-0.7 -0.7 0c-7.8 0.1-15.7 0.8-23.2 2.1l-3.1 0.5 -1.4-2.9c-3.3-6.9-7.1-13.7-11.4-20.3l-0.4-0.6 -0.7 0.2c-7.6 2-15 4.6-22 7.6l-2.9 1.3 -2-2.5c-4.8-5.9-10.2-11.6-16-16.9l-0.5-0.5 -0.6 0.4c-6.8 3.8-13.4 8-19.6 12.6l-2.5 1.9 -2.5-1.9c-6.1-4.6-12.7-8.9-19.6-12.6l-0.6-0.4 -0.5 0.5c-5.8 5.3-11.2 11-16 16.9l-2 2.5 -2.9-1.3c-7-3-14.4-5.5-22-7.6l-0.7-0.2 -0.4 0.6c-4.3 6.6-8.2 13.4-11.5 20.3l-1.3 2.9 -3.1-0.5c-7.5-1.2-15.3-1.9-23.2-2.1l-0.7 0 -0.2 0.7c-2.6 7.4-4.7 14.9-6.3 22.4l-0.6 3.1 -3.2 0.3c-7.6 0.6-15.4 1.8-23 3.5l-0.7 0.1 -0.1 0.7c-0.8 7.8-1 15.6-0.7 23.3l0.1 3.2 -3 1c-7.3 2.4-14.5 5.4-21.5 8.9l-0.6 0.3 0.1 0.7c1.1 7.8 2.7 15.4 4.9 22.8l0.9 3 -2.7 1.7c-6.4 4.1-12.8 8.7-18.7 13.8l-0.5 0.5 0.3 0.7c2.9 7.3 6.4 14.3 10.2 20.9l1.6 2.7 -2.2 2.3c-5.3 5.5-10.3 11.5-14.9 17.9l-0.4 0.6 0.4 0.6c4.6 6.4 9.6 12.4 14.9 17.9l2.2 2.3 -1.6 2.8c-3.8 6.6-7.3 13.6-10.2 20.9l-0.3 0.7 0.5 0.5c6 5.1 12.3 9.7 18.7 13.8l2.7 1.7 -0.9 3.1c-2.1 7.3-3.8 15-4.9 22.8l-0.1 0.7 0.6 0.3c7 3.5 14.3 6.5 21.5 8.9l3 1 -0.1 3.2c-0.3 7.6 0 15.5 0.7 23.3l0.1 0.7 0.7 0.2c7.7 1.7 15.4 2.9 23 3.5l3.2 0.3 0.6 3.1c1.5 7.5 3.6 15.1 6.3 22.4l0.2 0.7 0.7 0c7.8-0.2 15.6-0.9 23.2-2.1l3.1-0.5 1.3 2.9c3.3 6.9 7.1 13.7 11.5 20.3l0.4 0.6 0.7-0.2c7.6-2 15-4.6 22-7.6l2.9-1.3 2 2.5c4.8 5.9 10.2 11.6 16 16.9l0.5 0.5 0.6-0.4c6.8-3.8 13.4-8 19.6-12.6l2.5-1.9 2.5 1.9c6.1 4.6 12.7 8.9 19.6 12.6l0.6 0.4 0.5-0.5c5.8-5.3 11.2-11 16-16.9l2-2.5 2.9 1.3c7 3 14.4 5.5 22 7.6l0.7 0.2 0.4-0.6c4.3-6.6 8.2-13.4 11.4-20.3l1.4-2.9 3.1 0.5c7.5 1.2 15.3 1.9 23.2 2.1l0.7 0 0.2-0.7c2.6-7.4 4.7-15 6.3-22.4l0.6-3.1 3.2-0.3c7.6-0.6 15.4-1.8 23-3.5l0.7-0.2 0.1-0.7c0.8-7.8 1.1-15.7 0.8-23.3l-0.1-3.2 3-1c7.2-2.4 14.5-5.4 21.5-8.9l0.7-0.3 -0.1-0.7c-1.1-7.8-2.7-15.4-4.9-22.8l-0.9-3.1 2.7-1.7c6.5-4.1 12.8-8.7 18.7-13.8l0.6-0.5 -0.3-0.7c-2.9-7.3-6.4-14.3-10.2-20.9l-1.6-2.8 2.2-2.3c5.3-5.5 10.3-11.5 14.9-17.9Zm-188.1 163.2c-89.3 0-161.8-72.4-161.8-161.8 0-89.3 72.4-161.8 161.8-161.8 89.4 0 161.8 72.4 161.8 161.8 0 89.4-72.4 161.8-161.8 161.8Z" fill="#fefff7"/>
  <path d="M249.2 385.7c-77.1 0-139.8-62.7-139.8-139.8 0-77.1 62.7-139.8 139.8-139.8 77.1 0 139.8 62.7 139.8 139.8 0 77.1-62.7 139.8-139.8 139.8Z" style="fill:#fce889;stroke-width:2.6;stroke:#333"/>
  <path d="M376.2 293.8c-19.4 51.3-69 87.9-127 87.9 -55.6 0-103.5-33.6-124.4-81.5m-3.8-98.8c18.5-53 69-91.2 128.3-91.2 60.1 0 111.3 39.3 129.1 93.6" style="fill:none;stroke-width:5.7;stroke:#fefff7"/>
  <rect x="43.7" y="209.5" width="414.2" height="76.2" style="fill:#fce889;stroke-width:2.9;stroke:#333"/>
  <path d="M105 249.8l5.4-17.6 7.1 0 5.4 17.6 6.1-17.6 7.4 0 -10.7 30.7 -5.1 0 -6.7-21.3 -6.7 21.3 -5.1 0 -10.7-30.7 7.6 0 6 17.6Zm57.2-17.7l0 6.1 -15.2 0 0 6.3 13.7 0 0 5.8 -13.7 0 0 6.4 15.7 0 0 6.1 -22.6 0 0-30.7 22.1 0Zm20 30.7l-13.4 0 0-30.7 11.9 0c2.1 0 3.9 0.2 5.4 0.7 1.5 0.5 2.6 1.2 3.4 2 1.4 1.6 2.1 3.4 2.1 5.3 0 2.4-0.8 4.2-2.3 5.3 -0.5 0.4-0.9 0.7-1.1 0.8 -0.2 0.1-0.6 0.3-1.1 0.5 1.9 0.4 3.4 1.3 4.5 2.6 1.1 1.3 1.7 2.9 1.7 4.8 0 2.1-0.7 4-2.2 5.7 -1.7 2-4.6 3-8.9 3Zm-6.5-18.2l3.2 0c1.9 0 3.3-0.2 4.2-0.6 0.9-0.4 1.4-1.3 1.4-2.7 0-1.4-0.4-2.3-1.3-2.7 -0.8-0.4-2.3-0.7-4.3-0.7l-3.3 0 0 6.7 0.1 0Zm0 12.4l4.7 0c2 0 3.4-0.2 4.4-0.7 1-0.5 1.5-1.4 1.5-2.9 0-1.4-0.5-2.4-1.6-2.8 -1-0.5-2.7-0.7-5-0.7l-4 0 0 7.1Zm47.9-18.9l0 24.7 -6.8 0 0-24.7 -8.7 0 0-5.9 24.2 0 0 5.9 -8.7 0Zm38.5 4.2c0 4.9-1.9 8.1-5.8 9.5l7.8 11 -8.4 0 -6.8-9.8 -4.7 0 0 9.8 -6.8 0 0-30.7 11.6 0c4.8 0 8.2 0.8 10.2 2.4 1.9 1.7 2.9 4.3 2.9 7.8Zm-8.2 3.7c0.8-0.8 1.3-2 1.3-3.6 0-1.7-0.4-2.8-1.3-3.4 -0.9-0.6-2.4-0.9-4.6-0.9l-5.1 0 0 9.1 5 0c2.3-0.1 3.8-0.5 4.7-1.2Zm37.1 16.8l-2.8-6.6 -12.8 0 -2.9 6.6 -7.3 0 13.2-30.7 6.6 0 13.2 30.7 -7.2 0Zm-9.3-21.5l-3.9 8.9 7.7 0 -3.8-8.9Zm20.1-9.2l6.8 0 0 30.7 -6.8 0 0-30.7Zm35.8 0l6.8 0 0 30.7 -6.8 0 -14.6-19.2 0 19.2 -6.8 0 0-30.7 6.4 0 15 19.7 0-19.7Zm36.5 0l0 6.1 -15.3 0 0 6.3 13.7 0 0 5.8 -13.7 0 0 6.4 15.7 0 0 6.1 -22.5 0 0-30.7 22.1 0Zm31.5 10.2c0 4.9-1.9 8.1-5.8 9.5l7.8 11 -8.4 0 -6.8-9.8 -4.7 0 0 9.8 -6.8 0 0-30.7 11.6 0c4.8 0 8.2 0.8 10.2 2.4 1.9 1.7 2.9 4.3 2.9 7.8Zm-8.3 3.7c0.8-0.8 1.3-2 1.3-3.6 0-1.7-0.4-2.8-1.3-3.4 -0.9-0.6-2.4-0.9-4.6-0.9l-5.1 0 0 9.1 5 0c2.3-0.1 3.9-0.5 4.7-1.2Z" fill="#333"/>
  <path d="M264.3 191.5l0-20.8c0-0.3-0.1-0.5-0.4-0.7 -4.5-2.8-9-5.6-13.4-8.3 -0.3-0.2-0.5-0.2-0.8 0l-13.5 8.4c-0.3 0.2-0.3 0.4-0.3 0.7l0 20.9c-0.2-0.1-0.3-0.1-0.4-0.2 -1.5-0.9-3-1.8-4.4-2.6 -0.2-0.1-0.3-0.3-0.3-0.5l0-20.5c0-0.3 0.1-0.4 0.3-0.6 6.3-3.9 12.5-7.7 18.8-11.6 0.2-0.1 0.4-0.1 0.6 0 6.2 3.9 12.5 7.7 18.7 11.6 0.2 0.1 0.3 0.3 0.3 0.6l0 20.5c0 0.2-0.1 0.4-0.2 0.5 -1.5 0.9-3.1 1.8-4.6 2.7 -0.2-0.2-0.3-0.2-0.4-0.1ZM246.9 169.2l0 24.1c0 0.4 0.1 0.6 0.5 0.8 0.8 0.4 1.5 0.9 2.3 1.4 0.2 0.2 0.4 0.1 0.7 0 0.8-0.5 1.6-1 2.4-1.4 0.3-0.2 0.4-0.4 0.4-0.7l0-24.1c0.2 0.1 0.2 0.1 0.3 0.1 1.7 1 3.5 2.1 5.2 3.1 0.2 0.1 0.3 0.3 0.3 0.6l0 21.4c0 0.3-0.1 0.4-0.3 0.6 -2.8 1.7-5.6 3.5-8.3 5.2 -0.2 0.1-0.4 0.2-0.6 0 -2.8-1.8-5.6-3.5-8.4-5.2 -0.2-0.1-0.3-0.3-0.3-0.6l0-21.4c0-0.2 0.1-0.4 0.2-0.5l5.4-3.3c0.1 0 0.1 0 0.2-0.1Z" fill="#333"/>
  <path d="M235.3 318.8l-0.8-0.8c-2.5-2.5-3.2-6-2.3-9.1 -2.5-0.6-4.3-2.8-4.3-5.4 0-3.1 2.5-5.5 5.5-5.5 2.7 0 5 2 5.5 4.6 3-0.7 6.2 0.1 8.6 2.4l0.3 0.3 -4.1 4.1 -0.3-0.3c-1.3-1.3-3.5-1.3-4.8 0 -1.3 1.3-1.3 3.5 0 4.8l9.2 9.2 -4.1 4.1 -4.3-4.3 -4.1-4.1ZM239.9 314.2l4.3-4.3 4.1-4.1 0.8-0.8c2.5-2.5 6-3.2 9.1-2.3 0.4-2.7 2.7-4.8 5.5-4.8 3.1 0 5.5 2.5 5.5 5.5 0 2.8-2.1 5.1-4.8 5.5 0.9 3.1 0.1 6.6-2.3 9l-0.3 0.3 -4.1-4.1 0.3-0.3c1.3-1.3 1.3-3.5 0-4.8 -1.3-1.3-3.5-1.3-4.8 0l-0.8 0.8 -4.1 4.1 -4.3 4.3 -4.1-4ZM258.3 334.8c-3.1 1-6.7 0.2-9.2-2.3l-0.3-0.3 4.1-4.1 0.3 0.3c1.3 1.3 3.5 1.3 4.8 0 1.3-1.3 1.3-3.5 0-4.8l-0.8-0.8 -4.1-4.1 -4.3-4.3 4.1-4.1 9.2 9.2c2.3 2.3 3.2 5.6 2.4 8.6 2.7 0.4 4.7 2.7 4.7 5.5 0 3.1-2.5 5.5-5.5 5.5 -2.7 0.2-4.9-1.7-5.4-4.3ZM256.7 323.4l-4.3 4.3 -4.1 4.1 -0.8 0.8c-2.4 2.4-5.7 3.2-8.7 2.4 -0.6 2.5-2.8 4.3-5.4 4.3 -3.1 0-5.5-2.5-5.5-5.5 0-2.6 1.8-4.8 4.3-5.4 -0.8-3 0-6.4 2.4-8.7l0.3-0.3 4.1 4.1 -0.3 0.3c-1.3 1.3-1.3 3.5 0 4.8 1.3 1.3 3.5 1.3 4.8 0l0.8-0.8 4.1-4.1 4.3-4.3 4 4Z" fill="#333"/>
  <path d="M43.9 231.3l32.6 0m-32.6 10.6l32.6 0m-32.6 10.5l32.6 0m-32.6 10.6l32.6 0m349.6-31.7l32.6 0m-32.6 10.6l32.6 0m-32.6 10.5l32.6 0m-32.6 10.6l32.6 0" style="fill:none;stroke-width:2.9;stroke:#333"/>
  <path d="M45.1 283.9l411.1 0m-411.1-71.8l411.1 0" style="fill:none;stroke-width:2.9;stroke:#60b5ca"/>
  <path d="M152.5 189c-1.1 0.2-2.1 0.1-3-0.5 -0.9-0.6-1.5-1.4-1.8-2.5 -0.2-1.1-0.1-2.1 0.5-3 0.6-0.9 1.4-1.5 2.5-1.8 1.1-0.2 2.1-0.1 3 0.5 0.9 0.6 1.5 1.4 1.8 2.5 0.2 1.1 0.1 2.1-0.5 3 -0.6 1-1.4 1.6-2.5 1.8Zm12-16.6c-1.1 0-2.1-0.3-2.9-1.1 -0.8-0.7-1.3-1.7-1.3-2.8 0-1.1 0.3-2.1 1-2.9 0.8-0.8 1.7-1.3 2.8-1.3 1.1 0 2.1 0.3 2.9 1.1 0.8 0.8 1.3 1.7 1.3 2.8 0.1 1.1-0.3 2.1-1 2.9 -0.8 0.8-1.7 1.3-2.8 1.3Zm25.3-29.2l1.5 12.2 -2.2 1.5 -10.6-6.2 7 10.6 -3.7 2.5 -11-16.8 5.1-3.3 10.4 6.4 -1.7-12.1 5-3.3 11 16.8 -3.7 2.5 -7.1-10.8Zm27.8 1.5l-3.3-3.4 -7.9 3 -0.2 4.7 -4.5 1.7 1.1-21.9 4.1-1.5 15.1 15.7 -4.4 1.7Zm-10.7-11.1l-0.3 6.4 4.7-1.8 -4.4-4.6Zm27.8-2.9l4.5-0.7 1.2 7c-1.6 2.5-4.1 4.1-7.6 4.6 -2.9 0.5-5.5-0.1-7.8-1.7 -2.3-1.6-3.7-3.9-4.2-6.8 -0.5-2.9 0.1-5.6 1.8-7.9 1.7-2.3 4-3.7 6.8-4.2 2.8-0.5 5.5 0.1 7.9 1.6l-1.8 3.7c-1-0.6-1.9-1-2.7-1.2 -0.8-0.2-1.6-0.2-2.5 0 -1.7 0.3-3 1.1-4 2.4 -1 1.3-1.3 2.9-1 4.8 0.3 1.9 1.1 3.3 2.4 4.2 1.3 0.9 2.7 1.3 4.2 1 1.5-0.3 2.8-0.8 3.7-1.5l-0.9-5.3Zm24.1-10.5l-0.1 4 -10-0.2 -0.1 4.1 9 0.2 -0.1 3.8 -9-0.2 -0.1 4.2 10.3 0.2 -0.1 4 -14.6-0.3 0.4-20.1 14.4 0.3Zm21.1 3.6l4.4 0.9 -4.2 19.7 -4.4-0.9 -6.8-14.3 -2.6 12.3 -4.4-0.9 4.2-19.7 4.1 0.9 7 14.7 2.7-12.7Zm18.1 10.4l-6.3 15 -4.1-1.7 6.3-15 -5.3-2.2 1.5-3.6 14.7 6.1 -1.5 3.6 -5.3-2.2Zm16.5 24.8c-2.8 0.6-5.4 0-7.9-1.6 -2.5-1.6-4-3.8-4.7-6.6 -0.6-2.8-0.1-5.4 1.5-7.9 1.6-2.5 3.8-4 6.6-4.5 2.8-0.6 5.4 0 7.9 1.6 2.5 1.6 4 3.8 4.7 6.6 0.6 2.8 0.1 5.4-1.5 7.9 -1.7 2.5-3.9 4-6.6 4.5Zm2.7-7c1-1.5 1.3-3.1 1.1-4.8 -0.3-1.7-1.1-3-2.5-3.9 -1.4-0.9-2.9-1.2-4.6-0.7 -1.7 0.5-3 1.4-4 2.9 -1 1.5-1.3 3.1-1.1 4.8 0.3 1.7 1.1 3 2.5 3.9 1.4 0.9 2.9 1.2 4.6 0.7 1.7-0.4 3-1.4 4-2.9Zm11 14.6c0-1.1 0.4-2 1.3-2.8 0.8-0.8 1.8-1.1 2.9-1.1 1.1 0 2 0.4 2.8 1.3 0.8 0.9 1.1 1.8 1.1 2.9 0 1.1-0.4 2-1.3 2.8 -0.8 0.8-1.8 1.1-2.9 1.1 -1.1 0-2-0.4-2.8-1.3 -0.8-0.8-1.2-1.8-1.1-2.9Zm13 15.7c0.2-1.1 0.8-1.9 1.7-2.5 0.9-0.6 1.9-0.8 3-0.6 1.1 0.2 1.9 0.8 2.5 1.7 0.6 0.9 0.8 1.9 0.6 3 -0.2 1.1-0.8 1.9-1.7 2.5 -0.9 0.6-1.9 0.8-3 0.6 -1.1-0.2-1.9-0.8-2.5-1.7 -0.6-0.9-0.8-1.9-0.6-3Zm-184.9 131.2c0.2-1.1 0.8-1.9 1.7-2.6 0.9-0.7 1.9-0.8 3-0.6 1.1 0.2 1.9 0.8 2.6 1.7 0.6 0.9 0.8 1.9 0.6 3 -0.2 1.1-0.8 1.9-1.7 2.6 -0.9 0.6-1.9 0.8-3 0.6 -1.1-0.2-1.9-0.8-2.6-1.7 -0.6-0.9-0.8-1.9-0.6-3Zm13.2 16.7c0-1.1 0.4-2 1.2-2.8 0.8-0.8 1.7-1.2 2.8-1.2 1.1 0 2 0.4 2.8 1.2 0.8 0.8 1.2 1.7 1.2 2.8 0 1.1-0.4 2-1.2 2.8 -0.8 0.8-1.7 1.2-2.8 1.2 -1.1 0-2-0.4-2.8-1.2 -0.8-0.7-1.2-1.7-1.2-2.8Zm21.4 5.6l2.1-3.2 8.8 5.7 -7.1 11c-1.3 2-2.8 3.2-4.5 3.5 -1.7 0.3-3.3 0-5-1.1 -2-1.3-3.3-3.2-3.8-5.8l3.7-1.4c0.3 1.8 1 3 2.1 3.7 0.5 0.3 1.1 0.4 1.8 0.3 0.6-0.2 1.2-0.7 1.8-1.5l5.1-7.9 -5-3.3Zm22.9 26.7c-2.6 1.1-5.3 1.1-8.1 0 -2.8-1.1-4.7-3-5.9-5.6 -1.2-2.6-1.2-5.3-0.1-8 1.1-2.7 3-4.7 5.6-5.7 2.6-1.1 5.3-1.1 8.1 0 2.8 1.1 4.7 3 5.9 5.6 1.1 2.6 1.2 5.3 0.1 8 -1.1 2.7-3 4.6-5.6 5.7Zm1.3-7.5c0.7-1.7 0.7-3.3 0.1-4.9 -0.6-1.6-1.7-2.7-3.2-3.3 -1.6-0.6-3.1-0.6-4.6 0.2 -1.5 0.7-2.6 2-3.3 3.6 -0.7 1.6-0.7 3.3-0.1 4.9 0.6 1.6 1.7 2.7 3.2 3.3 1.6 0.6 3.1 0.6 4.6-0.2 1.5-0.7 2.6-1.9 3.3-3.6Zm24.1 12.6c-2.3 1.7-4.9 2.3-7.9 1.8 -2.9-0.4-5.3-1.8-7-4.1 -1.7-2.3-2.3-4.9-1.9-7.8 0.4-2.9 1.8-5.2 4.1-6.9 2.3-1.7 4.9-2.3 7.9-1.8 2.9 0.4 5.3 1.8 7 4.1 1.7 2.3 2.3 4.9 1.9 7.8 -0.4 3-1.8 5.2-4.1 6.9Zm-0.4-7.5c0.3-1.8-0.1-3.4-1-4.8 -0.9-1.4-2.2-2.3-3.9-2.5 -1.7-0.3-3.2 0.2-4.5 1.2 -1.3 1.1-2.1 2.5-2.4 4.3 -0.3 1.8 0.1 3.4 1 4.8 0.9 1.4 2.3 2.2 3.9 2.5 1.7 0.3 3.2-0.2 4.5-1.2 1.3-1.1 2.1-2.6 2.4-4.3Zm26.5-3.3l-4.4 11.4 -2.7 0.2 -6.4-10.4 1.2 12.6 -4.5 0.4 -1.8-20 6-0.6 6.2 10.5 4.2-11.5 6-0.6 1.8 20 -4.5 0.4 -1.1-12.4Zm13 10.2l-6-19.2 4.3-1.3 4.8 15.4 8.2-2.6 1.2 3.8 -12.5 3.9Zm30.3-12.7l-3.7-3 -7.5 3.9 0.4 4.7 -4.2 2.2 -1.7-21.8 3.8-2 17.1 13.7 -4.2 2.3Zm-12-9.6l0.5 6.3 4.5-2.3 -5-4Zm7.1-11.3l4.1-3 2.1 2.9 5.4 8.9 -2.7 2 -6.8-7.9 -2.1-2.9Zm12.2 15.4c-0.7-0.1-1.2-0.4-1.7-1 -0.4-0.6-0.6-1.2-0.5-1.9 0.1-0.7 0.4-1.2 1-1.7 0.6-0.5 1.2-0.6 1.9-0.5 0.7 0.1 1.2 0.4 1.7 1 0.4 0.6 0.6 1.2 0.5 1.9 -0.1 0.7-0.4 1.2-1 1.7 -0.6 0.5-1.3 0.6-1.9 0.5Zm10.7-16.5c-1.1 0-2-0.3-2.9-1.1 -0.8-0.8-1.2-1.7-1.2-2.8 0-1.1 0.3-2 1.1-2.9 0.8-0.8 1.7-1.2 2.8-1.2 1.1 0 2 0.3 2.9 1.1 0.8 0.8 1.2 1.7 1.2 2.8 0 1.1-0.3 2-1.1 2.9 -0.8 0.8-1.7 1.2-2.8 1.2Zm13.6-16.4c-1.1 0.2-2.1 0.1-3-0.5 -0.9-0.6-1.5-1.4-1.8-2.5 -0.2-1.1-0.1-2.1 0.5-3 0.6-0.9 1.4-1.5 2.5-1.8 1.1-0.2 2.1-0.1 3 0.5 0.9 0.6 1.5 1.4 1.8 2.5 0.2 1.1 0.1 2.1-0.5 3 -0.6 1-1.5 1.6-2.5 1.8Z" fill="#333"/>
</svg>
