<svg xmlns="http://www.w3.org/2000/svg" viewBox="0 0 500 500">
  <title>Hans is sharing</title>
  <style>.svg-sharing{fill:none;stroke-width:4.7;stroke:#333;}</style>
  <path d="M178.8 125.9l1.9-2.5 4 3c0.4 2.1-0.1 4.1-1.6 6.1 -1.3 1.7-2.9 2.6-4.8 2.9 -1.9 0.3-3.8-0.2-5.5-1.5 -1.7-1.3-2.6-2.9-2.9-4.9 -0.3-2 0.2-3.8 1.5-5.4 1.2-1.6 2.8-2.6 4.8-3l0.9 2.7c-0.8 0.2-1.5 0.4-2 0.7 -0.5 0.3-0.9 0.7-1.3 1.2 -0.7 1-1 2-0.9 3.2 0.2 1.2 0.8 2.1 1.8 2.9 1.1 0.8 2.2 1.1 3.3 1 1.1-0.1 2-0.7 2.7-1.5 0.7-0.9 1-1.7 1.1-2.6l-3-2.3Zm6.8-17.2l2 2 -5.1 4.9 2 2.1 4.6-4.4 1.9 1.9 -4.6 4.4 2.1 2.1 5.2-5.1 2 2 -7.5 7.3 -9.9-10.2 7.3-7Zm11.7-8.8l2.6-1.8 8.1 11.6 -2.6 1.8 -10.6-3.4 5.1 7.3 -2.6 1.8 -8.1-11.6 2.4-1.7 10.9 3.5 -5.2-7.5Zm15.2 3.5c0.8 0.4 1.5 0.4 2.3 0 0.8-0.4 1.3-1 1.5-1.8 0.2-0.8 0-1.7-0.4-2.8l-3.3-7.1 2.9-1.3 3.4 7.2c0.9 1.9 1 3.5 0.5 5 -0.6 1.5-1.6 2.6-3.2 3.4 -1.6 0.8-3.2 0.9-4.7 0.4 -1.5-0.5-2.7-1.7-3.6-3.5l-3.4-7.2 2.9-1.3 3.3 7.1c0.4 0.8 1 1.5 1.8 1.9Zm7.3-14.5l3-1 4.5 13.5 -3 1 -4.5-13.5Zm17.3-4.5l3.1-0.6 2.8 13.9 -3.1 0.6 -8.4-7.4 1.7 8.7 -3.1 0.6 -2.8-13.9 2.9-0.6 8.6 7.6 -1.7-8.9Zm18.6-1.4l0.1 2.8 -7.1 0.2 0.1 2.9 6.4-0.2 0.1 2.7 -6.3 0.2 0.1 2.9 7.3-0.3 0.1 2.8 -10.4 0.4 -0.5-14.2 10.1-0.2Zm13.3 4c-0.3 0.2-0.5 0.5-0.6 0.9 -0.1 0.4 0.1 0.8 0.4 1.1 0.3 0.3 1.1 0.7 2.4 1.3 1.3 0.5 2.2 1.2 2.9 2 0.6 0.8 0.8 1.8 0.6 3 -0.2 1.2-0.8 2.2-1.9 2.8 -1.1 0.6-2.4 0.8-3.9 0.6 -2.2-0.4-4.1-1.5-5.6-3.4l2.2-2c1.3 1.6 2.6 2.5 3.9 2.7 0.6 0.1 1 0 1.4-0.1 0.4-0.2 0.6-0.5 0.7-0.9 0.1-0.4 0-0.8-0.4-1.1 -0.3-0.3-1-0.7-1.9-1.1 -1.6-0.7-2.7-1.4-3.3-2.1 -0.7-0.7-0.9-1.8-0.7-3.1 0.2-1.3 0.9-2.3 1.9-2.8 1-0.5 2.3-0.7 3.8-0.5 0.9 0.2 1.8 0.5 2.7 0.9 0.9 0.5 1.6 1.1 2.2 1.8l-2 2c-1.1-1.1-2.2-1.8-3.5-2 -0.5-0.2-1-0.2-1.3 0Zm19.9 2.1l3 1 -4.4 13.5 -3-1 1.7-5.3 -5.4-1.8 -1.7 5.3 -3-1 4.4-13.5 3 1 -1.8 5.6 5.4 1.8 1.8-5.6Zm10.3 20.3l0.3-3.3 -5.3-2.8 -2.6 2.1 -3-1.6 12-9.7 2.7 1.4 -1.2 15.4 -2.9-1.5Zm0.8-10.8l-3.5 2.8 3.1 1.6 0.4-4.4Zm17.9 12.5c-1.4 1.8-3 2.5-4.8 1.9l-0.2 6.2 -3.1-2.3 0.2-5.5 -1.8-1.3 -2.7 3.6 -2.5-1.9 8.5-11.4 4.3 3.2c1.8 1.3 2.8 2.6 3.1 3.7 0.4 1.2 0 2.5-1 3.8Zm-4-1c0.5 0 1-0.4 1.5-1 0.5-0.6 0.6-1.2 0.5-1.6 -0.2-0.5-0.6-1-1.4-1.6l-1.9-1.4 -2.5 3.4 1.9 1.4c0.7 0.6 1.4 0.9 1.9 0.8Zm17.7 7.8l-2 2 -5-5 -2.1 2 4.5 4.5 -1.9 1.9 -4.5-4.5 -2.1 2.1 5.1 5.2 -2 2 -7.3-7.5 10.1-9.9 7.2 7.2Zm6 15.6c-1.8 1.3-3.6 1.5-5.2 0.4l-2 5.9 -2.3-3.2 1.8-5.2 -1.3-1.8 -3.7 2.7 -1.9-2.6 11.5-8.3 3.2 4.4c1.3 1.8 1.9 3.3 1.9 4.5 0 1.2-0.7 2.3-2 3.2Zm-3.7-2.1c0.5 0.1 1.1-0.1 1.7-0.5 0.6-0.4 0.9-0.9 0.9-1.4 0-0.5-0.3-1.2-0.9-2l-1.4-1.9 -3.4 2.5 1.4 1.9c0.7 0.8 1.2 1.3 1.7 1.4Z" fill="#333"/>
  <path d="M401.7 138.7c-5.3-16.4-0.4-38.2-10.3-51.8 -10-13.8-32.3-15.8-46.1-25.8 -13.6-9.9-22.4-30.6-38.8-35.9 -15.8-5.1-34.9 6.3-52.5 6.3 -17.5 0-36.7-11.4-52.5-6.3 -16.4 5.3-25.1 26-38.8 35.9 -13.8 10-36.1 12-46.1 25.8 -9.9 13.6-5 35.4-10.3 51.8 -5.1 15.8-22.1 30.4-22.1 48 0 17.5 16.9 32.2 22.1 48 5.3 16.4 0.4 38.2 10.3 51.8 10 13.8 32.3 15.8 46.1 25.8 13.6 9.9 22.4 30.6 38.8 35.9 15.8 5.1 35-6.3 52.5-6.3 17.5 0 36.7 11.4 52.5 6.3 16.4-5.3 25.1-26 38.8-35.9 13.8-10 36.1-12 46.1-25.8 9.9-13.6 5-35.4 10.3-51.8 5.1-15.8 22.1-30.5 22.1-48 -0.1-17.5-17-32.2-22.1-48Z" class="svg-sharing"/>
  <path d="M386.6 99.4c0 4.2-3.4 7.6-7.6 7.6 -4.2 0-7.6-3.4-7.6-7.6 0-4.2 3.4-7.6 7.6-7.6 4.2 0 7.6 3.4 7.6 7.6Zm27.9 86.8c0 4.2-3.4 7.6-7.6 7.6 -4.2 0-7.6-3.4-7.6-7.6 0-4.2 3.4-7.6 7.6-7.6 4.1-0.1 7.6 3.4 7.6 7.6Zm-304.6 0c0 4.2-3.4 7.6-7.6 7.6 -4.2 0-7.6-3.4-7.6-7.6 0-4.2 3.4-7.6 7.6-7.6 4.2-0.1 7.6 3.4 7.6 7.6Zm272.4 93.1c0 4.2-3.4 7.6-7.6 7.6 -4.2 0-7.6-3.4-7.6-7.6 0-4.2 3.4-7.6 7.6-7.6 4.1-0.1 7.6 3.3 7.6 7.6Zm-76.5 53.2c0 4.2-3.4 7.6-7.6 7.6 -4.2 0-7.6-3.4-7.6-7.6 0-4.2 3.4-7.6 7.6-7.6 4.2-0.1 7.6 3.3 7.6 7.6Zm-92.2 0c0 4.2-3.4 7.6-7.6 7.6 -4.2 0-7.6-3.4-7.6-7.6 0-4.2 3.4-7.6 7.6-7.6 4.2-0.1 7.6 3.3 7.6 7.6Zm-75.3-53.2c0 4.2-3.4 7.6-7.6 7.6 -4.2 0-7.6-3.4-7.6-7.6 0-4.2 3.4-7.6 7.6-7.6 4.2-0.1 7.6 3.3 7.6 7.6Zm170.8-237.2c0 4.2-3.4 7.6-7.6 7.6 -4.2 0-7.6-3.4-7.6-7.6 0-4.2 3.4-7.6 7.6-7.6 4.2 0 7.6 3.4 7.6 7.6Zm-96.6 0c0 4.2-3.4 7.6-7.6 7.6 -4.2 0-7.6-3.4-7.6-7.6 0-4.2 3.4-7.6 7.6-7.6 4.2 0 7.6 3.4 7.6 7.6Zm-75.8 57.3c0 4.2-3.4 7.6-7.6 7.6 -4.2 0-7.6-3.4-7.6-7.6 0-4.2 3.4-7.6 7.6-7.6 4.1 0 7.6 3.4 7.6 7.6Z" fill="#60b5ca"/>
  <path d="M209.8 316.9c-9.1 0-17.3-5.4-20.9-13.8l-8.5-19.8c-5.4-10.7-14-18.6-24.9-23l-15.6-6.2c-7.5-3-12.8-9.7-14-17.7 -0.6-4-0.1-8.1 1.4-11.8l6.1-15.3c4.6-11.5 4.6-24.1 0.1-35.6 -0.4-0.9-0.8-1.8-1.2-2.8l-7.9-18.4c-1.9-4.4-2.3-9.2-1.3-13.8 1.6-7.1 6.5-13.1 13.2-16l21.3-9.1c10.8-5.1 19.3-13.9 24-24.9l6.5-16.1c3.5-8.6 11.7-14.3 21.1-14.3 2.9 0 5.7 0.6 8.4 1.6l17.8 7.1c4.9 1.7 10.1 2.5 15.2 2.5 6.5 0 12.9-1.3 19-3.9l17.2-7.3c2.8-1.2 5.8-1.9 8.9-1.9 9.1 0 17.3 5.4 20.9 13.8l8 18.6c5.1 10.8 14 19.4 25 24l19.9 8c5.6 2.2 10.1 6.5 12.4 12.1 2.4 5.6 2.5 11.7 0.2 17.4l-8.4 20.9c-4 11.3-3.7 23.6 0.9 34.7l6.3 14.8c4.9 11.5-0.4 24.9-11.9 29.8l-16.7 7.2c-10.6 5.3-18.9 14.2-23.3 25.3l-7.7 19.3c-3.5 8.7-11.7 14.3-21.1 14.3 -2.9 0-5.8-0.6-8.5-1.6l-20.7-8.3c-5.3-1.9-10.8-2.9-16.4-2.9 -6.4 0-12.7 1.3-18.7 3.8l-17.4 7.4c-2.7 1.3-5.7 1.9-8.7 1.9Zm-0.5-258c-9.1 0-17.2 5.5-20.6 14l-6.5 16.1c-4.7 11.1-13.3 20-24.2 25.1l-21.4 9.1c-6.5 2.8-11.4 8.6-12.9 15.6 -1 4.5-0.6 9.2 1.3 13.5l7.9 18.4c0.4 0.9 0.8 1.8 1.2 2.8 4.5 11.6 4.5 24.3-0.1 35.9l-6.2 15.3c-1.5 3.7-1.9 7.7-1.3 11.6 1.2 7.8 6.4 14.4 13.7 17.3l15.6 6.2c11 4.4 19.8 12.5 25.2 23.2l8.4 19.8c3.5 8.2 11.5 13.5 20.4 13.5 3 0 6-0.6 8.7-1.8l17.4-7.4c6-2.5 12.4-3.8 18.9-3.8 5.7 0 11.2 1 16.6 2.9l20.8 8.3c2.7 1.1 5.4 1.6 8.3 1.6 9.1 0 17.2-5.5 20.6-13.9l7.7-19.3c4.5-11.1 12.8-20.2 23.6-25.5l16.8-7.2c11.2-4.8 16.5-17.9 11.7-29.1l-6.3-14.8c-4.7-11.2-5-23.7-0.9-35.1l8.4-20.9c2.2-5.5 2.1-11.5-0.2-17 -2.3-5.5-6.6-9.7-12.1-11.9l-20-8c-11.1-4.7-20.1-13.3-25.3-24.2l-7.9-18.6c-3.5-8.2-11.5-13.5-20.4-13.5 -3 0-5.9 0.6-8.7 1.8l-17.5 7.4c-6.2 2.6-12.6 4-19.2 4 -5.3 0-10.4-0.9-15.4-2.5l-17.8-7.1c-2.7-1.2-5.5-1.8-8.3-1.8ZM154.3 281.8c-8-4.2-12.8-12.8-12.1-21.9l1.7-21.4c0.2-11.9-3.7-23-11.4-31.9l-10.9-12.8c-5.2-6.1-6.8-14.6-4.2-22.2 1.3-3.8 3.6-7.2 6.7-9.8l12.5-10.7c9.4-8 15.3-19.2 16.6-31.4 0.1-1 0.2-2 0.2-3l1.6-20c0.4-4.8 2.2-9.2 5.3-12.8 4.7-5.6 11.9-8.5 19.1-8l23.1 1.8c11.9 0.5 23.6-3.3 32.8-10.9l13.2-11.3c7.1-6 17-7.2 25.3-2.8 2.5 1.3 4.8 3.2 6.7 5.4l12.5 14.6c3.6 3.8 7.7 6.9 12.3 9.3 5.8 3 12.1 4.8 18.7 5.4l18.6 1.5c3.1 0.2 6 1.1 8.7 2.5 8 4.2 12.8 12.8 12.1 21.9l-1.6 20.1c-0.6 12 3.4 23.6 11 32.9l13.9 16.4c3.9 4.6 5.9 10.5 5.4 16.5 -0.5 6-3.3 11.5-7.9 15.5l-17.1 14.6c-8.8 8.1-14.3 19.2-15.4 31.2l-1.3 16c-1 12.5-11.9 21.8-24.4 20.8l-18.2-1.4c-11.8-0.3-23.3 3.8-32.4 11.5l-15.8 13.5c-7.1 6-17 7.2-25.3 2.8 -2.6-1.4-4.8-3.2-6.7-5.4l-14.5-17c-3.8-4.1-8.2-7.6-13.2-10.2 -5.7-3-11.8-4.8-18.3-5.3l-18.8-1.5c-2.9-0.3-5.8-1.1-8.5-2.5Zm119.4-228.7c-8.1-4.2-17.8-3.2-24.7 2.8l-13.2 11.3c-9.3 7.6-21.1 11.6-33.1 11l-23.2-1.8c-7.1-0.6-14.1 2.3-18.7 7.8 -3 3.6-4.8 7.9-5.2 12.6l-1.6 20c0 1-0.1 2-0.2 3 -1.4 12.4-7.3 23.6-16.8 31.7l-12.5 10.7c-3 2.6-5.3 5.9-6.6 9.6 -2.6 7.4-1 15.7 4.1 21.7l10.9 12.8c7.7 9.1 11.7 20.2 11.5 32.3l-1.7 21.4c-0.7 8.9 3.9 17.3 11.8 21.4 2.7 1.4 5.6 2.2 8.6 2.5l18.8 1.5c6.5 0.6 12.7 2.4 18.5 5.4 5 2.6 9.5 6.1 13.3 10.3l14.5 17c1.9 2.2 4.1 3.9 6.6 5.2 8.1 4.2 17.8 3.2 24.7-2.8l15.8-13.5c9.1-7.8 20.7-11.9 32.7-11.6l18.2 1.4c12.2 1 22.9-8.2 23.9-20.4l1.3-16c1.1-12.1 6.6-23.3 15.5-31.5l17.1-14.6c4.5-3.8 7.3-9.2 7.7-15.1 0.5-5.9-1.4-11.7-5.2-16.1l-14-16.4c-7.7-9.3-11.6-21.1-11.1-33.2l1.6-20.2c0.7-8.9-3.9-17.3-11.8-21.4 -2.7-1.4-5.5-2.2-8.6-2.5l-18.6-1.5c-6.7-0.5-13-2.4-18.9-5.4 -4.6-2.4-8.8-5.6-12.4-9.4l-12.5-14.6c-1.7-2.3-3.9-4-6.5-5.4ZM120.4 220.3c-4.9-7.7-4.7-17.5 0.4-25l12.1-17.7c6.1-10.3 8.2-21.8 6-33.4l-3.1-16.5c-1.5-7.9 1.4-16 7.4-21.3 3-2.7 6.7-4.5 10.7-5.2l16.2-3c12.1-2.3 22.8-9 30.1-19 0.6-0.8 1.2-1.6 1.7-2.5l11.3-16.6c2.7-3.9 6.5-6.9 11-8.5 6.8-2.5 14.5-1.5 20.5 2.6l19.2 13.1c10.1 6.4 22.1 8.8 33.9 6.8l17-3.2c9.2-1.7 18.3 2.2 23.4 10.1 1.5 2.4 2.6 5.1 3.2 8l3.5 18.9c1.2 5 3.3 9.8 6.1 14.2 3.5 5.5 8.1 10.2 13.5 13.9l15.4 10.5c2.5 1.8 4.7 3.9 6.3 6.5 4.9 7.7 4.7 17.5-0.4 25l-11.4 16.7c-6.4 10.1-8.8 22.2-6.8 34l4 21.1c1.1 6-0.1 12-3.6 17 -3.4 5-8.6 8.4-14.5 9.5l-22.1 4.2c-11.7 2.7-21.9 9.6-28.8 19.4l-9.1 13.3c-7.1 10.3-21.2 13-31.5 5.9l-15-10.3c-10.1-6.1-22.2-8.3-33.8-6.1l-20.4 3.8c-9.2 1.7-18.3-2.2-23.3-10.1 -1.6-2.4-2.6-5.1-3.2-8l-4.1-21.9c-1.2-5.5-3.4-10.7-6.4-15.4 -3.4-5.4-7.9-10.1-13.2-13.7l-15.6-10.7c-2.8-1.6-4.9-3.8-6.6-6.4Zm217.4-138.9c-4.9-7.7-13.9-11.6-22.8-9.9l-17.1 3.2c-11.9 2-24-0.4-34.2-6.9l-19.2-13.1c-5.9-4-13.4-5-20.1-2.5 -4.4 1.6-8.1 4.5-10.7 8.3l-11.4 16.5c-0.5 0.8-1.1 1.7-1.7 2.5 -7.3 10-18.1 16.9-30.4 19.2l-16.2 3c-3.9 0.7-7.5 2.5-10.5 5.1 -5.9 5.2-8.7 13.1-7.2 20.8l3.1 16.5c2.2 11.7 0.1 23.4-6.1 33.7l-12.1 17.8c-5 7.4-5.2 17-0.4 24.5 1.6 2.5 3.7 4.7 6.2 6.4l15.6 10.7c5.4 3.7 9.9 8.4 13.4 13.9 3 4.8 5.2 10 6.4 15.6l4.1 22c0.5 2.8 1.5 5.4 3.1 7.8 4.9 7.7 13.8 11.6 22.8 9.9l20.4-3.8c11.8-2.2 23.9 0 34.2 6.2l15.1 10.3c10.1 6.9 23.9 4.3 30.9-5.8l9.1-13.3c7-9.9 17.3-16.9 29.2-19.6l22.1-4.1c5.8-1.1 10.9-4.4 14.2-9.3 3.3-4.9 4.6-10.8 3.5-16.6l-4-21.1c-2-11.9 0.4-24.1 6.9-34.3l11.4-16.7c5-7.4 5.2-17 0.4-24.5 -1.6-2.5-3.7-4.7-6.2-6.4l-15.4-10.5c-5.5-3.8-10.1-8.5-13.6-14.1 -2.8-4.4-4.9-9.2-6.1-14.4l-3.5-18.9c-0.7-3.1-1.7-5.7-3.2-8.1Z" fill="#333"/>
  <path d="M370 186.7c0 64.1-51.9 116-116 116 -64.1 0-116-51.9-116-116 0-64.1 51.9-116 116-116 64.1-0.1 116 51.9 116 116Z" style="fill:none;stroke-width:4.6;stroke:#60b5ca"/>
  <path d="M188.4 259.9c0 2-1.6 3.6-3.6 3.6 -2 0-3.6-1.6-3.6-3.6 0-2 1.6-3.6 3.6-3.6 2 0.1 3.6 1.7 3.6 3.6Zm16.4 0c0 2-1.6 3.6-3.6 3.6 -2 0-3.6-1.6-3.6-3.6 0-2 1.6-3.6 3.6-3.6 2 0.1 3.6 1.7 3.6 3.6Zm16.4 0c0 2-1.6 3.6-3.6 3.6 -2 0-3.6-1.6-3.6-3.6 0-2 1.6-3.6 3.6-3.6 2 0.1 3.6 1.7 3.6 3.6Zm70.1 0c0 2-1.6 3.6-3.6 3.6 -2 0-3.6-1.6-3.6-3.6 0-2 1.6-3.6 3.6-3.6 2 0.1 3.6 1.7 3.6 3.6Zm-82.7 224.4l-31.6-45.2 -56.9 20.3 5.8-17.8 57.7-23.4 33.1 45.6m91-203.9c0 2-1.6 3.6-3.6 3.6 -2 0-3.6-1.6-3.6-3.6 0-2 1.6-3.6 3.6-3.6 2 0.1 3.6 1.7 3.6 3.6Zm16.5 0c0 2-1.6 3.6-3.6 3.6 -2 0-3.6-1.6-3.6-3.6 0-2 1.6-3.6 3.6-3.6 2 0.1 3.6 1.7 3.6 3.6Z" fill="#f57915"/>
  <path d="M253.1 342.6c-13.8 47.5-45 143.5-45 143.5l-32.6-44.9 -54.5 19.6c0 0 32.1-98.7 45.8-145.8" class="svg-sharing"/>
  <path d="M297.5 484.3l31.6-45.2 56.9 20.3 -5.7-17.8 -57.8-23.4 -33.1 45.6" fill="#f57915"/>
  <path d="M253.1 342.6c13.8 47.5 45 143.5 45 143.5l32.6-44.9 54.5 19.7c0 0-31.5-95.3-45.2-142.5" class="svg-sharing"/>
  <path d="M208.9 230.3c1.3 1.1 1.9 2.7 1.9 4.9 0 2.2-0.6 3.8-1.9 4.9 -1.3 1-3.3 1.5-5.9 1.5l-2.4 0 0 5 -4 0 0-18 6.4 0c2.6 0.1 4.6 0.7 5.9 1.7Zm-2.9 7.1c0.5-0.5 0.7-1.3 0.7-2.4 0-1-0.3-1.8-0.9-2.2 -0.6-0.4-1.6-0.7-2.9-0.7l-2.3 0 0 6 2.7 0c1.3 0.1 2.2-0.2 2.7-0.7Zm19.7 9.3l-1.7-3.9 -7.5 0 -1.7 3.9 -4.3 0 7.8-18 3.9 0 7.8 18 -4.3 0Zm-5.4-12.6l-2.3 5.2 4.5 0 -2.2-5.2Zm15.8-1.8c-0.4 0.3-0.6 0.7-0.6 1.3 0 0.5 0.2 0.9 0.7 1.2 0.5 0.3 1.6 0.7 3.3 1.1 1.7 0.4 3 1.1 4 1.9 0.9 0.8 1.4 2.1 1.4 3.7 0 1.6-0.6 2.9-1.8 3.9 -1.2 1-2.8 1.5-4.8 1.5 -2.8 0-5.4-1.1-7.7-3.2l2.4-2.9c1.9 1.7 3.7 2.5 5.4 2.5 0.7 0 1.3-0.2 1.7-0.5 0.4-0.3 0.6-0.7 0.6-1.3 0-0.6-0.2-1-0.7-1.3 -0.4-0.3-1.3-0.6-2.7-1 -2.1-0.5-3.6-1.1-4.6-1.9 -1-0.8-1.5-2.1-1.5-3.8 0-1.7 0.6-3 1.8-4 1.2-0.9 2.8-1.4 4.6-1.4 1.2 0 2.4 0.2 3.6 0.6 1.2 0.4 2.2 1 3.1 1.8l-2 2.9c-1.6-1.2-3.2-1.8-4.8-1.8 -0.4 0.2-1 0.4-1.4 0.7Zm16.5 0c-0.4 0.3-0.6 0.7-0.6 1.3 0 0.5 0.2 0.9 0.7 1.2 0.5 0.3 1.6 0.7 3.3 1.1 1.7 0.4 3 1.1 4 1.9 0.9 0.8 1.4 2.1 1.4 3.7 0 1.6-0.6 2.9-1.8 3.9 -1.2 1-2.8 1.5-4.8 1.5 -2.8 0-5.4-1.1-7.7-3.2l2.4-2.9c1.9 1.7 3.7 2.5 5.4 2.5 0.7 0 1.3-0.2 1.7-0.5 0.4-0.3 0.6-0.7 0.6-1.3 0-0.6-0.2-1-0.7-1.3 -0.4-0.3-1.3-0.6-2.7-1 -2.1-0.5-3.6-1.1-4.6-1.9 -1-0.8-1.5-2.1-1.5-3.8 0-1.7 0.6-3 1.8-4 1.2-0.9 2.8-1.4 4.6-1.4 1.2 0 2.4 0.2 3.6 0.6 1.2 0.4 2.2 1 3.1 1.8l-2 2.9c-1.6-1.2-3.2-1.8-4.8-1.8 -0.5 0.2-1.1 0.4-1.4 0.7Zm12.2-3.6l4 0 0 18 -4 0 0-18Zm23.6 15.5c-1.8 1.8-4.1 2.7-6.7 2.7 -2.6 0-4.9-0.9-6.7-2.7 -1.8-1.8-2.7-4-2.7-6.6 0-2.6 0.9-4.9 2.7-6.6 1.8-1.8 4.1-2.7 6.7-2.7 2.6 0 4.9 0.9 6.7 2.7 1.8 1.8 2.7 4 2.7 6.6 0 2.6-0.9 4.9-2.7 6.6Zm-1.4-6.6c0-1.6-0.5-3-1.5-4.1 -1-1.1-2.3-1.7-3.8-1.7 -1.5 0-2.8 0.6-3.8 1.7 -1 1.1-1.5 2.5-1.5 4.1 0 1.6 0.5 3 1.5 4.1 1 1.1 2.3 1.7 3.8 1.7 1.5 0 2.8-0.6 3.8-1.7 1-1.1 1.5-2.5 1.5-4.1Zm20.1-8.9l4 0 0 18 -4 0 -8.6-11.3 0 11.3 -4 0 0-18 3.8 0 8.8 11.6 0-11.6Zm-82.6 51.2l4.4 0 0 6.9c-1.9 2.2-4.6 3.3-8.1 3.3 -2.9 0-5.3-1-7.2-2.9 -2-1.9-2.9-4.3-2.9-7.2 0-2.9 1-5.3 3-7.3 2-1.9 4.4-2.9 7.2-2.9 2.8 0 5.3 0.9 7.3 2.8l-2.3 3.3c-0.9-0.8-1.7-1.3-2.4-1.6 -0.7-0.3-1.5-0.4-2.4-0.4 -1.7 0-3.1 0.6-4.2 1.7 -1.1 1.1-1.7 2.6-1.7 4.5 0 1.9 0.5 3.3 1.6 4.4 1.1 1.1 2.4 1.7 3.9 1.7 1.5 0 2.8-0.3 3.8-0.9l0-5.4Zm24.8 7.3c-2 1.9-4.4 2.9-7.3 2.9 -2.9 0-5.3-1-7.3-2.9 -2-1.9-3-4.3-3-7.2 0-2.9 1-5.3 3-7.2 2-1.9 4.4-2.9 7.3-2.9 2.9 0 5.3 1 7.3 2.9 2 1.9 3 4.3 3 7.2 0 2.9-1.1 5.3-3 7.2Zm-1.5-7.2c0-1.7-0.6-3.2-1.7-4.5 -1.1-1.2-2.5-1.8-4.1-1.8 -1.6 0-3 0.6-4.1 1.8 -1.1 1.2-1.7 2.7-1.7 4.5 0 1.7 0.6 3.2 1.7 4.5 1.1 1.2 2.5 1.8 4.1 1.8 1.6 0 3-0.6 4.1-1.8 1.1-1.3 1.7-2.8 1.7-4.5Zm24.6 7.2c-2 1.9-4.4 2.9-7.3 2.9 -2.9 0-5.3-1-7.3-2.9 -2-1.9-3-4.3-3-7.2 0-2.9 1-5.3 3-7.2 2-1.9 4.4-2.9 7.3-2.9 2.9 0 5.3 1 7.3 2.9 2 1.9 3 4.3 3 7.2 0 2.9-1 5.3-3 7.2Zm-1.5-7.2c0-1.7-0.6-3.2-1.7-4.5 -1.1-1.2-2.5-1.8-4.1-1.8 -1.6 0-3 0.6-4.1 1.8 -1.1 1.2-1.7 2.7-1.7 4.5 0 1.7 0.6 3.2 1.7 4.5 1.1 1.3 2.5 1.8 4.1 1.8 1.6 0 3-0.6 4.1-1.8 1.1-1.2 1.7-2.8 1.7-4.5Zm23.1-7.1c1.9 1.7 2.8 4.1 2.8 7.1 0 3-0.9 5.5-2.7 7.2 -1.8 1.8-4.6 2.7-8.3 2.7l-6.7 0 0-19.6 6.9 0c3.5 0 6.2 0.9 8 2.6Zm-3.2 11.6c1.1-1 1.6-2.5 1.6-4.4 0-1.9-0.5-3.4-1.6-4.4 -1.1-1-2.7-1.6-4.9-1.6l-2.4 0 0 11.9 2.8 0c1.9 0 3.5-0.5 4.5-1.5Zm-44.9-30.7l0 2.1 -5 0 0 2.3 4.7 0 0 2.1 -4.6 0 0 4.2 -2.4 0 0-10.7 7.3 0Zm11 9.3c-1.1 1.1-2.4 1.6-4 1.6 -1.6 0-2.9-0.5-4-1.6 -1.1-1.1-1.6-2.4-1.6-3.9 0-1.6 0.5-2.9 1.6-3.9 1.1-1.1 2.4-1.6 4-1.6 1.6 0 2.9 0.5 4 1.6 1.1 1.1 1.6 2.4 1.6 3.9 0 1.5-0.5 2.8-1.6 3.9Zm-0.8-4c0-1-0.3-1.8-0.9-2.4 -0.6-0.7-1.4-1-2.3-1 -0.9 0-1.6 0.3-2.3 1 -0.6 0.7-0.9 1.5-0.9 2.4 0 1 0.3 1.8 0.9 2.4 0.6 0.7 1.4 1 2.3 1 0.9 0 1.6-0.3 2.3-1 0.6-0.6 0.9-1.4 0.9-2.4Zm13.1-1.7c0 1.7-0.7 2.8-2 3.3l2.7 3.8 -2.9 0 -2.4-3.4 -1.7 0 0 3.4 -2.4 0 0-10.7 4 0c1.7 0 2.8 0.3 3.6 0.8 0.8 0.6 1.1 1.5 1.1 2.8Zm-2.9 1.3c0.3-0.3 0.4-0.7 0.4-1.3 0-0.6-0.2-1-0.5-1.2 -0.3-0.2-0.8-0.3-1.6-0.3l-1.8 0 0 3.2 1.7 0c1 0 1.5-0.2 1.8-0.4Z" fill="#333"/>
  <path d="M155.8 217.9l198.2 0m-198.2-67.4l198.2 0" style="fill:none;stroke-width:5.8;stroke:#f57915"/>
  <path d="M158.1 159.3l20.7 0 0 51 -11 0 0-41.3 -9.7 0 0-9.7Zm52.3 51.7c-7.1 0-12.3-2.4-15.8-7.2 -3.5-4.8-5.3-11.2-5.3-19.2 0-8 1.8-14.4 5.3-19.2 3.5-4.8 8.8-7.2 15.8-7.2 7.1 0 12.3 2.4 15.8 7.2 3.5 4.8 5.3 11.2 5.3 19.2 0 8-1.8 14.4-5.3 19.2 -3.4 4.8-8.7 7.2-15.8 7.2Zm-7.5-38.7c-1.6 3.1-2.4 7.2-2.4 12.3 0 5.1 0.8 9.2 2.4 12.3 1.6 3.1 4.1 4.7 7.5 4.7 3.4 0 5.9-1.6 7.5-4.7 1.6-3.1 2.4-7.2 2.4-12.3 0-5.1-0.8-9.2-2.4-12.3 -1.6-3.1-4.1-4.7-7.5-4.7 -3.4 0-5.9 1.6-7.5 4.7Zm57.9 38.7c-7.1 0-12.3-2.4-15.8-7.2 -3.5-4.8-5.3-11.2-5.3-19.2 0-8 1.8-14.4 5.3-19.2 3.5-4.8 8.8-7.2 15.8-7.2 7.1 0 12.3 2.4 15.8 7.2 3.5 4.8 5.3 11.2 5.3 19.2 0 8-1.8 14.4-5.3 19.2 -3.5 4.8-8.7 7.2-15.8 7.2Zm-7.5-38.7c-1.6 3.1-2.4 7.2-2.4 12.3 0 5.1 0.8 9.2 2.4 12.3 1.6 3.1 4.1 4.7 7.5 4.7 3.4 0 5.9-1.6 7.5-4.7 1.6-3.1 2.4-7.2 2.4-12.3 0-5.1-0.8-9.2-2.4-12.3 -1.6-3.1-4.1-4.7-7.5-4.7 -3.4 0-5.9 1.6-7.5 4.7Zm66.8-0.6c0 2.8-1 5.1-3 7.1 -2 1.9-4.5 2.9-7.5 2.9 -3 0-5.5-1-7.5-2.9 -2-1.9-3-4.3-3-7.1 0-2.8 1-5.1 3-7.1 2-1.9 4.5-2.9 7.5-2.9 3 0 5.5 1 7.5 2.9 2 2 3 4.3 3 7.1Zm27.2-11.2l-35.6 49.6 -12.2 0 35.6-49.6 12.2 0Zm-39.8 13.7c0.5 0.6 1.2 1 2.1 1 0.9 0 1.6-0.3 2.1-1 0.6-0.6 0.9-1.5 0.9-2.5 0-1-0.3-1.9-0.9-2.6 -0.6-0.7-1.3-1-2.1-1 -0.8 0-1.5 0.3-2.1 1 -0.6 0.7-0.9 1.6-0.9 2.6 0 1.1 0.3 1.9 0.9 2.5Zm40.5 26.6c0 2.8-1 5.1-3 7.1 -2 1.9-4.5 2.9-7.5 2.9 -3 0-5.5-1-7.5-2.9 -2-1.9-3-4.3-3-7.1 0-2.8 1-5.1 3-7.1 2-1.9 4.5-2.9 7.5-2.9 3 0 5.5 1 7.5 2.9 2.1 1.9 3 4.3 3 7.1Zm-12.6 2.5c0.5 0.6 1.2 1 2.1 1 0.9 0 1.6-0.3 2.1-1 0.5-0.7 0.9-1.5 0.9-2.5 0-1-0.3-1.9-0.9-2.6 -0.6-0.7-1.3-1-2.1-1 -0.8 0-1.5 0.3-2.1 1 -0.6 0.7-0.9 1.6-0.9 2.6 0.1 1 0.4 1.8 0.9 2.5Zm-81.3-81.9c0.7-2.2 1.8-3.9 3.2-5 1.4-1.1 3.2-1.7 5.2-1.7 2.4 0 4.4 0.7 5.8 2.2 1.5 1.5 2.2 3.4 2.2 5.9 0 2.1-0.5 3.9-1.5 5.1 -1 1.3-3 2.6-5.9 3.8l-0.4 0.2c-4.8 2-7.7 4.3-8.7 6.7 -1-2.5-3.9-4.7-8.7-6.7 -0.2-0.1-0.3-0.1-0.4-0.2 -2.9-1.2-4.9-2.5-5.9-3.8 -1-1.3-1.5-3-1.5-5.2 0-2.4 0.7-4.4 2.2-5.9 1.5-1.5 3.4-2.2 5.8-2.2 2.1 0 3.8 0.6 5.2 1.7 1.7 1.2 2.7 2.9 3.4 5.1Z" fill="#333"/>
</svg>
