<svg xmlns="http://www.w3.org/2000/svg" viewBox="0 0 24 24">
  <title>Slideshare icon</title>
  <path d="M11.7 9.9c0 1.5-1.3 2.7-2.9 2.7 -1.6 0-2.9-1.2-2.9-2.7 0-1.5 1.3-2.7 2.9-2.7 1.6 0 2.9 1.2 2.9 2.7Zm11.9 2.3c-0.9 1.1-2.5 2.4-5 3.4 2.6 9-6.4 10.4-6.3 5.8 0 0.1 0-2.5 0-4.4 -0.2 0-0.4-0.1-0.6-0.1 0 1.9 0 4.6 0 4.5 0.1 4.6-8.9 3.2-6.3-5.8 -2.5-1-4.1-2.3-5-3.4 -0.4-0.6 0-1.3 0.8-0.8 0.1 0.1 0.2 0.1 0.3 0.2l0-9.3c0-1.3 1-2.3 2.2-2.3l16.8 0c1.2 0 2.2 1 2.2 2.3l0 9.3 0.3-0.2c0.7-0.5 1.2 0.2 0.8 0.8Zm-2.2-8.9c0-1.5-0.5-2.1-1.9-2.1l-14.9 0c-1.5 0-1.9 0.5-1.9 2.1l0 9c3.2 1.7 5.9 1.4 7.4 1.3 0.6 0 1 0.1 1.3 0.4 0.1 0.1 0.5 0.4 1 0.8 0.1-0.7 0.5-1.2 1.6-1.2 1.5 0.1 4.3 0.4 7.5-1.4l0-8.9 0 0Zm-5.9 3.8c-1.6 0-2.9 1.2-2.9 2.7 0 1.5 1.3 2.7 2.9 2.7 1.6 0 2.9-1.2 2.9-2.7 0-1.5-1.3-2.7-2.9-2.7Z"/>
</svg>
