<svg xmlns="http://www.w3.org/2000/svg" viewBox="0 0 24 24">
    <title>Soundcloud</title>
    <path d="M4.2 12l0.2 2.4 -0.2 2.6c0 0.1-0.1 0.2-0.2 0.2 -0.1 0-0.2-0.1-0.2-0.2l-0.2-2.6 0.2-2.4c0-0.1 0.1-0.2 0.2-0.2 0.1 0 0.2 0.1 0.2 0.2Zm0.8-1.7c-0.1 0-0.2 0.1-0.2 0.2l-0.2 4 0.2 2.6c0 0.1 0.1 0.2 0.2 0.2 0.1 0 0.2-0.1 0.2-0.2l0.2-2.6 -0.2-4c0-0.1-0.1-0.2-0.2-0.2Zm1-0.9c-0.1 0-0.2 0.1-0.2 0.2l-0.2 4.9 0.2 2.5c0 0.1 0.1 0.2 0.2 0.2 0.1 0 0.2-0.1 0.2-0.2l0.2-2.5 -0.2-4.9c0-0.1-0.1-0.2-0.2-0.2Zm-5.7 3.6c-0.1 0-0.1 0-0.1 0.1l-0.2 1.3 0.2 1.3c0 0.1 0 0.1 0.1 0.1 0.1 0 0.1 0 0.1-0.1l0.2-1.3 -0.2-1.3c0-0.1 0-0.1-0.1-0.1Zm0.9-0.8c-0.1 0-0.1 0-0.1 0.1l-0.2 2.2 0.2 2.1c0 0.1 0 0.1 0.1 0.1 0.1 0 0.1 0 0.1-0.1l0.3-2.1 -0.3-2.2c0-0.1-0.1-0.1-0.1-0.1Zm0.9-0.4c-0.1 0-0.1 0.1-0.1 0.1l-0.2 2.6 0.2 2.5c0 0.1 0.1 0.1 0.1 0.1 0.1 0 0.1-0.1 0.1-0.1l0.3-2.5 -0.3-2.6c0-0.1-0.1-0.1-0.1-0.1Zm0.9-0.1c-0.1 0-0.1 0.1-0.1 0.1l-0.2 2.6 0.2 2.5c0 0.1 0.1 0.1 0.1 0.1 0.1 0 0.1-0.1 0.1-0.1l0.2-2.5 -0.2-2.6c0-0.1-0.1-0.1-0.1-0.1Zm9.1-4.2c0 0-0.1-0.1-0.2-0.1 -0.1 0-0.2 0-0.2 0.1 -0.1 0.1-0.1 0.2-0.1 0.3l0 0 -0.1 6.6 0.1 1.2 0.1 1.2c0 0.2 0.2 0.3 0.3 0.3 0.2 0 0.3-0.1 0.3-0.3l0.1-2.4 -0.1-6.7c0-0.1-0.1-0.2-0.2-0.3Zm-1 0.6c-0.1 0-0.1-0.1-0.2-0.1 -0.1 0-0.1 0-0.2 0.1 -0.1 0.1-0.1 0.1-0.1 0.3l0 0.1 -0.1 6c0 0 0 0 0.1 2.5l0 0c0 0.1 0 0.1 0.1 0.2 0.1 0.1 0.1 0.1 0.2 0.1 0.1 0 0.2 0 0.2-0.1 0.1-0.1 0.1-0.1 0.1-0.2l0-0.3 0.1-2.2 -0.1-6.1c0-0.1-0.1-0.2-0.1-0.3Zm-4.2 0.8c-0.1 0-0.2 0.1-0.2 0.2l-0.2 5.3 0.2 2.5c0 0.1 0.1 0.2 0.2 0.2 0.1 0 0.2-0.1 0.2-0.2l0.2-2.5 -0.2-5.3c0-0.1-0.1-0.2-0.2-0.2Zm14.1 2.4c-0.4 0-0.8 0.1-1.1 0.2 -0.2-2.7-2.5-4.7-5.2-4.7 -0.7 0-1.3 0.1-1.9 0.4 -0.2 0.1-0.3 0.2-0.3 0.3l0 9.4c0 0.2 0.1 0.3 0.3 0.3l8.2 0c1.6 0 2.9-1.3 2.9-2.9 0-1.6-1.3-3-2.9-3Zm-11.1-2.3c-0.2 0-0.3 0.1-0.3 0.3l-0.1 5.1 0.1 2.5c0 0.2 0.1 0.3 0.3 0.3 0.2 0 0.3-0.1 0.3-0.3l0.1-2.5 -0.1-5.1c0-0.2-0.1-0.3-0.3-0.3Zm-2-0.3c-0.1 0-0.2 0.1-0.2 0.3l-0.1 5.4 0.1 2.5c0 0.1 0.1 0.2 0.2 0.2 0.1 0 0.2-0.1 0.3-0.2l0.2-2.5 -0.2-5.4c0-0.1-0.1-0.3-0.3-0.3Zm1 0.1c-0.1 0-0.3 0.1-0.3 0.3l-0.1 5.3 0.1 2.5c0 0.1 0.1 0.3 0.3 0.3 0.1 0 0.3-0.1 0.3-0.3l0.2-2.5 -0.2-5.3c0-0.1-0.1-0.3-0.3-0.3Z"/>
</svg>
